<svg width="65" height="27" viewBox="0 0 65 27" fill="none" xmlns="http://www.w3.org/2000/svg">
<g clip-path="url(#clip0)">
<path d="M11.8832 3.48097C11.1215 4.39296 9.90271 5.11227 8.68396 5.00951C8.53162 3.7764 9.1283 2.46622 9.82654 1.65699C10.5883 0.719315 11.9213 0.0513796 13.0004 0C13.1273 1.28449 12.6322 2.54329 11.8832 3.48097ZM12.9877 5.25357C11.223 5.15081 9.71228 6.26832 8.87439 6.26832C8.0238 6.26832 6.74158 5.30495 5.34509 5.33064C3.52966 5.35633 1.84119 6.39677 0.914429 8.05376C-0.989868 11.3677 0.419312 16.2745 2.26013 18.9719C3.1615 20.3078 4.2406 21.7721 5.66248 21.7207C7.00818 21.6694 7.54138 20.8344 9.16638 20.8344C10.8041 20.8344 11.2738 21.7207 12.6957 21.6951C14.1683 21.6694 15.0951 20.3592 15.9965 19.0233C17.0248 17.5076 17.4437 16.0304 17.4691 15.9534C17.4437 15.9277 14.6254 14.8359 14.6 11.5476C14.5746 8.79876 16.8217 7.48858 16.9232 7.41151C15.6537 5.51047 13.6732 5.30495 12.9877 5.25357ZM23.182 1.52854V21.5538H26.2543V14.7074H30.5072C34.392 14.7074 37.1215 12.01 37.1215 8.10514C37.1215 4.20029 34.4427 1.52854 30.6088 1.52854H23.182ZM26.2543 4.14891H29.7963C32.4623 4.14891 33.9857 5.58754 33.9857 8.11798C33.9857 10.6484 32.4623 12.0999 29.7836 12.0999H26.2543V4.14891ZM42.7328 21.7079C44.6625 21.7079 46.4525 20.7188 47.265 19.1518H47.3285V21.5538H50.1722V11.5861C50.1722 8.696 47.8871 6.83349 44.3705 6.83349C41.1078 6.83349 38.6957 8.72169 38.6068 11.3164H41.3744C41.6029 10.0833 42.7328 9.27402 44.2816 9.27402C46.1605 9.27402 47.2142 10.1603 47.2142 11.7916V12.8963L43.3802 13.1275C39.8129 13.3459 37.8832 14.823 37.8832 17.392C37.8832 19.9867 39.8763 21.7079 42.7328 21.7079ZM43.558 19.3316C41.9203 19.3316 40.8793 18.5352 40.8793 17.3149C40.8793 16.0561 41.8822 15.324 43.7992 15.2084L47.2142 14.99V16.1204C47.2142 17.9957 45.64 19.3316 43.558 19.3316ZM53.9681 27C56.9642 27 58.3734 25.844 59.6049 22.3373L65.0004 7.02617H61.8773L58.2592 18.8563H58.1957L54.5775 7.02617H51.3656L56.5707 21.6051L56.2914 22.4914C55.8217 23.9943 55.0599 24.5723 53.7015 24.5723C53.4603 24.5723 52.9906 24.5466 52.8002 24.5209V26.9229C52.9779 26.9743 53.7396 27 53.9681 27Z" fill="white"/>
</g>
<defs>
<clipPath id="clip0">
<rect width="65" height="27" fill="white"/>
</clipPath>
</defs>
</svg>
