<svg width="43" height="43" viewBox="0 0 53 53" fill="none" xmlns="http://www.w3.org/2000/svg">
<path d="M53 26.4998C53 17.866 45.9903 10.7708 37.271 10.7708C33.5097 10.7708 30.0903 12.0531 27.3548 14.2757C29.4065 16.2418 31.0306 18.7208 31.8 21.5418H30.5177C29.6629 19.0627 28.2952 16.8402 26.4145 15.045C24.5339 16.8402 23.1661 19.0627 22.3113 21.5418H21.029C21.8839 18.7208 23.4226 16.2418 25.4742 14.2757C22.7387 12.0531 19.4048 10.7708 15.6435 10.7708C7.00968 10.7708 0 17.866 0 26.4998C0 35.1337 7.00968 42.2289 15.729 42.2289C19.4903 42.2289 22.9097 40.8611 25.5597 38.724C23.5081 36.7579 21.9694 34.2789 21.1145 31.4579H22.3968C23.2516 33.9369 24.6194 36.1595 26.5 37.9547C28.3806 36.1595 29.8339 33.9369 30.6032 31.4579H31.8855C31.0306 34.2789 29.4919 36.7579 27.4403 38.724C30.1758 40.9466 33.5952 42.2289 37.3565 42.2289C45.9903 42.2289 53 35.1337 53 26.4998Z" fill="white"/>
<path d="M41.459 30.1757L42.5703 24.3628H43.938L44.109 24.9612C44.3654 24.7048 44.7929 24.3628 45.6477 24.3628L45.2203 25.9015C44.7929 25.9015 44.109 25.816 43.5961 27.5257L43.0832 30.1757H41.459Z" fill="#353535"/>
<path d="M20.5157 22.9097H22.0544L21.7125 24.4484H22.5673L22.3109 25.6452H21.5415L21.1141 27.9532C21.0286 28.3806 21.1141 28.8081 21.9689 28.6371L21.798 29.9193C21.456 30.1758 21.0286 30.1758 20.6012 30.1758C20.2592 30.1758 19.0625 29.9193 19.3189 28.3806L20.5157 22.9097Z" fill="#353535"/>
<path d="M27.3544 27.6112C27.5254 26.6709 27.9528 24.3628 25.2173 24.3628C22.6528 24.3628 22.3109 26.9273 22.3109 27.2693C22.2254 27.6112 22.2254 30.1757 24.9609 30.1757C25.6447 30.1757 26.5851 30.0902 27.0125 29.9193L27.2689 28.7225C27.0125 28.808 26.1576 28.8935 25.4738 28.8935C24.8754 28.8935 23.8496 28.8935 24.0205 27.6112H27.3544Z" fill="#353535"/>
<path d="M18.9754 25.7305L19.3173 24.5337C18.5479 24.2773 17.9496 24.2773 17.7786 24.2773C17.5221 24.2773 15.6415 24.2773 15.385 25.645C15.1286 26.7563 15.556 27.1837 15.8979 27.3547C16.4963 27.6112 16.8383 27.8676 17.1802 28.0386C17.6076 28.2095 17.5221 28.8934 17.0092 28.8934C16.7528 28.8934 15.727 28.9789 14.9576 28.7224L14.7012 29.9192C15.4705 30.0902 15.9834 30.0902 16.5818 30.0902C17.0092 30.0902 18.8899 30.1757 19.1463 28.466C19.3173 27.6112 18.8899 27.2692 18.6334 27.0128C18.2915 26.8418 17.8641 26.4999 17.5221 26.4144C17.1802 26.2434 16.9238 25.7305 17.5221 25.5595C17.7786 25.645 18.5479 25.645 18.9754 25.7305Z" fill="#353535"/>
<path d="M8.7188 30.176L10.0865 23.1663H7.43654L5.5559 27.4405L5.21396 23.1663H2.73493L1.36719 30.176H2.9059L3.9317 25.1325L4.35912 30.176H5.81235L8.03493 25.2179L7.09461 30.176H8.7188Z" fill="#353535"/>
<path d="M10.5134 24.5337L10.257 25.8159C10.6844 25.8159 11.7102 25.645 12.2231 25.645C12.736 25.645 13.4199 25.5595 13.1634 26.4143C12.736 26.4143 9.91505 25.9869 9.48764 28.4659C9.31667 29.6627 10.3425 30.2611 11.1118 30.2611C11.8812 30.2611 12.1376 30.0901 12.3941 29.9191L12.5651 30.2611H14.0183L14.6167 27.0982C14.7876 26.3288 15.0441 24.4482 12.3941 24.4482C12.0521 24.3627 11.5392 24.3627 10.5134 24.5337Z" fill="#353535"/>
<path d="M36.0728 24.7903C35.6454 24.5338 35.3889 24.5338 34.876 24.5338C34.3631 24.5338 33.1663 25.0467 32.9954 26.4145C32.7389 28.1241 33.8502 28.8935 35.4744 28.3806L35.9018 29.8338C35.3889 30.0903 34.876 30.1758 34.0212 30.1758C32.397 30.1758 30.6018 28.7225 31.3712 25.7306C31.9696 23.5935 33.8502 22.7387 34.9615 22.8242C36.2437 22.9096 36.7566 23.3371 37.0986 23.7645L36.0728 24.7903Z" fill="#353535"/>
<path d="M49.4945 25.0467C49.1526 24.7903 48.9816 24.3628 48.2978 24.3628C47.4429 24.3628 46.0752 24.1919 45.3058 26.8419C44.7929 28.637 45.8187 30.1757 46.93 30.1757C47.4429 30.1757 47.9558 29.9193 48.2978 29.7483L48.4687 30.1757H50.1784L51.5462 22.8241H49.922L49.4945 25.0467Z" fill="#353535"/>
<path d="M37.1853 24.5337L36.9289 25.8159C37.3563 25.8159 38.3821 25.645 38.895 25.645C39.4079 25.645 40.0063 25.5595 39.8353 26.4143C39.4079 26.4143 36.5869 25.9869 36.1595 28.4659C35.9885 29.6627 37.0143 30.2611 37.7837 30.2611C38.5531 30.2611 38.8095 30.0901 39.066 29.9191L39.2369 30.2611H40.6902L41.2885 27.0982C41.4595 26.3288 41.716 24.4482 39.066 24.4482C38.8095 24.3627 38.2111 24.3627 37.1853 24.5337Z" fill="#353535"/>
<path d="M24.0234 26.4996H25.9896C26.075 25.9012 25.9041 25.4738 25.3057 25.4738C24.6218 25.4738 24.1944 25.8158 24.0234 26.4996Z" fill="#EEEEEE"/>
<path d="M12.9089 27.6108C12.6524 27.6108 12.054 27.4398 11.5411 27.7817C11.0282 28.1237 10.8572 28.722 11.4556 28.893C11.9685 29.064 12.6524 28.722 12.8234 28.2091L12.9089 27.6108Z" fill="#EEEEEE"/>
<path d="M48.9831 27.4401C49.1541 26.9272 49.0686 26.2434 48.8976 25.9869C48.3847 25.3031 47.2734 25.816 46.9315 27.0982C46.675 27.9531 47.1879 28.5514 47.7008 28.5514C48.2992 28.5514 48.6412 28.124 48.9831 27.4401Z" fill="#EEEEEE"/>
<path d="M39.6647 27.6108C39.4083 27.6108 38.8099 27.4398 38.297 27.7817C37.7841 28.1237 37.6131 28.722 38.2115 28.893C38.7244 29.064 39.4937 28.722 39.5792 28.2091L39.6647 27.6108Z" fill="#EEEEEE"/>
<path d="M27.3555 30.1758L28.4668 24.4484H29.8345L30.0055 25.0468C30.2619 24.7903 30.6893 24.4484 31.5442 24.4484L31.1168 25.9871C30.7748 25.9871 30.0055 25.9016 29.4926 27.6113L28.9797 30.2613H27.3555" fill="#353535"/>
<path d="M15.7297 10.7708C8.80547 10.7708 2.90708 15.3015 0.855469 21.5418H21.2006C22.0555 18.7208 23.5942 16.2418 25.6458 14.2757C22.8248 12.1386 19.4055 10.7708 15.7297 10.7708Z" fill="white"/>
<path d="M26.4997 15.1307C24.6191 16.9258 23.2513 19.0629 22.3965 21.6274H30.6029C29.7481 19.1484 28.3804 16.9258 26.4997 15.1307Z" fill="white"/>
<path d="M37.2716 10.7708C33.5103 10.7708 30.091 12.0531 27.3555 14.2757C29.4071 16.2418 30.9458 18.7208 31.8006 21.5418H52.1458C50.1797 15.3015 44.2813 10.7708 37.2716 10.7708Z" fill="white"/>
</svg>
