<svg width="52" height="23" viewBox="0 0 82 23" fill="none" xmlns="http://www.w3.org/2000/svg">
<path fill-rule="evenodd" clip-rule="evenodd" d="M7.535 0.00377981C8.26295 -0.000560152 10.4264 -0.194743 11.3428 2.88747C11.9601 4.96368 12.9434 8.36462 14.2928 13.0903H14.8423C16.2893 8.10816 17.2834 4.70722 17.8244 2.88747C18.7504 -0.22685 21.0652 0.00384084 21.9912 0.00384084L29.135 0.00384972V22.1501H21.8538V9.09893H21.3655L17.3066 22.1501H11.8284L7.76949 9.08926H7.28123V22.1501H0V0.00384972L7.535 0.00377981ZM39.5907 0.00384972V13.0647H40.1716L45.1089 2.32486C46.0673 0.187596 48.11 0.00384972 48.11 0.00384972H55.1561V22.1501H47.7228V9.08926H47.1419L42.3014 19.8291C41.343 21.9567 39.2035 22.1501 39.2035 22.1501H32.1574V0.00384972H39.5907ZM80.8489 10.5279C79.812 13.456 76.5558 15.5531 72.9508 15.5531H65.1555V22.1501H58.0869V10.5279H80.8489Z" fill="white"/>
<path fill-rule="evenodd" clip-rule="evenodd" d="M73.2903 0.00372314H57.7148C58.0855 4.93423 62.3462 9.15507 66.7569 9.15507H81.3386C82.1801 5.05724 79.2833 0.00372314 73.2903 0.00372314Z" fill="url(#paint0_linear)"/>
<defs>
<linearGradient id="paint0_linear" x1="81.4816" y1="5.76032" x2="57.7148" y2="5.76032" gradientUnits="userSpaceOnUse">
<stop stop-color="white"/>
<stop offset="1" stop-color="white"/>
</linearGradient>
</defs>
</svg>
