<svg width="169" height="25" viewBox="0 0 169 25" fill="none" xmlns="http://www.w3.org/2000/svg">
<path d="M143.216 0.459418V1.91424C141.771 0.689127 139.956 0 138.067 0C133.399 0 129.583 4.21133 129.583 9.37979C129.583 14.5482 133.362 18.7596 138.067 18.7596C139.956 18.7596 141.771 18.0704 143.216 16.8453V18.4533H147.106V0.459418H143.216ZM138.511 15.2374C135.696 15.2374 133.399 12.634 133.399 9.37979C133.399 6.12557 135.696 3.56049 138.511 3.56049C141.327 3.56049 143.623 6.16386 143.623 9.41807C143.623 12.6723 141.327 15.2374 138.511 15.2374ZM118.914 0C117.025 0 115.173 0.689127 113.728 1.99081V0.459418H109.801V25H113.691V16.807C115.136 18.0704 116.988 18.7596 118.877 18.7979C123.545 18.7979 127.36 14.5865 127.36 9.41807C127.36 4.24962 123.619 0 118.914 0ZM118.47 15.2374C115.654 15.2374 113.357 12.634 113.357 9.37979C113.357 6.12557 115.654 3.52221 118.47 3.52221C121.285 3.52221 123.582 6.12557 123.582 9.37979C123.582 12.634 121.285 15.2374 118.47 15.2374ZM163.665 0.459418L158.664 12.7106L153.329 0.459418H149.476L156.811 17.3047L153.663 25H157.478L167.48 0.459418H163.665ZM85.0548 2.94793L85.24 14.8162H85.1659L81.7948 2.94793H76.3492V17.9173H79.9425L79.7573 5.62787H79.8314L83.4618 17.9173H88.6852V2.94793H85.0548ZM16.1506 2.94793L13.4463 18.0704H17.4102L19.4106 4.32619H19.4847L21.4481 18.0704H25.3749L22.6706 2.94793H16.1506ZM38.2666 2.94793L36.4514 14.51H36.3773L34.5991 2.94793H28.5978L28.2644 18.0704H31.9319L32.006 4.47933H32.0801L34.5621 18.0704H38.2666L40.7116 4.47933H40.7857L40.8598 18.0704H44.5273L44.1939 2.94793H38.2666ZM7.2968 13.7825C7.40793 14.1654 7.40793 14.5482 7.33384 14.9311C7.22271 15.4288 6.8893 15.9265 5.88908 15.9265C4.96294 15.9265 4.40727 15.3905 4.40727 14.5482V13.0551H0.480469V14.2037C0.480469 17.5727 3.03659 18.6064 5.81499 18.6064C8.48224 18.6064 10.6309 17.6876 11.0013 15.1608C11.1495 14.3185 11.1495 13.5145 11.0013 12.6723C10.3716 9.49464 4.81476 8.5758 4.40727 6.77642C4.37022 6.50842 4.37022 6.24043 4.40727 5.97243C4.5184 5.47473 4.81476 4.93874 5.74089 4.93874C6.44475 4.86217 7.03748 5.39816 7.11157 6.08729C7.11157 6.16386 7.11157 6.24043 7.11157 6.317V7.23583H10.779V6.16386C10.779 2.87136 7.92657 2.33538 5.85203 2.33538C3.25886 2.33538 1.11024 3.21593 0.739786 5.70444C0.591605 6.39357 0.591605 7.0827 0.739786 7.77182C1.33251 10.9495 6.51885 11.83 7.2968 13.7825ZM54.8629 13.7825C54.974 14.1271 54.974 14.51 54.8999 14.8928C54.7888 15.3905 54.4554 15.8882 53.4922 15.8882C52.6031 15.8882 52.0475 15.3522 52.0475 14.5482V13.0934H48.1577V14.242C48.1577 17.5727 50.7138 18.5681 53.4181 18.5681C56.0484 18.5681 58.197 17.6493 58.5304 15.1608C58.6786 14.3568 58.6786 13.5145 58.5304 12.7106C57.9006 9.60949 52.3809 8.65237 52.0104 6.89127C51.9734 6.62328 51.9734 6.39357 52.0104 6.12557C52.1216 5.62787 52.4179 5.13017 53.344 5.13017C54.0109 5.0536 54.6406 5.58959 54.6777 6.27871C54.6777 6.35528 54.6777 6.39357 54.6777 6.47014V7.38897H58.2711V6.317C58.2711 3.06279 55.4556 2.5268 53.3811 2.5268C50.7879 2.5268 48.7134 3.40735 48.3059 5.85758C48.1948 6.50842 48.1948 7.19755 48.3429 7.88668C48.9727 10.9495 54.122 11.83 54.8629 13.7825ZM67.1619 15.7734C67.8287 15.8499 68.4215 15.3522 68.5696 14.7014C68.6067 14.51 68.6067 14.3185 68.6067 14.1271V2.94793H72.3112V13.7825C72.3112 14.0505 72.2742 14.6248 72.2742 14.7779C72.0149 17.611 69.8662 18.5299 67.1619 18.5299C64.4576 18.5299 62.309 17.611 62.0497 14.7779C62.0497 14.6248 62.0126 14.0505 62.0126 13.7825V2.94793H65.7172V14.1271C65.7172 14.3185 65.7172 14.51 65.7542 14.7014C65.9024 15.3905 66.4951 15.8499 67.1619 15.7734ZM97.6872 15.6202C98.7615 15.6202 99.132 14.9311 99.169 14.5482C99.2061 14.3568 99.2061 14.1654 99.2061 13.974V11.7917H97.7243V9.57121H102.911V13.6294C102.911 13.8974 102.911 14.1271 102.874 14.6248C102.651 17.3813 100.317 18.3767 97.7243 18.3767C95.1311 18.3767 92.8343 17.3813 92.575 14.6248C92.5379 14.1271 92.5379 13.8974 92.5379 13.6294V7.23583C92.5379 6.89127 92.575 6.58499 92.612 6.24043C92.9454 3.40735 95.1681 2.48851 97.7613 2.48851C100.354 2.48851 102.614 3.36907 102.911 6.24043C102.948 6.58499 102.948 6.89127 102.948 7.23583V7.73354H99.2431V6.89127C99.2431 6.69985 99.2431 6.50842 99.2061 6.317C99.132 5.97243 98.8727 5.20674 97.7243 5.20674C97.0204 5.13017 96.4277 5.62787 96.2795 6.317C96.2425 6.54671 96.2054 6.77642 96.2054 7.04441V13.974C96.2054 14.1654 96.2054 14.3568 96.2425 14.5482C96.2425 14.9311 96.6129 15.6202 97.6872 15.6202Z" fill="white"/>
</svg>
