<svg width="52" height="52" viewBox="0 0 62 62" fill="none" xmlns="http://www.w3.org/2000/svg">
<path d="M24.8248 21.774L21.6738 40.2649H26.7133L29.8668 21.774H24.8248Z" fill="white"/>
<path d="M17.4489 21.7947L12.5132 34.4049L11.9869 32.5009C11.0135 30.2067 8.25012 26.9119 5.00586 24.8354L9.51905 40.2557L14.8514 40.2466L22.7877 21.7908L17.4489 21.7947Z" fill="white"/>
<path d="M10.0737 23.1181C9.78074 21.9917 8.93176 21.656 7.87799 21.6158H0.0648075L0 21.984C6.08024 23.459 10.1035 27.013 11.7729 31.2864L10.0737 23.1181Z" fill="white"/>
<path d="M40.0808 25.3189C41.7295 25.293 42.9246 25.6533 43.8526 26.0266L44.3076 26.2404L44.9894 22.2328C43.9913 21.8582 42.4269 21.4564 40.4749 21.4564C35.4951 21.4564 31.9851 23.9644 31.9579 27.5586C31.9255 30.2144 34.4581 31.6972 36.3713 32.5825C38.3349 33.4898 38.9934 34.0666 38.9843 34.8767C38.9687 36.1145 37.4186 36.6822 35.9708 36.6822C33.9527 36.6822 32.8807 36.4036 31.2256 35.714L30.5762 35.4185L29.8672 39.5571C31.0467 40.0742 33.2229 40.5188 35.4821 40.5422C40.7795 40.5422 44.222 38.0639 44.2583 34.2234C44.2804 32.1224 42.9363 30.519 40.0238 29.2034C38.261 28.3454 37.1827 27.7751 37.193 26.9093C37.193 26.1406 38.1081 25.3189 40.0808 25.3189Z" fill="white"/>
<path d="M57.9228 21.7949H54.0292C52.8199 21.7949 51.9203 22.1241 51.3889 23.3295L43.9062 40.2754H49.1984C49.1984 40.2754 50.0617 37.9967 50.2574 37.4977C50.8368 37.4977 55.9786 37.5055 56.7109 37.5055C56.8613 38.151 57.3253 40.2754 57.3253 40.2754H62.0005L57.9228 21.7949ZM51.7078 33.713C52.1225 32.6514 53.7155 28.5452 53.7155 28.5452C53.6883 28.5958 54.1264 27.4759 54.3869 26.7799L54.7265 28.3741C54.7265 28.3741 55.6921 32.7888 55.8943 33.713H51.7078Z" fill="white"/>
</svg>
