<svg width="95" height="71" viewBox="0 0 95 71" fill="none" xmlns="http://www.w3.org/2000/svg">
<g clip-path="url(#clip0)">
<path d="M47.9416 30.9699L46.0969 19.901C46.0086 19.3705 45.4998 19.0107 44.9574 19.0975C44.4165 19.1842 44.0497 19.6844 44.1382 20.2148L45.7839 30.0891C37.388 28.4621 28.5832 28.0442 19.6094 28.8502C19.0636 28.8993 18.6616 29.3729 18.7116 29.9081C18.7616 30.4432 19.2457 30.8377 19.7903 30.7884C28.647 29.9931 37.3309 30.4127 45.6011 32.0361C47.0004 32.3108 48.0161 33.5317 48.0161 34.9393V38.0099C48.0161 39.6438 46.6606 40.9729 44.9944 40.9729H10.821C9.15479 40.9729 7.79928 39.6438 7.79928 38.0099V35C7.79928 33.5718 8.83762 32.3463 10.2679 32.0861C12.0304 31.7653 13.8251 31.4845 15.6021 31.2515C16.1452 31.1803 16.5267 30.6907 16.4541 30.158C16.3814 29.6252 15.8819 29.2509 15.3389 29.3225C13.5288 29.5598 11.7009 29.8458 9.90572 30.1725H9.90559L12.6964 13.3464C13.4558 8.76864 17.4396 5.44625 22.1692 5.44625H33.5207C38.2467 5.44625 42.23 8.76566 42.9922 13.3392L43.451 16.0914C43.5392 16.6216 44.0488 16.9812 44.5904 16.8948C45.1313 16.8081 45.4981 16.3078 45.4096 15.7774L44.9508 13.0254C44.5082 10.369 43.1125 7.94615 41.0209 6.20309C38.9294 4.45989 36.2656 3.5 33.5207 3.5H22.1692C19.4226 3.5 16.7578 4.46093 14.6656 6.20581C12.5735 7.95069 11.1784 10.3756 10.7375 13.0338L7.73564 31.1323C6.55572 32.0387 5.81445 33.447 5.81445 34.9999V38.0098C5.81445 40.7168 8.06036 42.919 10.821 42.919H11.5711L7.70137 67.9272C7.62091 68.447 7.7752 68.9738 8.12466 69.3725C8.47413 69.7712 8.98224 69.9999 9.51841 69.9999H10.5041C11.3218 69.9999 12.0291 69.484 12.2644 68.7161L18.4273 48.6008L20.69 47.2262H35.125L37.3877 48.6008L38.3879 51.8654C38.5171 52.2869 38.9111 52.5588 39.338 52.5588C39.4326 52.5588 39.5287 52.5455 39.6239 52.5174C40.1489 52.3629 40.4466 51.8202 40.2887 51.3056L37.7193 42.919H42.2364L46.1257 68.0536H45.42L41.5057 55.2774C41.3481 54.7625 40.7949 54.4708 40.2697 54.6254C39.7447 54.78 39.447 55.3226 39.6049 55.8374L43.5506 68.7162C43.7857 69.484 44.4931 70 45.3109 70H46.2965C46.8327 70 47.3408 69.7714 47.6903 69.3727C48.0398 68.9739 48.1942 68.4471 48.1136 67.9274L44.2438 42.9192H44.994C47.7546 42.9192 50.0005 40.7169 50.0005 38.0099V34.9393C50.0008 33.3323 49.1998 31.8721 47.9416 30.9699ZM10.3949 68.0536H9.68924L13.5786 42.919H18.0957L10.3949 68.0536ZM36.526 45.7877L36.1497 45.5591C35.8489 45.3764 35.503 45.2798 35.1493 45.2798H20.6658C20.3121 45.2798 19.9663 45.3764 19.6651 45.5592L19.2891 45.7876L20.168 42.9189H35.6469L36.526 45.7877Z" fill="black"/>
</g>
<path d="M89.15 38.1279H61.85C58.6206 38.1316 56.0036 40.7943 56 44.0799V53.3386C56.0036 56.6243 58.6206 59.287 61.85 59.2906H63.226L64.3128 68.1339C64.4348 69.1269 65.2644 69.872 66.2479 69.8719H66.5521C67.5356 69.872 68.3652 69.1269 68.4872 68.1339L69.5739 59.2906H81.4261L82.5128 68.1339C82.6348 69.1269 83.4644 69.872 84.4479 69.8719H84.7521C85.7356 69.872 86.5652 69.1269 86.6871 68.1339L87.7739 59.2906H89.15C92.3794 59.287 94.9964 56.6243 95 53.3386V44.0799C94.9964 40.7943 92.3794 38.1316 89.15 38.1279ZM67.1975 67.9699C67.1568 68.3011 66.8801 68.5495 66.5521 68.5493H66.2479C65.9199 68.5495 65.6432 68.3011 65.6024 67.9699L64.5365 59.2906H68.2635L67.1975 67.9699ZM85.3976 67.9699C85.3568 68.3011 85.0801 68.5495 84.7521 68.5493H84.4479C84.1199 68.5495 83.8432 68.3011 83.8024 67.9699L82.7364 59.2906H86.4635L85.3976 67.9699ZM93.7 53.3386C93.6972 55.8941 91.6617 57.965 89.15 57.9679H61.85C59.3383 57.965 57.3028 55.8941 57.3 53.3386V44.0799C57.3028 41.5245 59.3383 39.4535 61.85 39.4506H89.15C91.6617 39.4535 93.6972 41.5245 93.7 44.0799V53.3386Z" fill="black"/>
<path d="M75.5004 42.0957C74.0645 42.0957 72.9004 43.2801 72.9004 44.741C72.9004 46.202 74.0645 47.3864 75.5004 47.3864C76.9363 47.3864 78.1004 46.202 78.1004 44.741C78.1004 43.2801 76.9363 42.0957 75.5004 42.0957ZM75.5004 46.0637C74.7824 46.0637 74.2004 45.4716 74.2004 44.741C74.2004 44.0105 74.7824 43.4184 75.5004 43.4184C76.2184 43.4184 76.8004 44.0105 76.8004 44.741C76.8004 45.4716 76.2184 46.0637 75.5004 46.0637Z" fill="black"/>
<path d="M75.5004 50.0317C74.0645 50.0317 72.9004 51.2161 72.9004 52.6771C72.9004 54.138 74.0645 55.3224 75.5004 55.3224C76.9363 55.3224 78.1004 54.138 78.1004 52.6771C78.1004 51.2161 76.9363 50.0317 75.5004 50.0317ZM75.5004 53.9997C74.7824 53.9997 74.2004 53.4076 74.2004 52.6771C74.2004 51.9465 74.7824 51.3544 75.5004 51.3544C76.2184 51.3544 76.8004 51.9465 76.8004 52.6771C76.8004 53.4076 76.2184 53.9997 75.5004 53.9997Z" fill="black"/>
<path d="M85.9008 42.0957C84.4649 42.0957 83.3008 43.2801 83.3008 44.741C83.3008 46.202 84.4649 47.3864 85.9008 47.3864C87.3367 47.3864 88.5008 46.202 88.5008 44.741C88.5008 43.2801 87.3367 42.0957 85.9008 42.0957ZM85.9008 46.0637C85.1828 46.0637 84.6008 45.4716 84.6008 44.741C84.6008 44.0105 85.1828 43.4184 85.9008 43.4184C86.6188 43.4184 87.2008 44.0105 87.2008 44.741C87.2008 45.4716 86.6188 46.0637 85.9008 46.0637Z" fill="black"/>
<path d="M85.9008 50.0317C84.4649 50.0317 83.3008 51.2161 83.3008 52.6771C83.3008 54.138 84.4649 55.3224 85.9008 55.3224C87.3367 55.3224 88.5008 54.138 88.5008 52.6771C88.5008 51.2161 87.3367 50.0317 85.9008 50.0317ZM85.9008 53.9997C85.1828 53.9997 84.6008 53.4076 84.6008 52.6771C84.6008 51.9465 85.1828 51.3544 85.9008 51.3544C86.6188 51.3544 87.2008 51.9465 87.2008 52.6771C87.2008 53.4076 86.6188 53.9997 85.9008 53.9997Z" fill="black"/>
<path d="M65.1 42.0957C63.6641 42.0957 62.5 43.2801 62.5 44.741C62.5 46.202 63.6641 47.3864 65.1 47.3864C66.5359 47.3864 67.7 46.202 67.7 44.741C67.7 43.2801 66.5359 42.0957 65.1 42.0957ZM65.1 46.0637C64.382 46.0637 63.8 45.4716 63.8 44.741C63.8 44.0105 64.382 43.4184 65.1 43.4184C65.818 43.4184 66.4 44.0105 66.4 44.741C66.4 45.4716 65.818 46.0637 65.1 46.0637Z" fill="black"/>
<path d="M65.1 50.0317C63.6641 50.0317 62.5 51.2161 62.5 52.6771C62.5 54.138 63.6641 55.3224 65.1 55.3224C66.5359 55.3224 67.7 54.138 67.7 52.6771C67.7 51.2161 66.5359 50.0317 65.1 50.0317ZM65.1 53.9997C64.382 53.9997 63.8 53.4076 63.8 52.6771C63.8 51.9465 64.382 51.3544 65.1 51.3544C65.818 51.3544 66.4 51.9465 66.4 52.6771C66.4 53.4076 65.818 53.9997 65.1 53.9997Z" fill="black"/>
<defs>
<clipPath id="clip0">
<rect width="50" height="70" fill="white"/>
</clipPath>
</defs>
</svg>
