<svg width="60" height="68" viewBox="0 0 60 68" fill="none" xmlns="http://www.w3.org/2000/svg">
<g clip-path="url(#clip0)">
<path d="M49.9113 32.7827C49.9113 32.3751 49.3746 32.0056 49.117 31.6144C48.8058 31.9893 48.3496 32.3099 48.21 32.7501C48.0793 33.428 48.0396 34.1208 48.092 34.8095C47.9458 36.9102 47.2 38.9226 45.9453 40.6021C44.0777 42.8898 41.6519 43.9602 38.9685 44.4982C33.3662 45.5772 27.6199 45.6471 21.9936 44.7047C20.2799 44.4076 18.6183 43.8584 17.0616 43.0745C15.7169 42.4559 14.5513 41.4988 13.6757 40.2945C12.8001 39.0902 12.2437 37.6789 12.0598 36.1952C11.888 35.0486 11.8827 33.864 11.6519 32.7338C11.566 32.299 11.0669 31.9785 10.7503 31.6035C10.4153 31.9699 10.1318 32.3813 9.90772 32.8261C9.82243 33.2529 9.82243 33.6926 9.90772 34.1194C10.5249 40.7977 13.3907 44.5525 19.2995 46.1447C25.2083 47.7368 31.1063 47.7151 37.0097 46.8239C39.6165 46.3614 42.1459 45.5291 44.5231 44.3515C46.278 43.5364 47.5714 42.0366 48.5213 39.9554C48.7306 39.9065 49.1009 38.5807 49.1707 38.385C49.7956 36.5891 50.0477 34.6818 49.9113 32.7827Z" fill="#202020"/>
<path d="M59.7117 40.6624C59.4489 38.2022 58.984 35.7684 58.3217 33.3864C58.0748 32.4518 57.844 31.5171 57.565 30.5988L57.3396 29.887C57.2698 29.6642 57.2269 29.5392 57.2269 29.5392C54.3932 20.7254 50.3092 12.8082 43.9764 6.53744C40.5471 3.14124 36.6455 0.744883 32.0354 0.147153C26.2984 -0.59186 21.3557 1.63061 16.955 5.58107C11.2072 10.7487 7.29485 17.465 4.32168 24.9204C3.7381 26.2395 3.22396 27.589 2.78143 28.9632C1.54274 32.7008 0.697264 36.5603 0.259064 40.4777C0.0158494 43.4979 -0.034344 46.5309 0.108796 49.5577C0.704503 56.6218 3.86551 61.784 9.70451 64.5825C11.509 65.4563 13.4021 66.1286 15.3503 66.5876C22.9174 68.3482 30.5811 68.1254 38.234 67.6092C41.9576 67.4163 45.6225 66.5896 49.0748 65.1639C54.2215 62.9904 57.8762 59.1269 59.2716 52.9648C59.6729 51.1191 59.9082 49.2403 59.9746 47.3516C60.0697 45.1129 59.9818 42.8701 59.7117 40.6461V40.6624ZM58.1016 48.6774C57.7152 55.5676 54.6723 60.4799 48.9138 63.023C47.322 63.7216 45.669 64.2674 43.9764 64.6531C36.9997 66.2344 29.9371 66.0442 22.8852 65.6584C18.9424 65.5301 15.0536 64.6929 11.4004 63.186C6.46837 61.045 3.16247 57.2413 2.18036 51.2314C1.58031 47.3231 1.65294 43.3392 2.39503 39.4561C3.08148 35.1635 4.12454 30.9372 5.51309 26.8222C5.59516 26.4695 5.71952 26.1283 5.8834 25.8061C6.10068 25.4455 6.28053 25.0631 6.42007 24.665C9.26444 17.9106 12.9138 11.8301 18.1464 7.12973C21.8548 3.79331 26.0032 1.73385 30.8601 2.04359C35.5507 2.34245 39.4469 4.72794 42.8655 8.14587C48.726 13.971 52.5954 21.3122 55.2841 29.4957C55.4451 29.9902 55.6061 30.4738 55.7832 30.9303C56.8981 34.5994 57.6178 38.3798 57.9299 42.2057C58.1001 44.3583 58.1485 46.5191 58.0748 48.6774H58.1016Z" fill="#202020"/>
</g>
<defs>
<clipPath id="clip0">
<rect width="60" height="68" fill="white"/>
</clipPath>
</defs>
</svg>
