<svg width="70" height="70" viewBox="0 0 70 70" fill="none" xmlns="http://www.w3.org/2000/svg">
<g clip-path="url(#clip0)">
<path d="M49.3727 41.8735L49.4071 41.9998H26.3587L26.2842 41.8735H23.6333L23.7022 41.9998H18.6645V41.8735H16.335V48.9596H53.9399L51.8112 41.8735H49.3727ZM18.6645 44.335H50.1415L50.8415 46.6703H18.7104L18.6645 44.335Z" fill="#202020"/>
<path d="M69.0076 54.3936C68.3789 53.6721 67.5132 53.1987 66.5665 53.0588C65.6198 52.9189 64.6542 53.1216 63.8437 53.6305C62.8415 54.2731 61.8163 54.8775 60.7682 55.4436L58.6396 56.4879V56.5281C57.9338 56.8666 57.2166 57.1879 56.4994 57.4977V57.4289L54.3191 58.2895L54.3478 58.3699C53.0568 58.8518 51.7428 59.2764 50.4232 59.6551C45.4129 61.1175 40.2196 61.8575 35.0002 61.8526C29.4641 61.8637 23.9577 61.0436 18.665 59.4199L16.3355 58.6453C15.6527 58.4043 14.9814 58.1404 14.3158 57.8649L14.0002 57.7387C13.0363 57.3313 12.233 56.9641 11.665 56.7002L11.424 56.5797C9.61184 55.7116 7.85299 54.7364 6.15678 53.6592C5.34691 53.1496 4.38173 52.946 3.43503 53.0848C2.48832 53.2237 1.62228 53.6959 0.992842 54.4166C0.612535 54.8465 0.330252 55.3539 0.165543 55.9037C0.000835116 56.4535 -0.0423603 57.0326 0.0389629 57.6008C0.120286 58.1689 0.324183 58.7126 0.636512 59.1942C0.948841 59.6757 1.36213 60.0836 1.84775 60.3895C11.761 66.6801 23.2595 70.0205 35.0002 70.0205C46.741 70.0205 58.2394 66.6801 68.1527 60.3895C68.642 60.0839 69.0586 59.6751 69.3734 59.1916C69.6882 58.7081 69.8934 58.1616 69.9749 57.5904C70.0563 57.0193 70.0119 56.4372 69.8448 55.885C69.6778 55.3328 69.392 54.8238 69.0076 54.3936ZM67.6478 57.2625C67.6153 57.4975 67.5311 57.7224 67.4011 57.9208C67.2711 58.1193 67.0986 58.2864 66.8961 58.41C57.3567 64.4627 46.2921 67.6767 34.9945 67.6767C23.6968 67.6767 12.6323 64.4627 3.09284 58.41C2.89126 58.2845 2.71953 58.1165 2.58967 57.9177C2.45982 57.719 2.37499 57.4942 2.3411 57.2592C2.30722 57.0241 2.32511 56.7846 2.39351 56.5572C2.46191 56.3298 2.57918 56.1201 2.73711 55.9428C2.89882 55.762 3.09692 55.6174 3.31841 55.5186C3.5399 55.4197 3.77979 55.3687 4.02235 55.369C4.32881 55.3667 4.62952 55.4523 4.88875 55.6158C13.931 61.2154 24.3559 64.1819 34.9916 64.1819C45.6273 64.1819 56.0522 61.2154 65.0945 55.6158C65.4358 55.4072 65.8402 55.3268 66.2353 55.3888C66.6305 55.4508 66.9908 55.6512 67.2519 55.9543C67.411 56.1292 67.5291 56.3373 67.5976 56.5637C67.6661 56.79 67.6832 57.0287 67.6478 57.2625Z" fill="#202020"/>
<path d="M51.8112 41.8736L49.1948 33.1637C49.0555 32.6812 48.7617 32.2577 48.3585 31.9582C47.9553 31.6586 47.465 31.4996 46.9628 31.5055H18.6645C18.0467 31.5055 17.4541 31.751 17.0173 32.1878C16.5804 32.6247 16.335 33.2172 16.335 33.835V58.6391C16.4382 58.6736 16.5301 58.7195 16.6333 58.7596C17.2551 58.8833 17.8548 59.0999 18.412 59.4022H18.6645V33.835H19.2383L23.6219 41.8678H26.2727L21.8891 33.835H26.1694L27.4661 36.5203C27.7549 37.1143 28.2051 37.6151 28.7653 37.9652C29.3254 38.3153 29.9728 38.5005 30.6333 38.4998H48.3227L54.2956 58.3293C54.7014 58.1317 55.1263 57.976 55.5637 57.8645C55.8525 57.6983 56.1536 57.5544 56.4645 57.4342L51.771 41.8736H51.8112ZM30.6333 36.1703C30.4135 36.1724 30.1977 36.1114 30.0115 35.9944C29.8254 35.8774 29.6768 35.7095 29.5833 35.5104L28.7743 33.835H46.9628L47.5997 35.9465H47.5538L47.6169 36.1588L30.6333 36.1703Z" fill="#202020"/>
<path d="M58.9137 36.1701H55.2243L53.1759 29.0496C52.8942 28.0768 52.3046 27.2216 51.4956 26.6122C50.6866 26.0029 49.7018 25.6723 48.6891 25.6701H24.8202L14.3202 3.90125C14.0658 3.40155 13.6396 3.01039 13.12 2.79959C12.6004 2.58879 12.0222 2.5725 11.4915 2.75371L7.68167 3.99879L6.69478 1.98486C6.4155 1.40386 5.98095 0.911441 5.43919 0.562082C4.89743 0.212723 4.26958 0.0200381 3.62511 0.0053466C3.18955 -0.00473207 2.75587 0.0652825 2.34561 0.211904L2.17347 0.292232C1.74121 0.476821 1.35039 0.746313 1.02421 1.08473C0.698028 1.42315 0.443119 1.82362 0.274569 2.26238C0.106019 2.70115 0.0272581 3.16929 0.0429806 3.63905C0.0587031 4.10881 0.168584 4.57064 0.366094 4.99715L11.5948 29.1931C11.6673 29.3474 11.7046 29.516 11.7038 29.6865V56.6537C12.2776 56.9176 13.0751 57.2849 14.039 57.6922V29.6865C14.0379 29.1771 13.9263 28.674 13.712 28.2119L2.44888 4.016C2.37615 3.86856 2.33596 3.70722 2.33101 3.54289C2.32606 3.37856 2.35646 3.21509 2.42019 3.06354C2.48108 2.91554 2.57227 2.78191 2.68788 2.67124C2.80349 2.56056 2.94098 2.4753 3.0915 2.42092L3.20052 2.37502C3.46535 2.30597 3.7459 2.3305 3.99473 2.44446C4.24355 2.55842 4.44538 2.75481 4.5661 3.00043L15.8005 26.0373C16.0897 26.6253 16.5372 27.121 17.0927 27.4687C17.6481 27.8163 18.2895 28.0022 18.9448 28.0053H48.6776C49.1838 28.0053 49.6764 28.1699 50.081 28.4741C50.4857 28.7784 50.7805 29.2059 50.921 29.6922L54.421 41.8734L56.4522 48.9594L58.6268 56.5332L60.744 55.4488L58.8792 48.9594L57.5997 44.3349H58.7473C59.3395 44.3348 59.9254 44.2136 60.4691 43.9788C61.0128 43.7439 61.5027 43.4004 61.9087 42.9693C62.2826 42.5747 62.5725 42.1084 62.7609 41.5985C62.9493 41.0886 63.0322 40.5458 63.0046 40.0029C62.943 38.9618 62.4843 37.984 61.7232 37.2709C60.9621 36.5579 59.9566 36.1639 58.9137 36.1701ZM18.9563 25.6701C18.737 25.6728 18.5217 25.6126 18.3356 25.4967C18.1495 25.3807 18.0005 25.2139 17.9063 25.016L8.68577 6.116L12.2259 4.93403L22.2268 25.6701H18.9563ZM58.7473 41.9996H56.9227L56.8882 41.8734L55.8784 38.4996H58.8964C59.3403 38.4992 59.7672 38.6703 60.0879 38.9771C60.4087 39.284 60.5985 39.7029 60.6177 40.1463C60.6278 40.371 60.5918 40.5953 60.5119 40.8055C60.4319 41.0157 60.3098 41.2073 60.153 41.3685C59.9347 41.594 59.6678 41.7667 59.3727 41.8734C59.1727 41.9502 58.9613 41.9929 58.7473 41.9996Z" fill="#202020"/>
</g>
<defs>
<clipPath id="clip0">
<rect width="70" height="70" fill="white"/>
</clipPath>
</defs>
</svg>
