<svg width="48" height="70" viewBox="0 0 48 70" fill="none" xmlns="http://www.w3.org/2000/svg">
<g clip-path="url(#clip0)">
<path d="M24.7759 62.4815H30.8097C30.4458 62.9385 30.1742 63.4615 30.0099 64.0215H17.9865C17.8187 63.4629 17.5474 62.9406 17.1868 62.4815H23.2261V47.5542H20.8048V60.067H11.881V61.013C11.1304 61.296 10.4658 61.7677 9.95187 62.3823C9.43793 62.997 9.09207 63.7337 8.94786 64.521C8.80364 65.3082 8.86596 66.1193 9.12878 66.8755C9.39159 67.6316 9.84598 68.3072 10.4478 68.8366C11.0497 69.3659 11.7785 69.7312 12.5637 69.8968C13.3488 70.0624 14.1635 70.0228 14.9288 69.7818C15.6941 69.5408 16.3838 69.1066 16.9312 68.5214C17.4785 67.9361 17.8649 67.2197 18.0527 66.4416H29.9493C30.1371 67.2197 30.5234 67.9361 31.0708 68.5214C31.6181 69.1066 32.3079 69.5408 33.0732 69.7818C33.8384 70.0228 34.6532 70.0624 35.4383 69.8968C36.2234 69.7312 36.9523 69.3659 37.5541 68.8366C38.156 68.3072 38.6104 67.6316 38.8732 66.8755C39.136 66.1193 39.1983 65.3082 39.0541 64.521C38.9099 63.7337 38.564 62.997 38.0501 62.3823C37.5362 61.7677 36.8716 61.296 36.1209 61.013V60.067H27.1971V47.5542H24.7759V62.4815ZM13.5301 67.5801C13.087 67.5801 12.6538 67.449 12.2855 67.2034C11.9171 66.9578 11.6301 66.6087 11.4608 66.2004C11.2915 65.792 11.2475 65.3427 11.3343 64.9094C11.4212 64.4761 11.635 64.0782 11.9487 63.7661C12.2624 63.4541 12.6619 63.2418 13.0966 63.1563C13.5314 63.0707 13.9818 63.1157 14.3909 63.2856C14.7999 63.4554 15.1493 63.7425 15.3946 64.1105C15.64 64.4784 15.7704 64.9107 15.7693 65.3526C15.7679 65.9439 15.5313 66.5104 15.1115 66.928C14.6918 67.3456 14.123 67.5801 13.5301 67.5801ZM34.4884 63.1195C34.9313 63.1195 35.3642 63.2505 35.7324 63.4959C36.1007 63.7412 36.3877 64.09 36.5572 64.498C36.7267 64.9061 36.771 65.3551 36.6846 65.7882C36.5982 66.2214 36.3849 66.6193 36.0718 66.9316C35.7586 67.2439 35.3596 67.4566 34.9252 67.5427C34.4909 67.6289 34.0406 67.5847 33.6315 67.4156C33.2223 67.2466 32.8726 66.9604 32.6265 66.5932C32.3805 66.226 32.2492 65.7942 32.2492 65.3526C32.2477 65.0601 32.3041 64.7701 32.415 64.4993C32.5259 64.2285 32.6892 63.9821 32.8956 63.7742C33.102 63.5664 33.3474 63.4011 33.6179 63.2878C33.8883 63.1745 34.1785 63.1155 34.4718 63.114L34.4884 63.1195Z" fill="#202020"/>
<path d="M8.60911 35.7066V33.9136H9.92728C10.0871 33.9218 10.2473 33.9218 10.4071 33.9136H4.3623C4.5203 33.9219 4.67863 33.9219 4.83662 33.9136H6.1603V37.9121C6.79353 36.9971 7.632 36.2419 8.60911 35.7066Z" fill="#202020"/>
<path d="M41.84 33.9136H43.1637C43.3217 33.9219 43.48 33.9219 43.638 33.9136H37.6208C37.7806 33.9219 37.9408 33.9219 38.1006 33.9136H39.4188V35.7231C38.2698 35.0508 36.9619 34.6958 35.6298 34.6946H12.3716C11.0486 34.6999 9.75073 35.0548 8.6101 35.7231C7.6436 36.2603 6.8149 37.0133 6.18887 37.9232V37.9672C5.31546 39.2199 4.84774 40.7094 4.84863 42.2353V43.4398C4.8501 44.5343 5.28714 45.5835 6.06376 46.357C6.84038 47.1304 7.89308 47.5649 8.99066 47.5649H39.0658C40.1634 47.5649 41.2161 47.1304 41.9927 46.357C42.7693 45.5835 43.2064 44.5343 43.2078 43.4398V42.2133C43.2087 40.6874 42.741 39.198 41.8676 37.9452L41.84 33.9136ZM40.737 43.4288C40.7355 43.883 40.5536 44.318 40.231 44.6387C39.9084 44.9593 39.4716 45.1393 39.0162 45.1393H26.0275L20.8045 45.0898V45.1393H8.96308C8.50765 45.1393 8.0708 44.9593 7.74824 44.6387C7.42569 44.318 7.24376 43.883 7.2423 43.4288V42.2133C7.24389 40.9908 7.6863 39.8098 8.48876 38.8857H8.6101V38.7812C9.08892 38.2525 9.67342 37.8296 10.326 37.5397C10.9786 37.2499 11.6848 37.0994 12.3991 37.0981H35.6353C36.3496 37.0994 37.0558 37.2499 37.7084 37.5397C38.361 37.8296 38.9455 38.2525 39.4243 38.7812V38.9132H39.496C40.2984 39.8395 40.7407 41.0222 40.7425 42.2463L40.737 43.4288Z" fill="#202020"/>
<path d="M39.4184 21.8631C37.699 22.1503 36.1371 23.0352 35.0094 24.3611C33.8818 25.687 33.2612 27.3682 33.2578 29.1068C33.2612 30.3033 33.7089 31.4562 34.5146 32.3429C35.3203 33.2297 36.4267 33.7873 37.6204 33.9084H43.6377C44.8314 33.7873 45.9379 33.2297 46.7435 32.3429C47.5492 31.4562 47.9969 30.3033 48.0003 29.1068C47.998 27.3679 47.3779 25.6861 46.25 24.36C45.1222 23.0339 43.5596 22.1492 41.8397 21.8631V21.6211H39.4184V21.8631ZM45.5625 29.0903C45.5611 29.7287 45.3061 30.3406 44.8534 30.7921C44.4007 31.2436 43.7871 31.4979 43.1468 31.4993H38.0837C37.4425 31.4993 36.8275 31.2457 36.3736 30.794C35.9197 30.3424 35.664 29.7297 35.6625 29.0903C35.6116 28.411 35.7019 27.7286 35.9276 27.0858C36.1533 26.4429 36.5096 25.8534 36.9742 25.3542C37.4388 24.8549 38.0018 24.4567 38.6278 24.1844C39.2538 23.912 39.9295 23.7714 40.6125 23.7714C41.2955 23.7714 41.9712 23.912 42.5972 24.1844C43.2233 24.4567 43.7862 24.8549 44.2508 25.3542C44.7154 25.8534 45.0718 26.4429 45.2975 27.0858C45.5232 27.7286 45.6134 28.411 45.5625 29.0903Z" fill="#202020"/>
<path d="M14.7368 29.0903C14.7319 27.359 14.1147 25.685 12.9938 24.363C11.8729 23.041 10.3203 22.1557 8.60921 21.8631V21.6211H6.18798V21.8631C4.46807 22.1492 2.90549 23.0339 1.77764 24.36C0.649793 25.6861 0.0296596 27.3679 0.0273438 29.1068C0.0295067 30.3037 0.476811 31.4572 1.2827 32.3442C2.08859 33.2312 3.19578 33.7885 4.38998 33.9084H10.4072C11.5983 33.7806 12.6998 33.2176 13.4992 32.3279C14.2987 31.4382 14.7395 30.2849 14.7368 29.0903ZM4.80914 31.4993C4.1689 31.4979 3.5553 31.2436 3.10258 30.7921C2.64986 30.3406 2.39488 29.7287 2.39342 29.0903C2.33746 28.4084 2.42381 27.7225 2.64704 27.0756C2.87026 26.4287 3.22552 25.8351 3.69038 25.332C4.15524 24.8289 4.71961 24.4274 5.34788 24.1527C5.97616 23.8781 6.6547 23.7363 7.34068 23.7363C8.02667 23.7363 8.70521 23.8781 9.33349 24.1527C9.96176 24.4274 10.5261 24.8289 10.991 25.332C11.4558 25.8351 11.8111 26.4287 12.0343 27.0756C12.2576 27.7225 12.3439 28.4084 12.2879 29.0903C12.2865 29.7287 12.0315 30.3406 11.5788 30.7921C11.1261 31.2436 10.5125 31.4979 9.87222 31.4993H4.80914Z" fill="#202020"/>
<path d="M8.60897 12.0013C8.61189 9.4596 9.62565 7.02287 11.4278 5.22565C13.23 3.42842 15.6735 2.41746 18.2222 2.41455H29.832C32.3807 2.41746 34.8242 3.42842 36.6264 5.22565C38.4286 7.02287 39.4423 9.4596 39.4452 12.0013V21.6045H41.8665V12.0013C41.8621 8.81967 40.5928 5.76963 38.3368 3.51991C36.0809 1.27018 33.0224 0.00436533 29.832 0H18.1946C15.0042 0.00436533 11.9458 1.27018 9.68981 3.51991C7.43386 5.76963 6.16453 8.81967 6.16016 12.0013V21.6045H8.60897V12.0013Z" fill="#202020"/>
<path d="M39.4123 35.6959V33.9028H38.0941C37.9343 33.911 37.7741 33.911 37.6143 33.9028H43.637C43.4772 33.911 43.317 33.911 43.1572 33.9028H41.8335V37.9014C41.2118 36.9864 40.3822 36.2307 39.4123 35.6959Z" fill="#202020"/>
</g>
<defs>
<clipPath id="clip0">
<rect width="48" height="70" fill="white"/>
</clipPath>
</defs>
</svg>
