<svg width="100" height="77" viewBox="0 0 100 77" fill="none" xmlns="http://www.w3.org/2000/svg">
<g clip-path="url(#clip0)" filter="url(#filter0_d)">
<path d="M88.7632 3.74412L85.4653 14.5706L84.7923 18.7457C85.1185 18.5756 85.456 18.4288 85.8023 18.3063L86.3702 14.7871L90.0525 2.71681L89.3785 2.76284C89.1857 2.77644 69.9446 4.04541 60.7609 0.648601L60.0581 0.38916L60.1416 1.14447C60.1477 1.20724 60.7651 7.55624 54.9432 20.2396L54.666 20.8443L73.3445 22.6405C73.3445 22.5146 73.3892 22.393 73.4704 22.2978C73.5516 22.2027 73.6639 22.1405 73.7866 22.1226C74.2401 22.041 74.7049 21.9825 75.1542 21.8695L56.0491 20.0325C60.6816 9.7458 61.099 3.74203 61.0866 1.76274C69.7343 4.6417 85.2891 3.94288 88.7632 3.74412Z" fill="black"/>
<path d="M73.5788 22.9269L54.2676 21.0658L54.6994 20.1243C60.4563 7.58218 59.8802 1.23109 59.874 1.16832L59.7452 -0.00439453L60.8376 0.398368C69.9604 3.77216 89.1573 2.51052 89.351 2.49692L90.3991 2.42578L86.6107 14.8424L86.0212 18.4965L85.8779 18.5488C85.5429 18.6647 85.2164 18.8046 84.9009 18.9673L84.4433 19.21L85.2091 14.4835L88.4039 4.01591C84.6227 4.21676 69.8532 4.79528 61.3436 2.10985C61.3045 4.46784 60.6789 10.2697 56.4349 19.7969L76.6747 21.7437L75.2072 22.113C74.8805 22.1957 74.5455 22.2501 74.2209 22.3034C74.0879 22.3254 73.955 22.3463 73.8221 22.3704C73.7568 22.3772 73.6967 22.4093 73.6541 22.4599C73.6115 22.5106 73.5897 22.5759 73.5933 22.6424L73.5788 22.9269ZM55.0426 20.6181L73.1295 22.3578C73.1895 22.1948 73.3026 22.0575 73.45 21.9686L55.663 20.2582L55.8145 19.9234C60.3903 9.76756 60.8448 3.83911 60.8335 1.76462V1.40057L61.1736 1.51355C69.8367 4.39461 85.6656 3.65917 88.7512 3.48238L89.1222 3.46145L85.7141 14.63L85.1235 18.2915C85.2609 18.2301 85.4097 18.1694 85.5698 18.1094L86.1222 14.7064L89.6901 3.00325L89.3902 3.02312C89.1964 3.03672 69.8903 4.30569 60.6665 0.894236L60.3574 0.779162L60.3945 1.11497C60.4017 1.17878 61.02 7.61357 55.1745 20.3503L55.0426 20.6181Z" fill="black"/>
<path d="M56.6931 20.5543L36.9542 27.1523L31.2561 28.892L31.086 20.3545L53.2077 14.3444L57.3558 14.901V15.2818C57.5024 15.1365 57.6669 15.0114 57.8454 14.9093C57.8903 14.8463 57.9309 14.7803 57.967 14.7116C57.9731 14.651 57.9884 14.5917 58.0123 14.5359C58.0705 14.3793 58.1572 14.2352 58.2679 14.1111L58.2834 14.0954V14.0756L53.1459 13.3872L30.1533 19.6358L30.3594 30.1515L37.2294 28.0519L57.8144 21.1705C57.3558 21.1025 56.9178 20.9225 56.6931 20.5543Z" fill="black"/>
<path d="M30.1073 30.5011L29.8867 19.4361L53.1235 13.1206L58.5362 13.8477V14.2055L58.4517 14.2912C58.3619 14.3923 58.292 14.5098 58.2455 14.6375C58.2312 14.6708 58.2218 14.706 58.2177 14.7421L58.2126 14.7923L58.1889 14.8363C58.1479 14.9164 58.101 14.9934 58.0487 15.0664L58.0147 15.1135L57.9652 15.1407C57.8065 15.2313 57.6603 15.3428 57.5303 15.4723L57.0933 15.9023V15.1323L53.2193 14.6093L31.3522 20.5545L31.512 28.5427L36.8803 26.9024L56.8037 20.2417L56.9068 20.4153C57.1129 20.7407 57.5303 20.8652 57.8477 20.9122L58.9309 21.0712L37.3049 28.3L30.1073 30.5011ZM30.4103 19.8358L30.6092 29.8013L37.1534 27.8021L56.9851 21.1706C56.8396 21.0892 56.7089 20.9831 56.5987 20.8568L37.0359 27.4004L31.0101 29.2426L30.8287 20.1548L53.1853 14.0789L57.6086 14.672V14.7453L57.6633 14.7118C57.6797 14.6856 57.6962 14.6574 57.7138 14.627C57.7255 14.5614 57.7441 14.4972 57.7694 14.4356C57.7911 14.3822 57.8137 14.331 57.8385 14.2808L53.1575 13.6531L30.4103 19.8358Z" fill="black"/>
<path d="M37.5584 27.601H36.6309V20.5909L57.2685 15.1792L57.5004 16.0914L37.5584 21.32V27.601Z" fill="black"/>
<path d="M37.8159 27.8658H36.373V20.3881L57.4538 14.8613L57.8145 16.2799L37.8159 21.5221V27.8658ZM36.8883 27.3428H37.3006V21.1172L57.191 15.9033L57.088 15.4984L36.8883 20.7929V27.3428Z" fill="black"/>
<path d="M75.4048 25.6543V52.45L68.2669 51.3055C68.2725 51.3761 68.2648 51.4471 68.2442 51.5148C68.1836 51.7513 68.1575 51.9955 68.1669 52.2397L76.3323 53.5484V53.2628L94.3285 42.1979L95.2375 17.8574L75.4048 25.6543ZM93.4195 41.6601L76.3323 52.1675V26.2966L94.2564 19.2509L93.4195 41.6601Z" fill="black"/>
<path d="M76.5896 53.8612L67.9099 52.4699V52.2471C67.9004 51.977 67.9303 51.7069 67.9986 51.4457C68.0098 51.4081 68.014 51.3687 68.0109 51.3296L67.9852 50.999L75.1478 52.1498V25.4733L95.5102 17.4683L94.5827 42.3464L94.4642 42.4197L76.5927 53.4145L76.5896 53.8612ZM68.4283 52.0232L76.0743 53.2482V53.1216L94.0757 42.0472L94.964 18.2414L75.6621 25.829V52.7638L68.4871 51.6131C68.4514 51.7469 68.4317 51.8846 68.4283 52.0232ZM76.0743 52.632V26.1198L94.5343 18.869L93.6768 41.8108L93.5583 41.884L76.0743 52.632ZM76.5896 26.4786V51.7041L93.1677 41.5053L93.9839 19.6411L76.5896 26.4786Z" fill="black"/>
<path d="M69.1307 51.8496H68.2031V24.015L86.7909 17.6001L94.7749 18.0855L94.7193 19.0249L86.9166 18.551L69.1307 24.6887V51.8496Z" fill="black"/>
<path d="M69.3881 52.1111H67.9453V23.8278L68.1205 23.7671L86.7557 17.3354L95.0468 17.8397L94.9602 19.3043L86.9515 18.8168L69.3881 24.877V52.1111ZM68.4606 51.588H68.8728V24.5015L86.8814 18.2864L94.4769 18.7488L94.5016 18.3303L86.8258 17.8637L68.4606 24.2044V51.588Z" fill="black"/>
<path d="M38.2488 55.8991L4.25781 49.2949V38.0437L30.1813 29.2227L30.4761 30.115L5.18535 38.7216V48.5165L37.3213 54.7609V44.2713L68.4885 31.0806L68.8451 31.9499L38.2488 44.899V55.8991Z" fill="black"/>
<path d="M38.5063 56.2162L38.1971 56.1566L4 49.5105V37.8555L4.1752 37.7958L30.344 28.8911L30.8026 30.2804L30.5574 30.363L5.44283 38.91V48.3001L37.0635 54.444V44.0977L37.2222 44.0308L68.6264 30.7386L69.1819 32.0902L38.5063 45.0738V56.2162ZM4.5153 49.0784L37.991 55.5885V44.7254L68.5079 31.8088L68.3492 31.4228L37.5788 44.4461V55.0769L37.2696 55.0173L4.92753 48.7321V38.5365L5.10274 38.4769L30.1461 29.954L30.0142 29.5565L4.51117 38.2394L4.5153 49.0784Z" fill="black"/>
<path d="M4.80527 37.9189L4.63672 38.8447L37.701 45.0471L37.8696 44.1212L4.80527 37.9189Z" fill="black"/>
<path d="M37.9074 45.3532L37.6539 45.3061L4.33691 39.0597L4.59869 37.6191L4.85221 37.6673L38.1692 43.9169L37.9074 45.3532ZM4.93672 38.6412L37.4942 44.7485L37.5694 44.3374L5.01195 38.2228L4.93672 38.6412Z" fill="black"/>
<path d="M6.33789 48.748V60.2419L6.64192 60.3173C6.57046 59.6626 6.64081 58.9999 6.84804 58.3756C6.87584 58.276 6.92833 58.1852 7.00049 58.1119C7.07265 58.0387 7.16208 57.9854 7.26027 57.9572V49.8726L39.5003 55.7247V67.4697L39.0973 67.3651C39.114 67.3938 39.1288 67.4235 39.1417 67.454C39.2272 67.6727 39.2746 67.9007 39.3601 68.1194C39.3971 68.2101 39.4064 68.3099 39.3869 68.406L40.4278 68.6654V54.9359L6.33789 48.748Z" fill="black"/>
<path d="M40.6888 69L39.0883 68.6046L39.1367 68.3587C39.1462 68.3119 39.1411 68.2633 39.1223 68.2196C39.0759 68.1003 39.0409 67.9811 39.0069 67.867C38.9729 67.753 38.943 67.6578 38.9038 67.5532C38.8965 67.5365 38.8879 67.5204 38.878 67.5051L38.5885 66.982L39.2439 67.1368V55.9432L7.52123 50.1894V58.162L7.33469 58.2164C7.27768 58.2325 7.22576 58.2633 7.18402 58.3058C7.14229 58.3484 7.11217 58.4012 7.09662 58.4591C6.89534 59.0457 6.82493 59.6703 6.8905 60.2878L6.93997 60.6665L6.07324 60.4573V48.4351L40.6816 54.7119L40.6888 69ZM39.65 68.2049L40.1735 68.3347V55.1533L6.59575 49.0596V58.3346C6.59575 58.3221 6.60297 58.3095 6.60709 58.297C6.67132 58.0812 6.81487 57.8988 7.00799 57.7875V49.5597L39.7613 55.5048V67.8022L39.5077 67.7394C39.5376 67.844 39.5675 67.935 39.6026 68.0271C39.6257 68.0841 39.6416 68.1439 39.65 68.2049Z" fill="black"/>
<path d="M40.1947 68.479L39.7412 67.6578L42.2322 66.2413V54.7484L40.1689 55.7548L39.767 54.9053L43.1597 53.2524V66.7937L40.1947 68.479Z" fill="black"/>
<path d="M40.0956 68.8349L39.3906 67.5576L41.9743 66.093V55.1703L40.0471 56.1118L39.4288 54.7916L43.4171 52.8374V66.9466L40.0956 68.8349ZM40.0956 67.7584L40.3017 68.1235L42.9019 66.6401V53.668L40.111 55.028L40.2893 55.4057L42.4896 54.3334V66.3953L40.0956 67.7584Z" fill="black"/>
<path d="M68.4634 39.6269L37.5811 54.9097L37.9875 55.756L68.8699 40.4732L68.4634 39.6269Z" fill="black"/>
<path d="M37.8702 56.103L37.2344 54.7859L68.5829 39.2686L69.2157 40.5856L37.8702 56.103ZM37.9269 55.0276L38.1083 55.4031L68.5262 40.3471L68.3459 39.9705L37.9269 55.0276Z" fill="black"/>
<path d="M53.929 47.459C53.8796 47.5383 53.8078 47.6006 53.7229 47.6379C53.2736 47.8366 52.7954 47.959 52.3398 48.1536L68.5892 50.8108L68.7376 49.8808L53.929 47.459Z" fill="black"/>
<path d="M68.8051 51.11L68.5516 51.0682L51.418 48.2656L52.2424 47.912C52.4702 47.8136 52.7062 47.7331 52.934 47.6546C53.1617 47.5762 53.4029 47.4946 53.6234 47.3973C53.6602 47.3803 53.6908 47.3521 53.711 47.3167L53.8028 47.1724L69.036 49.6632L68.8051 51.11ZM53.372 48.0564L68.3784 50.5106L68.4444 50.0922L54.0316 47.7425C53.9716 47.8008 53.9018 47.8476 53.8254 47.8806C53.6781 47.9444 53.5245 48.003 53.372 48.0564Z" fill="black"/>
<path d="M30.6868 19.5293L30.5527 20.4609L37.0273 21.4209L37.1613 20.4893L30.6868 19.5293Z" fill="black"/>
<path d="M37.2451 21.718L30.2607 20.6823L30.4669 19.2334L37.4512 20.2691L37.2451 21.718ZM30.8441 20.2408L36.8081 21.1248L36.8679 20.7064L30.9038 19.8224L30.8441 20.2408Z" fill="black"/>
<path d="M68.7686 23.8934L68.5674 24.8125L75.7697 26.4373L75.9709 25.5182L68.7686 23.8934Z" fill="black"/>
<path d="M75.9637 26.7488L68.2549 25.0101L68.5641 23.5811L76.2688 25.3187L75.9637 26.7488ZM68.8732 24.6136L75.5721 26.1242L75.6617 25.7162L68.9629 24.2046L68.8732 24.6136Z" fill="black"/>
<path d="M76.332 53.5546L94.3272 42.1978L76.332 52.8934V53.5546Z" fill="black"/>
<path d="M76.0742 54.0257V52.7431L76.202 52.6678L94.1972 41.9731L94.4631 42.4209L76.0742 54.0257ZM76.5895 53.0433V53.0841L77.7108 52.377L76.5895 53.0433Z" fill="black"/>
<path d="M86.791 17.6L87.5454 17.2632L95.2367 17.8574L94.2566 18.5552L86.791 17.6Z" fill="black"/>
<path d="M94.3288 18.8272L85.8398 17.7414L87.5053 16.9976H87.5702L95.9799 17.6483L94.3288 18.8272ZM89.382 17.666L94.2011 18.2833L94.5102 18.0625L89.382 17.666Z" fill="black"/>
<path d="M38.2483 55.8993L68.5653 41.0411L68.8693 40.4678H68.1664L38.1123 55.2559L38.2483 55.8993Z" fill="black"/>
<path d="M38.0667 56.2801L37.8184 55.1105L68.1085 40.2104H69.3019L68.7537 41.244L68.6784 41.2806L38.0667 56.2801ZM38.4079 55.4024L38.4326 55.5196L68.3796 40.8381L68.4393 40.7251H68.227L38.4079 55.4024Z" fill="black"/>
<path d="M40.4043 68.1422L43.1591 66.5176V67.3304L40.4311 68.6674" fill="black"/>
<path d="M40.5434 68.9027L40.3187 68.4319L40.5145 68.3357L40.2744 67.9172L43.4167 66.0635V67.4935L40.5434 68.9027ZM42.9014 66.9715L40.9495 68.1223L42.9014 67.1661V66.9715Z" fill="black"/>
<path d="M6.43735 61.0421L6.24512 62.0698L40.0294 68.5807L40.2216 67.5529L6.43735 61.0421Z" fill="black"/>
<path d="M40.2314 68.8797L39.9778 68.8316L5.94043 62.2744L6.229 60.7324L6.48252 60.7816L40.5199 67.3388L40.2314 68.8797ZM6.54333 61.8581L39.8212 68.2688L39.917 67.7551L6.63917 61.3423L6.54333 61.8581Z" fill="black"/>
<path d="M7.37141 49.7993H6.34082V61.5516H7.37141V49.7993Z" fill="black"/>
<path d="M7.6289 61.813H6.08301V49.5376H7.6289V61.813ZM6.5983 61.2899H7.1136V50.0607H6.5983V61.2899Z" fill="black"/>
<path d="M95.9475 17.6001L95.2364 42.1979L93.9688 42.4249L94.7747 17.6001H95.9475Z" fill="black"/>
<path d="M93.916 42.4877V42.4229L94.723 17.5479H95.9988V17.6012L95.2867 42.2429L93.916 42.4877ZM94.825 17.6525L94.0191 42.3622L95.1836 42.153L95.8906 17.6514L94.825 17.6525Z" fill="black"/>
<path d="M95.2362 42.1979L76.8143 54.0381L74.4141 53.5548L94.5642 41.2627L95.2362 42.1979Z" fill="black"/>
<path d="M76.8252 54.0938L74.2734 53.5802L94.5761 41.1929L95.3078 42.2129L95.2615 42.2432L76.8252 54.0938ZM74.5579 53.5299L76.8077 53.9829L95.1636 42.1846L94.5514 41.332L74.5579 53.5299Z" fill="black"/>
<path d="M76.8146 54.038L67.9639 52.8558V50.8096L73.832 53.2523L76.8146 54.038Z" fill="black"/>
<path d="M76.8081 54.0895L67.9131 52.9021V50.7324L73.8524 53.2045L76.8277 53.987L76.8081 54.0895ZM68.0161 52.8101L75.9919 53.875L73.8194 53.3038L68.0161 50.8883V52.8101Z" fill="black"/>
</g>
<defs>
<filter id="filter0_d" x="0" y="0" width="100" height="77" filterUnits="userSpaceOnUse" color-interpolation-filters="sRGB">
<feFlood flood-opacity="0" result="BackgroundImageFix"/>
<feColorMatrix in="SourceAlpha" type="matrix" values="0 0 0 0 0 0 0 0 0 0 0 0 0 0 0 0 0 0 127 0"/>
<feOffset dy="4"/>
<feGaussianBlur stdDeviation="2"/>
<feColorMatrix type="matrix" values="0 0 0 0 0 0 0 0 0 0 0 0 0 0 0 0 0 0 0.25 0"/>
<feBlend mode="normal" in2="BackgroundImageFix" result="effect1_dropShadow"/>
<feBlend mode="normal" in="SourceGraphic" in2="effect1_dropShadow" result="shape"/>
</filter>
<clipPath id="clip0">
<rect width="92" height="69" fill="white" transform="translate(4)"/>
</clipPath>
</defs>
</svg>
