<svg width="51" height="68" viewBox="0 0 51 68" fill="none" xmlns="http://www.w3.org/2000/svg">
<g clip-path="url(#clip0)">
<path d="M10.3347 22.3923H9.02539V10.0515C9.02539 7.47643 10.0696 5.00686 11.9283 3.18603C13.7869 1.36521 16.3078 0.342285 18.9364 0.342285H32.8379C35.4665 0.342285 37.9874 1.36521 39.8461 3.18603C41.7047 5.00686 42.7489 7.47643 42.7489 10.0515V21.7229H41.4396V10.0515C41.441 7.816 40.5384 5.67104 38.9292 4.08603C37.3201 2.50102 35.1355 1.60507 32.8536 1.59426H18.9521C16.6683 1.59696 14.4789 2.48653 12.8635 4.068C11.2482 5.64947 10.3388 7.79381 10.3347 10.031V22.3923Z" fill="#202020"/>
<path d="M10.673 22.7246H8.68555V10.0516C8.68969 7.38608 9.77275 4.83101 11.6972 2.94671C13.6216 1.06241 16.2304 0.00270298 18.9513 0H32.8528C35.5741 0.00135256 38.1836 1.06062 40.1084 2.94522C42.0331 4.82981 43.1157 7.38566 43.1185 10.0516V22.0347H41.1311V10.0516C41.1269 7.90244 40.2533 5.84258 38.7015 4.32341C37.1498 2.80423 35.0466 1.94965 32.8528 1.94695H18.9513C16.7575 1.94965 14.6543 2.80423 13.1025 4.32341C11.5508 5.84258 10.6771 7.90244 10.673 10.0516V22.7246ZM9.36367 22.0603H9.99485V10.0516C9.99761 7.72584 10.9423 5.49623 12.6215 3.85218C14.3007 2.20812 16.5772 1.28399 18.9513 1.28263H32.8528C35.2268 1.28399 37.5033 2.20812 39.1826 3.85218C40.8618 5.49623 41.8064 7.72584 41.8092 10.0516V21.3909H42.4404V10.0516C42.4376 7.56185 41.4264 5.17497 39.6289 3.41496C37.8313 1.65495 35.3942 0.665666 32.8528 0.664314H18.9513C16.4102 0.667016 13.974 1.65673 12.1767 3.41645C10.3794 5.17616 9.36781 7.56226 9.36367 10.0516V22.0603Z" fill="#202020"/>
<path d="M38.141 41.6216H12.8574V42.9042H38.141V41.6216Z" fill="#202020"/>
<path d="M38.4707 43.2367H12.5195V41.2847H38.4707V43.2367ZM13.182 42.5673H37.7926V41.9643H13.1977L13.182 42.5673Z" fill="#202020"/>
<path d="M44.0727 54.7852H6.82812V56.0678H44.0727V54.7852Z" fill="#202020"/>
<path d="M44.4162 56.4001H6.48828V54.4531H44.4162V56.4001ZM7.17162 55.7613H43.738V55.143H7.17162V55.7613Z" fill="#202020"/>
<path d="M37.6969 38.6476C36.7682 37.8163 35.5539 37.3584 34.2959 37.365H16.6073C15.3858 37.3637 14.2059 37.7999 13.2897 38.5914L12.4238 37.6307C13.5793 36.6412 15.0622 36.0964 16.5969 36.0977H34.2959C35.8866 36.0959 37.4195 36.6816 38.5889 37.738L37.6969 38.6476Z" fill="#202020"/>
<path d="M37.7192 39.118L37.4688 38.8931C36.6043 38.1131 35.4726 37.6791 34.2973 37.6769H16.6087C15.47 37.6784 14.3707 38.0852 13.5154 38.8216L13.2598 39.0413L11.9453 37.5798L12.2009 37.3601C13.4187 36.3093 14.9859 35.7297 16.6087 35.73H34.2973C35.9739 35.7279 37.5893 36.3467 38.8198 37.4623L39.0702 37.6871L37.7192 39.118ZM16.6087 37.0126H34.2973C35.5272 37.0101 36.7199 37.4255 37.6722 38.1879L38.1052 37.728C37.0324 36.864 35.6861 36.3924 34.2973 36.3943H16.6087C15.2677 36.3949 13.9656 36.8357 12.9103 37.6463L13.3276 38.1113C14.2668 37.3989 15.4209 37.0124 16.6087 37.0126Z" fill="#202020"/>
<path d="M6.9261 56.068C5.18193 56.0666 3.50936 55.3883 2.27458 54.1815C1.0398 52.9748 0.34341 51.3379 0.337891 49.6292V21.3449C0.339269 20.73 0.589216 20.1407 1.03304 19.7059C1.47687 19.2711 2.07844 19.0263 2.7061 19.0249C5.57135 19.029 8.31806 20.1458 10.3441 22.1306C12.3701 24.1153 13.5102 26.8061 13.5143 29.613V49.6292C13.5088 51.3379 12.8124 52.9748 11.5776 54.1815C10.3429 55.3883 8.67028 56.0666 6.9261 56.068ZM2.7061 20.2973C2.42941 20.2973 2.16405 20.405 1.9684 20.5967C1.77275 20.7883 1.66284 21.0483 1.66284 21.3193V49.6292C1.64061 50.3217 1.76064 51.0115 2.01579 51.6576C2.27095 52.3038 2.65603 52.8931 3.14818 53.3906C3.64033 53.8881 4.2295 54.2837 4.88073 54.5539C5.53195 54.824 6.23194 54.9632 6.93914 54.9632C7.64635 54.9632 8.34634 54.824 8.99757 54.5539C9.64879 54.2837 10.238 53.8881 10.7301 53.3906C11.2223 52.8931 11.6073 52.3038 11.8625 51.6576C12.1177 51.0115 12.2377 50.3217 12.2155 49.6292V29.613C12.2127 27.1446 11.2094 24.7782 9.42622 23.0342C7.64302 21.2902 5.22585 20.3113 2.7061 20.3126V20.2973Z" fill="#202020"/>
<path d="M6.92728 56.4002C5.0936 56.3976 3.33558 55.6838 2.03751 54.4151C0.739435 53.1463 0.00689148 51.4257 0 49.6294V21.345C0.00137866 20.642 0.28705 19.9682 0.794464 19.4712C1.30188 18.9741 1.98968 18.6942 2.70727 18.6929C5.66245 18.6969 8.49539 19.8487 10.585 21.8958C12.6746 23.9429 13.8504 26.7181 13.8546 29.6131V49.6294C13.8477 51.4257 13.1151 53.1463 11.817 54.4151C10.519 55.6838 8.76096 56.3976 6.92728 56.4002ZM2.70727 19.3572C2.16953 19.3585 1.65421 19.5684 1.27397 19.9409C0.893729 20.3134 0.679501 20.8182 0.678124 21.345V49.6294C0.678124 51.2557 1.33761 52.8154 2.51151 53.9654C3.68541 55.1154 5.27757 55.7615 6.93771 55.7615C8.59786 55.7615 10.19 55.1154 11.3639 53.9654C12.5378 52.8154 13.1973 51.2557 13.1973 49.6294V29.6131C13.1959 28.265 12.9235 26.9303 12.3956 25.6852C11.8677 24.4402 11.0946 23.3092 10.1205 22.3568C9.14644 21.4045 7.99041 20.6494 6.71844 20.1347C5.44647 19.62 4.08347 19.3558 2.70727 19.3572ZM6.92728 55.1278C5.4391 55.1265 4.01228 54.5467 2.95998 53.5159C1.90768 52.485 1.3159 51.0872 1.31452 49.6294V21.345C1.31452 20.9831 1.46125 20.6361 1.72245 20.3802C1.98364 20.1244 2.33789 19.9806 2.70727 19.9806C5.31472 19.9833 7.81466 20.9989 9.65889 22.8046C11.5031 24.6103 12.5411 27.0588 12.5453 29.6131V49.6294C12.5397 51.0859 11.9456 52.4811 10.8928 53.5096C9.83993 54.5381 8.41413 55.1163 6.92728 55.1176V55.1278ZM2.70727 20.6551C2.61343 20.6551 2.5205 20.6732 2.43379 20.7084C2.34709 20.7436 2.26831 20.7952 2.20195 20.8602C2.13559 20.9252 2.08295 21.0024 2.04703 21.0873C2.01112 21.1723 1.99264 21.2633 1.99264 21.3552V49.6294C1.97112 50.2778 2.0829 50.9238 2.32133 51.529C2.55977 52.1342 2.92 52.6863 3.38059 53.1524C3.84118 53.6186 4.39274 53.9892 5.00247 54.2423C5.6122 54.4954 6.26767 54.6259 6.92989 54.6259C7.59211 54.6259 8.24757 54.4954 8.8573 54.2423C9.46704 53.9892 10.0186 53.6186 10.4792 53.1524C10.9398 52.6863 11.3 52.1342 11.5384 51.529C11.7769 50.9238 11.8887 50.2778 11.8671 49.6294V29.6131C11.8644 27.2346 10.8983 24.9543 9.18091 23.2728C7.46355 21.5914 5.13529 20.6463 2.70727 20.6449V20.6551Z" fill="#202020"/>
<path d="M45.7738 56.068H42.3519C41.0583 56.068 39.8178 55.5646 38.9031 54.6685C37.9885 53.7725 37.4746 52.5572 37.4746 51.29V29.613C37.4774 26.8057 38.617 24.1141 40.6433 22.1291C42.6697 20.144 45.4172 19.0276 48.2828 19.0249C48.91 19.0263 49.5111 19.2713 49.9541 19.7062C50.3971 20.1411 50.6458 20.7305 50.6458 21.3449V51.29C50.6458 52.5563 50.1327 53.7708 49.2192 54.6667C48.3056 55.5626 47.0664 56.0666 45.7738 56.068ZM48.2828 20.2973C45.7649 20.2987 43.3504 21.2788 41.5695 23.0225C39.7885 24.7662 38.7867 27.131 38.7839 29.5977V51.2747C38.7853 52.2013 39.1616 53.0896 39.8305 53.7448C40.4993 54.4 41.406 54.7686 42.3519 54.77H45.7738C46.7192 54.7686 47.6254 54.3998 48.2934 53.7444C48.9614 53.0891 49.3365 52.2008 49.3365 51.2747V21.3296C49.3352 21.0603 49.2254 20.8024 49.031 20.612C48.8366 20.4216 48.5734 20.314 48.2985 20.3126L48.2828 20.2973Z" fill="#202020"/>
<path d="M45.773 56.4002H42.3511C40.9676 56.4002 39.6408 55.8619 38.6626 54.9035C37.6843 53.9452 37.1348 52.6454 37.1348 51.2902V29.6131C37.1389 26.7181 38.3147 23.9429 40.4043 21.8958C42.4939 19.8487 45.3269 18.6969 48.2821 18.6929C48.9992 18.6942 49.6864 18.9742 50.193 19.4715C50.6996 19.9687 50.9841 20.6425 50.9841 21.345V51.2902C50.9841 52.6446 50.4353 53.9435 49.4581 54.9017C48.481 55.8599 47.1556 56.3989 45.773 56.4002ZM48.2821 19.3572C45.5063 19.3599 42.845 20.4413 40.8823 22.3641C38.9195 24.2868 37.8157 26.8939 37.8129 29.6131V51.2902C37.8143 52.4688 38.2928 53.5989 39.1436 54.4323C39.9944 55.2658 41.1479 55.7346 42.3511 55.7359H45.773C46.9757 55.7346 48.1287 55.2656 48.9786 54.432C49.8286 53.5984 50.306 52.4684 50.306 51.2902V21.345C50.306 20.8213 50.0951 20.3188 49.7191 19.9466C49.343 19.5744 48.8322 19.3626 48.2977 19.3572H48.2821ZM45.773 55.1278H42.3511C41.3153 55.1265 40.3223 54.7228 39.5899 54.0053C38.8575 53.2878 38.4454 52.3151 38.4441 51.3004V29.6131C38.451 27.0579 39.4923 24.6097 41.3396 22.8058C43.187 21.0018 45.6893 19.9895 48.2977 19.9908C48.6667 19.9922 49.0201 20.1364 49.281 20.3919C49.5419 20.6475 49.6891 20.9938 49.6905 21.3552V51.3004C49.6891 51.803 49.5867 52.3004 49.3891 52.7643C49.1915 53.2282 48.9025 53.6493 48.5387 54.0038C48.175 54.3583 47.7435 54.6391 47.269 54.8302C46.7944 55.0213 46.2861 55.119 45.773 55.1176V55.1278ZM48.2821 20.6551C45.854 20.6565 43.5258 21.6016 41.8084 23.2831C40.0911 24.9645 39.1249 27.2448 39.1222 29.6234V51.3004C39.1236 52.1389 39.4642 52.9427 40.0694 53.5356C40.6747 54.1285 41.4952 54.4622 42.3511 54.4635H45.773C46.6285 54.4622 47.4484 54.1283 48.0528 53.5353C48.6572 52.9422 48.9967 52.1384 48.9967 51.3004V21.3552C48.9995 21.1704 48.9276 20.992 48.7966 20.859C48.6657 20.7259 48.4863 20.6489 48.2977 20.6449L48.2821 20.6551Z" fill="#202020"/>
<path d="M6.92703 62.2152C6.177 62.2152 5.4438 61.9974 4.82016 61.5891C4.19653 61.1809 3.71047 60.6007 3.42344 59.9219C3.13641 59.243 3.06131 58.4961 3.20763 57.7754C3.35396 57.0548 3.71514 56.3928 4.24549 55.8733C4.77585 55.3537 5.45157 54.9999 6.1872 54.8565C6.92283 54.7132 7.68532 54.7868 8.37827 55.068C9.07122 55.3491 9.66349 55.8253 10.0802 56.4362C10.4969 57.0472 10.7193 57.7654 10.7193 58.5002C10.7179 59.4851 10.3179 60.4292 9.60705 61.1256C8.89616 61.822 7.93238 62.2139 6.92703 62.2152ZM6.92703 56.0831C6.43595 56.0831 5.95589 56.2258 5.54757 56.4931C5.13925 56.7603 4.821 57.1402 4.63307 57.5847C4.44514 58.0291 4.39597 58.5182 4.49178 58.9901C4.58758 59.4619 4.82406 59.8953 5.17131 60.2355C5.51856 60.5757 5.96098 60.8073 6.44263 60.9012C6.92428 60.995 7.42353 60.9469 7.87723 60.7628C8.33093 60.5787 8.71872 60.2669 8.99155 59.8669C9.26438 59.4669 9.41 58.9966 9.41 58.5155C9.41207 58.1948 9.34937 57.8769 9.22551 57.58C9.10165 57.2831 8.91909 57.0131 8.68832 56.7856C8.45755 56.5581 8.18313 56.3776 7.88086 56.2544C7.57859 56.1312 7.25442 56.0678 6.92703 56.0678V56.0831Z" fill="#202020"/>
<path d="M6.92625 62.5475C6.10915 62.5475 5.3104 62.3102 4.63101 61.8654C3.95162 61.4207 3.4221 60.7886 3.1094 60.0491C2.79671 59.3096 2.7149 58.4958 2.87431 57.7108C3.03371 56.9257 3.42719 56.2045 4.00497 55.6385C4.58274 55.0725 5.31887 54.6871 6.12027 54.5309C6.92167 54.3747 7.75234 54.4549 8.50725 54.7612C9.26215 55.0675 9.90737 55.5863 10.3613 56.2518C10.8153 56.9174 11.0576 57.6999 11.0576 58.5003C11.0562 59.5733 10.6205 60.6019 9.84602 61.3606C9.07155 62.1193 8.02153 62.5462 6.92625 62.5475ZM6.92625 55.1174C6.24327 55.1174 5.57563 55.3158 5.00776 55.6876C4.43988 56.0593 3.99727 56.5876 3.7359 57.2057C3.47454 57.8239 3.40616 58.5041 3.5394 59.1603C3.67264 59.8165 4.00153 60.4193 4.48447 60.8924C4.96741 61.3655 5.58271 61.6877 6.25256 61.8182C6.92242 61.9487 7.61675 61.8817 8.24774 61.6257C8.87873 61.3697 9.41805 60.9361 9.79749 60.3797C10.1769 59.8234 10.3795 59.1694 10.3795 58.5003C10.3781 57.6035 10.0138 56.7439 9.36652 56.1098C8.71922 55.4756 7.84168 55.1188 6.92625 55.1174ZM6.92625 61.2496C6.36811 61.2496 5.8225 61.0874 5.35842 60.7836C4.89434 60.4799 4.53263 60.0481 4.31904 59.5429C4.10545 59.0378 4.04956 58.4819 4.15845 57.9457C4.26734 57.4094 4.53611 56.9168 4.93078 56.5301C5.32545 56.1435 5.82828 55.8802 6.3757 55.7736C6.92313 55.6669 7.49054 55.7216 8.0062 55.9309C8.52186 56.1401 8.9626 56.4945 9.27269 56.9491C9.58277 57.4037 9.74829 57.9382 9.74829 58.485C9.74966 58.8491 9.67772 59.21 9.53657 59.5469C9.39543 59.8837 9.18787 60.19 8.92575 60.4482C8.66363 60.7065 8.3521 60.9115 8.00901 61.0516C7.66591 61.1917 7.29797 61.2642 6.92625 61.2649V61.2496ZM6.92625 56.3847C6.50223 56.3847 6.08773 56.5079 5.73517 56.7387C5.3826 56.9695 5.1078 57.2975 4.94554 57.6813C4.78327 58.065 4.74082 58.4873 4.82354 58.8947C4.90627 59.3021 5.11045 59.6764 5.41028 59.9701C5.71011 60.2638 6.09212 60.4638 6.508 60.5449C6.92388 60.6259 7.35495 60.5843 7.74669 60.4254C8.13844 60.2664 8.47328 59.9972 8.70885 59.6518C8.94443 59.3064 9.07016 58.9004 9.07016 58.485C9.06468 57.9311 8.83655 57.4015 8.43523 57.0113C8.03391 56.621 7.49174 56.4014 6.92625 56.4001V56.3847Z" fill="#202020"/>
<path d="M13.1499 67.6677H0.708984V67.0034C0.755861 65.4177 1.43178 63.9124 2.59323 62.8071C3.75468 61.7018 5.31018 61.0835 6.92945 61.0835C8.54872 61.0835 10.1042 61.7018 11.2657 62.8071C12.4271 63.9124 13.103 65.4177 13.1499 67.0034V67.6677ZM2.06001 66.385H11.7937C11.6387 65.228 11.0595 64.1657 10.164 63.3961C9.26861 62.6265 8.11804 62.2021 6.92684 62.2021C5.73564 62.2021 4.58508 62.6265 3.68964 63.3961C2.79421 64.1657 2.21501 65.228 2.06001 66.385Z" fill="#202020"/>
<path d="M13.4888 68.0256H0.390625V67.0036C0.438786 65.3307 1.151 63.7422 2.37589 62.5756C3.60079 61.409 5.2418 60.7563 6.95015 60.7563C8.6585 60.7563 10.2995 61.409 11.5244 62.5756C12.7493 63.7422 13.4615 65.3307 13.5097 67.0036L13.4888 68.0256ZM1.04788 67.3613H12.8107V67.0036C12.7651 65.5052 12.1255 64.0832 11.0275 63.0391C9.92951 61.995 8.45949 61.411 6.92929 61.411C5.39909 61.411 3.92907 61.995 2.83106 63.0391C1.73306 64.0832 1.09344 65.5052 1.04788 67.0036V67.3613ZM12.1795 66.743H1.67384L1.726 66.3649C1.89983 65.134 2.52243 64.0063 3.47884 63.19C4.43525 62.3738 5.66085 61.9242 6.92929 61.9242C8.19773 61.9242 9.42333 62.3738 10.3797 63.19C11.3361 64.0063 11.9587 65.134 12.1326 66.3649L12.1795 66.743ZM2.47715 66.0531H11.4023C11.1784 65.057 10.6139 64.1657 9.80237 63.5268C8.99084 62.8878 7.98088 62.5395 6.93972 62.5395C5.89855 62.5395 4.8886 62.8878 4.07707 63.5268C3.26553 64.1657 2.70108 65.057 2.47715 66.0531Z" fill="#202020"/>
<path d="M44.0774 62.2152C43.3274 62.2152 42.5942 61.9974 41.9706 61.5891C41.3469 61.1809 40.8609 60.6007 40.5738 59.9219C40.2868 59.243 40.2117 58.4961 40.358 57.7754C40.5043 57.0548 40.8655 56.3928 41.3959 55.8733C41.9262 55.3537 42.602 54.9999 43.3376 54.8565C44.0732 54.7132 44.8357 54.7868 45.5287 55.068C46.2216 55.3491 46.8139 55.8253 47.2306 56.4362C47.6473 57.0472 47.8697 57.7654 47.8697 58.5002C47.8683 59.4851 47.4683 60.4292 46.7574 61.1256C46.0465 61.822 45.0828 62.2139 44.0774 62.2152ZM44.0774 56.0831C43.5863 56.0831 43.1063 56.2258 42.698 56.4931C42.2896 56.7603 41.9714 57.1402 41.7835 57.5847C41.5955 58.0291 41.5464 58.5182 41.6422 58.9901C41.738 59.4619 41.9744 59.8953 42.3217 60.2355C42.6689 60.5757 43.1114 60.8073 43.593 60.9012C44.0747 60.995 44.5739 60.9469 45.0276 60.7628C45.4813 60.5787 45.8691 60.2669 46.1419 59.8669C46.4148 59.4669 46.5604 58.9966 46.5604 58.5155C46.5625 58.1948 46.4998 57.8769 46.3759 57.58C46.252 57.2831 46.0695 57.0131 45.8387 56.7856C45.6079 56.5581 45.3335 56.3776 45.0312 56.2544C44.729 56.1312 44.4048 56.0678 44.0774 56.0678V56.0831Z" fill="#202020"/>
<path d="M44.0786 62.5475C43.2615 62.5475 42.4627 62.3102 41.7834 61.8654C41.104 61.4207 40.5744 60.7886 40.2617 60.0491C39.9491 59.3096 39.8672 58.4958 40.0266 57.7108C40.1861 56.9257 40.5795 56.2045 41.1573 55.6385C41.7351 55.0725 42.4712 54.6871 43.2726 54.5309C44.074 54.3747 44.9047 54.4549 45.6596 54.7612C46.4145 55.0675 47.0597 55.5863 47.5137 56.2518C47.9676 56.9174 48.2099 57.6999 48.2099 58.5003C48.2085 59.5733 47.7728 60.6019 46.9984 61.3606C46.2239 62.1193 45.1739 62.5462 44.0786 62.5475ZM44.0786 55.1174C43.3956 55.1174 42.728 55.3158 42.1601 55.6876C41.5922 56.0593 41.1496 56.5876 40.8882 57.2057C40.6269 57.8239 40.5585 58.5041 40.6917 59.1603C40.825 59.8165 41.1539 60.4193 41.6368 60.8924C42.1197 61.3655 42.735 61.6877 43.4049 61.8182C44.0748 61.9487 44.7691 61.8817 45.4001 61.6257C46.0311 61.3697 46.5704 60.9361 46.9498 60.3797C47.3293 59.8234 47.5318 59.1694 47.5318 58.5003C47.5304 57.6035 47.1662 56.7439 46.5189 56.1098C45.8716 55.4756 44.994 55.1188 44.0786 55.1174ZM44.0786 61.2496C43.5202 61.2506 42.9741 61.0893 42.5093 60.7861C42.0446 60.483 41.6821 60.0516 41.4677 59.5465C41.2533 59.0414 41.1966 58.4854 41.3049 57.9488C41.4132 57.4122 41.6816 56.9191 42.0761 56.532C42.4705 56.1448 42.9733 55.881 43.5209 55.7739C44.0685 55.6668 44.6361 55.7213 45.1521 55.9304C45.6681 56.1395 46.1091 56.4938 46.4194 56.9486C46.7298 57.4033 46.8954 57.938 46.8954 58.485C46.8975 58.8489 46.8262 59.2096 46.6856 59.5465C46.545 59.8833 46.3379 60.1897 46.0762 60.4479C45.8145 60.7062 45.5034 60.9113 45.1606 61.0515C44.8177 61.1917 44.4501 61.2642 44.0786 61.2649V61.2496ZM44.0786 56.3847C43.6546 56.3847 43.2401 56.5079 42.8875 56.7387C42.5349 56.9695 42.2601 57.2975 42.0979 57.6813C41.9356 58.065 41.8932 58.4873 41.9759 58.8947C42.0586 59.3021 42.2628 59.6764 42.5626 59.9701C42.8625 60.2638 43.2445 60.4638 43.6603 60.5449C44.0762 60.6259 44.5073 60.5843 44.899 60.4254C45.2908 60.2664 45.6256 59.9972 45.8612 59.6518C46.0968 59.3064 46.2225 58.9004 46.2225 58.485C46.2184 57.9306 45.9907 57.4004 45.5891 57.0098C45.1874 56.6192 44.6445 56.4001 44.0786 56.4001V56.3847Z" fill="#202020"/>
<path d="M50.2944 67.6677H37.8535V67.0034C37.9004 65.4177 38.5763 63.9124 39.7378 62.8071C40.8992 61.7018 42.4547 61.0835 44.074 61.0835C45.6932 61.0835 47.2487 61.7018 48.4102 62.8071C49.5716 63.9124 50.2476 65.4177 50.2944 67.0034V67.6677ZM39.2098 66.385H48.9434C48.7884 65.228 48.2092 64.1657 47.3138 63.3961C46.4184 62.6265 45.2678 62.2021 44.0766 62.2021C42.8854 62.2021 41.7348 62.6265 40.8394 63.3961C39.944 64.1657 39.3648 65.228 39.2098 66.385Z" fill="#202020"/>
<path d="M50.6347 68.0256H37.5156V67.0036C37.5638 65.3307 38.276 63.7422 39.5009 62.5756C40.7258 61.409 42.3668 60.7563 44.0752 60.7563C45.7835 60.7563 47.4245 61.409 48.6494 62.5756C49.8743 63.7422 50.5865 65.3307 50.6347 67.0036V68.0256ZM38.1937 67.3613H49.9461V67.0036C49.9006 65.5052 49.261 64.0832 48.1629 63.0391C47.0649 61.995 45.5949 61.411 44.0647 61.411C42.5345 61.411 41.0645 61.995 39.9665 63.0391C38.8685 64.0832 38.2289 65.5052 38.1833 67.0036L38.1937 67.3613ZM49.3306 66.743H38.8197L38.8719 66.3649C39.0457 65.134 39.6683 64.0063 40.6247 63.19C41.5811 62.3738 42.8067 61.9242 44.0752 61.9242C45.3436 61.9242 46.5692 62.3738 47.5256 63.19C48.482 64.0063 49.1046 65.134 49.2784 66.3649L49.3306 66.743ZM39.6126 66.0787H48.5377C48.3138 65.0826 47.7493 64.1913 46.9378 63.5523C46.1263 62.9133 45.1163 62.565 44.0752 62.565C43.034 62.565 42.024 62.9133 41.2125 63.5523C40.401 64.1913 39.8365 65.0826 39.6126 66.0787Z" fill="#202020"/>
<path d="M19.045 15.7287C19.0429 16.0244 18.9516 16.3128 18.7824 16.5577C18.6132 16.8026 18.3738 16.9929 18.0943 17.1046C17.8149 17.2164 17.5079 17.2446 17.2121 17.1857C16.9163 17.1268 16.645 16.9833 16.4323 16.7736C16.2196 16.5638 16.075 16.297 16.0169 16.0068C15.9588 15.7166 15.9896 15.4161 16.1056 15.1431C16.2216 14.8701 16.4175 14.6369 16.6686 14.4728C16.9197 14.3088 17.2148 14.2212 17.5166 14.2212C17.718 14.2219 17.9173 14.2614 18.1031 14.3375C18.2889 14.4136 18.4576 14.5248 18.5995 14.6648C18.7414 14.8048 18.8538 14.9708 18.9303 15.1533C19.0067 15.3359 19.0457 15.5314 19.045 15.7287Z" fill="#202020"/>
<path d="M27.2814 25.8725C27.2803 26.1686 27.1897 26.4578 27.0209 26.7035C26.8521 26.9491 26.6127 27.1402 26.3331 27.2526C26.0534 27.365 25.746 27.3936 25.4497 27.3349C25.1534 27.2761 24.8816 27.1326 24.6686 26.9225C24.4556 26.7124 24.3109 26.4451 24.253 26.1545C24.195 25.8638 24.2263 25.5629 24.343 25.2897C24.4596 25.0165 24.6563 24.7833 24.9082 24.6196C25.1601 24.4559 25.4559 24.3691 25.7582 24.3701C26.1631 24.3728 26.5505 24.5323 26.8359 24.8137C27.1212 25.0952 27.2814 25.4758 27.2814 25.8725Z" fill="#202020"/>
<path d="M35.5541 15.7287C35.551 16.0231 35.4591 16.3101 35.2898 16.5534C35.1206 16.7968 34.8816 16.9857 34.603 17.0963C34.3245 17.2068 34.0187 17.2342 33.7243 17.1749C33.4299 17.1156 33.1599 16.9723 32.9485 16.763C32.737 16.5538 32.5935 16.2879 32.536 15.9988C32.4784 15.7098 32.5095 15.4106 32.6252 15.1388C32.741 14.8671 32.9362 14.6349 33.1863 14.4716C33.4365 14.3083 33.7303 14.2212 34.0309 14.2212C34.2321 14.2219 34.4311 14.2614 34.6166 14.3376C34.8021 14.4138 34.9705 14.5251 35.112 14.6651C35.2535 14.8052 35.3654 14.9712 35.4412 15.1537C35.5171 15.3362 35.5555 15.5316 35.5541 15.7287Z" fill="#202020"/>
</g>
<defs>
<clipPath id="clip0">
<rect width="51" height="68" fill="white"/>
</clipPath>
</defs>
</svg>
