<svg width="113" height="98" viewBox="0 0 113 98" fill="none" xmlns="http://www.w3.org/2000/svg">
<path d="M0.0683594 72.2363H0.84082C1.50163 70.9147 2.02344 69.5954 2.40625 68.2783C2.78906 66.9567 3.07389 65.5326 3.26074 64.0059H9.08496V72.2363H10.418V76.9121H8.37402V74H2.1123V76.9121H0.0683594V72.2363ZM4.94238 65.7695C4.79655 66.8132 4.55273 67.9183 4.21094 69.085C3.8737 70.2516 3.49316 71.3021 3.06934 72.2363H6.97266V65.7695H4.94238ZM13.8154 66.3574V69.3789C13.8154 69.6979 13.763 70.4772 13.6582 71.7168L17.1855 66.3574H19.6943V74H17.6777V70.9512C17.6777 70.4089 17.7233 69.6432 17.8145 68.6543L14.3008 74H11.7988V66.3574H13.8154ZM28.9434 68.3604C28.9434 68.7705 28.8135 69.1214 28.5537 69.4131C28.2985 69.7002 27.9202 69.8848 27.4189 69.9668V70.0215C27.9613 70.0853 28.3896 70.2721 28.7041 70.582C29.0231 70.8874 29.1826 71.2656 29.1826 71.7168C29.1826 72.4596 28.891 73.027 28.3076 73.4189C27.7243 73.8063 26.8903 74 25.8057 74H21.8887V66.3574H25.8057C26.8538 66.3574 27.6377 66.5283 28.1572 66.8701C28.6813 67.2074 28.9434 67.7041 28.9434 68.3604ZM27.0225 71.6074C27.0225 71.3066 26.9062 71.0902 26.6738 70.958C26.4414 70.8213 26.0928 70.7529 25.6279 70.7529H23.9736V72.5576H25.6689C26.111 72.5576 26.446 72.4756 26.6738 72.3115C26.9062 72.1429 27.0225 71.9082 27.0225 71.6074ZM26.8311 68.5244C26.8311 68.0596 26.4619 67.8271 25.7236 67.8271H23.9736V69.3379H25.4844C25.9264 69.3379 26.2614 69.2741 26.4893 69.1465C26.7171 69.0189 26.8311 68.8115 26.8311 68.5244ZM35.6973 74L35.2939 72.9609H35.2393C34.8883 73.403 34.526 73.7106 34.1523 73.8838C33.7832 74.0524 33.3001 74.1367 32.7031 74.1367C31.9694 74.1367 31.3906 73.9271 30.9668 73.5078C30.5475 73.0885 30.3379 72.4915 30.3379 71.7168C30.3379 70.9056 30.6204 70.3086 31.1855 69.9258C31.7552 69.5384 32.612 69.3242 33.7559 69.2832L35.082 69.2422V68.9072C35.082 68.1325 34.6855 67.7451 33.8926 67.7451C33.2819 67.7451 32.5641 67.9297 31.7393 68.2988L31.0488 66.8906C31.9284 66.4303 32.9036 66.2002 33.9746 66.2002C35 66.2002 35.7861 66.4235 36.333 66.8701C36.8799 67.3167 37.1533 67.9958 37.1533 68.9072V74H35.6973ZM35.082 70.459L34.2754 70.4863C33.6693 70.5046 33.2181 70.6139 32.9219 70.8145C32.6257 71.015 32.4775 71.3203 32.4775 71.7305C32.4775 72.3184 32.8148 72.6123 33.4893 72.6123C33.9723 72.6123 34.3574 72.4733 34.6445 72.1953C34.9362 71.9173 35.082 71.5482 35.082 71.0879V70.459ZM41.3916 66.3574V69.2969H44.3037V66.3574H46.3887V74H44.3037V70.8486H41.3916V74H39.3066V66.3574H41.3916ZM50.6611 69.3105H51.666C52.8327 69.3105 53.6963 69.4974 54.2568 69.8711C54.8174 70.2448 55.0977 70.8099 55.0977 71.5664C55.0977 72.373 54.8174 72.9814 54.2568 73.3916C53.6963 73.7972 52.8577 74 51.7412 74H48.5762V66.3574H50.6611V69.3105ZM53.0127 71.5938C53.0127 71.2975 52.8942 71.0833 52.6572 70.9512C52.4202 70.819 52.0671 70.7529 51.5977 70.7529H50.6611V72.5576H51.625C52.5501 72.5576 53.0127 72.2363 53.0127 71.5938ZM58.29 74H56.2051V66.3574H58.29V74ZM10.7256 93H8.77734V86.9775L8.66797 87.4014C8.42188 88.363 8.20085 89.0898 8.00488 89.582L6.65137 93H5.16797L3.79395 89.5547C3.59798 89.0534 3.38835 88.3493 3.16504 87.4424L3.03516 86.9775V93H1.09375V85.3574H3.96484L5.27734 88.6182C5.41406 88.9691 5.53939 89.3724 5.65332 89.8281C5.77181 90.2839 5.85156 90.6735 5.89258 90.9971C6.04297 90.3135 6.15918 89.8236 6.24121 89.5273C6.3278 89.2266 6.42122 88.9508 6.52148 88.7002C6.62174 88.4495 7.0752 87.3353 7.88184 85.3574H10.7256V93ZM14.5811 89.165C14.5811 89.9215 14.7041 90.4935 14.9502 90.8809C15.2008 91.2682 15.6064 91.4619 16.167 91.4619C16.723 91.4619 17.1217 91.2705 17.3633 90.8877C17.6094 90.5003 17.7324 89.9261 17.7324 89.165C17.7324 88.4085 17.6094 87.8411 17.3633 87.4629C17.1172 87.0846 16.7139 86.8955 16.1533 86.8955C15.5973 86.8955 15.1963 87.0846 14.9502 87.4629C14.7041 87.8366 14.5811 88.404 14.5811 89.165ZM19.8652 89.165C19.8652 90.4092 19.5371 91.3822 18.8809 92.084C18.2246 92.7858 17.3109 93.1367 16.1396 93.1367C15.4059 93.1367 14.7588 92.9772 14.1982 92.6582C13.6377 92.3346 13.207 91.8721 12.9062 91.2705C12.6055 90.6689 12.4551 89.9671 12.4551 89.165C12.4551 87.9163 12.7809 86.9456 13.4326 86.2529C14.0843 85.5602 15.0003 85.2139 16.1807 85.2139C16.9144 85.2139 17.5615 85.3734 18.1221 85.6924C18.6826 86.0114 19.1133 86.4694 19.4141 87.0664C19.7148 87.6634 19.8652 88.363 19.8652 89.165ZM26.373 91.4756V86.9229H24.8076C24.6937 87.7705 24.5365 88.5749 24.3359 89.3359C24.14 90.097 23.8665 90.8102 23.5156 91.4756H26.373ZM29.5791 95.7412H27.7061V93H22.5654V95.7412H20.6924V91.4756H21.335C21.7725 90.7965 22.1393 89.9398 22.4355 88.9053C22.7318 87.8708 22.9391 86.6882 23.0576 85.3574H28.458V91.4756H29.5791V95.7412ZM29.791 85.3574H32.0742L33.5166 89.6572C33.6396 90.0309 33.724 90.473 33.7695 90.9834H33.8105C33.8607 90.514 33.9587 90.0719 34.1045 89.6572L35.5195 85.3574H37.7549L34.5215 93.9775C34.2253 94.7751 33.8014 95.3721 33.25 95.7686C32.7031 96.165 32.0628 96.3633 31.3291 96.3633C30.9691 96.3633 30.6159 96.3245 30.2695 96.2471V94.5928C30.5202 94.652 30.7936 94.6816 31.0898 94.6816C31.459 94.6816 31.7803 94.5677 32.0537 94.3398C32.3317 94.1165 32.5482 93.777 32.7031 93.3213L32.8262 92.9453L29.791 85.3574ZM45.6982 93H43.6133V86.9229H41.6924C41.5465 88.6318 41.3688 89.9079 41.1592 90.751C40.9495 91.5895 40.6693 92.1979 40.3184 92.5762C39.972 92.9499 39.5163 93.1367 38.9512 93.1367C38.4681 93.1367 38.0716 93.0638 37.7617 92.918V91.25C37.985 91.3411 38.2083 91.3867 38.4316 91.3867C38.6914 91.3867 38.9079 91.1999 39.0811 90.8262C39.2588 90.4525 39.416 89.8304 39.5527 88.96C39.694 88.085 39.8148 86.8841 39.915 85.3574H45.6982V93ZM49.9775 88.3105H51.4473C52.623 88.3105 53.4935 88.4974 54.0586 88.8711C54.6237 89.2448 54.9062 89.8099 54.9062 90.5664C54.9062 92.1888 53.7806 93 51.5293 93H47.8926V85.3574H49.9775V88.3105ZM52.8213 90.5938C52.8213 90.2975 52.7028 90.0833 52.4658 89.9512C52.2288 89.819 51.8757 89.7529 51.4062 89.7529H49.9775V91.5576H51.4336C52.3587 91.5576 52.8213 91.2363 52.8213 90.5938ZM58.5771 85.3574V88.2969H61.4893V85.3574H63.5742V93H61.4893V89.8486H58.5771V93H56.4922V85.3574H58.5771ZM67.8467 88.3105H68.8516C70.0182 88.3105 70.8818 88.4974 71.4424 88.8711C72.0029 89.2448 72.2832 89.8099 72.2832 90.5664C72.2832 91.373 72.0029 91.9814 71.4424 92.3916C70.8818 92.7972 70.0433 93 68.9268 93H65.7617V85.3574H67.8467V88.3105ZM70.1982 90.5938C70.1982 90.2975 70.0798 90.0833 69.8428 89.9512C69.6058 89.819 69.2526 89.7529 68.7832 89.7529H67.8467V91.5576H68.8105C69.7357 91.5576 70.1982 91.2363 70.1982 90.5938ZM75.4756 93H73.3906V85.3574H75.4756V93ZM80.835 86.6973C80.3929 86.6973 80.0465 86.8385 79.7959 87.1211C79.5452 87.3991 79.4017 87.7956 79.3652 88.3105H82.291C82.2819 87.7956 82.1475 87.3991 81.8877 87.1211C81.6279 86.8385 81.277 86.6973 80.835 86.6973ZM81.1289 93.1367C79.8984 93.1367 78.9368 92.7972 78.2441 92.1182C77.5514 91.4391 77.2051 90.4775 77.2051 89.2334C77.2051 87.9528 77.5241 86.9639 78.1621 86.2666C78.8047 85.5648 79.6911 85.2139 80.8213 85.2139C81.9014 85.2139 82.7422 85.5215 83.3438 86.1367C83.9453 86.752 84.2461 87.6019 84.2461 88.6865V89.6982H79.3174C79.3402 90.2907 79.5156 90.7533 79.8438 91.0859C80.1719 91.4186 80.6322 91.585 81.2246 91.585C81.6849 91.585 82.1201 91.5371 82.5303 91.4414C82.9404 91.3457 83.3688 91.193 83.8154 90.9834V92.5967C83.4508 92.779 83.0612 92.9134 82.6465 93C82.2318 93.0911 81.7259 93.1367 81.1289 93.1367Z" fill="#202020"/>
<g clip-path="url(#clip0)">
<path d="M67.505 24.6343H38.2071C37.5685 24.633 36.9485 24.8483 36.4492 25.2446V25.0784L35.5499 26.0244L34.6505 25.031V25.2446C34.1512 24.8483 33.5312 24.633 32.8926 24.6343H3.59471C3.20404 24.6346 2.81769 24.7156 2.46002 24.872C2.10235 25.0284 1.78113 25.2568 1.5166 25.5429V34.5614C1.78113 34.8475 2.10235 35.076 2.46002 35.2323C2.81769 35.3887 3.20404 35.4697 3.59471 35.47H32.8926C33.5306 35.4709 34.1501 35.257 34.6505 34.8631V35.0666L35.5499 34.1783L36.4492 35.0225V34.8631C36.9496 35.257 37.5691 35.4709 38.2071 35.47H67.505C67.8961 35.4695 68.283 35.3885 68.6412 35.2322C68.9994 35.0758 69.3212 34.8474 69.5865 34.5614V25.5463C69.3219 25.2592 69.0003 25.0298 68.642 24.8728C68.2837 24.7159 67.8965 24.6346 67.505 24.6343ZM34.6675 33.212C34.5467 33.5814 34.3117 33.9033 33.9959 34.1317C33.6802 34.36 33.3 34.4832 32.9096 34.4834H3.61174C3.12172 34.4834 2.65171 34.2899 2.3049 33.9454C1.95808 33.6009 1.76279 33.1335 1.76189 32.6458V29.2893H34.6505L34.6675 33.212ZM34.6675 28.0857H1.77893V27.4788C1.77983 26.9909 1.97501 26.5231 2.32173 26.1781C2.66845 25.833 3.13844 25.6387 3.62878 25.6378H32.9267C33.3169 25.6386 33.6969 25.7619 34.0125 25.9902C34.3281 26.2185 34.5633 26.5401 34.6845 26.9093L34.6675 28.0857ZM69.3549 32.6458C69.354 33.1335 69.1587 33.6009 68.8118 33.9454C68.465 34.2899 67.995 34.4834 67.505 34.4834H38.2071C37.8168 34.4832 37.4366 34.36 37.1208 34.1317C36.8051 33.9033 36.57 33.5814 36.4492 33.212V29.2893H69.3378L69.3549 32.6458ZM69.3549 28.0857H36.4595V26.8923C36.5807 26.5232 36.8159 26.2016 37.1315 25.9733C37.4471 25.745 37.8271 25.6217 38.2173 25.6209H67.5152C68.0055 25.6218 68.4755 25.816 68.8223 26.1611C69.169 26.5062 69.3642 26.9739 69.3651 27.4619L69.3549 28.0857Z" fill="#202020" stroke="#202020" stroke-width="0.3"/>
<path d="M109.984 14.8631V8.22129C109.982 6.84697 109.433 5.52946 108.456 4.55768C107.48 3.58589 106.156 3.03915 104.775 3.03735H79.3334C77.9519 3.03825 76.6271 3.58459 75.6499 4.55648C74.6727 5.52836 74.1229 6.84639 74.1211 8.22129V43.0001H110.001V14.8597L109.984 14.8631ZM108.774 14.8631V25.9599C108.68 25.821 108.574 25.6906 108.458 25.57V34.5986C108.575 34.4776 108.681 34.3459 108.774 34.2053V41.7863H75.3339V34.897C75.424 34.9672 75.5185 35.0317 75.6167 35.0902V33.7815C75.4927 33.6202 75.397 33.4391 75.3339 33.2459V29.3232H75.6167V28.1196H75.3339V26.9261C75.3985 26.7336 75.494 26.5527 75.6167 26.3905V25.0852C75.5177 25.1425 75.4232 25.2071 75.3339 25.2784V8.22129C75.3348 7.16591 75.7565 6.15401 76.5063 5.40775C77.2562 4.66149 78.2729 4.24184 79.3334 4.24094H104.775C105.835 4.24274 106.851 4.66267 107.601 5.40874C108.351 6.15481 108.773 7.16619 108.774 8.22129V14.8631Z" fill="#202020" stroke="#202020" stroke-width="0.3"/>
<path d="M106.373 24.668H77.0747C76.5535 24.6671 76.0425 24.8116 75.5996 25.085V26.3903C75.7715 26.1624 75.9942 25.9774 76.2502 25.8497C76.5062 25.722 76.7884 25.6552 77.0747 25.6546H106.373C106.863 25.6555 107.333 25.8497 107.68 26.1948C108.026 26.5398 108.222 27.0076 108.222 27.4956V28.1194H75.6166V29.323H108.222V32.6795C108.222 33.1675 108.026 33.6352 107.68 33.9803C107.333 34.3253 106.863 34.5196 106.373 34.5205H77.0747C76.788 34.52 76.5054 34.4529 76.2493 34.3246C75.9933 34.1963 75.7708 34.0103 75.5996 33.7814V35.0901C76.0432 35.362 76.5537 35.5063 77.0747 35.5071H106.373C106.761 35.5068 107.145 35.4265 107.501 35.2713C107.857 35.1161 108.177 34.8894 108.44 34.6053V25.5698C108.177 25.2857 107.857 25.0589 107.501 24.9037C107.145 24.7485 106.761 24.6683 106.373 24.668Z" fill="#202020" stroke="#202020" stroke-width="0.3"/>
<path d="M102.455 15.7886H81.6669C81.332 15.7886 81.0605 16.0588 81.0605 16.3921C81.0605 16.7254 81.332 16.9956 81.6669 16.9956H102.455C102.79 16.9956 103.061 16.7254 103.061 16.3921C103.061 16.0588 102.79 15.7886 102.455 15.7886Z" fill="#202020" stroke="#202020" stroke-width="0.3"/>
<path d="M71.1156 14.8291V8.18733C71.1147 6.81243 70.5657 5.49404 69.5891 4.52152C68.6126 3.549 67.2882 3.0018 65.9067 3H40.4652C39.3951 3.00111 38.3512 3.32958 37.4749 3.94088C36.5986 4.55218 35.9323 5.41678 35.5663 6.41754C35.2003 5.41678 34.534 4.55218 33.6577 3.94088C32.7815 3.32958 31.7375 3.00111 30.6674 3H5.22595C4.54102 2.99956 3.8627 3.13338 3.22973 3.39383C2.59676 3.65427 2.02153 4.03625 1.53689 4.51793C1.05225 4.99962 0.667685 5.57159 0.405158 6.20119C0.142631 6.83078 0.00728317 7.50567 0.00683594 8.18733V14.8291V42.9695H71.1394V14.8291H71.1156ZM69.9062 14.8291V25.9259C69.8157 25.7913 69.7143 25.6643 69.603 25.5462V34.5613C69.7135 34.4413 69.8149 34.3132 69.9062 34.1782V41.7591H36.4589V35.0224L35.5595 34.1782L34.6601 35.0665V41.7625H1.24348V34.1782C1.33426 34.3145 1.43685 34.4427 1.55009 34.5613V25.5428C1.43845 25.6627 1.33596 25.7908 1.24348 25.9259V14.8291V8.18733C1.24438 7.13254 1.66558 6.12116 2.4147 5.37499C3.16382 4.62883 4.17971 4.20878 5.23957 4.20698H30.6674C31.7273 4.20878 32.7432 4.62883 33.4923 5.37499C34.2414 6.12116 34.6626 7.13254 34.6635 8.18733V25.0309L35.5629 26.0242L36.4623 25.0783V8.18733C36.4641 7.13223 36.886 6.12085 37.6357 5.37478C38.3854 4.62872 39.4016 4.20878 40.4618 4.20698H65.9033C66.9634 4.20878 67.9797 4.62872 68.7293 5.37478C69.479 6.12085 69.901 7.13223 69.9028 8.18733L69.9062 14.8291Z" fill="#202020" stroke="#202020" stroke-width="0.3"/>
<path d="M62.255 15.758H8.86471C8.78148 15.7518 8.69786 15.7628 8.61908 15.7902C8.5403 15.8176 8.46805 15.8609 8.40687 15.9174C8.34568 15.9739 8.29688 16.0424 8.2635 16.1185C8.23012 16.1946 8.21289 16.2768 8.21289 16.3598C8.21289 16.4429 8.23012 16.5251 8.2635 16.6012C8.29688 16.6773 8.34568 16.7458 8.40687 16.8023C8.46805 16.8588 8.5403 16.9021 8.61908 16.9295C8.69786 16.9569 8.78148 16.9679 8.86471 16.9616H62.255C62.3382 16.9679 62.4219 16.9569 62.5006 16.9295C62.5794 16.9021 62.6517 16.8588 62.7128 16.8023C62.774 16.7458 62.8229 16.6773 62.8562 16.6012C62.8896 16.5251 62.9068 16.4429 62.9068 16.3598C62.9068 16.2768 62.8896 16.1946 62.8562 16.1185C62.8229 16.0424 62.774 15.9739 62.7128 15.9174C62.6517 15.8609 62.5794 15.8176 62.5006 15.7902C62.4219 15.7628 62.3382 15.7518 62.255 15.758Z" fill="#202020" stroke="#202020" stroke-width="0.3"/>
</g>
<defs>
<clipPath id="clip0">
<rect width="110" height="40" fill="white" transform="translate(0 3)"/>
</clipPath>
</defs>
</svg>
