<svg width="61" height="61" viewBox="0 0 61 61" fill="none" xmlns="http://www.w3.org/2000/svg">
<path fill-rule="evenodd" clip-rule="evenodd" d="M10.1055 22.6895C10.1055 12.3161 19.0229 3.87646 29.9836 3.87646C40.9446 3.87646 49.8617 12.3161 49.8617 22.6895C49.8617 35.0867 30.0031 58 30.0031 58C30.0031 58 10.1055 35.7279 10.1055 22.6895Z" fill="#22B14C"/>
<path d="M30.0071 41C25.6446 33.0313 21.3388 25.0173 17 17.0285C19.7855 17.0285 22.5758 16.9983 25.3614 17.0285C27.722 21.5533 30.229 25.9776 32.6085 30.4823C34.5301 26.963 36.4327 23.4085 38.359 19.8791C37.6414 19.8791 36.9426 19.8791 36.2014 19.8791C35.1485 21.8248 33.6802 24.5447 32.6132 26.4854C32.1159 25.5301 31.6029 24.5816 31.0741 23.6398C32.1316 21.6891 33.6189 18.9742 34.667 17.0134C37.4431 16.9832 40.2239 17.0134 43 17.0134C38.6627 25.0073 34.3318 33.0028 30.0071 41ZM21.6316 19.8842C21.6316 19.8842 27.2168 30.1756 29.9976 35.3239C30.3423 34.6552 30.7058 33.9915 31.0741 33.338C28.6521 28.8584 23.7986 19.8992 23.7986 19.8992L21.6316 19.8842Z" fill="white"/>
</svg>
