<svg width="174" height="40" viewBox="0 0 174 40" fill="none" xmlns="http://www.w3.org/2000/svg">
<path d="M107.656 17.3085C107.656 18.9518 107.168 20.5582 106.253 21.9245C105.338 23.2908 104.037 24.3558 102.515 24.9846C100.993 25.6135 99.3189 25.778 97.7034 25.4574C96.0879 25.1368 94.604 24.3455 93.4393 23.1836C92.2745 22.0216 91.4814 20.5412 91.16 18.9295C90.8387 17.3178 91.0036 15.6472 91.6339 14.129C92.2643 12.6108 93.3317 11.3132 94.7013 10.4002C96.0708 9.48729 97.681 9 99.3281 9C101.537 9 103.655 9.87536 105.217 11.4335C106.779 12.9917 107.656 15.105 107.656 17.3085Z" fill="#EE0005"/>
<path d="M118 17.3085C118 18.9518 117.512 20.5582 116.596 21.9245C115.681 23.2908 114.381 24.3558 112.859 24.9846C111.337 25.6135 109.663 25.778 108.047 25.4574C106.432 25.1368 104.948 24.3455 103.783 23.1836C102.618 22.0216 101.825 20.5412 101.504 18.9295C101.182 17.3178 101.347 15.6472 101.978 14.129C102.608 12.6108 103.675 11.3132 105.045 10.4002C106.415 9.48729 108.025 9 109.672 9C111.881 9 113.999 9.87536 115.561 11.4335C117.123 12.9917 118 15.105 118 17.3085Z" fill="#0099DF"/>
<path opacity="0.5" d="M101.349 17.3077C101.348 18.5598 101.631 19.7959 102.177 20.9233C102.723 22.0506 103.518 23.0399 104.502 23.8169C105.485 23.0389 106.279 22.0494 106.825 20.9224C107.371 19.7953 107.654 18.5598 107.654 17.3081C107.654 16.0564 107.371 14.8209 106.825 13.6938C106.279 12.5668 105.485 11.5773 104.502 10.7993C103.518 11.5761 102.723 12.5653 102.177 13.6925C101.631 14.8197 101.348 16.0557 101.349 17.3077Z" fill="#EE0005"/>
<path d="M94.2917 28.1062C93.9467 28.1062 93.6018 28.295 93.3949 28.6987C93.2569 28.3487 92.9743 28.1062 92.6151 28.1062C92.4548 28.1025 92.2965 28.1426 92.1574 28.222C92.0182 28.3014 91.9033 28.4172 91.8252 28.5569V28.3428C91.8252 28.2245 91.6948 28.1414 91.5451 28.1414C91.3617 28.1414 91.2363 28.2254 91.2363 28.3428V28.9857C91.2363 29.0327 91.2363 29.2131 91.2363 29.261V29.3273V30.7439C91.2363 30.8446 91.3844 30.9512 91.5451 30.9512C91.7057 30.9512 91.8597 30.8446 91.8597 30.7439V29.2753C91.8597 28.8716 92.1331 28.6584 92.4124 28.6584C92.6916 28.6584 92.965 28.9018 92.965 29.2694V30.7515C92.965 30.8933 93.1333 30.9529 93.2746 30.9529C93.4353 30.9529 93.5892 30.8933 93.5892 30.7515V29.2618C93.5892 28.8766 93.8694 28.6509 94.1486 28.6509C94.4279 28.6509 94.7013 28.8649 94.7013 29.2744V30.7456C94.7013 30.8463 94.8502 30.9529 95.0109 30.9529C95.1716 30.9529 95.3255 30.8463 95.3255 30.7456V29.2744C95.3264 28.5266 94.8267 28.1062 94.2917 28.1062Z" fill="#171614"/>
<path d="M96.8542 28.1064C96.4505 28.1064 95.9567 28.2743 95.9567 28.4858C95.9567 28.6276 96.0341 28.8005 96.1829 28.8005C96.3016 28.8005 96.4092 28.6217 96.8425 28.6217C97.2757 28.6217 97.4313 28.9574 97.4313 29.2621V29.3687H97.1697C96.3436 29.3687 95.7783 29.5474 95.7783 30.2171C95.7783 30.7517 96.135 31.0002 96.5691 31.0002C96.9729 31.0002 97.2589 30.7811 97.4667 30.5377V30.7459C97.4667 30.8583 97.5912 30.9532 97.7518 30.9532C97.9125 30.9532 98.0555 30.8583 98.0555 30.7459V29.2562C98.0555 28.6629 97.7283 28.1064 96.8542 28.1064ZM97.4313 29.9326C97.4313 30.2171 97.0948 30.526 96.7954 30.526C96.575 30.526 96.4092 30.4077 96.4092 30.1408C96.4092 29.7614 96.8298 29.7128 97.2824 29.7128H97.4313V29.9326Z" fill="#171614"/>
<path d="M99.1483 28.9304C99.1483 28.7818 99.2787 28.5863 99.6295 28.5863C99.966 28.5863 100.147 28.7541 100.272 28.7541C100.421 28.7541 100.509 28.5401 100.509 28.452C100.509 28.2615 100.064 28.1021 99.6177 28.1021C98.869 28.1021 98.6015 28.546 98.6015 28.9556C98.6015 29.94 100.032 29.5724 100.032 30.1951C100.032 30.3554 99.9181 30.5157 99.5269 30.5157C99.0163 30.5157 98.8909 30.243 98.737 30.243C98.6116 30.243 98.5225 30.415 98.5225 30.5216C98.5225 30.7474 98.9574 30.9958 99.5454 30.9958C100.218 30.9958 100.591 30.6752 100.591 30.1716C100.591 29.1041 99.1466 29.4482 99.1466 28.9262L99.1483 28.9304Z" fill="#171614"/>
<path d="M102.336 30.4191H102.128C101.818 30.4191 101.711 30.3117 101.711 30.0272V28.6005H102.437C102.544 28.6005 102.605 28.488 102.605 28.3688C102.605 28.2497 102.54 28.138 102.437 28.138H101.711V27.0554C101.711 26.9371 101.55 26.854 101.396 26.854C101.243 26.854 101.087 26.9379 101.087 27.0554V30.0272C101.087 30.6734 101.449 30.9504 102.128 30.9504H102.336C102.407 30.9504 102.475 30.9222 102.525 30.8722C102.575 30.8221 102.604 30.7543 102.604 30.6835C102.604 30.6127 102.575 30.5448 102.525 30.4948C102.475 30.4447 102.407 30.4166 102.336 30.4166V30.4191Z" fill="#171614"/>
<path d="M105.065 30.2709C104.904 30.2709 104.761 30.4966 104.34 30.4966C103.881 30.4966 103.567 30.2448 103.567 29.8496V29.7128H104.821C105.088 29.7128 105.363 29.6951 105.363 29.2033C105.363 28.5571 104.815 28.1064 104.179 28.1064C103.495 28.1064 102.942 28.6335 102.942 29.2562V29.8202C102.942 30.526 103.513 31.0002 104.322 31.0002C104.922 31.0002 105.309 30.7274 105.309 30.5495C105.309 30.4429 105.214 30.2709 105.065 30.2709ZM103.567 29.1379C103.567 28.8122 103.846 28.5806 104.173 28.5806C104.25 28.5782 104.327 28.591 104.399 28.6183C104.471 28.6457 104.537 28.687 104.593 28.7399C104.648 28.7929 104.693 28.8563 104.724 28.9267C104.755 28.997 104.772 29.0728 104.774 29.1496C104.774 29.2923 104.726 29.3275 104.553 29.3275H103.567V29.1379Z" fill="#171614"/>
<path d="M107.4 28.1064H107.214C106.863 28.1064 106.585 28.3582 106.457 28.6041V28.3431C106.457 28.2248 106.326 28.1417 106.171 28.1417C105.994 28.1417 105.868 28.2256 105.868 28.3431V30.7459C105.868 30.8466 105.994 30.9532 106.171 30.9532C106.349 30.9532 106.492 30.8466 106.492 30.7459V29.5298C106.492 28.9893 106.849 28.6578 107.212 28.6578H107.403C107.471 28.6506 107.533 28.6176 107.578 28.5656C107.622 28.5135 107.644 28.4465 107.641 28.3784C107.643 28.3111 107.62 28.2455 107.576 28.1949C107.531 28.1443 107.469 28.1126 107.402 28.1064H107.4Z" fill="#171614"/>
<path d="M109.823 30.2532C109.686 30.2532 109.592 30.4488 109.198 30.4488C108.742 30.4488 108.539 30.2113 108.539 29.8202V29.2864C108.539 28.8953 108.747 28.657 109.192 28.657C109.573 28.657 109.68 28.8416 109.805 28.8416C109.954 28.8416 110.057 28.657 110.057 28.5387C110.057 28.3314 109.689 28.1064 109.148 28.1064C108.298 28.1064 107.918 28.6217 107.918 29.2864V29.8202C107.918 30.4966 108.298 31.0002 109.154 31.0002C109.701 31.0002 110.093 30.7576 110.093 30.5495C110.093 30.4253 109.992 30.2532 109.826 30.2532H109.823Z" fill="#171614"/>
<path d="M111.437 28.1064C111.033 28.1064 110.54 28.2743 110.54 28.4858C110.54 28.6276 110.617 28.8005 110.765 28.8005C110.885 28.8005 110.991 28.6217 111.425 28.6217C111.86 28.6217 112.014 28.9574 112.014 29.2621V29.3687H111.752C110.926 29.3687 110.361 29.5474 110.361 30.2171C110.361 30.7517 110.718 31.0002 111.151 31.0002C111.557 31.0002 111.841 30.7811 112.05 30.5377V30.7459C112.05 30.8583 112.174 30.9532 112.335 30.9532C112.496 30.9532 112.639 30.8583 112.639 30.7459V29.2562C112.639 28.6629 112.311 28.1064 111.437 28.1064ZM112.014 29.9326C112.014 30.2171 111.678 30.526 111.378 30.526C111.158 30.526 110.991 30.4077 110.991 30.1408C110.991 29.7614 111.412 29.7128 111.865 29.7128H112.014V29.9326Z" fill="#171614"/>
<path d="M114.808 28.1062H114.617C114.267 28.1062 113.987 28.3579 113.86 28.6038V28.3428C113.86 28.2245 113.729 28.1414 113.574 28.1414C113.396 28.1414 113.271 28.2253 113.271 28.3428V30.7456C113.271 30.8463 113.396 30.9529 113.574 30.9529C113.753 30.9529 113.896 30.8463 113.896 30.7456V29.5295C113.896 28.9891 114.252 28.6576 114.615 28.6576H114.805C114.874 28.6513 114.938 28.6185 114.983 28.566C115.028 28.5134 115.051 28.4454 115.046 28.3764C115.049 28.3093 115.026 28.2438 114.982 28.1932C114.937 28.1426 114.875 28.1109 114.808 28.1045V28.1062Z" fill="#171614"/>
<path d="M117.459 26.4688C117.281 26.4688 117.144 26.5527 117.144 26.6702V28.0902V28.556C117.067 28.4191 116.955 28.3052 116.819 28.2261C116.684 28.147 116.529 28.1056 116.372 28.1061H116.353C116.263 28.1066 116.174 28.1214 116.088 28.1498C115.641 28.2874 115.308 28.7414 115.308 29.2743V29.8199V29.8316C115.308 30.3645 115.644 30.8177 116.088 30.9554C116.174 30.984 116.263 30.999 116.353 30.9998H116.372C116.529 31.0004 116.684 30.9589 116.82 30.8796C116.955 30.8004 117.067 30.6862 117.144 30.5492V30.7514C117.144 30.8698 117.274 30.9528 117.454 30.9528C117.633 30.9528 117.768 30.8689 117.768 30.7514V26.6702C117.768 26.5518 117.638 26.4688 117.459 26.4688ZM117.064 30.1438C117.005 30.2315 116.927 30.3046 116.835 30.3574C116.743 30.4102 116.641 30.4414 116.535 30.4485C116.395 30.4459 116.26 30.3928 116.156 30.2991L116.148 30.2915C116.082 30.2317 116.03 30.1592 115.993 30.0784C115.956 29.9976 115.936 29.9102 115.934 29.8215V29.2869C115.936 29.1984 115.956 29.1112 115.992 29.0306C116.029 28.9499 116.082 28.8775 116.147 28.8178L116.156 28.8102C116.26 28.7173 116.395 28.6646 116.535 28.6617C116.641 28.6686 116.743 28.6997 116.835 28.7525C116.927 28.8053 117.005 28.8785 117.064 28.9663C117.118 29.0613 117.145 29.1687 117.144 29.2777V29.8358C117.145 29.9437 117.117 30.0498 117.064 30.1438Z" fill="#171614"/>
<path d="M68.6557 17.3085C68.6557 18.9518 68.1673 20.5582 67.2522 21.9245C66.3372 23.2908 65.0365 24.3558 63.5148 24.9846C61.9931 25.6135 60.3186 25.778 58.7032 25.4574C57.0877 25.1368 55.6039 24.3455 54.4392 23.1836C53.2745 22.0216 52.4814 20.5411 52.16 18.9294C51.8387 17.3177 52.0036 15.6472 52.6339 14.129C53.2642 12.6108 54.3316 11.3132 55.7012 10.4002C57.0707 9.48729 58.6808 9 60.3279 9C62.5366 9 64.6548 9.87536 66.2166 11.4335C67.7783 12.9917 68.6557 15.105 68.6557 17.3085Z" fill="#EE0005"/>
<path d="M79.0005 17.3085C79.0005 18.9518 78.512 20.5582 77.597 21.9245C76.6819 23.2908 75.3812 24.3558 73.8595 24.9846C72.3378 25.6135 70.6634 25.778 69.0479 25.4574C67.4325 25.1368 65.9486 24.3455 64.7839 23.1836C63.6192 22.0216 62.8261 20.5411 62.5047 18.9294C62.1834 17.3177 62.3483 15.6472 62.9787 14.129C63.609 12.6108 64.6764 11.3132 66.0459 10.4002C67.4154 9.48729 69.0255 9 70.6726 9C72.8813 9 74.9995 9.87536 76.5613 11.4335C78.1231 12.9917 79.0005 15.105 79.0005 17.3085Z" fill="#F9A000"/>
<path d="M62.3496 17.3077C62.348 18.5604 62.6309 19.7972 63.1771 20.9252C63.7233 22.0531 64.5186 23.043 65.5033 23.8203C66.4861 23.0423 67.2801 22.0528 67.8258 20.9258C68.3716 19.7987 68.6551 18.5632 68.6551 17.3115C68.6551 16.0598 68.3716 14.8243 67.8258 13.6972C67.2801 12.5702 66.4861 11.5807 65.5033 10.8027C64.5191 11.5796 63.7241 12.5687 63.1779 13.6959C62.6317 14.8231 62.3486 16.0591 62.3496 17.3111V17.3077Z" fill="#FF6300"/>
<path d="M55.2924 28.1062C54.9475 28.1062 54.6026 28.295 54.3948 28.6987C54.2577 28.3487 53.9742 28.1062 53.6159 28.1062C53.4555 28.1025 53.2971 28.1425 53.1578 28.2219C53.0184 28.3013 52.9034 28.4171 52.8252 28.5569V28.3429C52.8252 28.2245 52.6948 28.1414 52.5459 28.1414C52.3617 28.1414 52.2363 28.2254 52.2363 28.3429V28.9857C52.2363 29.0327 52.2363 29.2132 52.2363 29.2602V29.3273V30.7439C52.2363 30.8447 52.3844 30.9512 52.5459 30.9512C52.7074 30.9512 52.8605 30.8447 52.8605 30.7439V29.2753C52.8605 28.8724 53.1339 28.6593 53.4132 28.6593C53.6924 28.6593 53.965 28.9018 53.965 29.2694V30.7532C53.965 30.895 54.1332 30.9538 54.2746 30.9538C54.4361 30.9538 54.59 30.895 54.59 30.7532V29.2635C54.59 28.8783 54.8693 28.6525 55.1494 28.6525C55.4295 28.6525 55.7021 28.8666 55.7021 29.2753V30.7465C55.7021 30.8472 55.8501 30.9538 56.0116 30.9538C56.1731 30.9538 56.3254 30.8472 56.3254 30.7465V29.2753C56.3262 28.5267 55.8291 28.1062 55.2924 28.1062Z" fill="#171614"/>
<path d="M57.8543 28.1064C57.4497 28.1064 56.9559 28.2743 56.9559 28.4858C56.9559 28.6276 57.0342 28.8005 57.1822 28.8005C57.3008 28.8005 57.4085 28.6217 57.8426 28.6217C58.2766 28.6217 58.4314 28.9574 58.4314 29.2621V29.3687H58.1698C57.3437 29.3687 56.7793 29.5474 56.7793 30.2171C56.7793 30.7517 57.136 31.0002 57.5692 31.0002C57.9738 31.0002 58.259 30.7811 58.4676 30.5377V30.745C58.4676 30.8575 58.5921 30.9523 58.7527 30.9523C58.9134 30.9523 59.0556 30.8575 59.0556 30.745V29.2562C59.0556 28.6629 58.7292 28.1064 57.8552 28.1064H57.8543ZM58.4306 29.9326C58.4306 30.2171 58.0941 30.526 57.7946 30.526C57.5742 30.526 57.4085 30.4077 57.4085 30.1399C57.4085 29.7606 57.8291 29.7128 58.2817 29.7128H58.4306V29.9326Z" fill="#171614"/>
<path d="M60.1491 28.9304C60.1491 28.7818 60.2795 28.5863 60.6303 28.5863C60.9668 28.5863 61.1477 28.7541 61.2721 28.7541C61.421 28.7541 61.5102 28.5401 61.5102 28.4512C61.5102 28.2615 61.0644 28.1021 60.6185 28.1021C59.8699 28.1021 59.6015 28.546 59.6015 28.9556C59.6015 29.94 61.0316 29.5724 61.0316 30.1951C61.0316 30.3546 60.918 30.5157 60.5268 30.5157C60.0162 30.5157 59.8909 30.2421 59.7361 30.2421C59.6116 30.2421 59.5225 30.415 59.5225 30.5216C59.5225 30.7473 59.9565 30.9958 60.5445 30.9958C61.2175 30.9958 61.591 30.6752 61.591 30.1716C61.591 29.1041 60.1466 29.4482 60.1466 28.9262L60.1491 28.9304Z" fill="#171614"/>
<path d="M63.3365 30.4191H63.1288C62.8192 30.4191 62.7082 30.3116 62.7082 30.0271V28.6004H63.4333C63.5401 28.6004 63.6015 28.488 63.6015 28.3688C63.6015 28.2496 63.5359 28.138 63.4333 28.138H62.7082V27.052C62.7082 26.9337 62.5475 26.8506 62.3927 26.8506C62.2379 26.8506 62.084 26.9345 62.084 27.052V30.0305C62.084 30.6767 62.4465 30.9537 63.1237 30.9537H63.3323C63.4006 30.9498 63.4648 30.9201 63.5117 30.8705C63.5587 30.821 63.5848 30.7554 63.5848 30.6872C63.5848 30.619 63.5587 30.5534 63.5117 30.5039C63.4648 30.4543 63.4006 30.4246 63.3323 30.4207L63.3365 30.4191Z" fill="#171614"/>
<path d="M66.0646 30.2709C65.9039 30.2709 65.7609 30.4966 65.3395 30.4966C64.881 30.4966 64.5656 30.2448 64.5656 29.8496V29.7128H65.8207C66.0882 29.7128 66.3615 29.6951 66.3615 29.2033C66.3615 28.5571 65.8148 28.1064 65.178 28.1064C64.4949 28.1064 63.9414 28.6335 63.9414 29.2562V29.8202C63.9414 30.526 64.5126 31.0002 65.321 31.0002C65.9216 31.0002 66.3085 30.7274 66.3085 30.5495C66.3085 30.4429 66.2127 30.2709 66.0646 30.2709ZM64.5656 29.1379C64.5656 28.8123 64.8457 28.5806 65.1721 28.5806C65.2491 28.5782 65.3258 28.591 65.3978 28.6183C65.4698 28.6457 65.5357 28.687 65.5915 28.7399C65.6474 28.7929 65.6922 28.8563 65.7233 28.9267C65.7544 28.997 65.7712 29.0728 65.7727 29.1496C65.7727 29.2915 65.7256 29.3276 65.5523 29.3276H64.5656V29.1379Z" fill="#171614"/>
<path d="M68.4011 28.106H68.2102C67.8602 28.106 67.581 28.3578 67.4531 28.6037V28.3427C67.4531 28.2244 67.3227 28.1413 67.1679 28.1413C66.9896 28.1413 66.8643 28.2252 66.8643 28.3427V30.7446C66.8643 30.8453 66.9896 30.9519 67.1679 30.9519C67.3463 30.9519 67.4893 30.8453 67.4893 30.7446V29.5269C67.4893 28.9864 67.8459 28.6549 68.2085 28.6549H68.3986C68.4666 28.6477 68.5293 28.6147 68.5736 28.5626C68.6179 28.5106 68.6405 28.4436 68.6367 28.3754C68.6393 28.3083 68.6161 28.2428 68.5719 28.1922C68.5276 28.1416 68.4656 28.1099 68.3986 28.1035L68.4011 28.106Z" fill="#171614"/>
<path d="M70.8203 30.2524C70.6841 30.2524 70.589 30.4488 70.1962 30.4488C69.7386 30.4488 69.5358 30.2113 69.5358 29.8202V29.2856C69.5358 28.8945 69.7445 28.657 70.1903 28.657C70.5714 28.657 70.6782 28.8416 70.8027 28.8416C70.9516 28.8416 71.055 28.657 71.055 28.5387C71.055 28.3314 70.6866 28.1064 70.1449 28.1064C69.2953 28.1064 68.915 28.6217 68.915 29.2814V29.816C68.915 30.4924 69.2953 30.996 70.1516 30.996C70.6984 30.996 71.0904 30.7534 71.0904 30.5453C71.0904 30.4211 70.9903 30.2482 70.8229 30.2482L70.8203 30.2524Z" fill="#171614"/>
<path d="M72.4372 28.1064C72.0334 28.1064 71.5397 28.2743 71.5397 28.4858C71.5397 28.6276 71.617 28.8005 71.7659 28.8005C71.8854 28.8005 71.9922 28.6217 72.4254 28.6217C72.8587 28.6217 73.0143 28.9574 73.0143 29.2621V29.3687H72.7527C71.9266 29.3687 71.3613 29.5474 71.3613 30.2171C71.3613 30.7517 71.718 31.0002 72.1521 31.0002C72.5567 31.0002 72.8418 30.7811 73.0496 30.5377V30.745C73.0496 30.8575 73.1741 30.9523 73.3356 30.9523C73.4971 30.9523 73.6384 30.8575 73.6384 30.745V29.2562C73.6384 28.6629 73.3112 28.1064 72.4372 28.1064ZM73.0143 29.9326C73.0143 30.2171 72.6778 30.526 72.3783 30.526C72.1579 30.526 71.9922 30.4077 71.9922 30.1399C71.9922 29.7606 72.4128 29.7128 72.8654 29.7128H73.0143V29.9326Z" fill="#171614"/>
<path d="M75.8078 28.106H75.6185C75.2677 28.106 74.9876 28.3578 74.8614 28.6037V28.3427C74.8614 28.2244 74.7302 28.1413 74.5763 28.1413C74.3979 28.1413 74.2734 28.2252 74.2734 28.3427V30.7446C74.2734 30.8453 74.3979 30.9519 74.5763 30.9519C74.7546 30.9519 74.8976 30.8453 74.8976 30.7446V29.5269C74.8976 28.9864 75.2543 28.6549 75.6168 28.6549H75.8061C75.8742 28.6479 75.937 28.6149 75.9814 28.5628C76.0257 28.5108 76.0482 28.4436 76.0442 28.3754C76.0468 28.3083 76.0236 28.2428 75.9794 28.1922C75.9351 28.1416 75.8731 28.1099 75.8061 28.1035L75.8078 28.106Z" fill="#171614"/>
<path d="M78.4576 26.4688C78.2801 26.4688 78.143 26.5527 78.143 26.6702V28.0902V28.556C78.066 28.4191 77.9537 28.3052 77.8178 28.2261C77.6819 28.147 77.5272 28.1056 77.3699 28.1061H77.3522C77.2619 28.1067 77.1722 28.1214 77.0864 28.1498C76.6397 28.2874 76.3066 28.7414 76.3066 29.2735V29.8199V29.8316C76.3066 30.3645 76.6431 30.8177 77.0864 30.9554C77.1722 30.984 77.2619 30.999 77.3522 30.9998H77.3699C77.5273 31.0003 77.6821 30.9588 77.818 30.8796C77.9539 30.8003 78.0661 30.6863 78.143 30.5492V30.7506C78.143 30.8689 78.2734 30.952 78.4517 30.952C78.63 30.952 78.7671 30.8681 78.7671 30.7514V26.6735C78.7688 26.5518 78.6384 26.4688 78.4576 26.4688ZM78.0631 30.143C78.0042 30.231 77.9257 30.3044 77.8338 30.3574C77.7419 30.4104 77.639 30.4415 77.5331 30.4484C77.393 30.4459 77.2585 30.3928 77.1546 30.2991L77.147 30.2923C77.0814 30.2325 77.0288 30.16 76.9922 30.0792C76.9556 29.9984 76.9359 29.911 76.9342 29.8224V29.2878C76.9359 29.1993 76.9556 29.112 76.9922 29.0314C77.0288 28.9507 77.0815 28.8783 77.147 28.8186L77.1546 28.8111C77.2593 28.7181 77.3938 28.6652 77.5339 28.6617C77.6399 28.6686 77.7427 28.6998 77.8347 28.7528C77.9266 28.8057 78.005 28.8791 78.0639 28.9672C78.1187 29.0618 78.1477 29.1692 78.148 29.2785V29.8366C78.1471 29.9442 78.1184 30.0497 78.0647 30.143H78.0631Z" fill="#171614"/>
<g clip-path="url(#clip0)">
<path d="M14.667 25.746L16.6987 14.3174H19.8733L17.9051 25.746H14.667Z" fill="#3C58BF"/>
<path d="M14.667 25.746L17.2702 14.3174H19.8733L17.9051 25.746H14.667Z" fill="#293688"/>
<path d="M29.3969 14.4445C28.762 14.1905 27.7461 13.9365 26.4763 13.9365C23.3017 13.9365 21.0159 15.5238 21.0159 17.8095C21.0159 19.5238 22.6033 20.4127 23.8731 20.9841C25.1429 21.5556 25.5239 21.9365 25.5239 22.4445C25.5239 23.2064 24.508 23.5873 23.6191 23.5873C22.3493 23.5873 21.6509 23.3968 20.5715 22.9524L20.1271 22.7619L19.6826 25.3651C20.4445 25.6826 21.8413 26 23.3017 26C26.6667 26 28.889 24.4127 28.889 22C28.889 20.6667 28.0636 19.6508 26.1588 18.8254C25.016 18.254 24.3175 17.9365 24.3175 17.3651C24.3175 16.8572 24.889 16.3492 26.1588 16.3492C27.2382 16.3492 28.0001 16.5397 28.5715 16.7937L28.889 16.9207L29.3969 14.4445Z" fill="#3C58BF"/>
<path d="M29.3969 14.4445C28.762 14.1905 27.7461 13.9365 26.4763 13.9365C23.3017 13.9365 21.5874 15.5238 21.5874 17.8095C21.5874 19.5238 22.6033 20.4127 23.8731 20.9841C25.1429 21.5556 25.5239 21.9365 25.5239 22.4445C25.5239 23.2064 24.508 23.5873 23.6191 23.5873C22.3493 23.5873 21.6509 23.3968 20.5715 22.9524L20.1271 22.7619L19.6826 25.3651C20.4445 25.6826 21.8413 26 23.3017 26C26.6667 26 28.889 24.4127 28.889 22C28.889 20.6667 28.0636 19.6508 26.1588 18.8254C25.016 18.254 24.3175 17.9365 24.3175 17.3651C24.3175 16.8572 24.889 16.3492 26.1588 16.3492C27.2382 16.3492 28.0001 16.5397 28.5715 16.7937L28.889 16.9207L29.3969 14.4445Z" fill="#293688"/>
<path d="M34.857 14.3174C34.0951 14.3174 33.5237 14.3809 33.2062 15.1428L28.4443 25.746H31.8729L32.5078 23.8412H36.5713L36.9523 25.746H39.9999L37.3332 14.3174H34.857ZM33.3967 21.9364C33.5872 21.365 34.6665 18.5714 34.6665 18.5714C34.6665 18.5714 34.9205 17.8729 35.111 17.4285L35.3015 18.5079C35.3015 18.5079 35.9364 21.365 36.0634 21.9999H33.3967V21.9364Z" fill="#3C58BF"/>
<path d="M35.6189 14.3174C34.857 14.3174 34.2856 14.3809 33.9681 15.1428L28.4443 25.746H31.8729L32.5078 23.8412H36.5713L36.9523 25.746H39.9999L37.3332 14.3174H35.6189ZM33.3967 21.9364C33.6507 21.3015 34.6665 18.5714 34.6665 18.5714C34.6665 18.5714 34.9205 17.8729 35.111 17.4285L35.3015 18.5079C35.3015 18.5079 35.9364 21.365 36.0634 21.9999H33.3967V21.9364Z" fill="#293688"/>
<path d="M8.82538 22.3174L8.50792 20.6666C7.93649 18.7618 6.09522 16.6666 4.06348 15.6507L6.92062 25.8094H10.3492L15.492 14.3809H12.0635L8.82538 22.3174Z" fill="#3C58BF"/>
<path d="M8.82538 22.3174L8.50792 20.6666C7.93649 18.7618 6.09522 16.6666 4.06348 15.6507L6.92062 25.8094H10.3492L15.492 14.3809H12.6984L8.82538 22.3174Z" fill="#293688"/>
<path d="M0 14.3174L0.571429 14.4444C4.63492 15.3967 7.42857 17.8094 8.50794 20.6666L7.36508 15.2698C7.1746 14.5079 6.60318 14.3174 5.90476 14.3174H0Z" fill="#FFBC00"/>
<path d="M0 14.3174C4.06349 15.2698 7.42857 17.746 8.50794 20.6031L7.42857 16.0952C7.2381 15.3333 6.60318 14.8888 5.90476 14.8888L0 14.3174Z" fill="#F7981D"/>
<path d="M0 14.3174C4.06349 15.2698 7.42857 17.746 8.50794 20.6031L7.74603 18.1269C7.55556 17.365 7.30159 16.6031 6.4127 16.2856L0 14.3174Z" fill="#ED7C00"/>
<path d="M12 21.9366L9.84124 19.7779L8.82537 22.1906L8.5714 20.6033C7.99997 18.6985 6.1587 16.6033 4.12695 15.5874L6.9841 25.7461H10.4127L12 21.9366Z" fill="#051244"/>
<path d="M17.9051 25.7463L15.1749 22.9526L14.667 25.7463H17.9051Z" fill="#051244"/>
<path d="M25.2064 21.8096C25.4604 22.0635 25.5874 22.254 25.5239 22.508C25.5239 23.2699 24.508 23.6508 23.6191 23.6508C22.3493 23.6508 21.6509 23.4604 20.5715 23.0159L20.1271 22.8254L19.6826 25.4286C20.4445 25.7461 21.8413 26.0635 23.3017 26.0635C25.3334 26.0635 26.9842 25.4921 27.9366 24.4762L25.2064 21.8096Z" fill="#051244"/>
<path d="M28.8887 25.7462H31.8728L32.5077 23.8414H36.5712L36.9522 25.7462H39.9998L38.9204 21.1113L35.1109 17.4287L35.3014 18.4446C35.3014 18.4446 35.9363 21.3017 36.0633 21.9366H33.3966C33.6506 21.3017 34.6665 18.5716 34.6665 18.5716C34.6665 18.5716 34.9204 17.8732 35.1109 17.4287" fill="#051244"/>
</g>
<path fill-rule="evenodd" clip-rule="evenodd" d="M134.043 14.0021C134.434 13.9997 135.595 13.8938 136.086 15.575C136.418 16.7075 136.945 18.5625 137.669 21.1401H137.964C138.741 18.4226 139.274 16.5676 139.564 15.575C140.061 13.8763 141.303 14.0021 141.8 14.0021L145.633 14.0021V26.0819H141.726V18.9631H141.464L139.286 26.0819H136.347L134.169 18.9578H133.907V26.0819H130V14.0021L134.043 14.0021ZM151.244 14.0021V21.1262H151.555L154.205 15.2681C154.719 14.1023 155.815 14.0021 155.815 14.0021H159.596V26.0819H155.607V18.9578H155.296L152.698 24.8159C152.184 25.9764 151.036 26.0819 151.036 26.0819H147.255V14.0021H151.244ZM173.382 19.7425C172.826 21.3397 171.079 22.4835 169.144 22.4835H164.961V26.0819H161.169V19.7425H173.382Z" fill="#319B42"/>
<path fill-rule="evenodd" clip-rule="evenodd" d="M169.326 14.002H160.969C161.168 16.6913 163.454 18.9936 165.821 18.9936H173.645C174.096 16.7584 172.542 14.002 169.326 14.002Z" fill="#008AD7"/>
<defs>
<clipPath id="clip0">
<rect width="40" height="40" fill="white"/>
</clipPath>
</defs>
</svg>
