<svg width="174" height="40" viewBox="0 0 174 40" fill="none" xmlns="http://www.w3.org/2000/svg">
<path d="M107.656 17.3085C107.656 18.9518 107.168 20.5582 106.253 21.9245C105.338 23.2908 104.037 24.3558 102.515 24.9846C100.993 25.6135 99.3189 25.778 97.7034 25.4574C96.0879 25.1368 94.604 24.3455 93.4393 23.1836C92.2745 22.0216 91.4814 20.5412 91.16 18.9295C90.8387 17.3178 91.0036 15.6472 91.6339 14.129C92.2643 12.6108 93.3317 11.3132 94.7013 10.4002C96.0708 9.48729 97.681 9 99.3281 9C101.537 9 103.655 9.87536 105.217 11.4335C106.779 12.9917 107.656 15.105 107.656 17.3085Z" fill="#EE0005"/>
<path d="M118 17.3085C118 18.9518 117.512 20.5582 116.596 21.9245C115.681 23.2908 114.381 24.3558 112.859 24.9846C111.337 25.6135 109.663 25.778 108.047 25.4574C106.432 25.1368 104.948 24.3455 103.783 23.1836C102.618 22.0216 101.825 20.5412 101.504 18.9295C101.182 17.3178 101.347 15.6472 101.978 14.129C102.608 12.6108 103.675 11.3132 105.045 10.4002C106.415 9.48729 108.025 9 109.672 9C111.881 9 113.999 9.87536 115.561 11.4335C117.123 12.9917 118 15.105 118 17.3085Z" fill="#0099DF"/>
<path opacity="0.5" d="M101.348 17.3077C101.347 18.5598 101.63 19.7959 102.176 20.9233C102.722 22.0506 103.517 23.0399 104.501 23.8169C105.484 23.0389 106.278 22.0494 106.824 20.9224C107.37 19.7953 107.653 18.5598 107.653 17.3081C107.653 16.0564 107.37 14.8209 106.824 13.6938C106.278 12.5668 105.484 11.5773 104.501 10.7993C103.517 11.5761 102.722 12.5653 102.176 13.6925C101.63 14.8197 101.347 16.0557 101.348 17.3077Z" fill="#EE0005"/>
<path d="M94.2897 28.1062C93.9448 28.1062 93.5999 28.295 93.393 28.6987C93.255 28.3487 92.9723 28.1062 92.6131 28.1062C92.4528 28.1025 92.2946 28.1426 92.1554 28.222C92.0162 28.3014 91.9014 28.4172 91.8232 28.5569V28.3428C91.8232 28.2245 91.6928 28.1414 91.5431 28.1414C91.3597 28.1414 91.2344 28.2254 91.2344 28.3428V28.9857C91.2344 29.0327 91.2344 29.2131 91.2344 29.261V29.3273V30.7439C91.2344 30.8446 91.3824 30.9512 91.5431 30.9512C91.7038 30.9512 91.8577 30.8446 91.8577 30.7439V29.2753C91.8577 28.8716 92.1311 28.6584 92.4104 28.6584C92.6897 28.6584 92.9631 28.9018 92.9631 29.2694V30.7515C92.9631 30.8933 93.1313 30.9529 93.2727 30.9529C93.4333 30.9529 93.5873 30.8933 93.5873 30.7515V29.2618C93.5873 28.8766 93.8674 28.6509 94.1467 28.6509C94.426 28.6509 94.6994 28.8649 94.6994 29.2744V30.7456C94.6994 30.8463 94.8483 30.9529 95.0089 30.9529C95.1696 30.9529 95.3236 30.8463 95.3236 30.7456V29.2744C95.3244 28.5266 94.8247 28.1062 94.2897 28.1062Z" fill="#171614"/>
<path d="M96.8533 28.1062C96.4495 28.1062 95.9557 28.274 95.9557 28.4855C95.9557 28.6274 96.0331 28.8003 96.182 28.8003C96.3006 28.8003 96.4083 28.6215 96.8415 28.6215C97.2747 28.6215 97.4303 28.9572 97.4303 29.2618V29.3684H97.1687C96.3426 29.3684 95.7773 29.5472 95.7773 30.2169C95.7773 30.7515 96.134 30.9999 96.5681 30.9999C96.9719 30.9999 97.2579 30.7809 97.4657 30.5375V30.7456C97.4657 30.8581 97.5902 30.9529 97.7509 30.9529C97.9115 30.9529 98.0545 30.8581 98.0545 30.7456V29.256C98.0545 28.6626 97.7273 28.1062 96.8533 28.1062ZM97.4303 29.9324C97.4303 30.2169 97.0939 30.5257 96.7944 30.5257C96.574 30.5257 96.4083 30.4074 96.4083 30.1405C96.4083 29.7612 96.8289 29.7125 97.2815 29.7125H97.4303V29.9324Z" fill="#171614"/>
<path d="M99.1493 28.9304C99.1493 28.7818 99.2797 28.5863 99.6305 28.5863C99.967 28.5863 100.148 28.7541 100.273 28.7541C100.422 28.7541 100.51 28.5401 100.51 28.452C100.51 28.2615 100.065 28.1021 99.6187 28.1021C98.87 28.1021 98.6025 28.546 98.6025 28.9556C98.6025 29.94 100.033 29.5724 100.033 30.1951C100.033 30.3554 99.919 30.5157 99.5279 30.5157C99.0172 30.5157 98.8919 30.243 98.7379 30.243C98.6126 30.243 98.5234 30.415 98.5234 30.5216C98.5234 30.7474 98.9584 30.9958 99.5464 30.9958C100.219 30.9958 100.592 30.6752 100.592 30.1716C100.592 29.1041 99.1476 29.4482 99.1476 28.9262L99.1493 28.9304Z" fill="#171614"/>
<path d="M102.335 30.4191H102.127C101.817 30.4191 101.71 30.3117 101.71 30.0272V28.6005H102.436C102.543 28.6005 102.604 28.488 102.604 28.3688C102.604 28.2497 102.539 28.138 102.436 28.138H101.71V27.0554C101.71 26.9371 101.549 26.854 101.396 26.854C101.242 26.854 101.086 26.9379 101.086 27.0554V30.0272C101.086 30.6734 101.449 30.9504 102.127 30.9504H102.335C102.406 30.9504 102.474 30.9222 102.524 30.8722C102.574 30.8221 102.603 30.7543 102.603 30.6835C102.603 30.6127 102.574 30.5448 102.524 30.4948C102.474 30.4447 102.406 30.4166 102.335 30.4166V30.4191Z" fill="#171614"/>
<path d="M105.064 30.2706C104.903 30.2706 104.76 30.4964 104.339 30.4964C103.88 30.4964 103.566 30.2446 103.566 29.8493V29.7125H104.82C105.087 29.7125 105.362 29.6949 105.362 29.2031C105.362 28.5569 104.814 28.1062 104.178 28.1062C103.494 28.1062 102.941 28.6332 102.941 29.256V29.8199C102.941 30.5257 103.512 30.9999 104.321 30.9999C104.921 30.9999 105.308 30.7272 105.308 30.5492C105.308 30.4427 105.213 30.2706 105.064 30.2706ZM103.566 29.1376C103.566 28.812 103.845 28.5804 104.172 28.5804C104.249 28.5779 104.326 28.5907 104.398 28.6181C104.47 28.6454 104.536 28.6868 104.592 28.7397C104.647 28.7926 104.692 28.8561 104.723 28.9264C104.754 28.9967 104.771 29.0725 104.773 29.1494C104.773 29.2921 104.725 29.3273 104.552 29.3273H103.566V29.1376Z" fill="#171614"/>
<path d="M107.399 28.1062H107.213C106.862 28.1062 106.584 28.358 106.456 28.6039V28.3429C106.456 28.2245 106.325 28.1414 106.17 28.1414C105.993 28.1414 105.867 28.2254 105.867 28.3429V30.7456C105.867 30.8463 105.993 30.9529 106.17 30.9529C106.348 30.9529 106.491 30.8463 106.491 30.7456V29.5296C106.491 28.9891 106.848 28.6576 107.211 28.6576H107.402C107.47 28.6504 107.532 28.6173 107.577 28.5653C107.621 28.5133 107.643 28.4463 107.64 28.3781C107.642 28.3109 107.619 28.2452 107.575 28.1946C107.53 28.144 107.468 28.1124 107.401 28.1062H107.399Z" fill="#171614"/>
<path d="M109.823 30.253C109.686 30.253 109.592 30.4485 109.198 30.4485C108.742 30.4485 108.539 30.211 108.539 29.8199V29.2862C108.539 28.8951 108.747 28.6567 109.192 28.6567C109.573 28.6567 109.68 28.8414 109.805 28.8414C109.954 28.8414 110.057 28.6567 110.057 28.5384C110.057 28.3311 109.689 28.1062 109.148 28.1062C108.298 28.1062 107.918 28.6215 107.918 29.2862V29.8199C107.918 30.4964 108.298 30.9999 109.154 30.9999C109.701 30.9999 110.093 30.7574 110.093 30.5492C110.093 30.425 109.992 30.253 109.826 30.253H109.823Z" fill="#171614"/>
<path d="M111.435 28.1062C111.032 28.1062 110.538 28.274 110.538 28.4855C110.538 28.6274 110.615 28.8003 110.763 28.8003C110.883 28.8003 110.989 28.6215 111.424 28.6215C111.858 28.6215 112.012 28.9572 112.012 29.2618V29.3684H111.75C110.924 29.3684 110.359 29.5472 110.359 30.2169C110.359 30.7515 110.716 30.9999 111.149 30.9999C111.555 30.9999 111.839 30.7809 112.048 30.5375V30.7456C112.048 30.8581 112.172 30.9529 112.333 30.9529C112.494 30.9529 112.637 30.8581 112.637 30.7456V29.256C112.637 28.6626 112.309 28.1062 111.435 28.1062ZM112.012 29.9324C112.012 30.2169 111.676 30.5257 111.376 30.5257C111.156 30.5257 110.989 30.4074 110.989 30.1405C110.989 29.7612 111.41 29.7125 111.863 29.7125H112.012V29.9324Z" fill="#171614"/>
<path d="M114.81 28.1062H114.619C114.269 28.1062 113.989 28.3579 113.862 28.6038V28.3428C113.862 28.2245 113.731 28.1414 113.576 28.1414C113.398 28.1414 113.273 28.2253 113.273 28.3428V30.7456C113.273 30.8463 113.398 30.9529 113.576 30.9529C113.755 30.9529 113.898 30.8463 113.898 30.7456V29.5295C113.898 28.9891 114.254 28.6576 114.617 28.6576H114.807C114.876 28.6513 114.94 28.6185 114.985 28.566C115.03 28.5134 115.053 28.4454 115.048 28.3764C115.051 28.3093 115.028 28.2438 114.984 28.1932C114.939 28.1426 114.877 28.1109 114.81 28.1045V28.1062Z" fill="#171614"/>
<path d="M117.46 26.469C117.282 26.469 117.145 26.5529 117.145 26.6704V28.0904V28.5562C117.068 28.4193 116.956 28.3054 116.82 28.2263C116.684 28.1472 116.53 28.1058 116.373 28.1064H116.354C116.264 28.1069 116.175 28.1216 116.089 28.15C115.642 28.2876 115.309 28.7417 115.309 29.2746V29.8201V29.8319C115.309 30.3648 115.645 30.818 116.089 30.9556C116.175 30.9842 116.264 30.9992 116.354 31.0001H116.373C116.53 31.0006 116.685 30.9591 116.82 30.8799C116.956 30.8006 117.068 30.6865 117.145 30.5494V30.7517C117.145 30.87 117.275 30.9531 117.455 30.9531C117.634 30.9531 117.769 30.8692 117.769 30.7517V26.6704C117.769 26.5521 117.639 26.469 117.46 26.469ZM117.065 30.1441C117.006 30.2318 116.928 30.3049 116.836 30.3577C116.744 30.4105 116.642 30.4416 116.536 30.4487C116.396 30.4461 116.261 30.3931 116.157 30.2993L116.149 30.2918C116.083 30.232 116.03 30.1595 115.994 30.0787C115.957 29.9979 115.937 29.9105 115.935 29.8218V29.2872C115.937 29.1987 115.957 29.1115 115.993 29.0308C116.03 28.9502 116.083 28.8778 116.148 28.818L116.157 28.8105C116.261 28.7175 116.396 28.6648 116.536 28.6619C116.642 28.6688 116.744 28.6999 116.836 28.7527C116.928 28.8055 117.006 28.8787 117.065 28.9666C117.119 29.0615 117.146 29.1689 117.145 29.2779V29.836C117.146 29.9439 117.118 30.0501 117.065 30.1441Z" fill="#171614"/>
<path d="M68.6557 17.3085C68.6557 18.9518 68.1673 20.5582 67.2522 21.9245C66.3372 23.2908 65.0365 24.3558 63.5148 24.9846C61.9931 25.6135 60.3186 25.778 58.7032 25.4574C57.0877 25.1368 55.6039 24.3455 54.4392 23.1836C53.2745 22.0216 52.4814 20.5411 52.16 18.9294C51.8387 17.3177 52.0036 15.6472 52.6339 14.129C53.2642 12.6108 54.3316 11.3132 55.7012 10.4002C57.0707 9.48729 58.6808 9 60.3279 9C62.5366 9 64.6548 9.87536 66.2166 11.4335C67.7783 12.9917 68.6557 15.105 68.6557 17.3085Z" fill="#EE0005"/>
<path d="M78.9995 17.3085C78.9995 18.9518 78.5111 20.5582 77.596 21.9245C76.6809 23.2908 75.3803 24.3558 73.8586 24.9846C72.3368 25.6135 70.6624 25.778 69.0469 25.4574C67.4315 25.1368 65.9476 24.3455 64.7829 23.1836C63.6183 22.0216 62.8251 20.5411 62.5038 18.9294C62.1824 17.3177 62.3474 15.6472 62.9777 14.129C63.608 12.6108 64.6754 11.3132 66.0449 10.4002C67.4144 9.48729 69.0245 9 70.6716 9C72.8803 9 74.9985 9.87536 76.5603 11.4335C78.1221 12.9917 78.9995 15.105 78.9995 17.3085Z" fill="#F9A000"/>
<path d="M62.3516 17.3077C62.3499 18.5604 62.6328 19.7972 63.179 20.9252C63.7253 22.0531 64.5206 23.043 65.5052 23.8203C66.4881 23.0423 67.282 22.0528 67.8278 20.9258C68.3735 19.7987 68.657 18.5632 68.657 17.3115C68.657 16.0598 68.3735 14.8243 67.8278 13.6972C67.282 12.5702 66.4881 11.5807 65.5052 10.8027C64.5211 11.5796 63.7261 12.5687 63.1799 13.6959C62.6337 14.8231 62.3505 16.0591 62.3516 17.3111V17.3077Z" fill="#FF6300"/>
<path d="M55.2904 28.1062C54.9456 28.1062 54.6007 28.295 54.3929 28.6987C54.2558 28.3487 53.9723 28.1062 53.6139 28.1062C53.4535 28.1025 53.2951 28.1425 53.1558 28.2219C53.0165 28.3013 52.9015 28.4171 52.8232 28.5569V28.3429C52.8232 28.2245 52.6928 28.1414 52.5439 28.1414C52.3597 28.1414 52.2344 28.2254 52.2344 28.3429V28.9857C52.2344 29.0327 52.2344 29.2132 52.2344 29.2602V29.3273V30.7439C52.2344 30.8447 52.3824 30.9512 52.5439 30.9512C52.7054 30.9512 52.8585 30.8447 52.8585 30.7439V29.2753C52.8585 28.8724 53.1319 28.6593 53.4112 28.6593C53.6905 28.6593 53.963 28.9018 53.963 29.2694V30.7532C53.963 30.895 54.1313 30.9538 54.2726 30.9538C54.4341 30.9538 54.588 30.895 54.588 30.7532V29.2635C54.588 28.8783 54.8673 28.6525 55.1474 28.6525C55.4276 28.6525 55.7001 28.8666 55.7001 29.2753V30.7465C55.7001 30.8472 55.8482 30.9538 56.0097 30.9538C56.1712 30.9538 56.3234 30.8472 56.3234 30.7465V29.2753C56.3243 28.5267 55.8271 28.1062 55.2904 28.1062Z" fill="#171614"/>
<path d="M57.8563 28.1062C57.4517 28.1062 56.9579 28.2741 56.9579 28.4855C56.9579 28.6274 57.0361 28.8003 57.1842 28.8003C57.3028 28.8003 57.4105 28.6215 57.8445 28.6215C58.2786 28.6215 58.4334 28.9572 58.4334 29.2618V29.3684H58.1717C57.3457 29.3684 56.7812 29.5472 56.7812 30.2169C56.7812 30.7515 57.1379 30.9999 57.5711 30.9999C57.9757 30.9999 58.2609 30.7809 58.4695 30.5375V30.7448C58.4695 30.8573 58.594 30.9521 58.7547 30.9521C58.9154 30.9521 59.0575 30.8573 59.0575 30.7448V29.256C59.0575 28.6626 58.7311 28.1062 57.8571 28.1062H57.8563ZM58.4325 29.9324C58.4325 30.2169 58.096 30.5258 57.7966 30.5258C57.5762 30.5258 57.4105 30.4074 57.4105 30.1397C57.4105 29.7604 57.8311 29.7125 58.2836 29.7125H58.4325V29.9324Z" fill="#171614"/>
<path d="M60.1501 28.9304C60.1501 28.7818 60.2805 28.5863 60.6313 28.5863C60.9678 28.5863 61.1486 28.7541 61.2731 28.7541C61.422 28.7541 61.5112 28.5401 61.5112 28.4512C61.5112 28.2615 61.0653 28.1021 60.6195 28.1021C59.8708 28.1021 59.6025 28.546 59.6025 28.9556C59.6025 29.94 61.0325 29.5724 61.0325 30.1951C61.0325 30.3546 60.919 30.5157 60.5278 30.5157C60.0172 30.5157 59.8919 30.2421 59.7371 30.2421C59.6126 30.2421 59.5234 30.415 59.5234 30.5216C59.5234 30.7473 59.9575 30.9958 60.5455 30.9958C61.2185 30.9958 61.5919 30.6752 61.5919 30.1716C61.5919 29.1041 60.1476 29.4482 60.1476 28.9262L60.1501 28.9304Z" fill="#171614"/>
<path d="M63.3385 30.4193H63.1307C62.8211 30.4193 62.7101 30.3119 62.7101 30.0274V28.6007H63.4352C63.5421 28.6007 63.6035 28.4882 63.6035 28.369C63.6035 28.2498 63.5378 28.1382 63.4352 28.1382H62.7101V27.0523C62.7101 26.9339 62.5494 26.8508 62.3947 26.8508C62.2399 26.8508 62.0859 26.9348 62.0859 27.0523V30.0307C62.0859 30.677 62.4485 30.9539 63.1257 30.9539H63.3343C63.4025 30.9501 63.4667 30.9203 63.5137 30.8708C63.5606 30.8212 63.5868 30.7556 63.5868 30.6874C63.5868 30.6192 63.5606 30.5537 63.5137 30.5041C63.4667 30.4545 63.4025 30.4248 63.3343 30.421L63.3385 30.4193Z" fill="#171614"/>
<path d="M66.0646 30.2706C65.9039 30.2706 65.7609 30.4964 65.3395 30.4964C64.881 30.4964 64.5656 30.2446 64.5656 29.8493V29.7125H65.8207C66.0882 29.7125 66.3615 29.6949 66.3615 29.2031C66.3615 28.5569 65.8148 28.1062 65.178 28.1062C64.4949 28.1062 63.9414 28.6333 63.9414 29.256V29.8199C63.9414 30.5257 64.5126 30.9999 65.321 30.9999C65.9216 30.9999 66.3085 30.7272 66.3085 30.5493C66.3085 30.4427 66.2127 30.2706 66.0646 30.2706ZM64.5656 29.1376C64.5656 28.812 64.8457 28.5804 65.1721 28.5804C65.2491 28.5779 65.3258 28.5907 65.3978 28.6181C65.4698 28.6454 65.5357 28.6868 65.5915 28.7397C65.6474 28.7926 65.6922 28.8561 65.7233 28.9264C65.7544 28.9967 65.7712 29.0725 65.7727 29.1494C65.7727 29.2912 65.7256 29.3273 65.5523 29.3273H64.5656V29.1376Z" fill="#171614"/>
<path d="M68.4001 28.1063H68.2092C67.8593 28.1063 67.58 28.358 67.4521 28.6039V28.3429C67.4521 28.2246 67.3217 28.1415 67.167 28.1415C66.9886 28.1415 66.8633 28.2254 66.8633 28.3429V30.7449C66.8633 30.8456 66.9886 30.9522 67.167 30.9522C67.3453 30.9522 67.4883 30.8456 67.4883 30.7449V29.5271C67.4883 28.9866 67.845 28.6551 68.2075 28.6551H68.3976C68.4657 28.6479 68.5283 28.6149 68.5726 28.5629C68.6169 28.5109 68.6395 28.4438 68.6357 28.3757C68.6384 28.3086 68.6152 28.243 68.5709 28.1924C68.5266 28.1419 68.4646 28.1101 68.3976 28.1038L68.4001 28.1063Z" fill="#171614"/>
<path d="M70.8194 30.2522C70.6831 30.2522 70.588 30.4485 70.1952 30.4485C69.7376 30.4485 69.5349 30.211 69.5349 29.8199V29.2853C69.5349 28.8943 69.7435 28.6568 70.1893 28.6568C70.5704 28.6568 70.6772 28.8414 70.8017 28.8414C70.9506 28.8414 71.0541 28.6567 71.0541 28.5384C71.0541 28.3311 70.6856 28.1062 70.1439 28.1062C69.2943 28.1062 68.9141 28.6215 68.9141 29.2811V29.8157C68.9141 30.4922 69.2943 30.9957 70.1506 30.9957C70.6974 30.9957 71.0894 30.7532 71.0894 30.5451C71.0894 30.4208 70.9893 30.248 70.8219 30.248L70.8194 30.2522Z" fill="#171614"/>
<path d="M72.4353 28.1062C72.0315 28.1062 71.5377 28.2741 71.5377 28.4855C71.5377 28.6274 71.6151 28.8003 71.764 28.8003C71.8834 28.8003 71.9903 28.6215 72.4235 28.6215C72.8567 28.6215 73.0123 28.9572 73.0123 29.2618V29.3684H72.7507C71.9247 29.3684 71.3594 29.5472 71.3594 30.2169C71.3594 30.7515 71.716 30.9999 72.1501 30.9999C72.5547 30.9999 72.8399 30.7809 73.0477 30.5375V30.7448C73.0477 30.8573 73.1722 30.9521 73.3337 30.9521C73.4952 30.9521 73.6365 30.8573 73.6365 30.7448V29.256C73.6365 28.6626 73.3093 28.1062 72.4353 28.1062ZM73.0123 29.9324C73.0123 30.2169 72.6758 30.5258 72.3764 30.5258C72.156 30.5258 71.9903 30.4074 71.9903 30.1397C71.9903 29.7604 72.4109 29.7125 72.8634 29.7125H73.0123V29.9324Z" fill="#171614"/>
<path d="M75.8078 28.1063H75.6185C75.2677 28.1063 74.9876 28.358 74.8614 28.6039V28.3429C74.8614 28.2246 74.7302 28.1415 74.5763 28.1415C74.3979 28.1415 74.2734 28.2254 74.2734 28.3429V30.7449C74.2734 30.8456 74.3979 30.9522 74.5763 30.9522C74.7546 30.9522 74.8976 30.8456 74.8976 30.7449V29.5271C74.8976 28.9866 75.2543 28.6551 75.6168 28.6551H75.8061C75.8742 28.6481 75.937 28.6151 75.9814 28.5631C76.0257 28.511 76.0482 28.4439 76.0442 28.3757C76.0468 28.3086 76.0236 28.243 75.9794 28.1924C75.9351 28.1419 75.8731 28.1101 75.8061 28.1038L75.8078 28.1063Z" fill="#171614"/>
<path d="M78.4556 26.469C78.2781 26.469 78.141 26.5529 78.141 26.6704V28.0904V28.5562C78.064 28.4193 77.9517 28.3054 77.8158 28.2264C77.6799 28.1473 77.5253 28.1058 77.368 28.1064H77.3503C77.2599 28.1069 77.1702 28.1217 77.0845 28.15C76.6378 28.2876 76.3047 28.7417 76.3047 29.2737V29.8201V29.8318C76.3047 30.3648 76.6412 30.818 77.0845 30.9556C77.1702 30.9842 77.2599 30.9992 77.3503 31.0001H77.368C77.5254 31.0006 77.6801 30.9591 77.816 30.8798C77.952 30.8006 78.0642 30.6865 78.141 30.5494V30.7508C78.141 30.8691 78.2714 30.9522 78.4497 30.9522C78.6281 30.9522 78.7652 30.8683 78.7652 30.7517V26.6738C78.7669 26.5521 78.6365 26.469 78.4556 26.469ZM78.0611 30.1432C78.0022 30.2313 77.9238 30.3047 77.8319 30.3576C77.74 30.4106 77.6371 30.4418 77.5312 30.4487C77.391 30.4461 77.2566 30.3931 77.1526 30.2993L77.145 30.2926C77.0795 30.2327 77.0268 30.1602 76.9902 30.0794C76.9536 29.9986 76.9339 29.9113 76.9322 29.8226V29.288C76.9339 29.1995 76.9537 29.1123 76.9902 29.0316C77.0268 28.9509 77.0795 28.8786 77.145 28.8189L77.1526 28.8113C77.2574 28.7183 77.3918 28.6654 77.532 28.6619C77.6379 28.6689 77.7408 28.7 77.8327 28.753C77.9246 28.806 78.003 28.8793 78.0619 28.9674C78.1168 29.0621 78.1458 29.1694 78.1461 29.2788V29.8369C78.1452 29.9444 78.1165 30.0499 78.0628 30.1432H78.0611Z" fill="#171614"/>
<g clip-path="url(#clip0)">
<path d="M14.668 25.746L16.6997 14.3174H19.8743L17.9061 25.746H14.668Z" fill="#3C58BF"/>
<path d="M14.668 25.746L17.2711 14.3174H19.8743L17.9061 25.746H14.668Z" fill="#293688"/>
<path d="M29.3979 14.4445C28.763 14.1905 27.7471 13.9365 26.4772 13.9365C23.3026 13.9365 21.0169 15.5238 21.0169 17.8095C21.0169 19.5238 22.6042 20.4127 23.8741 20.9841C25.1439 21.5556 25.5249 21.9365 25.5249 22.4445C25.5249 23.2064 24.509 23.5873 23.6201 23.5873C22.3503 23.5873 21.6518 23.3968 20.5725 22.9524L20.128 22.7619L19.6836 25.3651C20.4455 25.6826 21.8423 26 23.3026 26C26.6677 26 28.8899 24.4127 28.8899 22C28.8899 20.6667 28.0645 19.6508 26.1598 18.8254C25.0169 18.254 24.3185 17.9365 24.3185 17.3651C24.3185 16.8572 24.8899 16.3492 26.1598 16.3492C27.2392 16.3492 28.0011 16.5397 28.5725 16.7937L28.8899 16.9207L29.3979 14.4445Z" fill="#3C58BF"/>
<path d="M29.3979 14.4445C28.763 14.1905 27.7471 13.9365 26.4772 13.9365C23.3026 13.9365 21.5884 15.5238 21.5884 17.8095C21.5884 19.5238 22.6042 20.4127 23.8741 20.9841C25.1439 21.5556 25.5249 21.9365 25.5249 22.4445C25.5249 23.2064 24.509 23.5873 23.6201 23.5873C22.3503 23.5873 21.6518 23.3968 20.5725 22.9524L20.128 22.7619L19.6836 25.3651C20.4455 25.6826 21.8423 26 23.3026 26C26.6677 26 28.8899 24.4127 28.8899 22C28.8899 20.6667 28.0645 19.6508 26.1598 18.8254C25.0169 18.254 24.3185 17.9365 24.3185 17.3651C24.3185 16.8572 24.8899 16.3492 26.1598 16.3492C27.2392 16.3492 28.0011 16.5397 28.5725 16.7937L28.8899 16.9207L29.3979 14.4445Z" fill="#293688"/>
<path d="M34.858 14.3174C34.0961 14.3174 33.5247 14.3809 33.2072 15.1428L28.4453 25.746H31.8739L32.5088 23.8412H36.5723L36.9532 25.746H40.0008L37.3342 14.3174H34.858ZM33.3977 21.9364C33.5882 21.365 34.6675 18.5714 34.6675 18.5714C34.6675 18.5714 34.9215 17.8729 35.112 17.4285L35.3024 18.5079C35.3024 18.5079 35.9374 21.365 36.0643 21.9999H33.3977V21.9364Z" fill="#3C58BF"/>
<path d="M35.6199 14.3174C34.858 14.3174 34.2866 14.3809 33.9691 15.1428L28.4453 25.746H31.8739L32.5088 23.8412H36.5723L36.9532 25.746H40.0008L37.3342 14.3174H35.6199ZM33.3977 21.9364C33.6517 21.3015 34.6675 18.5714 34.6675 18.5714C34.6675 18.5714 34.9215 17.8729 35.112 17.4285L35.3024 18.5079C35.3024 18.5079 35.9374 21.365 36.0643 21.9999H33.3977V21.9364Z" fill="#293688"/>
<path d="M8.8244 22.3174L8.50694 20.6666C7.93552 18.7618 6.09425 16.6666 4.0625 15.6507L6.91964 25.8094H10.3482L15.4911 14.3809H12.0625L8.8244 22.3174Z" fill="#3C58BF"/>
<path d="M8.8244 22.3174L8.50694 20.6666C7.93552 18.7618 6.09425 16.6666 4.0625 15.6507L6.91964 25.8094H10.3482L15.4911 14.3809H12.6974L8.8244 22.3174Z" fill="#293688"/>
<path d="M0 14.3174L0.571429 14.4444C4.63492 15.3967 7.42857 17.8094 8.50794 20.6666L7.36508 15.2698C7.1746 14.5079 6.60318 14.3174 5.90476 14.3174H0Z" fill="#FFBC00"/>
<path d="M0 14.3174C4.06349 15.2698 7.42857 17.746 8.50794 20.6031L7.42857 16.0952C7.2381 15.3333 6.60318 14.8888 5.90476 14.8888L0 14.3174Z" fill="#F7981D"/>
<path d="M0 14.3174C4.06349 15.2698 7.42857 17.746 8.50794 20.6031L7.74603 18.1269C7.55556 17.365 7.30159 16.6031 6.4127 16.2856L0 14.3174Z" fill="#ED7C00"/>
<path d="M12.0019 21.9366L9.84319 19.7779L8.82732 22.1906L8.57335 20.6033C8.00192 18.6985 6.16065 16.6033 4.12891 15.5874L6.98605 25.7461H10.4146L12.0019 21.9366Z" fill="#051244"/>
<path d="M17.9061 25.746L15.1759 22.9524L14.668 25.746H17.9061Z" fill="#051244"/>
<path d="M25.2074 21.8096C25.4614 22.0635 25.5884 22.254 25.5249 22.508C25.5249 23.2699 24.509 23.6508 23.6201 23.6508C22.3503 23.6508 21.6518 23.4604 20.5725 23.0159L20.128 22.8254L19.6836 25.4286C20.4455 25.7461 21.8423 26.0635 23.3026 26.0635C25.3344 26.0635 26.9852 25.4921 27.9376 24.4762L25.2074 21.8096Z" fill="#051244"/>
<path d="M28.8906 25.7462H31.8748L32.5097 23.8414H36.5732L36.9541 25.7462H40.0017L38.9224 21.1113L35.1128 17.4287L35.3033 18.4446C35.3033 18.4446 35.9382 21.3017 36.0652 21.9366H33.3986C33.6525 21.3017 34.6684 18.5716 34.6684 18.5716C34.6684 18.5716 34.9224 17.8732 35.1128 17.4287" fill="#051244"/>
</g>
<path fill-rule="evenodd" clip-rule="evenodd" d="M134.043 14.0021C134.434 13.9997 135.595 13.8938 136.086 15.575C136.418 16.7075 136.945 18.5625 137.669 21.1401H137.964C138.741 18.4226 139.274 16.5676 139.564 15.575C140.061 13.8763 141.303 14.0021 141.8 14.0021L145.633 14.0021V26.0819H141.726V18.9631H141.464L139.286 26.0819H136.347L134.169 18.9578H133.907V26.0819H130V14.0021L134.043 14.0021ZM151.244 14.0021V21.1262H151.555L154.205 15.2681C154.719 14.1023 155.815 14.0021 155.815 14.0021H159.596V26.0819H155.607V18.9578H155.296L152.698 24.8159C152.184 25.9764 151.036 26.0819 151.036 26.0819H147.255V14.0021H151.244ZM173.382 19.7425C172.826 21.3397 171.079 22.4835 169.144 22.4835H164.961V26.0819H161.169V19.7425H173.382Z" fill="#319B42"/>
<path fill-rule="evenodd" clip-rule="evenodd" d="M169.326 14.002H160.969C161.168 16.6913 163.454 18.9936 165.821 18.9936H173.645C174.096 16.7584 172.542 14.002 169.326 14.002Z" fill="#008AD7"/>
<defs>
<clipPath id="clip0">
<rect width="40" height="40" fill="white"/>
</clipPath>
</defs>
</svg>
