<svg width="67" height="67" viewBox="0 0 67 67" fill="none" xmlns="http://www.w3.org/2000/svg">
<g clip-path="url(#clip0)">
<path d="M33.5 67C52.0015 67 67 52.0015 67 33.5C67 14.9985 52.0015 0 33.5 0C14.9985 0 0 14.9985 0 33.5C0 52.0015 14.9985 67 33.5 67Z" fill="black"/>
<path d="M67 33.4988C67.001 27.9113 65.6044 22.4122 62.9373 17.5023C60.2702 12.5924 56.4173 8.42757 51.7295 5.38703C47.0417 2.34648 41.6678 0.526793 36.0971 0.0936249C30.5263 -0.339544 24.9357 0.627564 19.8342 2.90691C14.7327 5.18626 10.2824 8.70545 6.88838 13.1441C3.49436 17.5827 1.26448 22.7997 0.401742 28.3203C-0.460994 33.8408 0.0708209 39.4895 1.94877 44.752C3.82672 50.0145 6.99115 54.7237 11.154 58.4509C12.1736 55.6169 13.7987 53.0392 15.9161 50.8974C17.7943 48.9683 20.0402 47.4353 22.5209 46.3889C25.0017 45.3425 27.667 44.804 30.3594 44.8051H36.6406C39.333 44.804 41.9984 45.3425 44.4791 46.3889C46.9599 47.4353 49.2057 48.9683 51.084 50.8974C53.2013 53.0392 54.8264 55.6169 55.8461 58.4509C59.3591 55.313 62.1689 51.4678 64.0912 47.1675C66.0135 42.8673 67.0047 38.2092 67 33.4988Z" fill="white"/>
<path d="M36.6409 44.8063H30.3597C27.6673 44.8052 25.002 45.3437 22.5212 46.3901C20.0405 47.4365 17.7947 48.9695 15.9164 50.8986C13.799 53.0404 12.1739 55.6181 11.1543 58.452C17.296 63.9562 25.2531 67 33.5003 67C41.7476 67 49.7046 63.9562 55.8464 58.452C54.8267 55.6181 53.2016 53.0404 51.0843 50.8986C49.206 48.9695 46.9602 47.4365 44.4794 46.3901C41.9987 45.3437 39.3333 44.8052 36.6409 44.8063Z" fill="#D5D5D5"/>
<path d="M33.5 13.4C30.7048 13.4 27.9724 14.2289 25.6482 15.7818C23.3241 17.3348 21.5127 19.542 20.443 22.1244C19.3733 24.7069 19.0934 27.5485 19.6387 30.29C20.1841 33.0315 21.5301 35.5497 23.5066 37.5262C25.4831 39.5028 28.0013 40.8488 30.7428 41.3941C33.4843 41.9394 36.326 41.6595 38.9084 40.5898C41.4908 39.5202 43.6981 37.7087 45.251 35.3846C46.8039 33.0605 47.6328 30.328 47.6328 27.5328C47.6286 23.7859 46.1382 20.1936 43.4887 17.5441C40.8392 14.8946 37.247 13.4043 33.5 13.4Z" fill="#D5D5D5"/>
</g>
<defs>
<clipPath id="clip0">
<rect width="67" height="67" fill="white"/>
</clipPath>
</defs>
</svg>
