<svg width="44" height="44" viewBox="0 0 44 44" fill="none" xmlns="http://www.w3.org/2000/svg">
<g clip-path="url(#clip0)">
<path d="M16.1333 28.3205L18.3682 15.749H21.8603L19.6952 28.3205H16.1333Z" fill="#3C58BF"/>
<path d="M16.1333 28.3205L18.9968 15.749H21.8603L19.6952 28.3205H16.1333Z" fill="#293688"/>
<path d="M32.3366 15.8888C31.6382 15.6094 30.5207 15.3301 29.1239 15.3301C25.6318 15.3301 23.1175 17.0761 23.1175 19.5904C23.1175 21.4761 24.8636 22.4539 26.2604 23.0825C27.6572 23.711 28.0763 24.1301 28.0763 24.6888C28.0763 25.5269 26.9588 25.946 25.981 25.946C24.5842 25.946 23.816 25.7364 22.6287 25.2475L22.1398 25.038L21.6509 27.9015C22.489 28.2507 24.0255 28.5999 25.6318 28.5999C29.3334 28.5999 31.7779 26.8539 31.7779 24.1999C31.7779 22.7333 30.8699 21.6158 28.7747 20.7079C27.5175 20.0793 26.7493 19.7301 26.7493 19.1015C26.7493 18.5428 27.3779 17.984 28.7747 17.984C29.962 17.984 30.8001 18.1936 31.4287 18.4729L31.7779 18.6126L32.3366 15.8888Z" fill="#3C58BF"/>
<path d="M32.3366 15.8888C31.6382 15.6094 30.5207 15.3301 29.1239 15.3301C25.6318 15.3301 23.7461 17.0761 23.7461 19.5904C23.7461 21.4761 24.8636 22.4539 26.2604 23.0825C27.6572 23.711 28.0763 24.1301 28.0763 24.6888C28.0763 25.5269 26.9588 25.946 25.981 25.946C24.5842 25.946 23.816 25.7364 22.6287 25.2475L22.1398 25.038L21.6509 27.9015C22.489 28.2507 24.0255 28.5999 25.6318 28.5999C29.3334 28.5999 31.7779 26.8539 31.7779 24.1999C31.7779 22.7333 30.8699 21.6158 28.7747 20.7079C27.5175 20.0793 26.7493 19.7301 26.7493 19.1015C26.7493 18.5428 27.3779 17.984 28.7747 17.984C29.962 17.984 30.8001 18.1936 31.4287 18.4729L31.7779 18.6126L32.3366 15.8888Z" fill="#293688"/>
<path d="M38.3425 15.749C37.5044 15.749 36.8759 15.8189 36.5267 16.657L31.2886 28.3205H35.06L35.7584 26.2252H40.2282L40.6473 28.3205H43.9997L41.0663 15.749H38.3425ZM36.7362 24.13C36.9457 23.5014 38.133 20.4284 38.133 20.4284C38.133 20.4284 38.4124 19.6601 38.6219 19.1712L38.8314 20.3585C38.8314 20.3585 39.5298 23.5014 39.6695 24.1998H36.7362V24.13Z" fill="#3C58BF"/>
<path d="M39.1806 15.749C38.3425 15.749 37.714 15.8189 37.3648 16.657L31.2886 28.3205H35.06L35.7584 26.2252H40.2282L40.6473 28.3205H43.9997L41.0663 15.749H39.1806ZM36.7362 24.13C37.0155 23.4316 38.133 20.4284 38.133 20.4284C38.133 20.4284 38.4124 19.6601 38.6219 19.1712L38.8314 20.3585C38.8314 20.3585 39.5298 23.5014 39.6695 24.1998H36.7362V24.13Z" fill="#293688"/>
<path d="M9.70782 24.549L9.35861 22.7331C8.73004 20.6379 6.70465 18.3331 4.46973 17.2157L7.61258 28.3903H11.384L17.0412 15.8188H13.2697L9.70782 24.549Z" fill="#3C58BF"/>
<path d="M9.70782 24.549L9.35861 22.7331C8.73004 20.6379 6.70465 18.3331 4.46973 17.2157L7.61258 28.3903H11.384L17.0412 15.8188H13.9681L9.70782 24.549Z" fill="#293688"/>
<path d="M0 15.749L0.628571 15.8887C5.09841 16.9363 8.17143 19.5903 9.35873 22.7332L8.10159 16.7966C7.89206 15.9585 7.26349 15.749 6.49524 15.749H0Z" fill="#FFBC00"/>
<path d="M0 15.749C4.46984 16.7966 8.17143 19.5205 9.35873 22.6633L8.17143 17.7046C7.96191 16.8665 7.26349 16.3776 6.49524 16.3776L0 15.749Z" fill="#F7981D"/>
<path d="M0 15.749C4.46984 16.7966 8.17143 19.5205 9.35873 22.6633L8.52063 19.9395C8.31111 19.1014 8.03175 18.2633 7.05397 17.9141L0 15.749Z" fill="#ED7C00"/>
<path d="M13.1999 24.1301L10.8253 21.7555L9.7078 24.4095L9.42844 22.6635C8.79987 20.5682 6.77447 18.2635 4.53955 17.146L7.68241 28.3206H11.4538L13.1999 24.1301Z" fill="#051244"/>
<path d="M19.6952 28.3206L16.692 25.2476L16.1333 28.3206H19.6952Z" fill="#051244"/>
<path d="M27.7271 23.9902C28.0064 24.2696 28.1461 24.4791 28.0763 24.7585C28.0763 25.5966 26.9588 26.0156 25.981 26.0156C24.5842 26.0156 23.816 25.8061 22.6287 25.3172L22.1398 25.1077L21.6509 27.9712C22.489 28.3204 24.0255 28.6696 25.6318 28.6696C27.8668 28.6696 29.6826 28.041 30.7302 26.9236L27.7271 23.9902Z" fill="#051244"/>
<path d="M31.7778 28.3206H35.0604L35.7588 26.2254H40.2286L40.6477 28.3206H44.0001L42.8128 23.2222L38.6223 19.1714L38.8318 20.2888C38.8318 20.2888 39.5302 23.4317 39.6699 24.1301H36.7366C37.0159 23.4317 38.1334 20.4285 38.1334 20.4285C38.1334 20.4285 38.4128 19.6603 38.6223 19.1714" fill="#051244"/>
</g>
<defs>
<clipPath id="clip0">
<rect width="44" height="44" fill="white"/>
</clipPath>
</defs>
</svg>
