<svg width="29" height="30" viewBox="0 0 29 30" fill="none" xmlns="http://www.w3.org/2000/svg">
<path d="M14.5416 0.959962C11.7722 0.959962 9.06494 1.78338 6.76223 3.32611C4.45952 4.86885 2.66477 7.0616 1.60495 9.62708C0.545134 12.1926 0.267831 15.0155 0.808122 17.739C1.34841 20.4625 2.68203 22.9642 4.64032 24.9278C6.59861 26.8913 9.09363 28.2284 11.8099 28.7702C14.5261 29.3119 17.3415 29.0339 19.9002 27.9713C22.4588 26.9086 24.6457 25.1091 26.1843 22.8002C27.723 20.4913 28.5442 17.7769 28.5442 15C28.545 13.156 28.1834 11.33 27.4799 9.62618C26.7765 7.9224 25.7451 6.37433 24.4447 5.07044C23.1443 3.76655 21.6004 2.73234 19.9011 2.02705C18.2019 1.32176 16.3807 0.959155 14.5416 0.959962ZM14.5416 27.1674C12.1415 27.1674 9.79537 26.4538 7.79978 25.1168C5.80419 23.7799 4.24881 21.8796 3.33034 19.6563C2.41187 17.433 2.17155 14.9865 2.63979 12.6263C3.10802 10.266 4.26377 8.09796 5.96088 6.39632C7.65799 4.69467 9.82025 3.5358 12.1742 3.06632C14.5282 2.59684 16.9681 2.83774 19.1855 3.75867C21.4029 4.67959 23.2981 6.23915 24.6315 8.24008C25.9649 10.241 26.6766 12.5935 26.6766 15C26.6734 18.226 25.3938 21.319 23.1188 23.6001C20.8437 25.8812 17.759 27.1641 14.5416 27.1674Z" fill="white" stroke="white" stroke-width="0.3"/>
<path d="M14.5412 12.4656C14.2935 12.4656 14.056 12.5642 13.8809 12.7398C13.7058 12.9154 13.6074 13.1535 13.6074 13.4018V21.2957C13.6074 21.544 13.7058 21.7821 13.8809 21.9577C14.056 22.1333 14.2935 22.2319 14.5412 22.2319C14.7888 22.2319 15.0264 22.1333 15.2015 21.9577C15.3766 21.7821 15.475 21.544 15.475 21.2957V13.4018C15.475 13.1535 15.3766 12.9154 15.2015 12.7398C15.0264 12.5642 14.7888 12.4656 14.5412 12.4656Z" fill="white" stroke="white" stroke-width="0.3"/>
<path d="M14.5414 7.76782C14.172 7.76782 13.8109 7.87767 13.5038 8.08343C13.1967 8.28918 12.9573 8.58165 12.816 8.9238C12.6746 9.26596 12.6377 9.64243 12.7097 10.0057C12.7818 10.3689 12.9596 10.7025 13.2208 10.9644C13.482 11.2262 13.8148 11.4046 14.177 11.4768C14.5393 11.5491 14.9148 11.512 15.2561 11.3703C15.5973 11.2286 15.889 10.9885 16.0942 10.6806C16.2994 10.3727 16.4089 10.0107 16.4089 9.64034C16.4084 9.14389 16.2115 8.66795 15.8613 8.3169C15.5112 7.96586 15.0365 7.76836 14.5414 7.76782Z" fill="white" stroke="white" stroke-width="0.3"/>
</svg>
