<svg width="40" height="32" viewBox="0 0 40 32" fill="none" xmlns="http://www.w3.org/2000/svg">
<path d="M37.2583 15.1324C36.128 14.5525 34.6657 14.2605 32.9121 14.2605H13.8431C13.7133 13.5831 13.4029 12.9536 12.9449 12.4389L10.2403 9.42483C9.53805 8.66273 8.56692 8.20553 7.53357 8.15057L7.04681 8.11587C6.79499 8.09866 6.54226 8.13198 6.30344 8.21389V6.62106C6.3032 6.35527 6.24889 6.09233 6.14384 5.8483C6.03878 5.60427 5.88519 5.38429 5.69244 5.20182C6.01245 4.81728 6.21649 4.34924 6.28065 3.85256C6.34481 3.35589 6.26645 2.85114 6.05472 2.39753C5.843 1.94392 5.5067 1.56024 5.08524 1.29144C4.66379 1.02264 4.17465 0.879883 3.67516 0.879883C3.17567 0.879883 2.68652 1.02264 2.26507 1.29144C1.84361 1.56024 1.50732 1.94392 1.2956 2.39753C1.08388 2.85114 1.0055 3.35589 1.06966 3.85256C1.13382 4.34924 1.33787 4.81728 1.65787 5.20182C1.4655 5.38459 1.31216 5.60461 1.20713 5.84857C1.1021 6.09253 1.04758 6.35534 1.04688 6.62106V30.3745C1.04688 30.4724 1.0661 30.5693 1.10346 30.6597C1.14082 30.7502 1.19558 30.8324 1.26461 30.9016C1.33364 30.9708 1.41559 31.0257 1.50578 31.0631C1.59597 31.1006 1.69263 31.1199 1.79025 31.1199H4.35235C4.53696 31.1201 4.71499 31.0511 4.85142 30.9264C4.98786 30.8017 5.07282 30.6303 5.08961 30.446C5.17922 29.5087 5.67412 26.9336 6.89814 25.7798H33.2033C34.4253 26.9316 34.9202 29.5066 35.0098 30.446C35.0276 30.6303 35.1131 30.8015 35.2497 30.926C35.3864 31.0506 35.5644 31.1197 35.7491 31.1199H38.3112C38.4088 31.1199 38.5053 31.1006 38.5954 31.0631C38.6855 31.0256 38.7673 30.9707 38.8362 30.9014C38.905 30.8322 38.9596 30.75 38.9967 30.6596C39.0339 30.5692 39.0528 30.4723 39.0526 30.3745V18.0955C39.0563 17.4835 38.8906 16.8824 38.5738 16.3593C38.257 15.8361 37.8016 15.4114 37.2583 15.1324ZM6.3014 10.6399C6.3014 10.3234 6.26881 9.99457 6.5295 9.76177C6.79019 9.52898 7.10587 9.60455 7.42359 9.62702C8.07451 9.65193 8.68901 9.93466 9.13233 10.4132L11.837 13.4273C12.0611 13.6894 12.2293 13.9948 12.3313 14.3245C12.4332 14.6543 12.4667 15.0016 12.4296 15.3448C12.4072 15.6328 12.4133 15.888 12.171 16.0902C11.9286 16.2923 11.7107 16.2413 11.4439 16.2331C11.1008 16.2324 10.7614 16.1618 10.4463 16.0256C10.1312 15.8894 9.84703 15.6904 9.61093 15.4408L6.90629 12.4267C6.48475 11.9337 6.2695 11.2964 6.30547 10.6481L6.3014 10.6399ZM6.3014 13.9828L8.33803 16.2433H6.3014V13.9828ZM3.67618 2.36537C3.90224 2.36538 4.12322 2.43262 4.31115 2.55859C4.49909 2.68456 4.64554 2.8636 4.73195 3.07305C4.81837 3.2825 4.84088 3.51295 4.79663 3.73523C4.75238 3.95751 4.64336 4.16164 4.48337 4.32178C4.32337 4.48191 4.1196 4.59085 3.89783 4.63482C3.67606 4.67879 3.44627 4.65581 3.23753 4.56878C3.02879 4.48176 2.85049 4.33462 2.72519 4.14596C2.59989 3.9573 2.53321 3.7356 2.53362 3.50893C2.53577 3.20635 2.65744 2.91695 2.87198 2.70414C3.08652 2.49133 3.37642 2.37246 3.67821 2.37355L3.67618 2.36537ZM2.53362 6.61291C2.53416 6.48815 2.58396 6.36869 2.67213 6.28067C2.7603 6.19265 2.87966 6.14322 3.00408 6.14322H4.34623C4.47046 6.14322 4.58961 6.19271 4.67746 6.28079C4.7653 6.36888 4.81465 6.48834 4.81465 6.61291V16.2433H2.53566L2.53362 6.61291ZM3.70672 29.623H2.53362V25.7717H5.0224C4.222 27.099 3.85947 28.7286 3.70876 29.6312L3.70672 29.623ZM37.5658 29.623H36.3927C36.244 28.7204 35.8815 27.0908 35.0771 25.7717H37.5658V29.623ZM37.5658 24.283H2.53566V17.732H12.4419V19.672C12.4429 20.2233 12.662 20.7518 13.051 21.1415C13.4401 21.5312 13.9673 21.7503 14.5172 21.7508H36.9772C37.177 21.7508 37.3759 21.7226 37.5679 21.6671L37.5658 24.283ZM37.5658 19.6679C37.5658 19.825 37.5036 19.9756 37.3928 20.0867C37.2821 20.1977 37.1318 20.2601 36.9752 20.2601H14.5172C14.3606 20.2601 14.2103 20.1977 14.0996 20.0867C13.9888 19.9756 13.9266 19.825 13.9266 19.6679V15.7349H32.9121C34.4294 15.7349 35.6636 15.9738 36.5781 16.4455C36.877 16.5997 37.1275 16.834 37.3015 17.1225C37.4755 17.4109 37.5663 17.7421 37.5638 18.0792L37.5658 19.6679Z" fill="white" stroke="white" stroke-width="0.35"/>
</svg>
