<svg width="38" height="38" viewBox="0 0 38 38" fill="none" xmlns="http://www.w3.org/2000/svg">
<path d="M11.163 15.0664V15.0164H11.113H9.93359H9.88359V15.0664V19.015V19.065H9.93359H11.113H11.163V19.015V15.0664Z" fill="white" stroke="white" stroke-width="0.1"/>
<path d="M22.9677 15.0664V15.0164H22.9177H21.7383H21.6883V15.0664V19.015V19.065H21.7383H22.9177H22.9677V19.015V15.0664Z" fill="white" stroke="white" stroke-width="0.1"/>
<path d="M34.7782 15.0664V15.0164H34.7282H33.5488H33.4988V15.0664V19.015V19.065H33.5488H34.7282H34.7782V19.015V15.0664Z" fill="white" stroke="white" stroke-width="0.1"/>
<path d="M0.541406 37.3599V37.5099H0.691406H5.15888H5.30888V37.3599V35.7387H32.6893V37.3599V37.5099H32.8393H37.3068H37.4568V37.3599V0.651855V0.501855H37.3068H0.691406H0.541406V0.651855V32.2285V37.3599ZM3.81755 36.0241H2.01784V35.7268H3.81755V36.0241ZM35.9625 36.0241H34.1777V35.7268H35.9625V36.0241ZM35.9625 34.2559H2.01188V33.5613H35.9625V34.2559ZM13.8269 32.0785V1.98464H24.1535V32.0785H13.8269ZM35.9625 32.0785H25.6269V1.98464H35.9566L35.9625 32.0785ZM2.01188 1.98464H12.3385V32.0785H2.01188V1.98464Z" fill="white" stroke="white" stroke-width="0.3"/>
</svg>
