<svg width="24" height="37" viewBox="0 0 24 37" fill="none" xmlns="http://www.w3.org/2000/svg">
<path d="M2.85788 17.0956C2.3927 17.0964 1.94694 17.2823 1.61842 17.6124C1.28991 17.9424 1.10547 18.3896 1.10547 18.8558V21.4095V21.5345H1.23047H2.01262V36.2288V36.3538H2.13762H5.84793H5.97293V36.2288V30.1377H18.0265V36.2288V36.3538H18.1515H21.8618H21.9868V36.2288V21.5345H22.7689H22.8939V21.4095V18.8558V18.8556C22.8931 18.3892 22.708 17.942 22.379 17.6121C22.05 17.2822 21.604 17.0964 21.1386 17.0956H21.1384H19.4315V11.3225H20.0445H20.0447C20.6896 11.3217 21.3078 11.0644 21.7637 10.6072C22.2196 10.15 22.476 9.53022 22.4768 8.8838V8.88364V2.58853V2.58837C22.476 1.94195 22.2196 1.32216 21.7637 0.864965C21.3078 0.407756 20.6896 0.150474 20.0447 0.149658H20.0445L3.94611 0.149658L3.94595 0.149658C3.30105 0.150474 2.68286 0.407756 2.22696 0.864965C1.77106 1.32216 1.51465 1.94195 1.51383 2.58837V2.58853L1.51383 8.87487L1.51383 8.87503C1.51465 9.52145 1.77106 10.1412 2.22696 10.5984C2.68286 11.0556 3.30105 11.3129 3.94595 11.3137H3.94611H4.56492V17.0874L2.85788 17.0956ZM2.85788 17.0956L2.8581 17.2206L2.8575 17.0956L2.85788 17.0956ZM21.1471 18.5157L21.1479 18.5157C21.1937 18.5154 21.239 18.5242 21.2814 18.5416C21.3238 18.5589 21.3624 18.5846 21.3949 18.617C21.4274 18.6494 21.4532 18.6879 21.4709 18.7304C21.4885 18.7729 21.4976 18.8185 21.4976 18.8646V20.132H2.51056V18.8646C2.51056 18.7719 2.54726 18.6831 2.61248 18.6177C2.67768 18.5524 2.76604 18.5157 2.8581 18.5157H21.1384L21.1471 18.5157ZM4.56492 34.9396H3.41773V21.5345H4.56492V34.9396ZM5.97314 26.6289L5.98148 21.5316H18.0352V26.6289H5.97314ZM5.98168 28.7234V28.0373H18.0352V28.7234H5.98168ZM20.5875 34.9396H19.4403V21.5345H20.5875V34.9396ZM8.07019 17.0956V11.3225H15.9438V17.0956H8.07019ZM18.0294 17.0956H17.346V11.3225H18.0294V17.0956ZM20.0436 9.91997H3.94705C3.67661 9.91568 3.41835 9.80604 3.22697 9.61411C3.03558 9.42217 2.92611 9.16301 2.92185 8.89147V2.58948C2.92611 2.31794 3.03558 2.05876 3.22697 1.86682C3.41836 1.67489 3.67662 1.56525 3.94707 1.56098H20.0436C20.314 1.56525 20.5723 1.67489 20.7637 1.86682C20.9551 2.05877 21.0645 2.31796 21.0688 2.58951V8.87487C21.0688 9.14948 20.9611 9.413 20.7691 9.60852C20.5773 9.80381 20.3167 9.91561 20.0436 9.91997ZM5.97293 11.3401H6.65635V17.1131H5.97293V11.3401Z" fill="white" stroke="white" stroke-width="0.25"/>
</svg>
