<svg width="36" height="39" viewBox="0 0 36 39" fill="none" xmlns="http://www.w3.org/2000/svg">
<path d="M35.2311 0.423828H0.769531V3.5923H2.04533V36.5399H2.68323V38.4398H33.3174V36.5399H33.9553V3.5923H35.2311V0.423828ZM3.32113 3.5923H12.2555V25.1364H3.32113V3.5923ZM13.5331 35.2732V3.5923H22.4675V35.2732H13.5331ZM3.32113 26.4012H12.2555V30.2029H3.32113V26.4012ZM12.2555 31.4715V35.2732H3.32113V31.4715H12.2555ZM32.0397 37.1732H3.95903V36.5399H32.0397V37.1732ZM32.6776 35.2732H23.7451V3.5923H32.6795L32.6776 35.2732ZM33.9553 2.32379H2.04533V1.69047H33.9553V2.32379Z" fill="white" stroke="white" stroke-width="0.3"/>
<path d="M25.8015 14.3643H25.0195V19.4327H25.8015V14.3643Z" fill="white"/>
<path d="M21.1907 14.3643H20.377V19.4327H21.1907V14.3643Z" fill="white"/>
<path d="M9.06519 32.9258H6.51172V33.6334H9.06519V32.9258Z" fill="white"/>
<path d="M9.06519 27.9111H6.51172V28.5649H9.06519V27.9111Z" fill="white"/>
<path d="M4.47656 4.50977V24.0108H11.211V4.50977H4.47656ZM10.0886 22.7925H5.59897V5.72813H10.0886V22.7925Z" fill="white"/>
</svg>
