<svg width="34" height="34" viewBox="0 0 34 34" fill="none" xmlns="http://www.w3.org/2000/svg">
<g clip-path="url(#clip0)">
<path d="M28.0189 14.064V29.9041H22.0381V23.0533C22.0381 22.4527 21.5512 21.9659 20.9507 21.9659H13.3025C12.7018 21.9659 12.2151 22.4527 12.2151 23.0533V29.9041H6.27051V14.064H4.0957V30.9915C4.0957 31.5921 4.58253 32.0789 5.18311 32.0789H13.3025C13.9032 32.0789 14.3899 31.592 14.3899 30.9915V24.1408H19.8633V30.9915C19.8633 31.5922 20.3501 32.0789 20.9507 32.0789H29.1064C29.707 32.0789 30.1938 31.5921 30.1938 30.9915V14.064H28.0189Z" fill="white"/>
<path d="M33.6557 16.9675L17.888 2.21491C17.473 1.82597 16.8278 1.82345 16.4092 2.20801L0.351615 16.9607C-0.0905839 17.367 -0.119603 18.0547 0.286736 18.4969C0.500963 18.7307 0.793815 18.8488 1.0878 18.8488C1.35056 18.8488 1.61446 18.7539 1.82324 18.5621L17.1385 4.49159L32.1698 18.5556C32.6092 18.9662 33.2964 18.9427 33.7067 18.5044C34.1167 18.0658 34.0942 17.3779 33.6557 16.9675Z" fill="white"/>
</g>
<defs>
<clipPath id="clip0">
<rect width="34" height="34" fill="white"/>
</clipPath>
</defs>
</svg>
