<svg width="42" height="41" viewBox="0 0 42 41" fill="none" xmlns="http://www.w3.org/2000/svg">
<path d="M1.2793 25.0898H2.33722V38.0864H3.12421V40.0045H39.0322V38.0864H39.8192V25.0898H40.8771V21.894H1.2793V25.0898ZM19.3736 36.8055V25.0898H28.3175V36.8055H19.3736ZM3.61446 29.3465H18.0963V36.8055H3.61446V29.3465ZM18.0963 28.0527H3.61446V25.0769H18.0963V28.0527ZM37.7517 38.7268H4.40145V38.0799H37.7517V38.7268ZM38.5419 36.8087H29.598V25.0898H38.5419V36.8087ZM2.55977 23.1685H39.5966V23.8154H2.55977V23.1685Z" fill="white"/>
<path d="M28.8691 0.591061H18.0964V7.4419L16.9417 3.3728V0.578125H3.71775V3.3728L1.07617 12.6787H40.9223V0.591061H28.8691ZM5.00144 1.86225H15.6709V2.83263H4.99176L5.00144 1.86225ZM2.76626 11.3946L4.83372 4.10382H15.8193L17.89 11.3946H2.76626ZM28.8691 11.3946H19.3737V1.87519H28.8691V11.3946ZM39.6322 1.87519V11.3946H30.1464V1.87519H39.6322Z" fill="white" stroke="white" stroke-width="0.2"/>
<path d="M5.94721 27.2926C6.29991 27.2926 6.58583 27.0059 6.58583 26.6522C6.58583 26.2985 6.29991 26.0117 5.94721 26.0117C5.59451 26.0117 5.30859 26.2985 5.30859 26.6522C5.30859 27.0059 5.59451 27.2926 5.94721 27.2926Z" fill="white"/>
<path d="M9.22065 27.2926C9.57335 27.2926 9.85927 27.0059 9.85927 26.6522C9.85927 26.2985 9.57335 26.0117 9.22065 26.0117C8.86795 26.0117 8.58203 26.2985 8.58203 26.6522C8.58203 27.0059 8.86795 27.2926 9.22065 27.2926Z" fill="white"/>
<path d="M12.4902 27.2926C12.8429 27.2926 13.1288 27.0059 13.1288 26.6522C13.1288 26.2985 12.8429 26.0117 12.4902 26.0117C12.1375 26.0117 11.8516 26.2985 11.8516 26.6522C11.8516 27.0059 12.1375 27.2926 12.4902 27.2926Z" fill="white"/>
<path d="M15.7656 27.2926C16.1183 27.2926 16.4042 27.0059 16.4042 26.6522C16.4042 26.2985 16.1183 26.0117 15.7656 26.0117C15.4129 26.0117 15.127 26.2985 15.127 26.6522C15.127 27.0059 15.4129 27.2926 15.7656 27.2926Z" fill="white"/>
<path d="M5.50195 35.7832H16.4101V30.6079H5.5084L5.50195 35.7832ZM6.7921 31.9017H15.12V34.5153H6.78242L6.7921 31.9017Z" fill="white"/>
<path d="M27.037 29.8286H25.7598V32.0702H27.037V29.8286Z" fill="white"/>
<path d="M32.1562 29.8286H30.8789V32.0702H32.1562V29.8286Z" fill="white"/>
<path d="M27.5897 4.95459H26.3125V7.19615H27.5897V4.95459Z" fill="white"/>
<path d="M32.705 4.95459H31.4277V7.19615H32.705V4.95459Z" fill="white"/>
</svg>
