<svg width="38" height="33" viewBox="0 0 38 33" fill="none" xmlns="http://www.w3.org/2000/svg">
<path d="M17.0619 24.855H15.9023V26.8891H17.0619V24.855Z" fill="white"/>
<path d="M21.7064 24.855H20.5469V26.8891H21.7064V24.855Z" fill="white"/>
<path d="M20.9433 15.2669H33.3552V0.353027H4.66963V15.2669H17.0795V17.1716H1.01562V30.9936H4.87733V32.7304H9.2573V30.9936H28.703V32.7304H33.0809V30.9936H36.9447V17.1716H20.9433V15.2669ZM5.81907 1.51767H32.1957V11.4919H5.82713L5.81907 1.51767ZM5.81907 14.1063V12.6545H32.1957V14.1063H5.82713H5.81907ZM18.231 15.2689H19.7757V17.1736H18.231V15.2689ZM8.08971 31.5698H6.04291V30.9956H8.10383L8.08971 31.5698ZM4.86322 29.835H2.17313V21.82H18.4004V29.833H4.87733L4.86322 29.835ZM31.9073 31.5698H29.8605V30.9956H31.9214L31.9073 31.5698ZM35.771 29.835H19.5539V21.82H35.7811L35.771 29.835ZM35.771 18.3362V20.6594H2.17313V18.3342H35.7851L35.771 18.3362Z" fill="white" stroke="white" stroke-width="0.45"/>
</svg>
