<svg width="36" height="24" viewBox="0 0 36 24" fill="none" xmlns="http://www.w3.org/2000/svg">
<path d="M34.8107 6.54135C35.1882 6.54135 35.4942 6.23447 35.4942 5.85604V1.34522C35.4942 0.966792 35.1882 0.659912 34.8107 0.659912H31.1199C30.5119 0.659912 29.9958 1.06027 29.8188 1.61173H20.2013C20.194 1.6081 20.1872 1.60399 20.1798 1.60063C18.3239 0.755169 16.2855 0.515107 14.2851 0.906691L8.7641 1.98694H6.23905C6.21574 1.25147 5.61332 0.659912 4.87427 0.659912H1.18348C0.805994 0.659912 0.5 0.966792 0.5 1.34522V5.75091C0.5 6.12934 0.805994 6.43622 1.18348 6.43622C1.56097 6.43622 1.86696 6.12934 1.86696 5.75091V2.03052H4.87427V15.0231H1.86696V11.3704C1.86696 10.992 1.56097 10.6851 1.18348 10.6851C0.805994 10.6851 0.5 10.992 0.5 11.3704V15.7084C0.5 16.0868 0.805994 16.3937 1.18348 16.3937H4.87427C5.62802 16.3937 6.24123 15.7789 6.24123 15.0231V15.0156C6.55488 15.1038 6.85165 15.2516 7.11069 15.4528L7.42981 15.7006C7.49043 16.2445 7.75303 16.7662 8.20651 17.1408C8.61072 17.4746 9.1001 17.6371 9.58687 17.6371C9.63581 17.6371 9.68468 17.6349 9.73348 17.6316C9.80285 18.1859 10.0757 18.6846 10.5075 19.0412C10.9117 19.375 11.4011 19.5376 11.8879 19.5376C11.9369 19.5376 11.9857 19.5354 12.0345 19.5321C12.1039 20.0864 12.3768 20.5851 12.8086 20.9418C13.2016 21.2662 13.6843 21.4394 14.187 21.4394C14.2367 21.4394 14.2866 21.437 14.3366 21.4336C14.4038 21.966 14.6648 22.4749 15.1095 22.8423C15.5025 23.1668 15.9853 23.3399 16.4879 23.3399C16.5586 23.3399 16.6297 23.3364 16.701 23.3296C17.279 23.2736 17.8007 22.9952 18.1699 22.5458L18.7257 21.8692C18.8892 21.6702 19.0112 21.4505 19.0934 21.2206C19.417 21.3938 19.7796 21.4859 20.1558 21.4859C20.1669 21.4859 20.1779 21.4857 20.189 21.4856C20.7936 21.477 21.3585 21.2328 21.7799 20.798C22.0022 20.5687 22.1659 20.3039 22.2722 20.0222L22.5081 20.2521C22.9472 20.68 23.5164 20.893 24.0853 20.893C24.6757 20.893 25.2657 20.6632 25.7087 20.2062C25.9603 19.9467 26.1369 19.6417 26.2399 19.3182C26.5561 19.4754 26.9012 19.5543 27.2464 19.5543C27.8368 19.5543 28.4268 19.3247 28.8698 18.8676C29.2912 18.4328 29.5185 17.8597 29.5098 17.2534C29.5012 16.6473 29.2577 16.0808 28.8247 15.6589L28.3498 15.195L29.753 14.4356V15.0231C29.753 15.7789 30.3662 16.3937 31.1199 16.3937H34.8107C35.1882 16.3937 35.4942 16.0868 35.4942 15.7084V11.1648C35.4942 10.7864 35.1882 10.4795 34.8107 10.4795C34.4332 10.4795 34.1272 10.7864 34.1272 11.1648V15.0231H31.1199V13.2909C31.1199 13.2891 31.1199 13.2872 31.1199 13.2854V2.03052H34.1272V5.85604C34.1272 6.23447 34.4332 6.54135 34.8107 6.54135ZM10.7675 15.2961L10.2117 15.9727C9.92875 16.3172 9.41915 16.3666 9.07563 16.0828C8.73211 15.7991 8.68283 15.288 8.96579 14.9437L9.52167 14.2671C9.6587 14.1003 9.8524 13.9969 10.0669 13.9762C10.0934 13.9736 10.1198 13.9723 10.146 13.9723C10.3325 13.9723 10.5119 14.0365 10.6577 14.157C11.0012 14.4407 11.0504 14.9518 10.7675 15.2961ZM13.0685 17.1968L12.5126 17.8733C12.2298 18.2177 11.72 18.2671 11.3766 17.9834C11.2101 17.846 11.1071 17.6518 11.0864 17.4366C11.0656 17.2214 11.1297 17.0111 11.2668 16.8442L11.8227 16.1676C11.9597 16.0008 12.1533 15.8975 12.368 15.8767C12.3944 15.8741 12.4208 15.8728 12.447 15.8728C12.6336 15.8728 12.8129 15.9371 12.9587 16.0576C13.1251 16.195 13.2281 16.3892 13.2489 16.6044C13.2696 16.8195 13.2056 17.0298 13.0685 17.1968ZM15.3695 19.097L14.8137 19.7736C14.6766 19.9405 14.483 20.0438 14.2684 20.0646C14.0536 20.0856 13.8439 20.0212 13.6776 19.8838C13.5111 19.7464 13.4081 19.5522 13.3873 19.337C13.3666 19.1219 13.4306 18.9115 13.5677 18.7446L14.1235 18.0681C14.2829 17.8741 14.5141 17.7737 14.7472 17.7737C14.9279 17.7737 15.1097 17.8341 15.2597 17.958C15.6032 18.2417 15.6525 18.7527 15.3695 19.097ZM17.6704 20.9977L17.1145 21.6742C16.9775 21.8411 16.7838 21.9444 16.5692 21.9652C16.3544 21.9863 16.1448 21.9217 15.9784 21.7843C15.6349 21.5006 15.5856 20.9895 15.8686 20.6452L16.4245 19.9686C16.5615 19.8017 16.7552 19.6985 16.9698 19.6777C16.9963 19.6751 17.0227 19.6738 17.0489 19.6738C17.2355 19.6738 17.4148 19.7381 17.5606 19.8586C17.7271 19.996 17.8301 20.1901 17.8508 20.4053C17.8715 20.6205 17.8075 20.8308 17.6704 20.9977ZM27.8893 17.9122C27.5448 18.2677 26.9761 18.2758 26.6216 17.9304L24.3555 15.7222C24.353 15.7197 24.3503 15.7177 24.3477 15.7153L22.1153 13.54C21.8447 13.2761 21.4119 13.2824 21.1488 13.5537C20.8858 13.8252 20.8919 14.2591 21.1626 14.5228L24.71 17.9796C25.0646 18.325 25.0727 18.8953 24.7281 19.2508C24.3837 19.6063 23.8149 19.6144 23.4604 19.269L19.913 15.8122C19.9059 15.8052 19.8981 15.7993 19.8907 15.7927L18.1864 14.1319C17.9157 13.8682 17.483 13.8744 17.2198 14.1457C16.9568 14.4172 16.9629 14.851 17.2337 15.1148L20.781 18.5716C21.1356 18.917 21.1437 19.4873 20.7992 19.8427C20.6323 20.0149 20.4085 20.1116 20.1691 20.1151C19.9309 20.1194 19.7033 20.0282 19.5314 19.8608L18.5379 18.8928C18.5157 18.871 18.4919 18.8518 18.4675 18.8337C18.4548 18.8228 18.4425 18.8114 18.4295 18.8006C17.9844 18.4331 17.4359 18.2737 16.9015 18.3098C16.8346 17.7771 16.5735 17.2678 16.1285 16.9002C15.6838 16.5328 15.1356 16.3734 14.6016 16.4093C14.5322 15.8551 14.2594 15.3563 13.8276 14.9997C13.3958 14.643 12.8551 14.4699 12.2995 14.5078C12.2324 13.9754 11.9714 13.4665 11.5267 13.0991C11.0784 12.729 10.5135 12.5562 9.93524 12.6119C9.35722 12.6679 8.83559 12.9463 8.46637 13.3957L7.9105 14.0722C7.86382 14.1291 7.82062 14.1876 7.78064 14.2475C7.31929 13.9274 6.79171 13.7105 6.24103 13.6115V3.35755H8.82992C8.87386 3.35755 8.91768 3.3533 8.96087 3.3448L14.5468 2.25188C15.4945 2.0665 16.452 2.04683 17.3879 2.18739C16.6808 2.50626 16.0289 2.9526 15.4619 3.51517L10.2871 8.649C9.34868 9.57992 9.33166 11.1115 10.2492 12.0631C10.7178 12.5493 11.3508 12.8038 11.9916 12.8037C12.3986 12.8037 12.8089 12.7009 13.182 12.4896L18.6048 9.41764H20.4771L27.8711 16.6412C28.0429 16.8085 28.1393 17.0328 28.1427 17.273C28.1463 17.513 28.0562 17.74 27.8893 17.9122ZM29.753 12.8781L27.3237 14.1926L22.436 9.41758H22.9159C23.2934 9.41758 23.5994 9.1107 23.5994 8.73227C23.5994 8.35384 23.2934 8.04696 22.9159 8.04696H18.4252C18.3073 8.04696 18.1915 8.07746 18.089 8.13564L12.5096 11.2962C12.0913 11.5333 11.566 11.4568 11.2321 11.1104C10.8324 10.6959 10.8398 10.0287 11.2486 9.62324L16.4235 4.4894C17.4031 3.5175 18.7016 2.98235 20.0797 2.98235H29.753V12.8781Z" fill="white" stroke="white" stroke-width="0.3"/>
<path d="M35.2936 8.04259C35.1665 7.91444 34.9902 7.8418 34.8104 7.8418C34.6307 7.8418 34.4543 7.91444 34.3272 8.04259C34.2001 8.17006 34.127 8.34625 34.127 8.5271C34.127 8.70734 34.2001 8.88414 34.3272 9.01161C34.4543 9.13901 34.6307 9.2124 34.8104 9.2124C34.9902 9.2124 35.1665 9.13908 35.2936 9.01161C35.4208 8.88346 35.4939 8.70734 35.4939 8.5271C35.4939 8.34618 35.4208 8.17006 35.2936 8.04259Z" fill="white"/>
<path d="M1.6667 8.04259C1.53957 7.91444 1.36324 7.8418 1.18348 7.8418C1.00372 7.8418 0.827387 7.91444 0.70026 8.04259C0.573132 8.17006 0.5 8.34625 0.5 8.5271C0.5 8.70734 0.573132 8.88346 0.70026 9.01161C0.827387 9.13908 1.00372 9.2124 1.18348 9.2124C1.36324 9.2124 1.53957 9.13908 1.6667 9.01161C1.79383 8.88346 1.86696 8.70734 1.86696 8.5271C1.86696 8.34618 1.79383 8.17006 1.6667 8.04259Z" fill="white"/>
</svg>
