<svg width="31" height="32" viewBox="0 0 31 32" fill="none" xmlns="http://www.w3.org/2000/svg">
<path d="M28.795 16.3644C28.7337 16.2407 28.7018 16.1046 28.7018 15.9665C28.7018 15.8285 28.7337 15.6923 28.795 15.5685L29.9501 13.2241C30.2615 12.6002 30.3162 11.8796 30.1024 11.2161C29.8886 10.5526 29.4233 9.99865 28.8059 9.67276L26.4956 8.44193C26.3723 8.37662 26.2659 8.2837 26.1846 8.17051C26.1033 8.05733 26.0494 7.92696 26.027 7.78951L25.5911 5.21456C25.4748 4.52747 25.0941 3.91296 24.5302 3.50185C23.9663 3.09074 23.2639 2.91562 22.5725 3.01381L19.9788 3.37262C19.8418 3.39278 19.702 3.38081 19.5703 3.33779C19.4387 3.29476 19.3189 3.22182 19.2204 3.12467L17.3416 1.30439C16.8432 0.816354 16.1733 0.542082 15.4749 0.54005C14.7766 0.538019 14.1051 0.808431 13.6038 1.29356L11.7163 3.10513C11.6172 3.20134 11.4973 3.27352 11.3658 3.31613C11.2343 3.35873 11.0947 3.37061 10.9578 3.35085L8.36422 2.97685C7.67337 2.87524 6.97006 3.04676 6.40416 3.45502C5.83826 3.86328 5.45452 4.47596 5.3347 5.16242L4.87483 7.73291C4.85304 7.87085 4.79908 8.00176 4.71731 8.11508C4.63554 8.2284 4.52824 8.32096 4.40405 8.38533L2.08723 9.60543C1.46899 9.92833 1.00144 10.4792 0.784074 11.1408C0.566707 11.8024 0.616687 12.5227 0.923373 13.1481L2.06762 15.4989C2.12894 15.623 2.16084 15.7595 2.16084 15.8979C2.16084 16.0363 2.12894 16.173 2.06762 16.2971L0.910297 18.6414C0.5997 19.2653 0.545727 19.9856 0.759903 20.6487C0.974079 21.3117 1.43944 21.865 2.05672 22.1905L4.367 23.4215C4.49005 23.487 4.59632 23.58 4.67758 23.6931C4.75884 23.8062 4.8129 23.9365 4.83559 24.0739L5.2715 26.6487C5.37643 27.2702 5.69828 27.8347 6.18011 28.2423C6.66194 28.6498 7.2727 28.8742 7.90435 28.8757C8.03338 28.8756 8.16226 28.8669 8.29012 28.8496L10.8837 28.4908C11.0207 28.4715 11.1604 28.4838 11.2919 28.5268C11.4234 28.5697 11.5432 28.6423 11.6422 28.7387L13.521 30.5611C14.0208 31.0477 14.6915 31.32 15.3899 31.32C16.0882 31.32 16.7589 31.0477 17.2588 30.5611L19.1463 28.7495C19.2453 28.6533 19.3653 28.5812 19.4969 28.539C19.6285 28.4967 19.7681 28.4854 19.9047 28.506L22.4984 28.8778C23.1877 28.9803 23.8899 28.8104 24.4557 28.4042C25.0214 27.9981 25.4061 27.3878 25.5279 26.7031L25.9856 24.1305C26.0083 23.9926 26.0628 23.8618 26.1449 23.7485C26.227 23.6353 26.3344 23.5427 26.4585 23.4781L28.7754 22.2602C29.3941 21.9373 29.8621 21.386 30.0795 20.7239C30.2969 20.0617 30.2466 19.341 29.9392 18.7153L28.795 16.3644ZM27.1952 17.1409L28.3395 19.4895C28.4436 19.7014 28.4607 19.9456 28.387 20.1699C28.3133 20.3941 28.1547 20.5808 27.945 20.69L25.6281 21.9079C25.2654 22.0974 24.9512 22.3675 24.7097 22.6975C24.4682 23.0274 24.3059 23.4083 24.2354 23.8107L23.7756 26.3835C23.7354 26.6158 23.6058 26.8232 23.4143 26.9613C23.2229 27.0995 22.9849 27.1575 22.7512 27.1229L20.1597 26.7488C19.7548 26.6888 19.3414 26.7228 18.9517 26.848C18.562 26.9733 18.2065 27.1864 17.9127 27.4708L16.0252 29.2824C15.8562 29.4471 15.6294 29.5393 15.3932 29.5393C15.1569 29.5393 14.9301 29.4471 14.7611 29.2824L12.8824 27.4599C12.3862 26.9737 11.7186 26.7012 11.0232 26.701C10.8949 26.6988 10.7665 26.7076 10.6396 26.7271L8.04602 27.0859C7.81187 27.1187 7.57413 27.0591 7.38328 26.9198C7.19243 26.7806 7.06349 26.5725 7.02383 26.3399L6.58792 23.7651C6.51897 23.3624 6.35834 22.9808 6.1184 22.6498C5.87847 22.3188 5.56562 22.0471 5.20393 21.8556L2.89365 20.6248C2.68507 20.5145 2.52797 20.3272 2.45589 20.1029C2.38381 19.8786 2.40247 19.6351 2.50788 19.4243L3.66302 17.0799C3.84362 16.7135 3.93753 16.3106 3.93753 15.9023C3.93753 15.494 3.84362 15.0912 3.66302 14.7248L2.51878 12.3739C2.4147 12.1623 2.39771 11.9184 2.47143 11.6945C2.54514 11.4706 2.70372 11.2843 2.91327 11.1755L5.23008 9.95554C5.59287 9.76664 5.9072 9.49691 6.14872 9.1673C6.39023 8.83769 6.55245 8.457 6.6228 8.05477L7.08267 5.48215C7.1228 5.24982 7.25245 5.04235 7.44388 4.90417C7.63532 4.76599 7.87334 4.70799 8.10704 4.74266L10.6985 5.11453C11.1035 5.17444 11.5168 5.14056 11.9065 5.01535C12.2962 4.89014 12.6517 4.677 12.9456 4.39255L14.833 2.58099C15.002 2.41627 15.2289 2.32412 15.4651 2.32412C15.7013 2.32412 15.9282 2.41627 16.0971 2.58099L17.9759 4.40126C18.2684 4.68685 18.6227 4.90161 19.0115 5.02905C19.4004 5.15648 19.8133 5.19317 20.2186 5.1363L22.8122 4.77749C23.0461 4.7441 23.2839 4.80316 23.4748 4.94208C23.6657 5.081 23.7948 5.28879 23.8344 5.52123L24.2703 8.09608C24.3389 8.49862 24.4991 8.88012 24.7387 9.21116C24.9782 9.54219 25.2907 9.81399 25.6521 10.0056L27.9624 11.2365C28.1714 11.3464 28.3289 11.5335 28.4014 11.7579C28.4739 11.9822 28.4556 12.2259 28.3503 12.4369L27.1952 14.7813C27.0142 15.1483 26.9201 15.5519 26.9201 15.961C26.9201 16.3701 27.0142 16.7738 27.1952 17.1409Z" fill="white" stroke="white" stroke-width="0.4"/>
<path d="M21.9408 9.46407C21.7737 9.2982 21.5477 9.20508 21.312 9.20508C21.0763 9.20508 20.8503 9.2982 20.6832 9.46407L8.91385 21.1446C8.74762 21.3113 8.6543 21.5369 8.6543 21.772C8.6543 22.0072 8.74762 22.2327 8.91385 22.3994C9.0809 22.5653 9.30697 22.6584 9.54264 22.6584C9.7783 22.6584 10.0044 22.5653 10.1714 22.3994L21.9408 10.7168C22.1064 10.5502 22.1993 10.3251 22.1993 10.0905C22.1993 9.85586 22.1064 9.63066 21.9408 9.46407Z" fill="white" stroke="white" stroke-width="0.4"/>
<path d="M11.8749 14.4422C12.5222 14.4457 13.156 14.2573 13.6959 13.901C14.2358 13.5446 14.6576 13.0363 14.9077 12.4405C15.1578 11.8448 15.225 11.1883 15.1009 10.5544C14.9767 9.92045 14.6667 9.33753 14.2102 8.87957C13.7537 8.4216 13.1712 8.10923 12.5366 7.98194C11.9019 7.85466 11.2437 7.91821 10.6453 8.16459C10.0469 8.41098 9.53526 8.82909 9.17525 9.36591C8.81525 9.90274 8.62306 10.5341 8.62305 11.1801C8.62303 12.0422 8.96508 12.8694 9.57442 13.4807C10.1838 14.0919 11.0108 14.4376 11.8749 14.4422ZM11.8858 9.70997C12.1789 9.7104 12.4653 9.79751 12.7088 9.96036C12.9523 10.1232 13.1419 10.3545 13.2537 10.6249C13.3655 10.8953 13.3944 11.1926 13.3368 11.4794C13.2791 11.7662 13.1376 12.0295 12.93 12.236C12.7225 12.4425 12.4582 12.583 12.1706 12.6396C11.883 12.6963 11.5851 12.6665 11.3144 12.5542C11.0438 12.4418 10.8126 12.252 10.6501 12.0086C10.4876 11.7651 10.4011 11.4791 10.4015 11.1866C10.4033 10.7948 10.5603 10.4195 10.8384 10.1428C11.1165 9.86612 11.4931 9.71054 11.8858 9.70997Z" fill="white" stroke="white" stroke-width="0.4"/>
<path d="M18.9801 17.419C18.3327 17.4155 17.6989 17.604 17.159 17.9603C16.6191 18.3167 16.1974 18.8249 15.9473 19.4206C15.6971 20.0164 15.6299 20.6728 15.7541 21.3067C15.8782 21.9407 16.1882 22.5236 16.6447 22.9815C17.1012 23.4395 17.6837 23.7519 18.3184 23.8792C18.953 24.0064 19.6113 23.9429 20.2097 23.6965C20.8081 23.4501 21.3197 23.032 21.6797 22.4952C22.0397 21.9584 22.2319 21.327 22.2319 20.6811C22.2319 19.8189 21.8899 18.9919 21.2805 18.3806C20.6712 17.7694 19.8441 17.4236 18.9801 17.419ZM18.967 22.1513C18.6739 22.1504 18.3876 22.0628 18.1443 21.8996C17.9011 21.7364 17.7118 21.5049 17.6004 21.2343C17.4891 20.9638 17.4606 20.6663 17.5186 20.3796C17.5767 20.0929 17.7186 19.8299 17.9265 19.6237C18.1343 19.4175 18.3988 19.2774 18.6865 19.2212C18.9742 19.165 19.2721 19.1951 19.5425 19.3079C19.813 19.4206 20.0439 19.6107 20.2061 19.8544C20.3682 20.0981 20.4543 20.3843 20.4534 20.6767C20.4517 21.0688 20.2942 21.4442 20.0156 21.7206C19.737 21.997 19.3599 22.1518 18.967 22.1513Z" fill="white" stroke="white" stroke-width="0.4"/>
</svg>
