<svg width="29" height="32" viewBox="0 0 29 32" fill="none" xmlns="http://www.w3.org/2000/svg">
<path d="M28.3341 18.9499C28.1397 18.6125 27.8486 18.3406 27.4979 18.1689C27.2006 18.019 26.8705 17.9451 26.5373 17.9538C26.2042 17.9625 25.8784 18.0537 25.5894 18.2189L20.549 21.1134C20.4673 20.6832 20.2452 20.2917 19.9172 19.9999C19.546 19.6778 19.0702 19.5002 18.5778 19.4999H14.479C14.413 19.5 14.3476 19.4871 14.2866 19.4619C14.2256 19.4368 14.1702 19.3999 14.1235 19.3534L14.0009 19.2314C13.7685 18.9988 13.492 18.8144 13.1876 18.6889C12.8831 18.5633 12.5566 18.4991 12.227 18.4999H8.36739C8.29155 18.4999 8.21672 18.5049 8.11627 18.5124C7.5394 18.5695 7.00013 18.8236 6.58999 19.2314L5.27364 20.5429L4.80505 20.0764C4.71087 19.9827 4.58315 19.93 4.44998 19.93C4.3168 19.93 4.18908 19.9827 4.0949 20.0764L1.25277 22.8999C1.20607 22.9464 1.16903 23.0015 1.14375 23.0622C1.11848 23.1229 1.10547 23.188 1.10547 23.2537C1.10547 23.3194 1.11848 23.3845 1.14375 23.4452C1.16903 23.5059 1.20607 23.561 1.25277 23.6074L8.35383 30.6824C8.40047 30.7289 8.45586 30.7658 8.51683 30.791C8.5778 30.8161 8.64316 30.8291 8.70916 30.8291C8.77516 30.8291 8.84051 30.8161 8.90148 30.791C8.96245 30.7658 9.01784 30.7289 9.06449 30.6824L11.9071 27.8524C12.0013 27.7587 12.0542 27.6315 12.0542 27.4989C12.0542 27.3664 12.0013 27.2392 11.9071 27.1454L11.5088 26.7489L11.6128 26.6454C11.7071 26.552 11.8348 26.4997 11.9679 26.4999H18.5471C18.9883 26.5009 19.4218 26.3846 19.8027 26.1629L27.5974 21.6829C27.9043 21.5089 28.1591 21.2566 28.3356 20.952C28.5122 20.6475 28.604 20.3016 28.6018 19.9499C28.6018 19.5991 28.5095 19.2543 28.3341 18.9499ZM8.70891 29.6229L2.318 23.2554L4.44947 21.1364L10.8414 27.4999L8.70891 29.6229ZM27.0956 20.8169L19.297 25.2999C19.0695 25.4319 18.8108 25.5009 18.5476 25.4999H11.9684C11.7704 25.4993 11.5742 25.5378 11.3912 25.6133C11.2083 25.6887 11.0422 25.7996 10.9027 25.9394L10.7987 26.0429L5.98379 21.2499L7.30115 19.9384C7.54502 19.6955 7.86552 19.5437 8.20868 19.5084C8.26393 19.5039 8.31566 19.4999 8.36739 19.4999H12.227C12.4246 19.4995 12.6204 19.538 12.803 19.6132C12.9855 19.6885 13.1513 19.799 13.2908 19.9384L13.4133 20.0604C13.5529 20.2003 13.719 20.3112 13.9019 20.3866C14.0849 20.462 14.281 20.5006 14.479 20.4999H18.5778C18.8257 20.4996 19.0654 20.5883 19.2528 20.7499C19.4415 20.9146 19.5601 21.1447 19.5842 21.3934C19.6006 21.5499 19.5776 21.708 19.5174 21.8534C19.4714 21.9875 19.3943 22.109 19.2924 22.2079C19.1994 22.3009 19.0888 22.3746 18.967 22.4248C18.8452 22.4749 18.7146 22.5004 18.5828 22.4999H14.2736C14.1404 22.4999 14.0127 22.5526 13.9185 22.6464C13.8243 22.7402 13.7714 22.8673 13.7714 22.9999C13.7714 23.1325 13.8243 23.2597 13.9185 23.3535C14.0127 23.4473 14.1404 23.4999 14.2736 23.4999H18.5828C18.8466 23.5005 19.108 23.4489 19.3517 23.3483C19.5954 23.2476 19.8166 23.0998 20.0026 22.9134C20.1656 22.7527 20.2985 22.5643 20.3948 22.3569L26.0891 19.0839C26.2351 19.0013 26.3994 18.9562 26.5672 18.9528C26.7351 18.9493 26.9011 18.9875 27.0504 19.0639C27.2236 19.1484 27.3675 19.2825 27.4638 19.4489C27.5514 19.6011 27.5976 19.7735 27.5979 19.9489C27.5991 20.125 27.5532 20.2982 27.4649 20.4507C27.3767 20.6033 27.2492 20.7297 27.0956 20.8169Z" fill="white" stroke="white" stroke-width="0.7"/>
<path d="M15.5678 18H23.6035C24.2693 17.9992 24.9075 17.7356 25.3783 17.2669C25.849 16.7982 26.1139 16.1628 26.1147 15.5V5.5C26.1147 5.36739 26.0618 5.24021 25.9676 5.14645C25.8734 5.05268 25.7456 5 25.6124 5H23.1013V4.5C23.1013 3.57174 22.7309 2.6815 22.0716 2.02513C21.4123 1.36875 20.5181 1 19.5857 1C18.6533 1 17.759 1.36875 17.0997 2.02513C16.4404 2.6815 16.07 3.57174 16.07 4.5V5H13.5589C13.4257 5 13.2979 5.05268 13.2037 5.14645C13.1096 5.24021 13.0566 5.36739 13.0566 5.5V15.5C13.0574 16.1628 13.3223 16.7982 13.793 17.2669C14.2638 17.7356 14.902 17.9992 15.5678 18ZM17.0745 4.5C17.0745 3.83696 17.3391 3.20107 17.81 2.73223C18.2809 2.26339 18.9197 2 19.5857 2C20.2517 2 20.8904 2.26339 21.3613 2.73223C21.8322 3.20107 22.0968 3.83696 22.0968 4.5V5H17.0745V4.5ZM14.0611 6H16.07V7.5C16.07 7.63261 16.1229 7.75979 16.2171 7.85355C16.3113 7.94732 16.4391 8 16.5723 8C16.7055 8 16.8332 7.94732 16.9274 7.85355C17.0216 7.75979 17.0745 7.63261 17.0745 7.5V6H22.0968V7.5C22.0968 7.63261 22.1497 7.75979 22.2439 7.85355C22.3381 7.94732 22.4658 8 22.599 8C22.7322 8 22.86 7.94732 22.9542 7.85355C23.0484 7.75979 23.1013 7.63261 23.1013 7.5V6H25.1102V15.5C25.1102 15.8978 24.9515 16.2794 24.6689 16.5607C24.3863 16.842 24.0031 17 23.6035 17H15.5678C15.1682 17 14.785 16.842 14.5024 16.5607C14.2198 16.2794 14.0611 15.8978 14.0611 15.5V6Z" fill="white" stroke="white" stroke-width="0.7"/>
</svg>
