<svg width="41" height="25" viewBox="0 0 41 25" fill="none" xmlns="http://www.w3.org/2000/svg">
<mask id="path-1-outside-1" maskUnits="userSpaceOnUse" x="0.154297" y="0.120117" width="41" height="25" fill="black">
<rect fill="white" x="0.154297" y="0.120117" width="41" height="25"/>
<path d="M39.3668 6.75061C39.0174 6.33588 38.5344 6.05402 37.9998 5.95286L37.0147 2.59422C36.89 2.17108 36.6314 1.79915 36.2772 1.53361C35.923 1.26807 35.4921 1.12307 35.0485 1.12012H6.02609C5.58224 1.12327 5.1512 1.26832 4.79674 1.5338C4.44228 1.79928 4.18323 2.17109 4.05791 2.59422L3.07479 5.95286C2.54361 6.05609 2.06434 6.33777 1.71743 6.75061C1.49338 7.01416 1.32993 7.32313 1.2385 7.65596C1.14706 7.98878 1.12985 8.33743 1.18806 8.67755L2.49695 16.5414C2.64965 17.4893 3.10682 18.3628 3.8002 19.0314C4.49357 19.6999 5.38596 20.1276 6.3441 20.2507V23.222C6.34256 23.2972 6.3561 23.372 6.38393 23.4419C6.41177 23.5119 6.45334 23.5756 6.50623 23.6294C6.55912 23.6832 6.62225 23.726 6.69197 23.7554C6.76168 23.7847 6.83656 23.7999 6.91226 23.8001H9.04526C9.15638 23.7997 9.26495 23.767 9.35762 23.7061C9.4503 23.6451 9.52303 23.5586 9.56687 23.4571L10.9339 20.295H23.4042C23.4466 20.2946 23.4888 20.29 23.5303 20.2815H25.9464C25.9872 20.29 26.0288 20.2946 26.0705 20.295H29.7547L31.1237 23.4571C31.1674 23.5587 31.2401 23.6454 31.3328 23.7064C31.4255 23.7673 31.5342 23.7999 31.6454 23.8001H33.7784C33.854 23.7999 33.9289 23.7847 33.9986 23.7554C34.0684 23.726 34.1315 23.6832 34.1844 23.6294C34.2373 23.5756 34.2788 23.5119 34.3067 23.4419C34.3345 23.372 34.3481 23.2972 34.3465 23.222V20.2738C35.3785 20.2323 36.3642 19.8371 37.1362 19.1553C37.9082 18.4735 38.4188 17.5472 38.5815 16.5337L39.8904 8.66984C39.9477 8.33134 39.9305 7.98453 39.8402 7.65323C39.7498 7.32193 39.5883 7.01401 39.3668 6.75061ZM5.15738 2.91409C5.2126 2.72527 5.32779 2.55926 5.48575 2.44083C5.64371 2.32241 5.83598 2.25792 6.03385 2.25701H35.0485C35.2462 2.25854 35.4381 2.32326 35.596 2.44159C35.7538 2.55992 35.8692 2.72559 35.9249 2.91409L36.9682 6.47314L35.126 12.2539C34.9558 11.9337 34.7011 11.6656 34.3892 11.4782C34.0773 11.2909 33.7201 11.1913 33.3556 11.1903H21.9693C21.7005 11.19 21.4345 11.2439 21.1872 11.3485C20.94 11.4532 20.7166 11.6065 20.5305 11.7992C20.3444 11.6065 20.121 11.4532 19.8737 11.3485C19.6265 11.2439 19.3604 11.19 19.0917 11.1903H7.71892C7.3544 11.1909 6.99694 11.2903 6.68501 11.4777C6.37307 11.6651 6.11845 11.9335 5.94853 12.2539L4.10639 6.47314L5.15738 2.91409ZM34.2243 13.1885V14.5894H21.0986V13.1885C21.0984 13.0746 21.1207 12.9618 21.1643 12.8565C21.2079 12.7512 21.272 12.6555 21.3528 12.5748C21.4337 12.4941 21.5297 12.43 21.6355 12.3862C21.7413 12.3424 21.8547 12.3197 21.9693 12.3195H33.3556C33.5867 12.3205 33.808 12.4125 33.9708 12.5755C34.1337 12.7384 34.2249 12.9589 34.2243 13.1885ZM19.9623 13.1885V14.5894H6.84827V13.1885C6.84826 12.9587 6.93987 12.7382 7.10304 12.5753C7.26621 12.4125 7.48765 12.3205 7.71892 12.3195H19.0917C19.2063 12.3197 19.3197 12.3424 19.4255 12.3862C19.5312 12.43 19.6273 12.4941 19.7081 12.5748C19.789 12.6555 19.853 12.7512 19.8967 12.8565C19.9403 12.9618 19.9626 13.0746 19.9623 13.1885ZM8.66713 22.6459H7.47071V20.2777H9.69291L8.66713 22.6459ZM33.216 22.6459H32.0196L30.9958 20.2777H33.216V22.6459ZM38.7754 8.48293L37.4665 16.3467C37.3411 17.1259 36.9403 17.8351 36.3362 18.3472C35.7321 18.8593 34.9641 19.1406 34.17 19.1408H6.90256C6.10841 19.141 5.34021 18.8598 4.736 18.3477C4.13178 17.8355 3.73116 17.1261 3.60611 16.3467L2.29722 8.48293C2.2676 8.30666 2.27688 8.1261 2.32443 7.95376C2.37197 7.78141 2.45664 7.62139 2.57257 7.48478C2.71627 7.31462 2.90401 7.1867 3.11552 7.1148L5.73911 15.3293C5.77539 15.4442 5.84759 15.5447 5.94522 15.6161C6.04285 15.6875 6.16084 15.7261 6.28205 15.7263H34.7867C34.9077 15.7262 35.0255 15.6877 35.1229 15.6163C35.2203 15.5448 35.292 15.4443 35.3277 15.3293L37.9493 7.1148C38.1614 7.18665 38.3498 7.31455 38.4942 7.48478C38.6107 7.62118 38.6962 7.781 38.7447 7.95328C38.7932 8.12557 38.8037 8.30624 38.7754 8.48293Z"/>
</mask>
<path d="M39.3668 6.75061C39.0174 6.33588 38.5344 6.05402 37.9998 5.95286L37.0147 2.59422C36.89 2.17108 36.6314 1.79915 36.2772 1.53361C35.923 1.26807 35.4921 1.12307 35.0485 1.12012H6.02609C5.58224 1.12327 5.1512 1.26832 4.79674 1.5338C4.44228 1.79928 4.18323 2.17109 4.05791 2.59422L3.07479 5.95286C2.54361 6.05609 2.06434 6.33777 1.71743 6.75061C1.49338 7.01416 1.32993 7.32313 1.2385 7.65596C1.14706 7.98878 1.12985 8.33743 1.18806 8.67755L2.49695 16.5414C2.64965 17.4893 3.10682 18.3628 3.8002 19.0314C4.49357 19.6999 5.38596 20.1276 6.3441 20.2507V23.222C6.34256 23.2972 6.3561 23.372 6.38393 23.4419C6.41177 23.5119 6.45334 23.5756 6.50623 23.6294C6.55912 23.6832 6.62225 23.726 6.69197 23.7554C6.76168 23.7847 6.83656 23.7999 6.91226 23.8001H9.04526C9.15638 23.7997 9.26495 23.767 9.35762 23.7061C9.4503 23.6451 9.52303 23.5586 9.56687 23.4571L10.9339 20.295H23.4042C23.4466 20.2946 23.4888 20.29 23.5303 20.2815H25.9464C25.9872 20.29 26.0288 20.2946 26.0705 20.295H29.7547L31.1237 23.4571C31.1674 23.5587 31.2401 23.6454 31.3328 23.7064C31.4255 23.7673 31.5342 23.7999 31.6454 23.8001H33.7784C33.854 23.7999 33.9289 23.7847 33.9986 23.7554C34.0684 23.726 34.1315 23.6832 34.1844 23.6294C34.2373 23.5756 34.2788 23.5119 34.3067 23.4419C34.3345 23.372 34.3481 23.2972 34.3465 23.222V20.2738C35.3785 20.2323 36.3642 19.8371 37.1362 19.1553C37.9082 18.4735 38.4188 17.5472 38.5815 16.5337L39.8904 8.66984C39.9477 8.33134 39.9305 7.98453 39.8402 7.65323C39.7498 7.32193 39.5883 7.01401 39.3668 6.75061ZM5.15738 2.91409C5.2126 2.72527 5.32779 2.55926 5.48575 2.44083C5.64371 2.32241 5.83598 2.25792 6.03385 2.25701H35.0485C35.2462 2.25854 35.4381 2.32326 35.596 2.44159C35.7538 2.55992 35.8692 2.72559 35.9249 2.91409L36.9682 6.47314L35.126 12.2539C34.9558 11.9337 34.7011 11.6656 34.3892 11.4782C34.0773 11.2909 33.7201 11.1913 33.3556 11.1903H21.9693C21.7005 11.19 21.4345 11.2439 21.1872 11.3485C20.94 11.4532 20.7166 11.6065 20.5305 11.7992C20.3444 11.6065 20.121 11.4532 19.8737 11.3485C19.6265 11.2439 19.3604 11.19 19.0917 11.1903H7.71892C7.3544 11.1909 6.99694 11.2903 6.68501 11.4777C6.37307 11.6651 6.11845 11.9335 5.94853 12.2539L4.10639 6.47314L5.15738 2.91409ZM34.2243 13.1885V14.5894H21.0986V13.1885C21.0984 13.0746 21.1207 12.9618 21.1643 12.8565C21.2079 12.7512 21.272 12.6555 21.3528 12.5748C21.4337 12.4941 21.5297 12.43 21.6355 12.3862C21.7413 12.3424 21.8547 12.3197 21.9693 12.3195H33.3556C33.5867 12.3205 33.808 12.4125 33.9708 12.5755C34.1337 12.7384 34.2249 12.9589 34.2243 13.1885ZM19.9623 13.1885V14.5894H6.84827V13.1885C6.84826 12.9587 6.93987 12.7382 7.10304 12.5753C7.26621 12.4125 7.48765 12.3205 7.71892 12.3195H19.0917C19.2063 12.3197 19.3197 12.3424 19.4255 12.3862C19.5312 12.43 19.6273 12.4941 19.7081 12.5748C19.789 12.6555 19.853 12.7512 19.8967 12.8565C19.9403 12.9618 19.9626 13.0746 19.9623 13.1885ZM8.66713 22.6459H7.47071V20.2777H9.69291L8.66713 22.6459ZM33.216 22.6459H32.0196L30.9958 20.2777H33.216V22.6459ZM38.7754 8.48293L37.4665 16.3467C37.3411 17.1259 36.9403 17.8351 36.3362 18.3472C35.7321 18.8593 34.9641 19.1406 34.17 19.1408H6.90256C6.10841 19.141 5.34021 18.8598 4.736 18.3477C4.13178 17.8355 3.73116 17.1261 3.60611 16.3467L2.29722 8.48293C2.2676 8.30666 2.27688 8.1261 2.32443 7.95376C2.37197 7.78141 2.45664 7.62139 2.57257 7.48478C2.71627 7.31462 2.90401 7.1867 3.11552 7.1148L5.73911 15.3293C5.77539 15.4442 5.84759 15.5447 5.94522 15.6161C6.04285 15.6875 6.16084 15.7261 6.28205 15.7263H34.7867C34.9077 15.7262 35.0255 15.6877 35.1229 15.6163C35.2203 15.5448 35.292 15.4443 35.3277 15.3293L37.9493 7.1148C38.1614 7.18665 38.3498 7.31455 38.4942 7.48478C38.6107 7.62118 38.6962 7.781 38.7447 7.95328C38.7932 8.12557 38.8037 8.30624 38.7754 8.48293Z" fill="white"/>
<path d="M39.3668 6.75061C39.0174 6.33588 38.5344 6.05402 37.9998 5.95286L37.0147 2.59422C36.89 2.17108 36.6314 1.79915 36.2772 1.53361C35.923 1.26807 35.4921 1.12307 35.0485 1.12012H6.02609C5.58224 1.12327 5.1512 1.26832 4.79674 1.5338C4.44228 1.79928 4.18323 2.17109 4.05791 2.59422L3.07479 5.95286C2.54361 6.05609 2.06434 6.33777 1.71743 6.75061C1.49338 7.01416 1.32993 7.32313 1.2385 7.65596C1.14706 7.98878 1.12985 8.33743 1.18806 8.67755L2.49695 16.5414C2.64965 17.4893 3.10682 18.3628 3.8002 19.0314C4.49357 19.6999 5.38596 20.1276 6.3441 20.2507V23.222C6.34256 23.2972 6.3561 23.372 6.38393 23.4419C6.41177 23.5119 6.45334 23.5756 6.50623 23.6294C6.55912 23.6832 6.62225 23.726 6.69197 23.7554C6.76168 23.7847 6.83656 23.7999 6.91226 23.8001H9.04526C9.15638 23.7997 9.26495 23.767 9.35762 23.7061C9.4503 23.6451 9.52303 23.5586 9.56687 23.4571L10.9339 20.295H23.4042C23.4466 20.2946 23.4888 20.29 23.5303 20.2815H25.9464C25.9872 20.29 26.0288 20.2946 26.0705 20.295H29.7547L31.1237 23.4571C31.1674 23.5587 31.2401 23.6454 31.3328 23.7064C31.4255 23.7673 31.5342 23.7999 31.6454 23.8001H33.7784C33.854 23.7999 33.9289 23.7847 33.9986 23.7554C34.0684 23.726 34.1315 23.6832 34.1844 23.6294C34.2373 23.5756 34.2788 23.5119 34.3067 23.4419C34.3345 23.372 34.3481 23.2972 34.3465 23.222V20.2738C35.3785 20.2323 36.3642 19.8371 37.1362 19.1553C37.9082 18.4735 38.4188 17.5472 38.5815 16.5337L39.8904 8.66984C39.9477 8.33134 39.9305 7.98453 39.8402 7.65323C39.7498 7.32193 39.5883 7.01401 39.3668 6.75061ZM5.15738 2.91409C5.2126 2.72527 5.32779 2.55926 5.48575 2.44083C5.64371 2.32241 5.83598 2.25792 6.03385 2.25701H35.0485C35.2462 2.25854 35.4381 2.32326 35.596 2.44159C35.7538 2.55992 35.8692 2.72559 35.9249 2.91409L36.9682 6.47314L35.126 12.2539C34.9558 11.9337 34.7011 11.6656 34.3892 11.4782C34.0773 11.2909 33.7201 11.1913 33.3556 11.1903H21.9693C21.7005 11.19 21.4345 11.2439 21.1872 11.3485C20.94 11.4532 20.7166 11.6065 20.5305 11.7992C20.3444 11.6065 20.121 11.4532 19.8737 11.3485C19.6265 11.2439 19.3604 11.19 19.0917 11.1903H7.71892C7.3544 11.1909 6.99694 11.2903 6.68501 11.4777C6.37307 11.6651 6.11845 11.9335 5.94853 12.2539L4.10639 6.47314L5.15738 2.91409ZM34.2243 13.1885V14.5894H21.0986V13.1885C21.0984 13.0746 21.1207 12.9618 21.1643 12.8565C21.2079 12.7512 21.272 12.6555 21.3528 12.5748C21.4337 12.4941 21.5297 12.43 21.6355 12.3862C21.7413 12.3424 21.8547 12.3197 21.9693 12.3195H33.3556C33.5867 12.3205 33.808 12.4125 33.9708 12.5755C34.1337 12.7384 34.2249 12.9589 34.2243 13.1885ZM19.9623 13.1885V14.5894H6.84827V13.1885C6.84826 12.9587 6.93987 12.7382 7.10304 12.5753C7.26621 12.4125 7.48765 12.3205 7.71892 12.3195H19.0917C19.2063 12.3197 19.3197 12.3424 19.4255 12.3862C19.5312 12.43 19.6273 12.4941 19.7081 12.5748C19.789 12.6555 19.853 12.7512 19.8967 12.8565C19.9403 12.9618 19.9626 13.0746 19.9623 13.1885ZM8.66713 22.6459H7.47071V20.2777H9.69291L8.66713 22.6459ZM33.216 22.6459H32.0196L30.9958 20.2777H33.216V22.6459ZM38.7754 8.48293L37.4665 16.3467C37.3411 17.1259 36.9403 17.8351 36.3362 18.3472C35.7321 18.8593 34.9641 19.1406 34.17 19.1408H6.90256C6.10841 19.141 5.34021 18.8598 4.736 18.3477C4.13178 17.8355 3.73116 17.1261 3.60611 16.3467L2.29722 8.48293C2.2676 8.30666 2.27688 8.1261 2.32443 7.95376C2.37197 7.78141 2.45664 7.62139 2.57257 7.48478C2.71627 7.31462 2.90401 7.1867 3.11552 7.1148L5.73911 15.3293C5.77539 15.4442 5.84759 15.5447 5.94522 15.6161C6.04285 15.6875 6.16084 15.7261 6.28205 15.7263H34.7867C34.9077 15.7262 35.0255 15.6877 35.1229 15.6163C35.2203 15.5448 35.292 15.4443 35.3277 15.3293L37.9493 7.1148C38.1614 7.18665 38.3498 7.31455 38.4942 7.48478C38.6107 7.62118 38.6962 7.781 38.7447 7.95328C38.7932 8.12557 38.8037 8.30624 38.7754 8.48293Z" stroke="white" stroke-width="0.7" mask="url(#path-1-outside-1)"/>
</svg>
