<svg width="30" height="31" viewBox="0 0 30 31" fill="none" xmlns="http://www.w3.org/2000/svg">
<path d="M26.182 12.5182L15.0001 8.81152L3.81809 12.5182L0 18.5829L3.51491 19.748V26.1942L15 30.0012L26.4851 26.1942V19.748L30 18.5829L26.182 12.5182ZM22.8127 13.2533L15.0001 15.843L7.18744 13.2533L15.0001 10.6636L22.8127 13.2533ZM2.68329 17.6204L4.77094 14.3042L13.6584 17.2503L11.5708 20.5663L2.68329 17.6204ZM5.27289 20.3308L12.3248 22.6683L14.1211 19.8151V27.8579L5.27289 24.9249V20.3308ZM15.879 27.8578V19.815L17.6753 22.6683L24.7272 20.3307V24.9248L15.879 27.8578ZM18.4293 20.5664L16.3417 17.2503L25.2292 14.3043L27.3168 17.6204L18.4293 20.5664Z" fill="white"/>
<path d="M14.1211 0H15.879V5.86994H14.1211V0Z" fill="white"/>
<path d="M5.85352 2.68604L7.37588 1.80707L10.3108 6.89044L8.78848 7.7694L5.85352 2.68604Z" fill="white"/>
<path d="M19.6875 6.89111L22.6225 1.80775L24.1448 2.68671L21.2099 7.77007L19.6875 6.89111Z" fill="white"/>
</svg>
