<svg width="38" height="28" viewBox="0 0 38 28" fill="none" xmlns="http://www.w3.org/2000/svg">
<path d="M0.369129 0.91848L0.244141 0.918492V1.04348V4.48147V4.60647H0.369141H1.52138V26.8284V26.9534H1.64638H5.13864H5.25764L5.26349 26.8345L5.27721 26.5561L5.27724 26.5554L5.34922 24.9074L5.34925 24.9068L6.05728 10.124H6.05729L6.05735 10.1223L6.24525 4.60475H31.6668L31.8614 10.1276L31.8615 10.1292L32.3878 21.1423L32.3878 21.1428L32.6364 26.8304L32.6416 26.9499H32.7613H32.7853H36.2793H36.4043V26.8249V4.60302H37.5565H37.6815V4.47802V1.04004V0.915027L37.5565 0.915039L0.369129 0.91848ZM3.90799 24.8523L3.90796 24.8529L3.87613 25.5001H2.96976V4.60647H4.79375L3.90799 24.8523ZM34.9542 25.5001H34.048L33.8377 21.1124L33.8376 21.1119L33.1182 4.60475H34.9542V16.7654V25.5001ZM36.2314 3.15317H1.69423V2.37178H36.2314V3.15317Z" fill="white" stroke="white" stroke-width="0.25"/>
</svg>
