<svg width="50" height="38" viewBox="0 0 50 38" fill="none" xmlns="http://www.w3.org/2000/svg">
<g clip-path="url(#clip0)">
<path d="M17.4026 38.0001C16.375 38.0001 15.3705 37.7016 14.5161 37.1424C13.6617 36.5832 12.9958 35.7884 12.6025 34.8584C12.2093 33.9285 12.1064 32.9052 12.3069 31.918C12.5073 30.9307 13.0022 30.0239 13.7288 29.3122C14.4554 28.6004 15.3811 28.1157 16.389 27.9193C17.3968 27.723 18.4414 27.8237 19.3908 28.2089C20.3401 28.5941 21.1516 29.2464 21.7225 30.0834C22.2934 30.9203 22.5981 31.9043 22.5981 32.9108C22.5966 34.2601 22.0488 35.5538 21.0747 36.5079C20.1007 37.462 18.78 37.9987 17.4026 38.0001ZM17.4026 29.7215C16.7586 29.7215 16.1291 29.9086 15.5937 30.259C15.0583 30.6095 14.641 31.1076 14.3945 31.6903C14.1481 32.2731 14.0836 32.9144 14.2093 33.533C14.3349 34.1517 14.645 34.72 15.1003 35.166C15.5557 35.612 16.1358 35.9158 16.7674 36.0388C17.3989 36.1619 18.0536 36.0987 18.6485 35.8573C19.2435 35.6159 19.7519 35.2072 20.1097 34.6827C20.4675 34.1582 20.6584 33.5416 20.6584 32.9108C20.6577 32.0652 20.3144 31.2544 19.704 30.6565C19.0935 30.0585 18.2658 29.7223 17.4026 29.7215Z" fill="white"/>
<path d="M39.4318 38.0001C38.4043 38.0001 37.3998 37.7016 36.5454 37.1424C35.691 36.5832 35.0251 35.7884 34.6318 34.8584C34.2386 33.9285 34.1357 32.9052 34.3362 31.918C34.5366 30.9307 35.0315 30.0239 35.7581 29.3122C36.4847 28.6004 37.4104 28.1157 38.4183 27.9193C39.4261 27.723 40.4707 27.8237 41.4201 28.2089C42.3694 28.5941 43.1809 29.2464 43.7518 30.0834C44.3227 30.9203 44.6274 31.9043 44.6274 32.9108C44.6259 34.2601 44.078 35.5538 43.104 36.5079C42.13 37.462 40.8093 37.9987 39.4318 38.0001ZM39.4318 29.7215C38.7879 29.7215 38.1584 29.9086 37.623 30.259C37.0876 30.6095 36.6703 31.1076 36.4238 31.6903C36.1774 32.2731 36.1129 32.9144 36.2386 33.533C36.3642 34.1517 36.6743 34.72 37.1296 35.166C37.585 35.612 38.1651 35.9158 38.7967 36.0388C39.4282 36.1619 40.0829 36.0987 40.6778 35.8573C41.2727 35.6159 41.7812 35.2072 42.139 34.6827C42.4968 34.1582 42.6877 33.5416 42.6877 32.9108C42.687 32.0652 42.3437 31.2544 41.7333 30.6565C41.1228 30.0585 40.2951 29.7223 39.4318 29.7215Z" fill="white"/>
<path d="M10.7952 26.1929C10.7261 26.1941 10.6572 26.1863 10.5902 26.1698C10.2219 26.0709 9.89007 25.8711 9.63363 25.5939C9.37718 25.3168 9.20676 24.9737 9.14235 24.605L9.04121 23.8694L8.70038 21.3628L8.6796 21.2095L6.62633 6.12481L6.48778 5.10016C6.24255 3.30602 4.96376 1.90002 3.57829 1.90002H1.97114C1.72408 1.89615 1.48509 1.98613 1.30428 2.1511C1.12347 2.31607 1.01489 2.5432 1.00131 2.78488C0.99798 2.90615 1.01949 3.02685 1.06458 3.13984C1.10967 3.25283 1.17741 3.35582 1.26381 3.44273C1.35022 3.52965 1.45352 3.59872 1.56764 3.64587C1.68175 3.69301 1.80435 3.71728 1.92819 3.71724H3.58383C3.88171 3.71724 4.51071 4.33338 4.64788 5.34581L7.30382 24.8507C7.43174 25.7321 7.88286 26.5377 8.57292 27.1171C8.71397 27.2376 8.86351 27.3483 9.02043 27.4482C9.42542 27.7091 9.87794 27.8911 10.3532 27.9843C10.3339 28.021 15.8397 28.0617 16.3482 28.0522H21.1793C21.207 28.0522 21.2361 28.0522 21.2652 28.0522C21.498 28.0685 23.8976 28.097 23.8976 28.097C24.0212 28.0659 24.1483 28.0499 24.2759 28.0494C24.3721 28.0495 24.4682 28.0586 24.5627 28.0766C24.6242 28.0894 24.6868 28.0962 24.7497 28.097H49.134C49.3648 28.097 49.5861 28.0072 49.7492 27.8473C49.9124 27.6875 50.0041 27.4707 50.0041 27.2447V27.0492C50.0041 26.8232 49.9124 26.6064 49.7492 26.4466C49.5861 26.2867 49.3648 26.197 49.134 26.197L10.7952 26.1929Z" fill="white"/>
<path d="M41.4406 13.775V0H27.5859V5.7H17.749V10.5179H13.3848V23.75H45.4585V13.775H41.4406ZM22.1132 21.85H15.3244V12.4179H22.1132V21.85ZM30.7724 21.85H24.0529V10.5179H19.6887V7.6H30.7724V21.85ZM34.7903 13.775V21.85H32.7121V5.7H29.5255V1.9H39.5009V13.775H34.7903ZM43.5188 21.85H36.73V15.675H43.5188V21.85Z" fill="white"/>
</g>
<defs>
<clipPath id="clip0">
<rect width="50" height="38" fill="white"/>
</clipPath>
</defs>
</svg>
