<svg width="17" height="17" viewBox="0 0 17 17" fill="none" xmlns="http://www.w3.org/2000/svg">
<path d="M8.5 0C3.8131 0 0 3.81315 0 8.50005C0 13.187 3.8131 17 8.5 17C13.1869 17 17 13.187 17 8.50005C17 3.81315 13.1869 0 8.5 0ZM8.5 15.4545C4.66521 15.4545 1.54545 12.3348 1.54545 8.50005C1.54545 4.66532 4.66521 1.54545 8.5 1.54545C12.3348 1.54545 15.4545 4.66532 15.4545 8.50005C15.4545 12.3348 12.3347 15.4545 8.5 15.4545Z" fill="#ED2024"/>
<path d="M8.50007 3.60596C7.93206 3.60596 7.46997 4.06836 7.46997 4.63672C7.46997 5.20458 7.93206 5.66656 8.50007 5.66656C9.06808 5.66656 9.53017 5.20458 9.53017 4.63672C9.53017 4.06836 9.06808 3.60596 8.50007 3.60596Z" fill="#ED2024"/>
<path d="M8.50002 7.21191C8.07327 7.21191 7.72729 7.55789 7.72729 7.98464V12.621C7.72729 13.0478 8.07327 13.3937 8.50002 13.3937C8.92678 13.3937 9.27275 13.0478 9.27275 12.621V7.98464C9.27275 7.55789 8.92678 7.21191 8.50002 7.21191Z" fill="#ED2024"/>
</svg>
