<svg width="52" height="52" viewBox="0 0 52 52" fill="none" xmlns="http://www.w3.org/2000/svg">
<g opacity="0.5">
<path d="M10.1128 43.1322C9.94956 42.9701 9.72306 42.877 9.49217 42.877C9.26128 42.877 9.03478 42.9701 8.87149 43.1322C8.70819 43.2943 8.61426 43.519 8.61426 43.7482C8.61426 43.9773 8.70811 44.2021 8.87149 44.364C9.03478 44.5261 9.26128 44.6194 9.49217 44.6194C9.72306 44.6194 9.94956 44.5262 10.1128 44.364C10.2761 44.2021 10.3701 43.9773 10.3701 43.7482C10.3701 43.519 10.2761 43.2943 10.1128 43.1322Z" fill="black"/>
<path d="M43.8643 19.4359C43.701 19.2738 43.4754 19.1807 43.2436 19.1807C43.0127 19.1807 42.7862 19.2738 42.623 19.4359C42.4597 19.598 42.3657 19.8227 42.3657 20.0519C42.3657 20.281 42.4597 20.5058 42.623 20.6677C42.7862 20.8298 43.0127 20.9231 43.2436 20.9231C43.4754 20.9231 43.701 20.8299 43.8643 20.6677C44.0284 20.5058 44.1223 20.281 44.1223 20.0519C44.1223 19.8227 44.0284 19.598 43.8643 19.4359Z" fill="black"/>
<path d="M47.3361 3.75371C47.1714 3.59036 46.9481 3.49854 46.7152 3.49854L25.119 3.49967C24.6343 3.49967 24.2412 3.88979 24.2412 4.37087V6.86226L15.9196 9.07504C15.4512 9.19962 15.1733 9.6773 15.2988 10.142L19.6117 26.1149L15.8807 29.8174C15.4058 29.1293 14.6085 28.6768 13.7066 28.6768H5.27891C3.82667 28.6768 2.64526 29.8493 2.64526 31.2903V45.4907C2.64526 46.9318 3.82667 48.1043 5.27891 48.1043H13.7067C14.9404 48.1043 15.9783 47.2578 16.2627 46.1197L17.3066 47.023C18.1124 47.7203 19.1448 48.1044 20.2141 48.1044H46.7154C47.2001 48.1044 47.5933 47.7142 47.5933 47.2332V4.36974C47.5931 4.1387 47.5007 3.91706 47.3361 3.75371ZM14.5844 45.4907C14.5844 45.971 14.1906 46.3619 13.7065 46.3619H5.27883C4.79475 46.3619 4.40091 45.9711 4.40091 45.4907V31.2904C4.40091 30.8101 4.79475 30.4192 5.27883 30.4192H8.61481V40.4551C8.61481 40.9362 9.00794 41.3263 9.49272 41.3263C9.9775 41.3263 10.3706 40.9362 10.3706 40.4551V30.4192H13.7066C14.1907 30.4192 14.5845 30.8101 14.5845 31.2904V45.4907H14.5844ZM17.222 10.5326L24.2412 8.66609V11.8943L23.6528 12.0508C23.4278 12.1107 23.2362 12.2566 23.1198 12.4567C23.0034 12.6568 22.9718 12.8946 23.0321 13.1178C23.3695 14.3672 22.6196 15.656 21.3606 15.9908C21.1354 16.0507 20.9434 16.1969 20.8271 16.3974C20.7108 16.5979 20.6794 16.8361 20.7403 17.0595L24.1623 29.6343H22.4003L21.4923 26.109C21.4634 25.9968 21.4128 25.8934 21.3452 25.8035L17.222 10.5326ZM24.2412 15.8896V23.2409L22.64 17.3572C23.3089 17.0145 23.8563 16.5017 24.2412 15.8896ZM36.8537 46.3619H20.2139C19.5691 46.3619 18.9464 46.1303 18.4603 45.7098L16.3403 43.8749V31.8255L20.1731 28.022L20.8682 30.721C20.9676 31.1067 21.3176 31.3764 21.7187 31.3764L38.9788 31.3775C39.6566 31.3775 40.2079 31.9246 40.2079 32.5972C40.2079 33.2697 39.6566 33.8168 38.9788 33.8168H30.1347C29.65 33.8168 29.2568 34.207 29.2568 34.6881C29.2568 35.1691 29.65 35.5593 30.1347 35.5593H41.7267C42.4045 35.5593 42.9558 36.1064 42.9558 36.7789C42.9558 37.4515 42.4045 37.9986 41.7267 37.9986H30.1347C29.65 37.9986 29.2568 38.3888 29.2568 38.8698C29.2568 39.3509 29.65 39.741 30.1347 39.741H39.8482C40.526 39.741 41.0773 40.2882 41.0773 40.9607C41.0773 41.6333 40.526 42.1804 39.8482 42.1804H30.1347C29.65 42.1804 29.2568 42.5705 29.2568 43.0516C29.2568 43.5327 29.65 43.9228 30.1347 43.9228H36.8537C37.5314 43.9228 38.0827 44.47 38.0827 45.1425C38.0827 45.8147 37.5313 46.3619 36.8537 46.3619ZM45.8374 46.3619H45.8374H39.5727C39.7429 45.9896 39.8385 45.5769 39.8385 45.1422C39.8385 44.7074 39.7429 44.2948 39.5727 43.9225H39.8482C41.4941 43.9225 42.833 42.5937 42.833 40.9605C42.833 40.4841 42.7185 40.0339 42.5162 39.6348C43.7801 39.2903 44.7114 38.1407 44.7114 36.7788C44.7114 36.1181 44.4921 35.5072 44.1223 35.0141V23.9725C44.1223 23.4914 43.7291 23.1013 43.2444 23.1013C42.7596 23.1013 42.3664 23.4914 42.3664 23.9725V33.8861C42.1601 33.8412 41.9462 33.8168 41.7265 33.8168H41.6977C41.868 33.4446 41.9636 33.0319 41.9636 32.5972C41.9636 30.9638 40.6246 29.6351 38.9787 29.6351H37.5675C39.066 28.9974 40.1185 27.5193 40.1185 25.8014C40.1185 23.5024 38.2337 21.632 35.917 21.632C33.6004 21.632 31.7156 23.5024 31.7156 25.8014C31.7156 27.5193 32.7681 28.9974 34.2666 29.6351H29.4676V13.0699C31.0359 12.7307 32.2734 11.5027 32.6151 9.94633H39.2189C39.5605 11.5027 40.798 12.7307 42.3664 13.0699V15.7784C42.3664 16.2595 42.7595 16.6496 43.2443 16.6496C43.729 16.6496 44.1222 16.2595 44.1222 15.7784V12.2921C44.1222 11.811 43.729 11.4208 43.2443 11.4208C41.9408 11.4208 40.8806 10.3685 40.8806 9.07512C40.8806 8.59404 40.4874 8.20392 40.0027 8.20392H31.8314C31.3466 8.20392 30.9535 8.59404 30.9535 9.07512C30.9535 10.3686 29.8931 11.4208 28.5898 11.4208C28.105 11.4208 27.7119 11.811 27.7119 12.2921V29.6351H25.9971V5.24191L45.8374 5.24095V46.3619ZM35.9172 28.2284C34.5686 28.2284 33.4716 27.1397 33.4716 25.8015C33.4716 24.4633 34.5687 23.3745 35.9172 23.3745C37.2657 23.3745 38.3628 24.4632 38.3628 25.8014C38.3628 27.1396 37.2658 28.2284 35.9172 28.2284Z" fill="black"/>
</g>
</svg>
