<svg width="52" height="52" viewBox="0 0 52 52" fill="none" xmlns="http://www.w3.org/2000/svg">
<g opacity="0.5">
<path d="M44.9162 18.2541L50.0395 13.0284C50.1141 12.952 50.1702 12.859 50.2032 12.7569C50.2363 12.6547 50.2454 12.5462 50.2298 12.4399C50.2142 12.3336 50.1744 12.2324 50.1135 12.1444C50.0527 12.0563 49.9724 11.9838 49.879 11.9325L33.0576 2.70894C32.9281 2.63789 32.7794 2.61109 32.6336 2.63253C32.4879 2.65398 32.3529 2.72252 32.2488 2.82793L27.0845 8.05179L21.9202 2.82793C21.8165 2.72173 21.6815 2.65264 21.5355 2.63116C21.3895 2.60968 21.2406 2.63699 21.1114 2.70894L15.7082 5.66817C15.5741 5.74138 15.4681 5.85779 15.4068 5.99893C15.3456 6.14006 15.3327 6.29785 15.3702 6.44724C15.4077 6.59664 15.4934 6.72909 15.6138 6.82358C15.7342 6.91807 15.8823 6.96919 16.0346 6.96883C16.1483 6.96847 16.2601 6.93963 16.3601 6.88488L21.3138 4.16826L25.952 8.86078L10.3415 17.3999L5.74244 12.7093L13.9548 8.20584C14.0337 8.16257 14.1034 8.10397 14.1599 8.03342C14.2163 7.96286 14.2585 7.88173 14.2839 7.79466C14.3093 7.7076 14.3175 7.61632 14.3079 7.52605C14.2984 7.43578 14.2714 7.3483 14.2284 7.26862C14.1698 7.15906 14.083 7.06755 13.9772 7.00374C13.8715 6.93993 13.7507 6.9062 13.6275 6.9061C13.5138 6.90657 13.402 6.93541 13.302 6.99004L4.28997 11.9335C4.19669 11.9847 4.11647 12.0572 4.05568 12.1452C3.99488 12.2332 3.95517 12.3344 3.93969 12.4406C3.9242 12.5468 3.93338 12.6553 3.96648 12.7573C3.99959 12.8593 4.05571 12.9521 4.13041 13.0284L9.25371 18.2541L4.13041 23.4798C4.05564 23.5562 3.99948 23.6491 3.96641 23.7513C3.93333 23.8535 3.92424 23.962 3.93985 24.0683C3.95435 24.1721 3.99276 24.2711 4.052 24.3571C4.7226 23.772 5.52159 23.3574 6.38251 23.1477L10.3433 19.1083L25.953 27.6447L21.3156 32.3372L18.5229 30.8069C18.5212 31.298 18.4418 31.7857 18.2876 32.2514L21.1141 33.7993C21.2435 33.8706 21.3923 33.8976 21.5381 33.8762C21.6839 33.8547 21.819 33.786 21.9229 33.6803L26.4034 29.1483V48.0014L14.0214 41.2315C13.9922 41.2629 13.964 41.2952 13.9302 41.3238C13.6038 41.6502 13.2359 41.9313 12.8361 42.1595L26.7562 49.7688C26.7804 49.7823 26.8054 49.7943 26.831 49.8048L26.8483 49.8103C26.8673 49.8179 26.8868 49.824 26.9067 49.8288C26.9134 49.8315 26.9205 49.8333 26.9277 49.8343C26.9468 49.8343 26.966 49.8426 26.986 49.8454H27.0061C27.0582 49.8515 27.1108 49.8515 27.1629 49.8454H27.183C27.203 49.8454 27.2222 49.8389 27.2413 49.8343C27.2485 49.8333 27.2555 49.8315 27.2623 49.8288C27.2821 49.824 27.3016 49.8179 27.3206 49.8103L27.337 49.8048C27.363 49.7945 27.3883 49.7825 27.4127 49.7688L44.2752 40.5443C44.2959 40.5331 44.316 40.5208 44.3354 40.5074L44.3554 40.4926L44.3883 40.4677L44.4202 40.4382L44.4366 40.4225C44.4475 40.4114 44.4566 40.4004 44.4667 40.3893L44.4813 40.3727C44.4895 40.3616 44.4977 40.3515 44.505 40.3404L44.5214 40.3174L44.5378 40.2897C44.5442 40.2795 44.5496 40.2694 44.5551 40.2592C44.5606 40.2491 44.5633 40.2436 44.567 40.2362L44.5843 40.1974C44.5868 40.1911 44.589 40.1847 44.5907 40.1781C44.5961 40.1642 44.6016 40.1495 44.6062 40.1347L44.6116 40.1144L44.6226 40.0701L44.628 40.0342C44.628 40.024 44.628 40.0139 44.628 40.0037C44.6294 39.9801 44.6294 39.9563 44.628 39.9327V27.451L49.879 24.5785C49.9724 24.5272 50.0527 24.4547 50.1135 24.3666C50.1744 24.2786 50.2142 24.1774 50.2298 24.0711C50.2454 23.9648 50.2363 23.8563 50.2032 23.7541C50.1702 23.652 50.1141 23.559 50.0395 23.4826L44.9162 18.2541ZM32.8542 4.17103L48.4256 12.7093L43.8266 17.3999L28.2169 8.86354L32.8542 4.17103ZM27.0845 26.6909L11.6562 18.2541L27.0845 9.81921L42.5127 18.256L27.0845 26.6909ZM43.6315 26.428L43.6205 26.4335L40.2141 28.3015C40.0551 28.3894 39.937 28.5375 39.8858 28.7134C39.8345 28.8892 39.8542 29.0784 39.9406 29.2396C40.0277 29.4003 40.1741 29.5196 40.3478 29.5715C40.5216 29.6233 40.7085 29.6035 40.8679 29.5164L43.2713 28.1991V39.5222L27.7711 47.9986V29.1474L32.2515 33.6803C32.3148 33.7448 32.3901 33.796 32.473 33.8308C32.556 33.8656 32.645 33.8835 32.7348 33.8832C32.8485 33.8828 32.9603 33.8539 33.0603 33.7993L38.4635 30.8364C38.545 30.7945 38.6173 30.7366 38.6762 30.666C38.7352 30.5953 38.7796 30.5135 38.8067 30.4252C38.8339 30.337 38.8433 30.2441 38.8344 30.1521C38.8255 30.0602 38.7985 29.9709 38.7549 29.8897C38.7113 29.8084 38.6521 29.7368 38.5808 29.6791C38.5094 29.6214 38.4273 29.5787 38.3394 29.5537C38.2514 29.5286 38.1594 29.5216 38.0688 29.5331C37.9781 29.5446 37.8907 29.5743 37.8116 29.6206L32.8551 32.3363L28.2169 27.6447L43.8275 19.1083L48.4265 23.7981L43.6315 26.428Z" fill="black"/>
<path d="M9.76071 21.7646C8.02258 21.765 6.31606 22.2348 4.81743 23.1256C3.31881 24.0164 2.08242 25.2958 1.236 26.8317C0.389579 28.3676 -0.0361871 30.1042 0.00268663 31.8622C0.0415604 33.6203 0.543663 35.3359 1.45713 36.832L9.20726 49.4641C9.28007 49.5832 9.3818 49.6815 9.50277 49.7497C9.62374 49.8178 9.75994 49.8535 9.89839 49.8533H9.90477C10.0443 49.8523 10.1811 49.8148 10.3022 49.7447C10.4232 49.6746 10.5244 49.5741 10.5959 49.453L18.1491 36.6992C19.0324 35.1996 19.5072 33.4901 19.5251 31.7446C19.5429 29.999 19.1033 28.2799 18.2508 26.7622C17.3983 25.2445 16.1636 23.9824 14.6722 23.1046C13.1808 22.2267 11.4861 21.7644 9.76071 21.7646ZM16.7486 35.8542L9.8838 47.4494L2.8403 35.9649C2.0804 34.7224 1.661 33.2977 1.62515 31.837C1.58929 30.3763 1.93827 28.9323 2.63627 27.6531C3.33427 26.374 4.35614 25.3058 5.59699 24.5582C6.83785 23.8106 8.25299 23.4105 9.69717 23.399C11.1413 23.3875 12.5625 23.765 13.8149 24.4928C15.0672 25.2205 16.1055 26.2723 16.8234 27.5402C17.5412 28.8081 17.9125 30.2464 17.8994 31.7075C17.8863 33.1685 17.4891 34.5997 16.7486 35.8542Z" fill="black"/>
<path d="M9.76065 26.6997C8.79529 26.6997 7.8516 26.9893 7.04895 27.532C6.24629 28.0746 5.62071 28.8458 5.25132 29.7482C4.88194 30.6505 4.78533 31.6434 4.97373 32.6013C5.16213 33.5592 5.62707 34.439 6.30975 35.1295C6.99243 35.8201 7.86218 36.2903 8.80902 36.4807C9.75585 36.6711 10.7372 36.5732 11.6291 36.1993C12.5209 35.8255 13.2831 35.1924 13.8193 34.3803C14.3555 33.5681 14.6416 32.6133 14.6414 31.6367C14.64 30.3276 14.1252 29.0726 13.2102 28.147C12.2952 27.2214 11.0546 26.7009 9.76065 26.6997ZM9.76065 34.9391C9.11486 34.94 8.48332 34.7471 7.94593 34.3847C7.40854 34.0224 6.98945 33.507 6.74169 32.9036C6.49394 32.3003 6.42865 31.6361 6.55408 30.9952C6.67951 30.3543 6.99003 29.7655 7.44636 29.3032C7.90268 28.8409 8.48429 28.5259 9.1176 28.3981C9.75091 28.2703 10.4075 28.3354 11.0042 28.5852C11.6009 28.835 12.111 29.2583 12.4698 29.8015C12.8287 30.3447 13.0203 30.9833 13.0203 31.6367C13.0205 32.512 12.6774 33.3518 12.0663 33.9714C11.4551 34.5911 10.6259 34.9401 9.76065 34.9418V34.9391Z" fill="black"/>
</g>
</svg>
