<svg width="52" height="52" viewBox="0 0 52 52" fill="none" xmlns="http://www.w3.org/2000/svg">
<g opacity="0.5">
<path d="M48.3598 23.3181L47.0132 17.9729C47.3813 17.8953 47.6576 17.5711 47.6576 17.1828V16.321C47.6576 14.4498 46.1235 12.9275 44.238 12.9275H38.1044V11.1498C38.1044 10.229 37.3496 9.47998 36.4217 9.47998H5.15653C4.22866 9.47998 3.47384 10.229 3.47384 11.1498V25.8012C3.47384 26.2473 3.83835 26.6092 4.28807 26.6092C4.73769 26.6092 5.1023 26.2474 5.1023 25.8012V11.1498C5.1023 11.1201 5.12657 11.096 5.15653 11.096H36.4216C36.4516 11.096 36.4759 11.1201 36.4759 11.1498V25.8014C36.4759 26.2475 36.8404 26.6094 37.2901 26.6094C37.7397 26.6094 38.1043 26.2476 38.1043 25.8014V24.8854H47.709C47.7098 24.8854 47.7104 24.8856 47.7111 24.8856C47.7119 24.8856 47.7126 24.8855 47.7134 24.8855C48.8952 24.8863 49.8988 25.6561 50.2435 26.7169H47.7117C47.2621 26.7169 46.8975 27.0786 46.8975 27.5249V29.2486C46.8975 30.6445 48.0419 31.7802 49.4486 31.7802H50.3714V35.3353H48.2425C47.5431 33.3313 45.6235 31.8879 43.3693 31.8879C41.1151 31.8879 39.1954 33.3313 38.4961 35.3353H38.1041V29.2485C38.1041 28.8023 37.7396 28.4404 37.2899 28.4404C36.8403 28.4404 36.4757 28.8022 36.4757 29.2485V35.3351H19.583C18.8836 33.3311 16.964 31.8877 14.7098 31.8877C12.4556 31.8877 10.5359 33.3311 9.83663 35.3351H5.15653C5.12657 35.3351 5.1023 35.311 5.1023 35.2812V33.5037H8.63048C9.08009 33.5037 9.4447 33.1419 9.4447 32.6957C9.4447 32.2494 9.0802 31.8877 8.63048 31.8877H0.814227C0.364609 31.8877 0 32.2494 0 32.6957C0 33.1419 0.364508 33.5037 0.814227 33.5037H3.47395V35.2812C3.47395 36.202 4.22876 36.9511 5.15663 36.9511H9.5547C9.55449 36.969 9.55327 36.9868 9.55327 37.0049C9.55327 39.8265 11.8666 42.122 14.7098 42.122C17.553 42.122 19.8663 39.8265 19.8663 37.0049C19.8663 36.9867 19.8651 36.969 19.8649 36.9511H38.2142C38.214 36.969 38.2128 36.9868 38.2128 37.0049C38.2128 39.8265 40.5261 42.122 43.3693 42.122C46.2126 42.122 48.5259 39.8265 48.5259 37.0049C48.5259 36.9867 48.5246 36.969 48.5244 36.9511H51.1857C51.6353 36.9511 51.9999 36.5893 51.9999 36.1431V27.5247C52 25.3969 50.418 23.629 48.3598 23.3181ZM38.1044 14.5434H44.238C45.2257 14.5434 46.0292 15.3408 46.0292 16.321V16.3748H38.1044V14.5434ZM38.1044 23.2695V17.9907H45.3392L46.6691 23.2695H38.1044ZM14.7098 40.5063C12.7644 40.5063 11.1816 38.9358 11.1816 37.0051C11.1816 35.0744 12.7644 33.5039 14.7098 33.5039C16.6552 33.5039 18.238 35.0744 18.238 37.0051C18.238 38.9358 16.6552 40.5063 14.7098 40.5063ZM43.3695 40.5063C41.4241 40.5063 39.8413 38.9358 39.8413 37.0051C39.8413 35.0744 41.4241 33.5039 43.3695 33.5039C45.315 33.5039 46.8977 35.0744 46.8977 37.0051C46.8977 38.9358 45.315 40.5063 43.3695 40.5063ZM50.3717 30.1642H49.4489C48.94 30.1642 48.5261 29.7534 48.5261 29.2485V28.3327H50.3715V30.1642H50.3717Z" fill="black"/>
<path d="M14.7098 35.3354C13.7819 35.3354 13.0271 36.0845 13.0271 37.0053C13.0271 37.9261 13.7819 38.6751 14.7098 38.6751C15.6377 38.6751 16.3925 37.9261 16.3925 37.0053C16.3925 36.0845 15.6377 35.3354 14.7098 35.3354Z" fill="black"/>
<path d="M43.3695 35.3354C42.4416 35.3354 41.6868 36.0845 41.6868 37.0053C41.6868 37.9261 42.4416 38.6751 43.3695 38.6751C44.2973 38.6751 45.0521 37.9261 45.0521 37.0053C45.0521 36.0845 44.2973 35.3354 43.3695 35.3354Z" fill="black"/>
<path d="M33.8161 31.8882H21.6575C21.2079 31.8882 20.8433 32.2499 20.8433 32.6962C20.8433 33.1425 21.2078 33.5042 21.6575 33.5042H33.8161C34.2658 33.5042 34.6304 33.1425 34.6304 32.6962C34.6304 32.2499 34.2659 31.8882 33.8161 31.8882Z" fill="black"/>
<path d="M12.9728 28.4409H2.55104C2.10143 28.4409 1.73682 28.8026 1.73682 29.2489C1.73682 29.6952 2.10132 30.0569 2.55104 30.0569H12.9728C13.4224 30.0569 13.787 29.6952 13.787 29.2489C13.787 28.8026 13.4224 28.4409 12.9728 28.4409Z" fill="black"/>
<path d="M28.3127 17.4734C27.9948 17.1579 27.4792 17.1579 27.1613 17.4735L19.9207 24.6587L16.1541 20.9208C15.8361 20.6052 15.3205 20.6052 15.0027 20.9208C14.6847 21.2364 14.6847 21.7479 15.0027 22.0634L19.3451 26.3726C19.504 26.5305 19.7124 26.6093 19.9207 26.6093C20.129 26.6093 20.3375 26.5305 20.4964 26.3726L28.3126 18.6161C28.6306 18.3005 28.6306 17.789 28.3127 17.4734Z" fill="black"/>
</g>
</svg>
