<svg width="52" height="52" viewBox="0 0 52 52" fill="none" xmlns="http://www.w3.org/2000/svg">
<g opacity="0.5">
<path d="M31.3999 18.8438C30.943 18.8438 30.572 19.2102 30.572 19.6634C30.572 20.1163 30.943 20.4833 31.3999 20.4833C31.8578 20.4833 32.2278 20.1163 32.2278 19.6634C32.2278 19.2102 31.8578 18.8438 31.3999 18.8438Z" fill="black"/>
<path d="M16.3577 33.7417C15.8997 33.7417 15.5298 34.1091 15.5298 34.5617C15.5298 35.0152 15.8997 35.3816 16.3577 35.3816C16.8146 35.3816 17.1856 35.0152 17.1856 34.5617C17.1856 34.1091 16.8146 33.7417 16.3577 33.7417Z" fill="black"/>
<path d="M44.0449 11.1665C43.7655 11.1021 43.4718 11.1857 43.27 11.3875L39.8378 14.8137H38.1924L36.3811 12.955V11.3026L39.7641 7.90204C39.9643 7.70089 40.0458 7.41166 39.9795 7.13653C39.9135 6.86171 39.7091 6.64007 39.4388 6.54974C38.5889 6.26596 37.6996 6.12215 36.795 6.12215C34.0986 6.12215 31.6489 7.36746 30.0739 9.53875C28.5999 11.5714 28.1455 14.0623 28.7965 16.4463L22.6983 22.4861L12.5386 12.4006V10.4212C12.5386 10.1332 12.3859 9.86609 12.1366 9.71812L6.28283 6.23906C5.95685 6.04528 5.53999 6.0962 5.27157 6.36237L2.9302 8.681C2.66179 8.94716 2.61037 9.36002 2.8057 9.68288L6.31775 15.4806C6.46716 15.7275 6.73655 15.8784 7.02728 15.8787L9.02521 15.8793L19.1859 25.9648L13.111 31.9816C10.7039 31.3372 8.18762 31.7878 6.13439 33.2487C3.9434 34.8076 2.68701 37.2332 2.68701 39.9038C2.68701 40.7994 2.83222 41.6805 3.11874 42.5219C3.21026 42.7913 3.43632 42.9947 3.71573 43.0587C3.99546 43.1231 4.28878 43.0395 4.4909 42.8377L7.92276 39.4118H9.57724L11.4623 41.2788V42.9175L8.00328 46.3165C7.79954 46.5167 7.71514 46.8072 7.78014 47.0842C7.84482 47.361 8.05017 47.5848 8.32215 47.6755C9.1717 47.9593 10.0614 48.1031 10.9656 48.1031C13.662 48.1031 16.1108 46.8584 17.685 44.6884C19.16 42.6548 19.6151 40.1629 18.9644 37.779L23.8434 32.9467L24.9611 34.149L24.4482 34.6567C24.1248 34.977 24.1248 35.4962 24.4482 35.8165C24.7716 36.1365 25.2955 36.1365 25.6192 35.8165L26.0836 35.3566L36.57 46.638C36.5777 46.6464 36.5858 46.6544 36.5939 46.6624C38.5342 48.5842 41.678 48.5848 43.6193 46.6621C45.5551 44.7438 45.5551 41.6225 43.6193 39.7043C43.6109 39.6959 43.6021 39.6879 43.5934 39.6799L32.1851 29.3139L32.6443 28.859C32.9677 28.5391 32.9677 28.0199 32.6443 27.6996C32.3209 27.3793 31.797 27.3793 31.4733 27.6996L30.9639 28.2043L29.7476 27.0987L34.6503 22.243C35.3472 22.4275 36.0664 22.521 36.795 22.521C41.3601 22.521 45.0736 18.8427 45.0736 14.3217C45.0736 13.4259 44.9284 12.5451 44.6419 11.7033C44.5503 11.4339 44.3243 11.2306 44.0449 11.1665ZM9.95464 14.4803C9.79941 14.3262 9.58888 14.2477 9.36897 14.2477L7.49652 14.2471L4.55817 9.38821L5.98531 7.97474L10.8828 10.8856V12.7401C10.8828 12.9573 10.9698 13.1655 11.1247 13.3192L21.5276 23.6459L20.3566 24.8054L9.95464 14.4803ZM31.0131 30.4746L42.4602 40.8756C43.7389 42.1555 43.7351 44.2278 42.4483 45.5029C41.1586 46.7803 39.0708 46.7841 37.7759 45.5141L27.2552 34.1958L31.0131 30.4746ZM29.7919 29.3648L26.1327 32.9883L25.0151 31.7859L28.5757 28.2591L29.7919 29.3648ZM36.795 20.8811C36.071 20.8811 35.3588 20.7661 34.6791 20.5393C34.3812 20.4404 34.052 20.5166 33.8295 20.7366C29.6791 24.8473 20.7359 33.7045 17.4428 36.9664C17.2203 37.1867 17.143 37.5128 17.2436 37.8081C17.9318 39.8321 17.6026 41.9909 16.3401 43.7317C15.0811 45.4674 13.122 46.4632 10.9656 46.4632C10.7233 46.4632 10.4824 46.45 10.2438 46.4247L12.8733 43.8406C13.0298 43.6868 13.1181 43.4774 13.1181 43.2586V40.939C13.1181 40.7215 13.0308 40.513 12.8755 40.3593L10.5054 38.0118C10.3502 37.8581 10.1396 37.7716 9.92004 37.7716H7.57802C7.35714 37.7716 7.14564 37.859 6.99009 38.0141L4.38127 40.6184C4.3554 40.382 4.34246 40.1434 4.34246 39.9035C4.34246 37.7674 5.34757 35.8274 7.10037 34.5805C8.85769 33.33 11.0377 33.0037 13.0815 33.6856C13.3794 33.7852 13.7086 33.7086 13.9311 33.4883C13.9767 33.4434 30.3061 17.2701 30.3178 17.2585C30.5403 17.0382 30.6172 16.7124 30.517 16.4171C29.8285 14.3932 30.1571 12.235 31.4186 10.4955C32.6786 8.75819 34.638 7.76207 36.7947 7.76207C37.0444 7.76207 37.2924 7.77584 37.5382 7.80274L34.9633 10.3911C34.8107 10.5445 34.7253 10.7511 34.7253 10.9663V13.2859C34.7253 13.4986 34.8084 13.7026 34.9575 13.8554L37.2449 16.2028C37.4007 16.363 37.6158 16.4533 37.8406 16.4533H40.1826C40.4031 16.4533 40.6146 16.3662 40.7702 16.2108L43.379 13.6068C43.4049 13.8432 43.4178 14.0818 43.4178 14.3217C43.4178 17.9385 40.4468 20.8811 36.795 20.8811Z" fill="black"/>
<path d="M28.4733 21.4028L18.1134 31.6635C17.7903 31.9835 17.7903 32.5027 18.1134 32.823C18.4368 33.1433 18.961 33.1433 19.2844 32.823L29.6443 22.5623C29.9677 22.2423 29.9677 21.7231 29.6443 21.4028C29.3209 21.0825 28.7967 21.0825 28.4733 21.4028Z" fill="black"/>
<path d="M38.9349 43.1847C39.2583 43.504 39.7825 43.504 40.1059 43.1827C40.4287 42.8621 40.4277 42.3429 40.104 42.0233L32.6417 34.6561C32.318 34.3365 31.7934 34.3374 31.471 34.6581C31.1479 34.979 31.1489 35.4979 31.4726 35.8175L38.9349 43.1847Z" fill="black"/>
</g>
</svg>
