<svg width="46" height="46" viewBox="0 0 46 46" fill="none" xmlns="http://www.w3.org/2000/svg">
<g clip-path="url(#clip0)">
<path d="M45.2563 11.1494L23.5348 1.01741C23.1948 0.85878 22.8052 0.85878 22.4651 1.01741L0.743708 11.1494C0.300106 11.3564 0.0133787 11.8064 0.0133787 12.2959C0.152355 14.7175 -0.354418 15.7356 0.598765 16.3427C0.965509 16.5761 1.41894 16.606 1.81341 16.4221L23 6.53963L44.1866 16.4224C44.5793 16.6056 45.0334 16.5768 45.4012 16.3427C46.3547 15.7356 45.8476 14.7178 45.9866 12.2959C45.9866 11.8064 45.6999 11.3564 45.2563 11.1494ZM23.0344 2.23802C23.0347 2.23802 23.0347 2.23802 23.0344 2.23802C23.0344 2.23802 23.034 2.23837 23.0337 2.23837L23.0344 2.23802ZM44.6396 15.1474L23.5345 5.30288C23.3646 5.22356 23.1821 5.1839 23 5.1839C22.8175 5.1839 22.635 5.22356 22.4651 5.30288L1.36033 15.1474V12.3482L23 2.25416L44.6396 12.3479V15.1474Z" fill="#797979"/>
<path d="M42.023 17.7601V43.329C42.023 43.5385 41.8528 43.7087 41.6433 43.7087H38.2973V18.9386C38.2973 17.9672 37.507 17.1768 36.5352 17.1768H9.4649C8.49312 17.1768 7.70278 17.9672 7.70278 18.9386V43.7087H4.35681C4.14729 43.7087 3.97708 43.5385 3.97708 43.3293V17.7927C3.97708 16.9024 2.63013 16.9013 2.63013 17.7927V43.329C2.63013 44.2811 3.40468 45.0557 4.35681 45.0557H41.6433C42.5954 45.0557 43.3699 44.2811 43.3699 43.329V17.7601C43.3699 16.8697 42.023 16.8683 42.023 17.7601ZM11.6977 36.6402H13.4703V38.5687L13.0362 38.329C12.753 38.1725 12.4146 38.1725 12.1318 38.329L11.698 38.5687V36.6402H11.6977ZM9.04973 35.2933V28.2244H10.3511V30.8502C10.3511 31.5634 11.1158 32.0129 11.7387 31.669L12.5842 31.2019C13.1471 31.4388 13.6777 32.0564 14.3572 31.656C14.6453 31.4858 14.8173 31.1847 14.8173 30.8502V28.2244H16.0968C16.1088 28.2244 16.1186 28.2342 16.1186 28.2462V35.2933H9.04973ZM11.6977 28.2244H13.4703V30.1529L13.0362 29.9132C12.753 29.7567 12.4146 29.7567 12.1318 29.9132L11.698 30.1529V28.2244H11.6977ZM17.4652 36.6402H18.7665C18.8837 38.8638 18.4686 39.6244 19.2266 40.0715C19.9061 40.4726 20.4286 39.8577 20.9996 39.6177C21.7159 39.9844 22.1627 40.4312 22.773 40.0715C23.5317 39.6237 23.1162 38.8495 23.2327 36.6402H24.5123C24.5242 36.6402 24.534 36.65 24.534 36.662V43.7087H17.4652V36.6402ZM20.1135 36.6402H21.8858V38.5687C21.6499 38.4803 21.1649 37.9875 20.5472 38.329L20.1135 38.5687V36.6402ZM24.5123 35.2933H17.4652V28.2462C17.4652 27.4916 16.8514 26.8775 16.0968 26.8775H9.04973V25.1297H30.7175C31.0895 25.1297 31.3909 24.8283 31.3909 24.4562C31.3909 24.0846 31.0898 23.7828 30.7175 23.7828H9.04973V21.828H36.9503V23.7831H33.4114C33.0393 23.7831 32.7379 24.0846 32.7379 24.4566C32.7379 24.8286 33.0393 25.1301 33.4114 25.1301H36.9503V43.7091H25.8806V36.662C25.8806 35.9071 25.2668 35.2933 24.5123 35.2933ZM9.4649 18.5238H36.5352C36.7643 18.5238 36.9503 18.7098 36.9503 18.9386V20.481H9.04973V18.9386C9.04973 18.7098 9.23573 18.5238 9.4649 18.5238ZM9.04973 36.6402H10.3511V39.2657C10.3511 39.9778 11.1144 40.4294 11.7387 40.0848L12.5842 39.6177C13.3001 39.9841 13.7472 40.4312 14.3572 40.0715C14.6453 39.9016 14.8173 39.6005 14.8173 39.2657V36.6402H16.1186V43.7087H9.04973V36.6402Z" fill="#797979"/>
</g>
<defs>
<clipPath id="clip0">
<rect width="46" height="46" fill="white"/>
</clipPath>
</defs>
</svg>
