<svg width="20" height="20" viewBox="0 0 20 20" fill="none" xmlns="http://www.w3.org/2000/svg">
<path d="M18.7038 20C19.0355 20 19.3674 19.8731 19.6199 19.6204C20.1267 19.1138 20.1267 18.2947 19.6199 17.7881L2.21228 0.379933C1.70572 -0.126644 0.886671 -0.126644 0.380104 0.379933C-0.126699 0.88651 -0.126699 1.70557 0.380104 2.21215L17.7877 19.6204C18.0418 19.8742 18.3721 20 18.7038 20Z" fill="white"/>
<path d="M1.29619 20C1.6279 20 1.95959 19.8731 2.21228 19.6204L19.6199 2.21215C20.1267 1.70557 20.1267 0.88651 19.6199 0.379933C19.1133 -0.126644 18.2945 -0.126644 17.7877 0.379933L0.380104 17.7881C-0.126699 18.2947 -0.126699 19.1138 0.380104 19.6204C0.632793 19.8742 0.964495 20 1.29619 20Z" fill="white"/>
</svg>
