<svg width="100" height="43" viewBox="0 0 100 43" fill="none" xmlns="http://www.w3.org/2000/svg">
<g clip-path="url(#clip0)">
<path d="M25.855 9.50908C26.0541 9.51043 26.2491 9.4526 26.4153 9.34293C26.5816 9.23325 26.7115 9.07667 26.7886 8.89304C26.8658 8.7094 26.8867 8.50699 26.8486 8.31146C26.8106 8.11594 26.7154 7.93611 26.5751 7.79478C26.4348 7.65345 26.2557 7.55699 26.0605 7.51763C25.8653 7.47827 25.6628 7.49778 25.4787 7.57369C25.2946 7.6496 25.1371 7.77849 25.0264 7.94401C24.9156 8.10954 24.8565 8.30424 24.8565 8.50343C24.856 8.63504 24.8815 8.76546 24.9314 8.88722C24.9813 9.00899 25.0548 9.11973 25.1475 9.21311C25.2402 9.30649 25.3504 9.3807 25.4718 9.43148C25.5932 9.48226 25.7234 9.50863 25.855 9.50908Z" fill="#202020"/>
<path d="M36.6841 9.50908C36.8832 9.51043 37.0782 9.4526 37.2444 9.34293C37.4107 9.23325 37.5406 9.07667 37.6177 8.89304C37.6949 8.7094 37.7157 8.50699 37.6777 8.31146C37.6397 8.11594 37.5445 7.93611 37.4042 7.79478C37.2639 7.65345 37.0847 7.55699 36.8895 7.51763C36.6943 7.47827 36.4919 7.49778 36.3078 7.57369C36.1237 7.6496 35.9662 7.77849 35.8555 7.94401C35.7447 8.10954 35.6856 8.30424 35.6856 8.50343C35.6851 8.63504 35.7106 8.76546 35.7605 8.88722C35.8104 9.00899 35.8839 9.11973 35.9766 9.21311C36.0693 9.30649 36.1795 9.3807 36.3009 9.43148C36.4223 9.48226 36.5525 9.50863 36.6841 9.50908Z" fill="#202020"/>
<path d="M67.2309 9.50908C67.4301 9.51043 67.6251 9.4526 67.7913 9.34293C67.9575 9.23325 68.0875 9.07667 68.1646 8.89304C68.2418 8.7094 68.2626 8.50699 68.2246 8.31146C68.1866 8.11594 68.0914 7.93611 67.9511 7.79478C67.8108 7.65345 67.6316 7.55699 67.4364 7.51763C67.2412 7.47827 67.0387 7.49778 66.8546 7.57369C66.6705 7.6496 66.5131 7.77849 66.4023 7.94401C66.2916 8.10954 66.2324 8.30424 66.2324 8.50343C66.232 8.63504 66.2575 8.76546 66.3074 8.88722C66.3573 9.00899 66.4307 9.11973 66.5235 9.21311C66.6162 9.30649 66.7264 9.3807 66.8478 9.43148C66.9692 9.48226 67.0994 9.50863 67.2309 9.50908Z" fill="#202020"/>
<path d="M78.06 9.50908C78.2592 9.51043 78.4542 9.4526 78.6204 9.34293C78.7866 9.23325 78.9166 9.07667 78.9937 8.89304C79.0708 8.7094 79.0917 8.50699 79.0537 8.31146C79.0157 8.11594 78.9205 7.93611 78.7802 7.79478C78.6398 7.65345 78.4607 7.55699 78.2655 7.51763C78.0703 7.47827 77.8678 7.49778 77.6837 7.57369C77.4996 7.6496 77.3422 7.77849 77.2314 7.94401C77.1207 8.10954 77.0615 8.30424 77.0615 8.50343C77.0611 8.63504 77.0866 8.76546 77.1365 8.88722C77.1864 9.00899 77.2598 9.11973 77.3526 9.21311C77.4453 9.30649 77.5555 9.3807 77.6769 9.43148C77.7983 9.48226 77.9285 9.50863 78.06 9.50908Z" fill="#202020"/>
<path d="M92.3472 13.9833V13.7097H90.7571V23.1231H90.2236V29.8411H40.4185V23.1231H38.8114V30.0976L35.4979 32.0097V13.7097H11.9922V13.6139H10.385V13.7097H1.60717V5.74658H10.385V4.14233H0V42.9316L31.2235 43H31.2919L35.4979 40.5714L39.7449 38.1189L90.7776 38.0094H100.01V13.9833H92.3472ZM33.8907 15.3242V17.8178H1.60717V15.3242H33.8907ZM30.0643 41.3205H1.34045V19.4289H30.0643V41.3205ZM33.8907 39.641L31.668 40.9272V19.4289H33.8873V39.6444L33.8907 39.641ZM38.8114 36.802L35.4979 38.7141V33.8637L38.8114 31.9516V36.802ZM90.74 36.4017L40.4185 36.6857V31.4488H90.74V36.4017ZM98.3928 23.1197V36.3983H92.3472V22.545C92.3767 22.4722 92.3918 22.3944 92.3916 22.3158V19.4289H98.3928V23.1197ZM98.3928 17.8075H92.3472V15.5876H98.3928V17.8075Z" fill="#202020"/>
<path d="M92.2753 2.14469C92.1828 1.73251 91.9766 1.3545 91.6803 1.05353C91.41 0.791219 91.0935 0.581299 90.7468 0.434405C89.9543 0.120558 89.1059 -0.0272961 88.254 -9.06363e-06H54.5547H54.2538H54.1786H53.9632H53.8914L53.6793 0.0170948H53.6281L53.3819 0.0478787L53.1049 0.0957665H53.0194L52.804 0.147078L52.6706 0.184705L52.6056 0.205227C52.1647 0.330918 51.7524 0.541196 51.3917 0.82435C51.03 0.536534 50.6152 0.322683 50.1709 0.194966L50.106 0.174443L49.9145 0.123132C49.8221 0.0991877 49.7298 0.0786668 49.6272 0.0615639C49.5246 0.0444611 49.4186 0.0239364 49.2853 0.00683354L49.1212 -0.0136891L48.639 -0.0444729H48.3689H14.4816C13.9549 -0.0482366 13.4292 -0.000117026 12.912 0.0991904L12.6248 0.167601L12.3888 0.236011C11.8881 0.381433 11.4303 0.646775 11.0552 1.00906C10.8589 1.20609 10.7012 1.43812 10.5902 1.69317C10.5737 1.72262 10.5599 1.75354 10.5491 1.78553C10.533 1.82106 10.5193 1.85763 10.5081 1.89499C10.4229 2.14604 10.3813 2.4098 10.385 2.67488C10.385 2.85275 10.385 3.82077 10.385 3.82077V13.6139H11.9922V3.95417C11.9922 3.92339 11.9922 3.87892 12.0127 3.80709C12.0485 3.34046 12.1451 2.8805 12.2999 2.43886L12.3273 2.38071C12.3605 2.26787 12.4203 2.16464 12.5017 2.0797C12.8128 1.76843 13.5275 1.59398 14.4816 1.59398H48.362H48.6356H48.7108H48.9023H48.9707L49.1519 1.61792H49.2066L49.4186 1.66581C49.487 1.68292 49.552 1.70686 49.617 1.72738C49.6848 1.75304 49.751 1.78274 49.8153 1.81631C49.8686 1.84113 49.92 1.86971 49.9692 1.90183L50.082 1.98392L50.1846 2.0797C50.2046 2.09858 50.2229 2.11918 50.2393 2.14127C50.2769 2.18665 50.3112 2.23466 50.3419 2.28494C50.3722 2.33645 50.3985 2.39019 50.4206 2.4457L50.4445 2.50385C50.4445 2.53122 50.4445 2.55858 50.4684 2.58252C50.4924 2.60647 50.4684 2.61331 50.4684 2.63041C50.4628 2.76996 50.4708 2.90973 50.4924 3.04772V15.5396C50.4924 15.6833 50.4924 15.827 50.5095 15.9809C49.0562 15.1394 46.259 14.127 41.1537 14.0688L35.4842 14.0072V15.6662L41.1229 15.7278C45.6264 15.7825 48.0372 16.6205 49.275 17.3286H35.4978V18.9363H50.4992V21.4983H35.4978V23.1094H90.7399V13.7096V16.3503L90.6032 16.2682L90.3262 16.1006C89.1123 15.3447 87.7445 14.8761 85.7577 14.5272C84.2002 14.2686 82.6244 14.1359 81.0456 14.1304L69.3202 14.0243L68.5986 14.0551L61.5613 14.1338C57.4579 14.1817 54.3393 14.8179 52.3286 16.0698C52.3594 14.1543 52.397 6.56749 52.4107 3.07166C52.4165 2.91619 52.4085 2.76052 52.3868 2.60647C52.3853 2.59512 52.3853 2.58361 52.3868 2.57226C52.3868 2.54832 52.3868 2.52437 52.4107 2.46964C52.4173 2.43886 52.4277 2.409 52.4415 2.38071C52.4523 2.34872 52.466 2.3178 52.4825 2.28835L52.503 2.25757C52.5089 2.24172 52.517 2.22676 52.527 2.2131C52.5475 2.18916 52.5646 2.16179 52.6022 2.12074L52.6809 2.04549C52.7488 1.98678 52.8234 1.93627 52.9031 1.89499L53.0467 1.83C53.0986 1.80618 53.1524 1.78673 53.2075 1.77185L53.3648 1.72396L53.2998 1.47768L53.3989 1.71712L53.5494 1.68291L53.5015 1.43321L53.5836 1.67607L53.7683 1.64871H53.823L54.0316 1.62819H54.2504H54.312H54.5513H88.2505C88.3736 1.62819 88.4967 1.62819 88.613 1.62819C89.2621 1.65522 89.8889 1.87293 90.4151 2.25415C90.5823 2.35886 90.7043 2.52237 90.757 2.71251C90.7838 2.81279 90.7942 2.91675 90.7878 3.02036C90.7878 3.30084 90.7639 3.58133 90.7605 3.85839V13.7165H92.3505V6.06809C92.3505 5.6713 92.3505 5.27109 92.371 4.8743C92.3916 4.47752 92.3881 4.11494 92.3881 3.73525V3.58133C92.4106 3.09962 92.3727 2.61699 92.2753 2.14469ZM61.5921 15.7586L68.6397 15.6833L69.3236 15.6525L81.0149 15.7586C85.3029 15.8099 87.553 16.5624 88.6848 17.1884C88.784 17.2431 88.8831 17.3012 88.9755 17.3594H53.5973C54.7531 16.6342 57.0715 15.7962 61.5921 15.7415V15.7586ZM52.5475 18.9671H90.2338V21.5291H52.5475V18.9671Z" fill="#202020"/>
</g>
<defs>
<clipPath id="clip0">
<rect width="100" height="43" fill="white"/>
</clipPath>
</defs>
</svg>
