<svg width="110" height="40" viewBox="0 0 110 40" fill="none" xmlns="http://www.w3.org/2000/svg">
<path d="M67.505 21.6343H38.2071C37.5685 21.633 36.9485 21.8483 36.4492 22.2446V22.0784L35.5499 23.0244L34.6505 22.031V22.2446C34.1512 21.8483 33.5312 21.633 32.8926 21.6343H3.59471C3.20404 21.6346 2.81769 21.7156 2.46002 21.872C2.10235 22.0284 1.78113 22.2568 1.5166 22.5429V31.5614C1.78113 31.8475 2.10235 32.076 2.46002 32.2323C2.81769 32.3887 3.20404 32.4697 3.59471 32.47H32.8926C33.5306 32.4709 34.1501 32.257 34.6505 31.8631V32.0666L35.5499 31.1783L36.4492 32.0225V31.8631C36.9496 32.257 37.5691 32.4709 38.2071 32.47H67.505C67.8961 32.4695 68.283 32.3885 68.6412 32.2322C68.9994 32.0758 69.3212 31.8474 69.5865 31.5614V22.5463C69.3219 22.2592 69.0003 22.0298 68.642 21.8728C68.2837 21.7159 67.8965 21.6346 67.505 21.6343ZM34.6675 30.212C34.5467 30.5814 34.3117 30.9033 33.9959 31.1317C33.6802 31.36 33.3 31.4832 32.9096 31.4834H3.61174C3.12172 31.4834 2.65171 31.2899 2.3049 30.9454C1.95808 30.6009 1.76279 30.1335 1.76189 29.6458V26.2893H34.6505L34.6675 30.212ZM34.6675 25.0857H1.77893V24.4788C1.77983 23.9909 1.97501 23.5231 2.32173 23.1781C2.66845 22.833 3.13844 22.6387 3.62878 22.6378H32.9267C33.3169 22.6386 33.6969 22.7619 34.0125 22.9902C34.3281 23.2185 34.5633 23.5401 34.6845 23.9093L34.6675 25.0857ZM69.3549 29.6458C69.354 30.1335 69.1587 30.6009 68.8118 30.9454C68.465 31.2899 67.995 31.4834 67.505 31.4834H38.2071C37.8168 31.4832 37.4366 31.36 37.1208 31.1317C36.8051 30.9033 36.57 30.5814 36.4492 30.212V26.2893H69.3378L69.3549 29.6458ZM69.3549 25.0857H36.4595V23.8923C36.5807 23.5232 36.8159 23.2016 37.1315 22.9733C37.4471 22.745 37.8271 22.6217 38.2173 22.6209H67.5152C68.0055 22.6218 68.4755 22.816 68.8223 23.1611C69.169 23.5062 69.3642 23.9739 69.3651 24.4619L69.3549 25.0857Z" fill="#202020" stroke="#202020" stroke-width="0.3"/>
<path d="M109.984 11.8631V5.22129C109.982 3.84697 109.433 2.52946 108.456 1.55768C107.48 0.58589 106.156 0.0391477 104.775 0.0373535H79.3334C77.9519 0.0382504 76.6271 0.584592 75.6499 1.55648C74.6727 2.52836 74.1229 3.84639 74.1211 5.22129V40.0001H110.001V11.8597L109.984 11.8631ZM108.774 11.8631V22.9599C108.68 22.821 108.574 22.6906 108.458 22.57V31.5986C108.575 31.4776 108.681 31.3459 108.774 31.2053V38.7863H75.3339V31.897C75.424 31.9672 75.5185 32.0317 75.6167 32.0902V30.7815C75.4927 30.6202 75.397 30.4391 75.3339 30.2459V26.3232H75.6167V25.1196H75.3339V23.9261C75.3985 23.7336 75.494 23.5527 75.6167 23.3905V22.0852C75.5177 22.1425 75.4232 22.2071 75.3339 22.2784V5.22129C75.3348 4.16591 75.7565 3.15401 76.5063 2.40775C77.2562 1.66149 78.2729 1.24184 79.3334 1.24094H104.775C105.835 1.24274 106.851 1.66267 107.601 2.40874C108.351 3.15481 108.773 4.16619 108.774 5.22129V11.8631Z" fill="#202020" stroke="#202020" stroke-width="0.3"/>
<path d="M106.373 21.668H77.0747C76.5535 21.6671 76.0425 21.8116 75.5996 22.085V23.3903C75.7715 23.1624 75.9942 22.9774 76.2502 22.8497C76.5062 22.722 76.7884 22.6552 77.0747 22.6546H106.373C106.863 22.6555 107.333 22.8497 107.68 23.1948C108.026 23.5398 108.222 24.0076 108.222 24.4956V25.1194H75.6166V26.323H108.222V29.6795C108.222 30.1675 108.026 30.6352 107.68 30.9803C107.333 31.3253 106.863 31.5196 106.373 31.5205H77.0747C76.788 31.52 76.5054 31.4529 76.2493 31.3246C75.9933 31.1963 75.7708 31.0103 75.5996 30.7814V32.0901C76.0432 32.362 76.5537 32.5063 77.0747 32.5071H106.373C106.761 32.5068 107.145 32.4265 107.501 32.2713C107.857 32.1161 108.177 31.8894 108.44 31.6053V22.5698C108.177 22.2857 107.857 22.0589 107.501 21.9037C107.145 21.7485 106.761 21.6683 106.373 21.668Z" fill="#202020" stroke="#202020" stroke-width="0.3"/>
<path d="M102.455 12.7886H81.6669C81.332 12.7886 81.0605 13.0588 81.0605 13.3921C81.0605 13.7254 81.332 13.9956 81.6669 13.9956H102.455C102.79 13.9956 103.061 13.7254 103.061 13.3921C103.061 13.0588 102.79 12.7886 102.455 12.7886Z" fill="#202020" stroke="#202020" stroke-width="0.3"/>
<path d="M71.1156 11.8291V5.18733C71.1147 3.81243 70.5657 2.49404 69.5891 1.52152C68.6126 0.549005 67.2882 0.0017969 65.9067 1.10804e-06H40.4652C39.3951 0.00111354 38.3512 0.329576 37.4749 0.940878C36.5986 1.55218 35.9323 2.41678 35.5663 3.41754C35.2003 2.41678 34.534 1.55218 33.6577 0.940878C32.7815 0.329576 31.7375 0.00111354 30.6674 1.10804e-06H5.22595C4.54102 -0.000444272 3.8627 0.133381 3.22973 0.393827C2.59676 0.654274 2.02153 1.03625 1.53689 1.51793C1.05225 1.99962 0.667685 2.57159 0.405158 3.20119C0.142631 3.83078 0.00728317 4.50567 0.00683594 5.18733V11.8291V39.9695H71.1394V11.8291H71.1156ZM69.9062 11.8291V22.9259C69.8157 22.7913 69.7143 22.6643 69.603 22.5462V31.5613C69.7135 31.4413 69.8149 31.3132 69.9062 31.1782V38.7591H36.4589V32.0224L35.5595 31.1782L34.6601 32.0665V38.7625H1.24348V31.1782C1.33426 31.3145 1.43685 31.4427 1.55009 31.5613V22.5428C1.43845 22.6627 1.33596 22.7908 1.24348 22.9259V11.8291V5.18733C1.24438 4.13254 1.66558 3.12116 2.4147 2.37499C3.16382 1.62883 4.17971 1.20878 5.23957 1.20698H30.6674C31.7273 1.20878 32.7432 1.62883 33.4923 2.37499C34.2414 3.12116 34.6626 4.13254 34.6635 5.18733V22.0309L35.5629 23.0242L36.4623 22.0783V5.18733C36.4641 4.13223 36.886 3.12085 37.6357 2.37478C38.3854 1.62872 39.4016 1.20878 40.4618 1.20698H65.9033C66.9634 1.20878 67.9797 1.62872 68.7293 2.37478C69.479 3.12085 69.901 4.13223 69.9028 5.18733L69.9062 11.8291Z" fill="#202020" stroke="#202020" stroke-width="0.3"/>
<path d="M62.255 12.758H8.86471C8.78148 12.7518 8.69786 12.7628 8.61908 12.7902C8.5403 12.8176 8.46805 12.8609 8.40687 12.9174C8.34568 12.9739 8.29688 13.0424 8.2635 13.1185C8.23012 13.1946 8.21289 13.2768 8.21289 13.3598C8.21289 13.4429 8.23012 13.5251 8.2635 13.6012C8.29688 13.6773 8.34568 13.7458 8.40687 13.8023C8.46805 13.8588 8.5403 13.9021 8.61908 13.9295C8.69786 13.9569 8.78148 13.9679 8.86471 13.9616H62.255C62.3382 13.9679 62.4219 13.9569 62.5006 13.9295C62.5794 13.9021 62.6517 13.8588 62.7128 13.8023C62.774 13.7458 62.8229 13.6773 62.8562 13.6012C62.8896 13.5251 62.9068 13.4429 62.9068 13.3598C62.9068 13.2768 62.8896 13.1946 62.8562 13.1185C62.8229 13.0424 62.774 12.9739 62.7128 12.9174C62.6517 12.8609 62.5794 12.8176 62.5006 12.7902C62.4219 12.7628 62.3382 12.7518 62.255 12.758Z" fill="#202020" stroke="#202020" stroke-width="0.3"/>
</svg>
