<svg width="97" height="41" viewBox="0 0 97 41" fill="none" xmlns="http://www.w3.org/2000/svg">
<path d="M84.5828 17.601V16.2325C84.6197 15.8897 84.673 15.5591 84.7427 15.2502H82.7749C82.7216 15.5591 82.6765 15.8495 82.6437 16.1769C82.568 16.7604 82.568 17.348 82.6437 17.9315V18.0056C82.6946 18.184 82.7965 18.3519 82.9424 18.4975C83.0882 18.6432 83.2745 18.7631 83.4882 18.8489C83.6557 18.9241 83.8329 18.9862 84.0171 19.0342C84.1125 19.0607 84.2096 19.0834 84.3082 19.1022H84.3573C84.4214 19.9896 84.3816 20.8796 84.2385 21.7618H86.1858C86.2268 21.4375 86.2719 21.0483 86.3006 20.6467C86.3394 20.1611 86.3394 19.6743 86.3006 19.1887L87.305 19.2597V21.7649H89.2482V17.9315L84.5828 17.601Z" fill="#202020"/>
<path d="M5.79377 15.2502H7.73287V15.1729V13.3628L0.890686 13.7798C0.76388 13.787 0.64023 13.813 0.526919 13.8565C0.413609 13.9 0.312906 13.96 0.230661 14.0331C0.0632812 14.1813 -0.0192758 14.3735 0.00108593 14.5675C0.00925911 14.6375 0.0313724 14.7063 0.0666806 14.7714V15.2502H5.80608H5.79377Z" fill="#202020"/>
<path d="M89.2686 15.2502V17.9315V21.768H91.2159L91.2118 15.2502H89.2686Z" fill="#202020"/>
<path d="M12.4221 17.601L7.73633 17.9315V21.7649H9.67542V19.2628L10.6798 19.1918C10.6392 19.6773 10.6392 20.1643 10.6798 20.6498C10.7085 21.0513 10.7495 21.4436 10.7905 21.7649H12.7378C12.5946 20.8827 12.5548 19.9927 12.6189 19.1053H12.6722C12.7694 19.0864 12.8652 19.0637 12.9592 19.0373C13.1441 18.9906 13.3215 18.9285 13.488 18.852C13.7078 18.7666 13.8998 18.6456 14.0501 18.4977C14.2003 18.3497 14.3052 18.1785 14.3571 17.9963V17.9222C14.4306 17.3304 14.4306 16.7348 14.3571 16.143C14.3243 15.8341 14.2833 15.5252 14.226 15.2502H12.2623C12.3279 15.5591 12.3811 15.8927 12.418 16.2418L12.4221 17.601Z" fill="#202020"/>
<path d="M47.4857 21.7649H12.75H47.5267V15.2502V21.3726C47.4962 21.5021 47.4825 21.6334 47.4857 21.7649Z" fill="#202020"/>
<path d="M96.9304 15.2502H94.9912V21.7649H96.9304V15.2502Z" fill="#202020"/>
<path d="M1.98988 15.2502H0.0507812V21.7649H1.98988V15.2502Z" fill="#202020"/>
<path d="M89.2686 15.2502H96.9347V14.7714C96.9681 14.7058 96.9902 14.6373 97.0003 14.5675C97.0207 14.3742 96.9385 14.1827 96.7717 14.035C96.6049 13.8873 96.3672 13.7956 96.1107 13.7798L89.2686 13.3628V15.2502Z" fill="#202020"/>
<path d="M7.73617 19.3987V17.9315H7.73207V15.2502H5.79297V21.768H7.73207V19.3987H7.73617Z" fill="#202020"/>
<path d="M84.2501 21.765H49.4365C49.4242 21.6963 49.4242 21.6267 49.4365 21.558C49.4407 21.519 49.4407 21.4797 49.4365 21.4407V15.2627H49.416V21.765H84.2501Z" fill="#202020"/>
<path d="M12.1762 14.861C12.209 14.9845 12.2418 15.1173 12.2705 15.2502H14.2342C14.1809 14.9814 14.1194 14.722 14.0497 14.481C13.9547 14.1426 13.8259 13.8101 13.6643 13.4864L13.6233 13.4091C13.5509 13.2731 13.4688 13.14 13.3773 13.0107C12.8772 12.3064 12.7009 7.7594 12.8239 3.93833V3.88273C12.7993 3.49352 12.8895 2.25484 13.57 1.72045C13.6741 1.63589 13.8013 1.56943 13.9429 1.52569C14.0845 1.48195 14.2371 1.46197 14.3899 1.46715H46.6413C46.6864 1.46715 46.7192 1.46715 46.7806 1.46715C46.9323 1.46715 47.3956 1.46715 47.5145 2.17144C47.5145 2.27956 47.5145 2.39076 47.5145 2.51123V15.2563V2.24867H49.4167V15.2502H49.4372V2.50505C49.4372 2.39667 49.4454 2.28838 49.4618 2.18071C49.5725 1.46098 50.0439 1.46098 50.2079 1.46098C50.2528 1.46567 50.2983 1.46567 50.3432 1.46098H82.5904C82.7432 1.456 82.8957 1.47607 83.0373 1.5198C83.1788 1.56353 83.3061 1.62988 83.4103 1.71427C84.0908 2.24866 84.1769 3.48734 84.1523 3.87655V3.92907C84.2794 7.74395 84.1031 12.3002 83.5989 13.0045C83.5022 13.1417 83.4159 13.283 83.3406 13.4277L83.3119 13.4802C83.1522 13.8044 83.0234 14.1368 82.9266 14.4748C82.8555 14.7158 82.794 14.9722 82.7421 15.244H84.7099C84.7386 15.1112 84.7673 14.9783 84.8042 14.8548L89.244 15.1637V13.3628L88.3995 13.3134H85.5298C86.3087 11.321 86.1488 5.17393 86.1078 3.93216C86.1078 3.57693 86.1529 1.76987 84.8329 0.716531C84.5451 0.488272 84.1975 0.307535 83.8122 0.185768C83.4269 0.0640019 83.0123 0.00386236 82.5945 0.00915705H50.4334H50.2325C49.6022 0.00412104 48.9923 0.177141 48.523 0.494124C48.0532 0.177661 47.4436 0.00472022 46.8134 0.00915705H46.629H14.4022C13.9844 0.00348437 13.5696 0.0634511 13.1842 0.18524C12.7988 0.30703 12.4513 0.48797 12.1639 0.716531C10.8397 1.76061 10.8643 3.57693 10.8848 3.92289C10.8274 5.68052 10.7085 11.3889 11.467 13.3134H8.57675L7.75684 13.3628V15.1729L12.1762 14.861Z" fill="#202020"/>
<path d="M94.9959 39.5389H91.2119V26.2563C91.2797 26.105 91.2797 25.9411 91.2119 25.7898V21.7649H89.2646V41H95.9592C96.2162 41 96.4627 40.9233 96.6448 40.7866C96.8269 40.65 96.9298 40.4646 96.9308 40.271V21.7649H94.9959V39.5389Z" fill="#202020"/>
<path d="M89.2688 21.7649H87.3297V23.0375C86.9198 22.8985 86.5098 22.7688 86.0712 22.6514C86.0727 22.6309 86.0727 22.6102 86.0712 22.5896C86.0712 22.5649 86.1285 22.2344 86.1859 21.7649H10.803C10.8645 22.2344 10.9178 22.5649 10.9219 22.5896C10.5031 22.7006 10.0925 22.8284 9.69202 22.9727V21.7649H7.75293V26.7598H89.2688V23.9272V21.7649ZM8.61793 25.2987C8.77577 25.175 8.94569 25.0604 9.12628 24.9558C9.49175 24.74 9.88446 24.5517 10.2988 24.3936C11.0629 24.1073 11.8674 23.8866 12.697 23.7357C12.9389 23.6893 13.189 23.6492 13.4513 23.609C13.7137 23.5689 13.9474 23.538 14.2098 23.5071C15.2877 23.3873 16.3753 23.3233 17.4648 23.3156L26.3322 23.2167H71.2717L79.2905 23.3063C80.4742 23.3155 81.6554 23.3909 82.8243 23.5318C83.0867 23.5627 83.3367 23.5997 83.5827 23.6368C83.8287 23.6739 84.0952 23.7233 84.337 23.7696C85.1139 23.9188 85.8692 24.1258 86.5918 24.3874C87.0314 24.5463 87.4512 24.7344 87.8463 24.9496C88.0393 25.0547 88.2241 25.1682 88.3997 25.2894L8.61793 25.2987Z" fill="#202020"/>
<path d="M7.71581 26.7598V23.9056V21.7649H5.77671V39.5389H1.99281V21.7649H0.0537109V40.271C0.0537109 40.3667 0.0787412 40.4615 0.127363 40.5499C0.175984 40.6384 0.247242 40.7187 0.337083 40.7864C0.426923 40.8541 0.533586 40.9078 0.650969 40.9445C0.768351 40.9811 0.894163 41 1.02122 41H7.71581V26.7598Z" fill="#202020"/>
<path d="M7.73558 31.3594H7.73242V32.8205H7.73558V31.3594Z" fill="#202020"/>
<path d="M89.2728 31.3594H7.73633V32.8205H89.2728V31.3594Z" fill="#202020"/>
<path d="M89.284 39H7.71582V41H89.284V39Z" fill="#202020"/>
<path d="M49.4295 2.24878H47.5273V15.2503H49.4295V2.24878Z" fill="#202020"/>
<path d="M49.4295 15.2502H47.5273V21.7649H49.4295V15.2502Z" fill="#202020"/>
</svg>
