<svg width="108" height="42" viewBox="0 0 108 42" fill="none" xmlns="http://www.w3.org/2000/svg">
<path d="M2.86 19.6144V11.9862C2.86 11.9862 2.86 11.9862 2.86 11.961C2.95483 11.9549 3.04795 11.9331 3.13546 11.8964L3.4979 11.7421H11.1708C11.1788 11.8497 11.2084 11.9546 11.2578 12.0508C11.2939 12.1219 11.339 12.1882 11.3919 12.2482V19.6323L10.9243 19.8549L14.5886 19.9662L16.7632 18.918L16.8357 18.8785C16.9762 18.7884 17.1084 18.6863 17.2308 18.5733C17.4346 18.6442 17.649 18.6806 17.865 18.681H90.1212C90.3372 18.6806 90.5516 18.6442 90.7554 18.5733C90.8763 18.6881 91.0087 18.7904 91.1505 18.8785L91.223 18.918L93.3976 19.9662L97.0619 19.8549L96.5943 19.6323C96.5943 19.6323 96.5943 19.6323 96.5943 19.6108V12.2518C96.6496 12.1929 96.6959 12.1264 96.7321 12.0544C96.7798 11.9575 96.8092 11.8529 96.8191 11.7456H104.499L104.862 11.9C104.949 11.9367 105.042 11.9585 105.137 11.9646C105.137 11.9646 105.137 11.9826 105.137 11.9898V19.618L106.768 20.1133C106.813 19.952 106.836 19.7854 106.837 19.618V11.9862C106.836 11.4752 106.631 10.9854 106.266 10.6241C105.901 10.2628 105.407 10.0594 104.891 10.0585H104.858L100.759 8.29231C100.252 8.07142 99.7067 7.94953 99.1532 7.93334H92.4553C92.3253 7.93324 92.1956 7.94405 92.0675 7.96564V1.92769C92.0675 1.41643 91.8624 0.926124 91.4974 0.564611C91.1324 0.203099 90.6374 0 90.1212 0H17.8759C17.3597 0 16.8647 0.203099 16.4997 0.564611C16.1347 0.926124 15.9296 1.41643 15.9296 1.92769V7.99077C15.8015 7.96918 15.6718 7.95837 15.5418 7.95847H8.8439C8.29036 7.97466 7.74518 8.09655 7.23829 8.31744L3.13909 10.0836H3.10646C2.59056 10.0845 2.09609 10.2879 1.73129 10.6493C1.3665 11.0106 1.16111 11.5003 1.16016 12.0113V19.6395C1.16066 19.8069 1.18382 19.9735 1.22902 20.1349L3.10646 19.8836C3.07201 19.8832 3.03802 19.8758 3.0066 19.8618C2.97518 19.8478 2.94701 19.8276 2.92387 19.8023C2.90073 19.777 2.88312 19.7473 2.87213 19.7149C2.86114 19.6826 2.85701 19.6484 2.86 19.6144ZM99.1532 9.6277C99.4726 9.64147 99.7868 9.712 100.081 9.83591L100.596 10.0585H96.8517C96.3792 10.0593 95.9232 10.2302 95.5687 10.5395L93.7057 9.6277H99.1532ZM92.0675 16.7569V10.7082L94.9018 12.0938V18.8174L92.0022 17.4318L91.9443 17.3851C92.0204 17.184 92.0621 16.9717 92.0675 16.7569ZM17.6294 9.51641V1.92769C17.6304 1.86324 17.6567 1.80169 17.7027 1.75611C17.7487 1.71053 17.8108 1.68452 17.8759 1.68359H90.1212C90.1862 1.68452 90.2484 1.71053 90.2944 1.75611C90.3404 1.80169 90.3667 1.86324 90.3676 1.92769V16.7569C90.3667 16.8214 90.3404 16.8829 90.2944 16.9285C90.2484 16.9741 90.1862 17.0001 90.1212 17.001H79.817V5.24103C79.965 5.07176 80.058 4.86221 80.0839 4.63975C80.1097 4.41729 80.0672 4.19228 79.9619 3.99414C79.8566 3.79599 79.6933 3.63393 79.4935 3.52912C79.2938 3.42431 79.0667 3.38164 78.842 3.40667C78.6954 3.4236 78.5536 3.46898 78.4247 3.54021C78.2958 3.61143 78.1823 3.70711 78.0908 3.82179C77.9992 3.93647 77.9314 4.06789 77.8911 4.20855C77.8509 4.34921 77.839 4.49635 77.8562 4.64155C77.8829 4.86417 77.9778 5.07336 78.128 5.24103V17.001H67.3128V5.24103C67.4167 5.12598 67.4944 4.99015 67.5407 4.84275C67.587 4.69534 67.6007 4.53979 67.581 4.38667C67.5648 4.24129 67.5197 4.10052 67.4484 3.97247C67.377 3.84441 67.2808 3.73159 67.1653 3.64051C67.0497 3.54943 66.9171 3.48188 66.7751 3.44175C66.6331 3.40162 66.4845 3.3897 66.3378 3.40667C66.1343 3.42916 65.9409 3.50627 65.7785 3.62971C65.616 3.75314 65.4907 3.9182 65.4161 4.10704C65.3415 4.29588 65.3204 4.50133 65.3551 4.70119C65.3898 4.90104 65.4789 5.08772 65.6129 5.24103V17.001H54.8485V5.24462C54.9986 5.07726 55.0924 4.86771 55.1167 4.64513C55.1338 4.49993 55.122 4.3528 55.0817 4.21214C55.0415 4.07149 54.9736 3.94007 54.8821 3.82539C54.7905 3.71071 54.6771 3.61502 54.5482 3.54379C54.4193 3.47256 54.2775 3.42718 54.1308 3.41026C53.9844 3.3933 53.8359 3.40525 53.6942 3.44542C53.5524 3.4856 53.42 3.5532 53.3048 3.64432C53.1895 3.73544 53.0936 3.84828 53.0227 3.97631C52.9517 4.10435 52.9071 4.24504 52.8913 4.39026C52.8716 4.54339 52.8853 4.69892 52.9316 4.84633C52.9779 4.99374 53.0556 5.12957 53.1595 5.24462V17.001H42.3298V5.24462C42.4799 5.07726 42.5737 4.86771 42.598 4.64513C42.6152 4.49993 42.6033 4.3528 42.563 4.21214C42.5228 4.07149 42.455 3.94007 42.3634 3.82539C42.2718 3.71071 42.1584 3.61502 42.0295 3.54379C41.9006 3.47256 41.7588 3.42718 41.6122 3.41026C41.3871 3.38411 41.1594 3.42617 40.959 3.53088C40.7587 3.63559 40.5951 3.79803 40.4898 3.99675C40.3846 4.19546 40.3427 4.42111 40.3697 4.6439C40.3966 4.8667 40.4911 5.07615 40.6408 5.24462V17.001H29.8002V5.24462C29.9503 5.07726 30.0441 4.86771 30.0684 4.64513C30.0856 4.49993 30.0737 4.3528 30.0335 4.21214C29.9932 4.07149 29.9254 3.94007 29.8338 3.82539C29.7423 3.71071 29.6288 3.61502 29.4999 3.54379C29.371 3.47256 29.2292 3.42718 29.0826 3.41026C28.8576 3.38411 28.6298 3.42617 28.4295 3.53088C28.2291 3.63559 28.0655 3.79803 27.9603 3.99675C27.855 4.19546 27.8131 4.42111 27.8401 4.6439C27.8671 4.8667 27.9616 5.07615 28.1112 5.24462V17.001H17.8759C17.8108 17.0001 17.7487 16.9741 17.7027 16.9285C17.6567 16.8829 17.6304 16.8214 17.6294 16.7569V9.51641ZM15.9296 10.7082V16.7569C15.9303 16.9709 15.9671 17.1832 16.0384 17.3851L15.9804 17.4282L13.0808 18.8174V12.0938L15.9296 10.7082ZM7.91605 9.83591C8.21045 9.71266 8.52461 9.64216 8.8439 9.6277H14.2805L12.4139 10.5395C12.061 10.2299 11.606 10.0588 11.1345 10.0585H7.40139L7.91605 9.83591Z" fill="#202020"/>
<path d="M107.996 21.8974C107.998 21.5106 107.881 21.1324 107.662 20.8122C107.442 20.492 107.131 20.2447 106.768 20.1026L104.988 19.8298L106.768 20.1026L105.137 19.6072C105.136 19.6716 105.11 19.7332 105.064 19.7788C105.018 19.8243 104.955 19.8504 104.89 19.8513H97.0724L93.4082 19.9626H14.5774L10.9131 19.8513H3.10612L1.22868 20.1026C0.865449 20.2447 0.55392 20.492 0.33474 20.8122C0.11556 21.1324 -0.00108594 21.5106 1.76081e-05 21.8974V28.7862C0.00014271 28.9937 0.0344194 29.1998 0.1015 29.3964C0.0340088 29.5198 -0.00089932 29.6581 1.76081e-05 29.7985V38.8626C1.76081e-05 39.0853 0.0893696 39.299 0.248421 39.4565C0.407473 39.6141 0.623194 39.7026 0.848127 39.7026H107.148C107.373 39.7026 107.589 39.6141 107.748 39.4565C107.907 39.299 107.996 39.0853 107.996 38.8626V29.7985C107.997 29.6581 107.962 29.5198 107.895 29.3964C107.962 29.1998 107.996 28.9937 107.996 28.7862V21.8974ZM106.297 37.94H106.249C106.125 37.9392 106.001 37.9649 105.887 38.0154H2.09855C1.98457 37.9649 1.86098 37.9392 1.73611 37.94H1.68899V30.6959C1.77105 30.7014 1.85339 30.7014 1.93545 30.6959H106.05C106.132 30.7014 106.214 30.7014 106.297 30.6959V37.94ZM106.297 28.7862C106.296 28.8497 106.27 28.9103 106.224 28.9549H1.77235C1.74904 28.9333 1.73054 28.9072 1.71806 28.8781C1.70557 28.849 1.69937 28.8177 1.69985 28.7862V21.8974C1.70172 21.8336 1.72839 21.773 1.77431 21.7282C1.82024 21.6833 1.88187 21.6578 1.94633 21.6569H106.05C106.115 21.6578 106.176 21.6833 106.222 21.7282C106.268 21.773 106.295 21.8336 106.297 21.8974V28.7862Z" fill="#202020"/>
<path d="M5.9513 40.2986H2.61684V39.6812H0.916992V41.1422C0.91699 41.3653 1.00623 41.5793 1.16517 41.7374C1.32412 41.8955 1.53985 41.9848 1.76511 41.9858H6.24124C6.42545 41.9853 6.6046 41.9261 6.75227 41.817C7.25607 41.4581 8.28178 40.6001 8.70221 39.6812H6.62543C6.4145 39.9012 6.18931 40.1075 5.9513 40.2986Z" fill="#202020"/>
<path d="M105.397 40.2986H102.041C101.804 40.1066 101.579 39.9004 101.367 39.6812H99.29C99.7105 40.6001 100.74 41.4401 101.24 41.817C101.388 41.9261 101.567 41.9853 101.751 41.9858H106.249C106.474 41.9848 106.69 41.8955 106.849 41.7374C107.008 41.5793 107.097 41.3653 107.097 41.1422V39.6812H105.397V40.2986Z" fill="#202020"/>
</svg>
