<svg width="45" height="54" viewBox="0 0 45 54" fill="none" xmlns="http://www.w3.org/2000/svg">
<g clip-path="url(#clip0)">
<path d="M14.2431 28.103C13.7923 28.1047 13.3478 28.2081 12.9434 28.4053V30.9709C12.9444 30.63 13.0817 30.3033 13.3252 30.0622C13.5688 29.8211 13.8987 29.6851 14.2431 29.6841H30.7478C31.0922 29.6851 31.4221 29.8211 31.6656 30.0622C31.9091 30.3033 32.0464 30.63 32.0475 30.9709V28.4053C31.6437 28.2066 31.1988 28.1031 30.7478 28.103H14.2431Z" fill="#202020"/>
<path d="M37.7334 51.7039C37.7394 51.8161 37.7002 51.926 37.6243 52.0095C37.5485 52.093 37.4423 52.1433 37.329 52.1492C37.2157 52.1552 37.1047 52.1164 37.0204 52.0413C36.936 51.9662 36.8853 51.861 36.8793 51.7489C36.8773 51.7353 36.8773 51.7216 36.8793 51.708L35.7198 46.5728H34.0693L35.3072 52.0348C35.3984 52.5186 35.6656 52.9525 36.0584 53.2541C36.4511 53.5558 36.9419 53.7044 37.4378 53.6716C37.9338 53.6389 38.4004 53.4271 38.7492 53.0765C39.0979 52.7259 39.3047 52.2608 39.3302 51.7693L39.4746 46.585H37.8778L37.7334 51.7039Z" fill="#202020"/>
<path d="M6.2803 51.7039C6.27428 51.8161 6.3135 51.926 6.38933 52.0095C6.46516 52.093 6.5714 52.1433 6.68467 52.1492C6.79793 52.1552 6.90894 52.1164 6.99328 52.0413C7.07763 51.9662 7.1284 51.861 7.13442 51.7489C7.13634 51.7353 7.13634 51.7216 7.13442 51.708L8.29387 46.5728H9.94434L8.70649 52.0348C8.6153 52.5186 8.34802 52.9525 7.95532 53.2541C7.56261 53.5558 7.07178 53.7044 6.57583 53.6716C6.07989 53.6389 5.6133 53.4271 5.26452 53.0765C4.91574 52.7259 4.70899 52.2608 4.68347 51.7693L4.53905 46.585H6.13588L6.2803 51.7039Z" fill="#202020"/>
<path d="M33.6566 24.5365C33.6798 23.6789 33.9563 22.8469 34.4521 22.1433C34.9478 21.4397 35.641 20.8954 36.4459 20.5778C39.6478 19.2133 43.4026 21.3173 43.4026 24.5365C43.4017 25.0367 43.308 25.5324 43.1262 25.9991C43.1437 25.4482 43.0493 24.8994 42.8485 24.3854C42.6477 23.8713 42.3446 23.4025 41.9572 23.0066C41.5698 22.6108 41.1061 22.2961 40.5935 22.0812C40.0809 21.8662 39.5299 21.7555 38.9732 21.7555C38.4165 21.7555 37.8655 21.8662 37.3529 22.0812C36.8403 22.2961 36.3766 22.6108 35.9892 23.0066C35.6018 23.4025 35.2987 23.8713 35.0979 24.3854C34.8971 24.8994 34.8027 25.4482 34.8202 25.9991V32.1271H41.0713V30.0149C42.2078 29.6006 43.1911 28.8556 43.8921 27.8779C44.5932 26.9002 44.9792 25.7354 44.9995 24.5365C44.9995 21.8483 43.0602 19.5728 40.4029 18.817V18.7026H35.5258L35.4309 19.2909C34.433 19.7703 33.5891 20.5145 32.9932 21.4406C32.3973 22.3668 32.0727 23.4385 32.0557 24.5365V32.1311H12.9433V24.5365C12.9248 23.4404 12.5996 22.3708 12.0037 21.4469C11.4078 20.523 10.5646 19.7808 9.56805 19.3032L9.4814 18.7231H4.57951V18.8375C1.93876 19.581 -0.00878906 21.8565 -0.00878906 24.5365C0.0106643 25.7361 0.396287 26.9018 1.09739 27.8803C1.79849 28.8588 2.78224 29.6044 3.91933 30.019V32.1311H33.6277L33.6566 24.5365ZM40.374 28.0417C40.096 28.2237 39.8682 28.4713 39.7111 28.7624C39.5541 29.0534 39.4728 29.3786 39.4745 29.7085V32.1311H36.417V26.0031C36.4047 25.5627 36.5089 25.1267 36.7191 24.7384C36.9294 24.3501 37.2385 24.0229 37.6158 23.7892C37.9931 23.5556 38.4255 23.4236 38.8702 23.4064C39.3148 23.3891 39.7563 23.4872 40.1509 23.6909C40.5455 23.8946 40.8795 24.1968 41.1199 24.5677C41.3602 24.9385 41.4984 25.3651 41.521 25.8052C41.5435 26.2452 41.4495 26.6834 41.2484 27.0765C41.0472 27.4695 40.7458 27.8036 40.374 28.0458V28.0417ZM8.5819 32.1271H5.52441V29.7045C5.52625 29.3749 5.44539 29.0501 5.28911 28.7592C5.13283 28.4683 4.90601 28.2203 4.62903 28.0376C4.25654 27.796 3.95433 27.4621 3.7524 27.0691C3.55048 26.6761 3.45584 26.2377 3.47788 25.7973C3.49992 25.3569 3.63787 24.9299 3.87805 24.5586C4.11823 24.1873 4.45229 23.8846 4.84708 23.6806C5.24188 23.4766 5.68369 23.3783 6.12868 23.3955C6.57367 23.4128 7.00638 23.5449 7.38387 23.7788C7.76136 24.0128 8.07052 24.3403 8.28067 24.7291C8.49082 25.1178 8.59467 25.5542 8.5819 25.995V32.1271ZM11.3464 32.1271H10.1828V25.9991C10.2038 25.4486 10.1129 24.8995 9.91549 24.3844C9.71809 23.8694 9.41822 23.3988 9.03366 23.0007C8.64911 22.6026 8.18771 22.2849 7.67684 22.0667C7.16597 21.8485 6.61603 21.734 6.05964 21.7302C5.50326 21.7264 4.95177 21.8332 4.43788 22.0444C3.92399 22.2556 3.45817 22.5668 3.06806 22.9596C2.67796 23.3524 2.3715 23.8188 2.16688 24.3311C1.96226 24.8434 1.86364 25.3911 1.87687 25.9419V26.0154C1.69201 25.5495 1.59684 25.0534 1.59629 24.5528C1.59629 22.1016 3.83268 20.1734 6.47342 20.1734C9.11417 20.1734 11.3464 22.0853 11.3464 24.5365V32.1271Z" fill="#202020"/>
<path d="M42.3261 44.8406V41.221C42.3265 40.7669 42.174 40.3256 41.8928 39.9668C42.174 39.608 42.3265 39.1667 42.3261 38.7126V34.6028V34.1942C42.3275 33.7955 42.211 33.4052 41.9911 33.0713C41.7711 32.7373 41.4573 32.4744 41.0882 32.315V32.1475H3.95271V32.2986C3.58367 32.4581 3.26982 32.721 3.04986 33.0549C2.8299 33.3888 2.71345 33.7792 2.71486 34.1779V38.7126C2.71563 39.1672 2.86954 39.6086 3.15223 39.9668C2.86954 40.325 2.71563 40.7664 2.71486 41.221V44.8406C2.71486 45.3824 2.93221 45.9019 3.31912 46.285C3.70602 46.6681 4.23078 46.8833 4.77794 46.8833H40.3043C40.8442 46.8726 41.3584 46.6527 41.7365 46.2707C42.1145 45.8888 42.3262 45.3754 42.3261 44.8406ZM40.7293 44.8406C40.7282 44.9631 40.6789 45.0803 40.5918 45.1673C40.5047 45.2543 40.3867 45.3042 40.263 45.3063H4.73668C4.61298 45.3042 4.49501 45.2543 4.40791 45.1673C4.32081 45.0803 4.27147 44.9631 4.27042 44.8406V41.221C4.27149 41.0989 4.32097 40.9821 4.40817 40.8957C4.49538 40.8094 4.61335 40.7604 4.73668 40.7594H40.263C40.3863 40.7604 40.5043 40.8094 40.5915 40.8957C40.6787 40.9821 40.7282 41.0989 40.7293 41.221V44.8406ZM40.7293 34.6028V38.7126C40.7271 38.8344 40.6773 38.9506 40.5903 39.0367C40.5034 39.1228 40.386 39.1721 40.263 39.1742H4.73668C4.61368 39.1721 4.49631 39.1228 4.40933 39.0367C4.32234 38.9506 4.27254 38.8344 4.27042 38.7126V34.186C4.27147 34.0646 4.32038 33.9484 4.4067 33.8622C4.49302 33.776 4.60995 33.7265 4.73255 33.7244H40.2671C40.3897 33.7265 40.5066 33.776 40.593 33.8622C40.6793 33.9484 40.7282 34.0646 40.7293 34.186V34.6028Z" fill="#202020"/>
<path d="M37.3424 6.59791C35.7464 6.32136 34.292 5.51785 33.2162 4.31829C32.8538 3.91832 32.4607 3.5468 32.0402 3.20708C31.1231 2.47013 30.1099 1.85866 29.0281 1.3891C26.9702 0.474224 24.7399 0.0012207 22.484 0.0012207C20.2282 0.0012207 17.9979 0.474224 15.9399 1.3891C14.8581 1.85866 13.845 2.47013 12.9278 3.20708C12.5074 3.5468 12.1142 3.91832 11.7519 4.31829C10.6761 5.51785 9.22169 6.32136 7.6257 6.59791C6.31215 6.83162 5.14379 7.56663 4.37209 8.64472C3.60039 9.72281 3.28706 11.0578 3.49953 12.3623L4.5352 18.7232H9.48248L8.29001 11.4635C8.28829 11.449 8.2895 11.4343 8.29356 11.4203C8.29762 11.4063 8.30446 11.3932 8.31367 11.3818C8.32288 11.3704 8.33429 11.3609 8.34723 11.3539C8.36016 11.3469 8.37438 11.3425 8.38904 11.341C10.0064 11.0584 11.5499 10.4569 12.9278 9.57203C13.8287 8.99189 14.6474 8.29532 15.3623 7.50077C16.0851 6.7431 16.961 6.14457 17.9329 5.74407C19.3699 5.10788 20.9264 4.77904 22.5005 4.77904C24.0747 4.77904 25.6312 5.10788 27.0682 5.74407C28.0328 6.14338 28.9027 6.73751 29.6223 7.48851C30.3371 8.28307 31.1558 8.97963 32.0567 9.55978C33.4347 10.4446 34.9782 11.0462 36.5955 11.3287C36.6102 11.3303 36.6244 11.3346 36.6373 11.3416C36.6503 11.3486 36.6617 11.3581 36.6709 11.3695C36.6801 11.3809 36.687 11.394 36.691 11.4081C36.6951 11.4221 36.6963 11.4368 36.6946 11.4513L35.5103 18.715H37.1278L38.2708 11.7005C38.3391 11.2613 38.2309 10.813 37.9694 10.4518C37.708 10.0906 37.314 9.84521 36.872 9.76813C35.1002 9.47706 33.4352 8.73516 32.0402 7.61516C31.5979 7.25482 31.1841 6.86147 30.8024 6.43858C29.9358 5.51872 28.8826 4.7906 27.7119 4.30195C26.0696 3.57282 24.2901 3.19589 22.4902 3.19589C20.6904 3.19589 18.9109 3.57282 17.2686 4.30195C16.0961 4.78956 15.0413 5.51778 14.1739 6.43858C13.7922 6.86147 13.3784 7.25482 12.9361 7.61516C11.5411 8.73516 9.87611 9.47706 8.10434 9.76813C7.66181 9.84423 7.26719 10.0894 7.00555 10.4509C6.7439 10.8124 6.63617 11.2611 6.70557 11.7005L7.84851 18.7109C7.29606 18.6007 6.73222 18.5568 6.16916 18.5802L5.11286 12.1009C4.96995 11.2051 5.18707 10.2895 5.7177 9.55033C6.24833 8.81114 7.05025 8.30712 7.95166 8.14625C9.87898 7.80272 11.6341 6.82882 12.9361 5.38048L12.9567 5.36005C13.9774 4.26816 15.2206 3.4034 16.6042 2.82305C18.4569 2.00086 20.4641 1.57582 22.4944 1.57582C24.5246 1.57582 26.5318 2.00086 28.3845 2.82305C29.7674 3.40449 31.0105 4.26909 32.032 5.36005V5.38048C33.3345 6.82807 35.0894 7.80182 37.0164 8.14625C37.9178 8.30712 38.7197 8.81114 39.2504 9.55033C39.781 10.2895 39.9981 11.2051 39.8552 12.1009L38.7989 18.5802C38.2356 18.5552 37.6714 18.6005 37.1196 18.715H40.4287L41.4644 12.3541C41.6746 11.0515 41.3607 9.71911 40.5901 8.64296C39.8195 7.56681 38.6535 6.83261 37.3424 6.59791Z" fill="#202020"/>
<path d="M15.7742 15.1974C16.0156 15.1998 16.2523 15.1311 16.4542 15C16.6561 14.8689 16.814 14.6813 16.9079 14.461C17.0018 14.2408 17.0275 13.9979 16.9816 13.7632C16.9357 13.5285 16.8203 13.3126 16.6502 13.143C16.4801 12.9734 16.2628 12.8577 16.0261 12.8107C15.7894 12.7636 15.5439 12.7874 15.3208 12.8788C15.0977 12.9703 14.9072 13.1254 14.7734 13.3244C14.6396 13.5234 14.5685 13.7573 14.5693 13.9963C14.5693 14.3134 14.696 14.6177 14.9217 14.8427C15.1474 15.0677 15.4539 15.1952 15.7742 15.1974Z" fill="#202020"/>
<path d="M22.2934 20.9048C22.0525 20.9048 21.817 20.9756 21.6167 21.1082C21.4164 21.2408 21.2604 21.4293 21.1684 21.6497C21.0764 21.8702 21.0526 22.1127 21.0999 22.3466C21.1472 22.5805 21.2635 22.7952 21.4341 22.9636C21.6048 23.132 21.8221 23.2464 22.0585 23.2925C22.2948 23.3385 22.5397 23.3141 22.7621 23.2222C22.9844 23.1304 23.1742 22.9753 23.3075 22.7766C23.4407 22.5778 23.5114 22.3444 23.5106 22.1059C23.5106 21.9478 23.4791 21.7913 23.4179 21.6453C23.3566 21.4993 23.2669 21.3667 23.1538 21.2551C23.0408 21.1435 22.9065 21.0552 22.7589 20.995C22.6112 20.9349 22.453 20.9043 22.2934 20.9048Z" fill="#202020"/>
<path d="M28.8374 15.1973C29.079 15.2006 29.3161 15.1326 29.5186 15.0019C29.721 14.8713 29.8796 14.684 29.9741 14.4639C30.0686 14.2437 30.0949 14.0007 30.0495 13.7657C30.004 13.5308 29.889 13.3145 29.7191 13.1445C29.5491 12.9745 29.3318 12.8584 29.095 12.811C28.8582 12.7636 28.6125 12.7871 28.3892 12.8784C28.1658 12.9698 27.975 13.1249 27.8411 13.3239C27.7071 13.523 27.6359 13.757 27.6367 13.9963C27.6356 14.313 27.7614 14.6173 27.9864 14.8424C28.2115 15.0676 28.5175 15.1952 28.8374 15.1973Z" fill="#202020"/>
</g>
<defs>
<clipPath id="clip0">
<rect width="45" height="54" fill="white"/>
</clipPath>
</defs>
</svg>
