<svg width="79" height="39" viewBox="0 0 79 39" fill="none" xmlns="http://www.w3.org/2000/svg">
<path d="M3.11328 14.5957H7.54297C7.75659 14.5965 7.96924 14.6245 8.17578 14.6791V4.4707C8.17699 3.38017 8.61075 2.33464 9.38187 1.56352C10.153 0.792389 11.1985 0.358636 12.2891 0.357422H66.7109C67.8015 0.358636 68.847 0.792389 69.6181 1.56352C70.3893 2.33464 70.823 3.38017 70.8242 4.4707V14.6791C71.0308 14.6245 71.2434 14.5965 71.457 14.5957H75.8867C76.5578 14.5965 77.2012 14.8634 77.6757 15.338C78.1502 15.8125 78.4172 16.4559 78.418 17.127V29.7832C78.4168 30.8737 77.983 31.9193 77.2119 32.6904C76.4407 33.4615 75.3952 33.8953 74.3047 33.8965H70.5592L69.1935 37.9939C69.1304 38.1829 69.0095 38.3472 68.8479 38.4636C68.6863 38.58 68.4921 38.6426 68.293 38.6426H66.7109C66.5118 38.6426 66.3176 38.58 66.156 38.4636C65.9944 38.3472 65.8735 38.1829 65.8104 37.9939L64.4447 33.8965H14.5553L13.1896 37.9939C13.1265 38.1829 13.0056 38.3472 12.844 38.4636C12.6824 38.58 12.4882 38.6426 12.2891 38.6426H10.707C10.5079 38.6426 10.3137 38.58 10.1521 38.4636C9.99051 38.3472 9.86961 38.1829 9.80654 37.9939L8.44077 33.8965H4.69531C3.60477 33.8953 2.55925 33.4615 1.78812 32.6904C1.017 31.9193 0.583244 30.8737 0.582031 29.7832V17.127C0.582825 16.4559 0.849762 15.8125 1.3243 15.338C1.79882 14.8634 2.4422 14.5965 3.11328 14.5957ZM10.0742 4.4707V21.873C10.0748 22.4603 10.3084 23.0233 10.7236 23.4385C11.1389 23.8537 11.7018 24.0873 12.2891 24.0879H24.5973C24.3611 24.0785 24.1371 23.9808 23.9697 23.814L17.6415 17.4859C17.4636 17.3079 17.3636 17.0665 17.3636 16.8147C17.3636 16.563 17.4636 16.3216 17.6415 16.1436L23.9697 9.81544C24.1477 9.63749 24.3891 9.53752 24.6408 9.53752C24.8925 9.53752 25.1339 9.63749 25.3119 9.81544L31.64 16.1436C31.818 16.3216 31.918 16.563 31.918 16.8147C31.918 17.0665 31.818 17.3079 31.64 17.4859L25.3119 23.814C25.1446 23.9807 24.9208 24.0784 24.6849 24.0879H38.5508V2.25586H12.2891C11.7018 2.25649 11.1389 2.49004 10.7236 2.90527C10.3084 3.32049 10.0748 3.88348 10.0742 4.4707ZM24.6414 21.8004L29.6272 16.8147L24.6414 11.829L19.6556 16.8147L24.6414 21.8004ZM68.9258 4.4707C68.9252 3.88348 68.6916 3.32049 68.2764 2.90527C67.8611 2.49004 67.2982 2.25649 66.7109 2.25586H40.4492V24.0879H54.644C54.4079 24.0786 54.1838 23.9808 54.0164 23.814L47.6883 17.4859C47.5103 17.3079 47.4103 17.0665 47.4103 16.8147C47.4103 16.563 47.5103 16.3216 47.6883 16.1436L54.0164 9.81544C54.1944 9.63749 54.4358 9.53752 54.6875 9.53752C54.9392 9.53752 55.1806 9.63749 55.3586 9.81544L61.6867 16.1436C61.8647 16.3216 61.9647 16.563 61.9647 16.8147C61.9647 17.0665 61.8647 17.3079 61.6867 17.4859L55.3586 23.814C55.1912 23.9808 54.9671 24.0786 54.731 24.0879H66.7109C67.2982 24.0873 67.8611 23.8537 68.2764 23.4385C68.6916 23.0233 68.9252 22.4603 68.9258 21.873V4.4707ZM54.6875 21.8004L59.6733 16.8147L54.6875 11.829L49.7017 16.8147L54.6875 21.8004ZM67.395 36.7441H67.6089L68.5581 33.8965H66.4458L67.395 36.7441ZM11.3911 36.7441H11.605L12.5542 33.8965H10.4419L11.3911 36.7441ZM2.48047 29.7832C2.48109 30.3704 2.71465 30.9334 3.12988 31.3486C3.5451 31.7639 4.10809 31.9974 4.69531 31.998H74.3047C74.8919 31.9974 75.4549 31.7639 75.8701 31.3486C76.2854 30.9334 76.5189 30.3704 76.5195 29.7832V17.127C76.5195 16.9591 76.4529 16.7982 76.3342 16.6795C76.2155 16.5608 76.0546 16.4941 75.8867 16.4941H71.457C71.2892 16.4941 71.1282 16.5608 71.0096 16.6795C70.8909 16.7982 70.8242 16.9591 70.8242 17.127V21.873C70.823 22.9636 70.3893 24.0091 69.6181 24.7802C68.847 25.5514 67.8015 25.9851 66.7109 25.9863H12.2891C11.1985 25.9851 10.153 25.5514 9.38187 24.7802C8.61075 24.0091 8.17699 22.9636 8.17578 21.873V17.127C8.17578 16.9591 8.10911 16.7982 7.99043 16.6795C7.87176 16.5608 7.7108 16.4941 7.54297 16.4941H3.11328C2.94545 16.4941 2.78449 16.5608 2.66582 16.6795C2.54714 16.7982 2.48047 16.9591 2.48047 17.127V29.7832Z" fill="black"/>
</svg>
