<svg width="148" height="44" viewBox="0 0 148 44" fill="none" xmlns="http://www.w3.org/2000/svg">
<path d="M9.42969 23.3198L9.45389 24.0006L9.68035 23.386L9.42969 23.3198Z" fill="#202020"/>
<path d="M70.0987 12.7646H16.855C16.5209 12.7646 16.25 13.0375 16.25 13.3741C16.25 13.7106 16.5209 13.9835 16.855 13.9835H70.0987C70.4329 13.9835 70.7038 13.7106 70.7038 13.3741C70.7038 13.0375 70.4329 12.7646 70.0987 12.7646Z" fill="#202020"/>
<path d="M44.2541 8.75977H42.8711V16.5951H44.2541V8.75977Z" fill="#202020"/>
<path d="M9.50783 23.386H10.7179V33.3108H9.50783L9.35916 27.1104C9.35916 26.8231 9.36954 26.5288 9.36781 26.2276C9.36781 25.7296 9.35571 25.2456 9.33496 24.7789C9.39201 24.314 9.45078 23.8509 9.50783 23.386Z" fill="#202020"/>
<path d="M1.30101 22.0139H0.0390625C0.0701789 22.4092 0.113396 22.8723 0.168714 23.3895H1.43239C1.38226 22.8636 1.33212 22.4092 1.30101 22.0139Z" fill="#202020"/>
<path d="M2.87696 32.5654C2.83201 32.3495 2.7888 32.1336 2.74558 31.9177H1.46289C1.52397 32.2207 1.58563 32.5231 1.64786 32.8249C1.68243 32.9897 1.71701 33.1516 1.75158 33.3107H3.03773C2.98414 33.0704 2.93919 32.8231 2.87696 32.5654Z" fill="#202020"/>
<path d="M1.43307 23.386H0.172852C0.407954 25.5956 0.852227 28.7994 1.46591 31.9178H2.7486C2.12454 28.8185 1.67335 25.6112 1.43307 23.386Z" fill="#202020"/>
<path d="M84.329 32.5654C84.2754 32.8231 84.2218 33.0704 84.1699 33.3107H85.4561C85.4906 33.1516 85.5252 32.9897 85.5598 32.8249C85.622 32.5231 85.6831 32.2207 85.743 31.9177H84.4621C84.4189 32.1336 84.3739 32.3495 84.329 32.5654Z" fill="#202020"/>
<path d="M84.4619 31.9178H85.7429C86.3566 28.7994 86.8026 25.5938 87.036 23.386H85.774C85.5337 25.6112 85.0808 28.8185 84.4619 31.9178Z" fill="#202020"/>
<path d="M5.53139 43.3157C5.55973 43.4592 5.6365 43.5885 5.74868 43.6815C5.86085 43.7745 6.00152 43.8255 6.1468 43.8259H8.51511C8.66039 43.8255 8.80106 43.7745 8.91324 43.6815C9.02541 43.5885 9.10219 43.4592 9.13052 43.3157L9.51084 41.4004C9.87997 41.4094 10.2491 41.3843 10.6137 41.3255H76.5944C76.959 41.3843 77.3282 41.4094 77.6973 41.4004L78.0776 43.3157C78.106 43.4592 78.1827 43.5885 78.2949 43.6815C78.4071 43.7745 78.5478 43.8255 78.693 43.8259H81.0596C81.205 43.826 81.3459 43.7754 81.4584 43.6827C81.5709 43.59 81.648 43.461 81.6768 43.3175L82.0726 41.3203H5.13379L5.53139 43.3157ZM79.8046 41.4196H80.7727L80.5462 42.5618H79.2082L78.9818 41.4196H79.8046ZM7.40356 41.4196H8.22642L7.99996 42.5618H6.66195L6.43549 41.4196H7.40356Z" fill="#202020"/>
<path d="M81.5354 40.1466C81.5233 40.1466 80.7385 40.1466 79.8067 40.1466C78.5154 40.1466 77.7911 40.1344 77.3866 40.1205C77.5369 37.4269 77.6407 35.1772 77.7115 33.3037H76.4548C76.3839 35.1598 76.2819 37.3851 76.1315 40.0543H11.0791C10.9305 37.3885 10.8268 35.1616 10.7559 33.3037H9.49739C9.57 35.1772 9.67026 37.4251 9.82411 40.1205C9.4196 40.1344 8.69355 40.1466 7.40394 40.1466C6.50503 40.1466 5.74613 40.1466 5.67525 40.1466C5.66315 40.1466 4.53432 40.063 3.04591 33.3107H1.75977C3.04937 39.2865 4.20759 40.9301 5.14109 41.3202H82.073V41.3097C83.01 40.9267 84.1648 39.2795 85.4544 33.3107H84.17C82.7075 39.9429 81.5942 40.1414 81.5354 40.1466Z" fill="#202020"/>
<path d="M77.8408 26.2083C77.8408 25.9663 77.8408 25.7539 77.8271 25.571L77.846 26.7272C77.8443 26.5374 77.8425 26.365 77.8408 26.2083Z" fill="#202020"/>
<path d="M77.8464 26.729L77.8242 29.4575C77.8464 28.3222 77.8499 27.4272 77.8464 26.729Z" fill="#202020"/>
<path d="M9.43714 24.4828C9.43714 24.5263 9.41985 24.6569 9.4043 24.9355C9.39565 25.0974 9.38701 25.3046 9.38009 25.571C9.38009 25.7451 9.36972 25.9384 9.36626 26.1613V26.2083C9.36626 26.2988 9.36626 26.3946 9.36626 26.4938C9.35416 27.6378 9.36626 29.3668 9.4527 31.9177H12.2048C10.8028 31.6896 10.7025 30.819 10.6956 30.6988V30.7093H10.6714C10.6282 29.0865 10.6161 27.8642 10.6178 26.957H42.9133V31.1898C42.9133 31.4092 42.8804 31.6983 42.7231 31.8428C42.6937 31.8684 42.6612 31.8901 42.6263 31.9072H44.5451C44.5108 31.8915 44.4788 31.871 44.4501 31.8463C44.2893 31.7035 44.2547 31.411 44.2547 31.1898V26.9675H76.5813V23.3858H76.5104C76.4966 23.6244 76.4931 23.8403 76.4931 24.0196C76.4084 23.9238 76.3202 23.8263 76.2234 23.7306C76.1266 23.6348 75.9797 23.499 75.85 23.3823H72.8404C73.0452 23.4032 73.2481 23.4405 73.4471 23.4938C73.6632 23.5514 73.8738 23.6283 74.0764 23.7236C74.3107 23.8332 74.5341 23.9649 74.7437 24.1171C75.1163 24.3879 75.4501 24.7089 75.7359 25.0713L75.8362 25.2001C75.9659 25.3743 76.0799 25.5484 76.1819 25.6981H44.2547V25.5728V24.5141C44.2546 24.4449 44.258 24.3757 44.2651 24.3069C44.3135 23.7845 44.5555 23.4676 44.9825 23.3823H42.1803C42.609 23.4676 42.851 23.7758 42.8994 24.3069C42.8994 24.3748 42.9098 24.4445 42.9098 24.5193V25.5728V25.6981H10.9549C11.0466 25.5379 11.1555 25.3655 11.2817 25.1879C11.3231 25.1287 11.3664 25.0713 11.4113 25.0138C11.6926 24.6459 12.0264 24.322 12.4018 24.0527C12.6295 23.8909 12.8741 23.7548 13.1314 23.647C13.3348 23.5619 13.5454 23.4955 13.7606 23.4485C13.9011 23.4194 14.0431 23.3979 14.1859 23.3841H11.2263C11.1209 23.4746 11.0189 23.5686 10.9238 23.6644C10.8287 23.7602 10.7803 23.8107 10.7129 23.8855C10.7129 23.7358 10.7129 23.5669 10.6956 23.3841H9.43541C9.46195 23.7498 9.46252 24.117 9.43714 24.4828Z" fill="#202020"/>
<path d="M76.5812 28.5557C76.5812 29.1825 76.5587 29.8999 76.5362 30.72H76.474V30.7095C76.474 30.821 76.3668 31.6916 74.9648 31.9284H76.4999L76.5812 30.7095V28.5557Z" fill="#202020"/>
<path d="M76.5098 23.3859H77.7717C77.7972 22.9694 77.855 22.5554 77.9446 22.1479H76.6602C76.6187 22.3726 76.5858 22.5902 76.5599 22.7992C76.534 23.0081 76.5201 23.2118 76.5098 23.3859Z" fill="#202020"/>
<path d="M11.9603 22.8391C11.7006 23.0003 11.4549 23.1832 11.2256 23.3858H14.1851C14.2525 23.3858 14.3182 23.3702 14.3891 23.3667C14.46 23.3632 14.5222 23.3667 14.5913 23.3667H41.9047C41.9918 23.3675 42.0786 23.3768 42.164 23.3945H44.9887C45.0746 23.3769 45.162 23.3676 45.2497 23.3667H72.4074C72.5492 23.3667 72.684 23.3667 72.8171 23.3876H72.8396H75.8493C75.641 23.2075 75.4197 23.0434 75.1872 22.8966C74.8363 22.6729 74.4595 22.4934 74.0652 22.362V22.1426L48.8073 22.0973H45.3845H45.2583C44.913 22.0966 44.5714 22.169 44.2557 22.3098V22.0939H42.9142V22.3115C42.5991 22.1706 42.2581 22.0982 41.9133 22.0991H41.7871H14.5913C14.5257 22.0991 14.4617 22.0991 14.3977 22.0991V22.0347H13.1375V22.308C12.724 22.4331 12.3283 22.6116 11.9603 22.8391Z" fill="#202020"/>
<path d="M86.876 20.0438L86.8535 20.0055C86.8432 19.9881 86.8345 19.9707 86.8224 19.9533C86.6877 19.7241 86.5264 19.512 86.3418 19.3212C85.2666 17.9649 82.5543 14.8969 79.7089 14.4459C79.6414 14.4302 79.574 14.418 79.5049 14.4041V5.04518C79.5586 3.84669 79.1476 2.67412 78.3587 1.77522C77.2991 0.599914 75.624 0.00268555 73.3836 0.00268555H46.1152C45.2059 0.00268555 44.1998 0.336995 43.5827 1.17799C42.9672 0.336995 41.9612 0.00268555 41.0519 0.00268555H13.7852C11.5379 0.00268555 9.86972 0.599914 8.81003 1.77522C8.0212 2.67412 7.61022 3.84669 7.66391 5.04518V14.4058L7.49104 14.4407C4.64561 14.8934 1.93329 17.9614 0.858047 19.316C0.674039 19.5068 0.513285 19.719 0.379199 19.9481C0.368827 19.9637 0.360183 19.9812 0.351539 19.9968C0.342449 20.0107 0.334361 20.0253 0.327338 20.0404C0.083179 20.4913 -0.0294804 21.0025 0.00234555 21.5151C0.010989 21.6649 0.0230893 21.8286 0.0369189 22.0062H1.29886V21.9487C1.28331 21.7624 1.2712 21.59 1.26256 21.435C1.25098 21.2558 1.27147 21.0759 1.32307 20.904C1.42859 20.5851 1.61654 20.3002 1.8676 20.0787C2.64551 19.3543 4.06304 18.9138 5.49786 18.8163C6.66991 18.8476 7.59476 19.2377 8.24648 19.9742C8.73785 20.5645 9.07849 21.2669 9.23874 22.0201H10.5283C10.351 21.0545 9.95525 20.1429 9.37185 19.3561C9.31308 19.2812 9.25257 19.2081 9.18861 19.1349C8.29142 18.1163 7.04849 17.5818 5.49959 17.5487H5.44427C4.97979 17.579 4.51781 17.64 4.06131 17.7315C5.1452 16.7599 6.44172 15.8737 7.71749 15.6787L7.76936 15.6682C7.8506 15.6473 7.94222 15.6316 8.01483 15.616C8.35154 15.5507 8.6936 15.5175 9.03649 15.5167C9.13157 15.5167 9.22664 15.5167 9.31999 15.5167C10.4886 15.5777 11.5431 16.0164 12.2432 16.7443C12.5639 17.0806 12.8116 17.4804 12.9705 17.9184C13.1294 18.3564 13.1961 18.8228 13.1663 19.2882V19.3021L13.1369 22.0358H14.3937L14.4144 19.3352C14.4466 18.702 14.3499 18.069 14.1302 17.4749C13.9105 16.8808 13.5725 16.3383 13.1369 15.8806C12.1447 14.8516 10.6476 14.2613 9.02784 14.2613H8.91548V5.02081C8.91548 5.0034 8.91548 4.98076 8.91548 4.96335C8.88557 4.10117 9.18432 3.26013 9.75044 2.61274C10.5647 1.72124 11.9217 1.26853 13.7835 1.26853H41.0519C41.7433 1.26853 42.9119 1.51752 42.9119 3.18384V12.7604H16.8709C16.71 12.7689 16.5584 12.8393 16.4474 12.9571C16.3365 13.0748 16.2746 13.231 16.2746 13.3933C16.2746 13.5557 16.3365 13.7118 16.4474 13.8296C16.5584 13.9474 16.71 14.0178 16.8709 14.0263H42.9119V22.088H44.2534V14.0263H70.0697C70.155 14.0308 70.2403 14.0177 70.3204 13.988C70.4005 13.9582 70.4738 13.9123 70.5358 13.8531C70.5977 13.7939 70.6471 13.7226 70.6808 13.6435C70.7145 13.5645 70.7319 13.4794 70.7319 13.3933C70.7319 13.3073 70.7145 13.2222 70.6808 13.1431C70.6471 13.0641 70.5977 12.9928 70.5358 12.9336C70.4738 12.8744 70.4005 12.8285 70.3204 12.7987C70.2403 12.7689 70.155 12.7559 70.0697 12.7604H44.2534V3.18907C44.2534 1.51404 45.4203 1.27376 46.1152 1.27376H73.3818C75.2436 1.27376 76.6007 1.72646 77.4149 2.61795C77.9803 3.26437 78.279 4.10407 78.2498 4.96509C78.2498 4.98599 78.2498 5.00513 78.2498 5.02603V14.2631H78.1738C76.5557 14.2631 75.0621 14.8533 74.0664 15.8824C73.6304 16.3402 73.292 16.8829 73.0721 17.4773C72.8521 18.0717 72.7551 18.7051 72.7872 19.3387L72.8079 22.1141C72.6783 22.1141 72.5452 22.0984 72.4086 22.0984H48.805L74.063 22.1437L74.0422 19.323V19.3091C74.0136 18.8446 74.0808 18.3793 74.2397 17.9423C74.3986 17.5054 74.6457 17.1063 74.9653 16.7704C75.6568 16.0513 76.694 15.6142 77.8522 15.5516C77.9577 15.5516 78.0649 15.5411 78.1721 15.5411C78.5032 15.5413 78.8336 15.5722 79.1591 15.6334C79.2542 15.6508 79.3476 15.67 79.4392 15.6926L79.491 15.703C80.7668 15.8981 82.0633 16.7843 83.1472 17.7559C82.6908 17.6642 82.2288 17.6031 81.7643 17.5731H81.7107C80.1549 17.6062 78.9188 18.1407 78.0199 19.161C77.93 19.262 77.8471 19.3682 77.7658 19.4762C77.2011 20.2761 76.8224 21.1938 76.6577 22.1611H77.9421C78.0969 21.3642 78.4482 20.6194 78.9638 19.9951C79.6155 19.2586 80.5404 18.8685 81.7107 18.8372C83.142 18.9347 84.5596 19.3752 85.3409 20.0996C85.5924 20.3214 85.7805 20.6069 85.8855 20.9266C85.9361 21.0958 85.9572 21.2725 85.9477 21.449C85.9373 21.6039 85.9252 21.7763 85.9114 21.9626C85.9114 22.0288 85.8993 22.0984 85.8941 22.1681H87.1543C87.1751 21.9313 87.1906 21.7154 87.201 21.5256C87.2344 21.0106 87.1217 20.4967 86.876 20.0438Z" fill="#202020"/>
<path d="M85.7744 23.3858H87.0364C87.0848 22.9349 87.1245 22.5152 87.1539 22.167H85.8937C85.8626 22.5152 85.8228 22.9349 85.7744 23.3858Z" fill="#202020"/>
<path d="M10.6959 23.3859C10.6959 23.2466 10.6769 23.0986 10.6613 22.9437C10.6319 22.6581 10.587 22.3482 10.523 22.0295H9.2334C9.33915 22.4756 9.40681 22.93 9.43566 23.3877L10.6959 23.3859Z" fill="#202020"/>
<path d="M12.9429 33.2393H42.2027C42.2356 33.2393 42.2823 33.2393 42.3393 33.2393C42.7818 33.2453 43.2115 33.09 43.5494 32.8022L43.5857 32.7692L43.622 32.8022C43.9601 33.0896 44.3897 33.2448 44.8321 33.2393C44.8891 33.2393 44.9358 33.2393 44.9704 33.2393H74.2268C75.2 33.2393 75.9192 33.0303 76.4464 32.7169L76.5 31.9107H74.9649C74.7207 31.9491 74.4739 31.9678 74.2268 31.9665H44.9462C44.9191 31.9647 44.892 31.9647 44.8649 31.9665C44.7579 31.9707 44.6514 31.9498 44.5538 31.9055H42.6349C42.5442 31.9465 42.4457 31.9673 42.3462 31.9665H42.322C42.295 31.9639 42.2678 31.9639 42.2408 31.9665H12.9429C12.6958 31.9678 12.4489 31.9491 12.2048 31.9107H9.44922C9.46305 32.3495 9.47918 32.8138 9.49762 33.3037H10.7561C10.7561 33.1069 10.7423 32.9137 10.7354 32.7256C11.2609 33.0338 11.9783 33.2393 12.9429 33.2393Z" fill="#202020"/>
<path d="M76.5898 26.9675V28.5555C76.5898 27.9409 76.5915 27.415 76.5898 26.9675Z" fill="#202020"/>
<path d="M77.7693 24.4829C77.7693 24.5265 77.7883 24.6571 77.8021 24.9357C77.8107 25.0958 77.8194 25.303 77.828 25.5642L77.7917 23.386H77.7727C77.7462 23.7511 77.7451 24.1176 77.7693 24.4829Z" fill="#202020"/>
<path d="M76.59 26.9676C76.59 27.4151 76.59 27.941 76.59 28.5556V30.699L76.5088 31.9178H77.7672C77.7966 30.9915 77.8174 30.1766 77.8329 29.4575L77.8554 26.7291V26.7204L77.8364 25.5642C77.8278 25.303 77.8191 25.0958 77.8105 24.9357C77.7966 24.664 77.7828 24.5265 77.7776 24.4829C77.7523 24.1177 77.7523 23.7512 77.7776 23.386H76.5814V26.9676H76.59Z" fill="#202020"/>
<path d="M76.4999 31.9177L76.4463 32.7239L76.474 32.71C76.474 32.905 76.4584 33.107 76.4515 33.3107H77.7082C77.7272 32.8214 77.7445 32.3582 77.7584 31.9177H76.4999Z" fill="#202020"/>
<path d="M9.50783 23.386L9.33496 24.9531L9.37818 29.2033C9.37818 29.2033 9.40065 31.4146 9.45424 32.1007L9.50783 33.3195H10.7179V23.386H9.50783Z" fill="#202020"/>
<path d="M70.0987 12.7646H16.855C16.5209 12.7646 16.25 13.0375 16.25 13.3741C16.25 13.7106 16.5209 13.9835 16.855 13.9835H70.0987C70.4329 13.9835 70.7038 13.7106 70.7038 13.3741C70.7038 13.0375 70.4329 12.7646 70.0987 12.7646Z" fill="#202020"/>
<path d="M44.2541 8.75977H42.8711V17.814H44.2541V8.75977Z" fill="#202020"/>
<path d="M131.128 12.9387H112.147C111.986 12.9472 111.835 13.0176 111.724 13.1354C111.613 13.2531 111.551 13.4093 111.551 13.5716C111.551 13.734 111.613 13.8901 111.724 14.0079C111.835 14.1257 111.986 14.1961 112.147 14.2046H131.128C131.289 14.1961 131.441 14.1257 131.552 14.0079C131.662 13.8901 131.724 13.734 131.724 13.5716C131.724 13.4093 131.662 13.2531 131.552 13.1354C131.441 13.0176 131.289 12.9472 131.128 12.9387Z" fill="#202020"/>
<path d="M100.807 43.4896C100.836 43.6332 100.912 43.7624 101.025 43.8554C101.137 43.9484 101.277 43.9994 101.423 43.9998H103.791C103.936 43.9994 104.077 43.9484 104.189 43.8554C104.301 43.7624 104.378 43.6332 104.406 43.4896L104.787 41.5743C105.123 41.5775 105.46 41.5589 105.795 41.5186L100.413 41.5029L100.807 43.4896ZM102.679 41.5935H103.502L103.276 42.7357H101.938L101.711 41.5935H102.679Z" fill="#202020"/>
<path d="M142.334 40.3207C142.263 40.3207 141.504 40.3207 140.605 40.3207C139.314 40.3207 138.588 40.3085 138.185 40.2946C138.34 37.5087 138.446 35.2121 138.519 33.3037H137.258C137.189 35.1946 137.085 37.4826 136.93 40.2284H106.354C106.201 37.4791 106.095 35.1946 106.026 33.3037H104.766C104.838 35.219 104.939 37.5157 105.099 40.2946C104.695 40.3085 103.969 40.3207 102.679 40.3207C101.78 40.3207 101.021 40.3207 100.951 40.3207C100.938 40.3207 99.7889 40.2354 98.2832 33.3107H96.9971C98.304 39.4292 99.4726 41.1008 100.416 41.4943V41.5134L105.798 41.5291L105.893 41.51H137.388C137.753 41.5688 138.122 41.5938 138.491 41.5848V41.6214H139.774V41.597H141.564V41.6266H142.845L142.873 41.4873C143.817 41.1025 144.986 39.431 146.292 33.3037H145.006C143.495 40.2354 142.346 40.3207 142.334 40.3207Z" fill="#202020"/>
<path d="M141.339 42.7341H140.001L139.78 41.6162H138.497L138.87 43.4932C138.899 43.6367 138.976 43.766 139.088 43.859C139.2 43.9519 139.341 44.003 139.486 44.0034H141.854C141.999 44.003 142.14 43.9519 142.252 43.859C142.364 43.766 142.441 43.6367 142.47 43.4932L142.84 41.6284H141.559L141.339 42.7341Z" fill="#202020"/>
<path d="M104.712 24.6569C104.712 24.7005 104.694 24.8311 104.679 25.1097C104.679 25.2716 104.662 25.4788 104.655 25.7452C104.655 25.9193 104.644 26.1126 104.641 26.3355V26.3825C104.641 26.473 104.641 26.5688 104.641 26.668C104.627 27.9844 104.641 30.0773 104.769 33.3107H106.029C106.029 33.1749 106.019 33.0391 106.013 32.9067C106.362 33.1015 106.74 33.2379 107.132 33.3107H136.146C136.538 33.2379 136.916 33.1015 137.265 32.9067C137.265 33.0391 137.254 33.1749 137.249 33.3107H138.509C138.63 30.0773 138.651 27.9844 138.637 26.668C138.637 26.5688 138.637 26.473 138.637 26.3825V26.3355C138.637 26.1126 138.629 25.9176 138.623 25.7452C138.623 25.4788 138.608 25.2716 138.599 25.1097C138.584 24.8363 138.57 24.7005 138.566 24.6569C138.509 23.761 138.594 22.8614 138.82 21.9929H137.524C137.438 22.3635 137.377 22.7392 137.339 23.1177C137.303 23.4764 137.289 23.7985 137.287 24.0615C137.22 23.9866 137.149 23.9135 137.076 23.8403C136.764 23.5251 136.415 23.2475 136.039 23.0133C135.67 22.7856 135.274 22.6071 134.86 22.4822V21.9929H133.6V22.275C133.536 22.275 133.472 22.275 133.406 22.275H109.867C109.801 22.275 109.737 22.275 109.673 22.275V21.9929H108.413V22.4822C107.999 22.6071 107.602 22.7856 107.234 23.0133C106.857 23.2475 106.509 23.5251 106.197 23.8403C106.124 23.9135 106.053 23.9866 105.986 24.0615C105.986 23.7985 105.97 23.4764 105.934 23.1177C105.897 22.7392 105.836 22.3635 105.751 21.9929H104.454C104.681 22.8613 104.768 23.7608 104.712 24.6569ZM106.556 25.3656C106.598 25.3064 106.641 25.249 106.686 25.1915C106.967 24.8236 107.301 24.4997 107.676 24.2304C107.904 24.0685 108.149 23.9325 108.406 23.8247C108.609 23.7396 108.82 23.6731 109.035 23.6262C109.242 23.5815 109.453 23.5535 109.664 23.5426C109.73 23.5426 109.797 23.5426 109.867 23.5426H133.408C133.477 23.5426 133.545 23.5426 133.61 23.5426C133.822 23.5535 134.032 23.5815 134.239 23.6262C134.455 23.6731 134.665 23.7396 134.869 23.8247C135.126 23.9325 135.371 24.0685 135.598 24.2304C135.974 24.4997 136.308 24.8236 136.589 25.1915C136.634 25.2507 136.677 25.3082 136.718 25.3656C136.845 25.5397 136.954 25.7139 137.045 25.8758H106.229C106.321 25.7156 106.43 25.5432 106.556 25.3656ZM105.892 27.1416H137.382C137.382 28.0488 137.372 29.2711 137.329 30.8939H137.304V30.8835C137.304 31.0123 137.164 32.1493 135.057 32.1493H108.217C106.11 32.1493 105.97 31.0123 105.97 30.8835V30.8939H105.946C105.903 29.2711 105.891 28.0488 105.892 27.1416Z" fill="#202020"/>
<path d="M118.784 33.4135H135.057C135.422 33.4153 135.787 33.3809 136.146 33.3108H107.128C107.487 33.3809 107.852 33.4153 108.217 33.4135H118.784Z" fill="#202020"/>
<path d="M147.67 20.2187C147.663 20.2036 147.655 20.1891 147.646 20.1751C147.637 20.1595 147.629 20.1421 147.618 20.1264C147.484 19.8973 147.323 19.6851 147.139 19.4943C146.064 18.138 143.352 15.07 140.506 14.619L140.334 14.5842V5.21828C140.386 4.01931 139.974 2.84668 139.184 1.94832C138.124 0.77301 136.449 0.175781 134.209 0.175781H109.062C106.814 0.175781 105.146 0.77301 104.086 1.94832C103.298 2.84722 102.887 4.01979 102.94 5.21828V14.5789L102.767 14.6138C99.922 15.0665 97.2097 18.1345 96.1344 19.4891C95.9504 19.6799 95.7897 19.892 95.6556 20.1212C95.6452 20.1368 95.6365 20.1543 95.6279 20.1699C95.6188 20.1838 95.6107 20.1984 95.6037 20.2135C95.3595 20.6644 95.2469 21.1756 95.2787 21.6882C95.2787 21.7823 95.2908 21.8833 95.2995 21.9877H96.5597C96.5493 21.8537 96.5407 21.7266 96.5337 21.6116C96.5222 21.4324 96.5427 21.2525 96.5942 21.0806C96.6998 20.7616 96.8877 20.4768 97.1388 20.2552C97.9167 19.5309 99.3342 19.0904 100.769 18.9929C101.941 19.0242 102.866 19.4142 103.518 20.1508C103.966 20.6847 104.286 21.3148 104.455 21.993H105.751C105.563 21.1035 105.184 20.2663 104.641 19.5396C104.583 19.4647 104.522 19.3916 104.458 19.3185C103.561 18.2999 102.318 17.7653 100.769 17.7323H100.714C100.249 17.7625 99.7873 17.8236 99.3308 17.9151C100.415 16.9435 101.711 16.0572 102.987 15.8622L103.039 15.8518C103.12 15.8309 103.212 15.8152 103.284 15.7995C103.621 15.7343 103.963 15.701 104.306 15.7003C104.401 15.7003 104.496 15.7003 104.589 15.7003C105.758 15.7612 106.813 16.2 107.513 16.9278C107.833 17.2641 108.081 17.664 108.24 18.1019C108.399 18.5399 108.466 19.0064 108.436 19.4717V19.4856L108.413 21.993H109.67L109.689 19.51C109.722 18.8767 109.625 18.2434 109.406 17.649C109.187 17.0546 108.849 16.5117 108.413 16.0537C107.421 15.0247 105.924 14.4344 104.304 14.4344H104.192V5.19391C104.192 5.1765 104.192 5.15386 104.192 5.13644C104.162 4.27426 104.461 3.43323 105.027 2.78583C105.841 1.89434 107.198 1.44162 109.06 1.44162H134.212C136.074 1.44162 137.431 1.89434 138.245 2.78583C138.811 3.43323 139.11 4.27426 139.08 5.13644C139.08 5.15386 139.08 5.1765 139.08 5.19391V14.4379H138.968C137.348 14.4379 135.856 15.0282 134.859 16.0572C134.423 16.5151 134.085 17.0579 133.865 17.6523C133.646 18.2467 133.549 18.8801 133.581 19.5135L133.6 21.993H134.862L134.843 19.4943V19.4804C134.814 19.0166 134.88 18.5517 135.038 18.115C135.196 17.6783 135.442 17.2794 135.761 16.9435C136.453 16.2157 137.516 15.7769 138.684 15.7159C138.778 15.7159 138.873 15.7159 138.968 15.7159C139.311 15.7167 139.653 15.7499 139.99 15.8152C140.071 15.8309 140.162 15.8465 140.235 15.8674L140.287 15.8779C141.563 16.0729 142.859 16.9592 143.943 17.9307C143.487 17.8392 143.025 17.7782 142.56 17.7479H142.505C140.949 17.781 139.713 18.3155 138.816 19.3341C138.752 19.4073 138.691 19.4804 138.633 19.5553C138.092 20.2775 137.714 21.1092 137.524 21.993H138.821C138.991 21.3165 139.312 20.6882 139.76 20.156C140.411 19.4195 141.336 19.0294 142.508 18.9981C143.94 19.0956 145.357 19.5361 146.139 20.2605C146.39 20.482 146.578 20.7669 146.683 21.0858C146.735 21.2577 146.755 21.4376 146.744 21.6169C146.744 21.7318 146.728 21.8589 146.718 21.993H147.978C147.978 21.8885 147.993 21.7875 147.999 21.6935C148.029 21.1805 147.916 20.6692 147.67 20.2187Z" fill="#202020"/>
<path d="M98.1514 32.7396C97.4287 29.2356 96.9012 25.6937 96.5714 22.1305L96.561 21.9929H95.3008C95.6287 25.6902 96.1701 29.3651 96.9223 32.999C96.9448 33.1052 96.9655 33.208 96.988 33.3107H98.2741C98.2326 33.1244 98.1929 32.9346 98.1514 32.7396Z" fill="#202020"/>
<path d="M146.703 22.1305C146.373 25.6937 145.845 29.2356 145.123 32.7396C145.081 32.9346 145.041 33.1244 145 33.3107H146.286C146.309 33.208 146.329 33.1052 146.352 32.999C147.104 29.3651 147.645 25.6902 147.973 21.9929H146.713L146.703 22.1305Z" fill="#202020"/>
<path d="M104.438 21.9929C104.611 22.739 104.709 23.5009 104.73 24.2669L104.64 26.5305C104.64 26.5305 104.61 32.9729 104.783 33.3211H105.993L105.895 27.9948L105.981 23.7655L105.82 21.9929H104.438Z" fill="#202020"/>
<path d="M138.492 33.3107L138.665 26.6941L138.546 24.1851C138.546 24.1851 138.665 22.3412 138.838 21.9929H137.455L137.282 24.0824V33.3107H138.492Z" fill="#202020"/>
</svg>
