<svg width="29" height="29" viewBox="0 0 29 29" fill="none" xmlns="http://www.w3.org/2000/svg">
<path d="M14.5 1C11.83 1 9.21987 1.79175 6.99981 3.27515C4.77975 4.75854 3.04942 6.86697 2.02763 9.33377C1.00585 11.8006 0.738504 14.5149 1.2594 17.1337C1.7803 19.7524 3.06605 22.158 4.95406 24.046C6.84207 25.934 9.24754 27.2197 11.8663 27.7406C14.485 28.2615 17.1994 27.9942 19.6662 26.9724C22.133 25.9506 24.2414 24.2203 25.7248 22.0002C27.2082 19.7802 28 17.1701 28 14.5C28.0008 12.727 27.6521 10.9711 26.974 9.3329C26.2958 7.69466 25.3014 6.20613 24.0477 4.95238C22.7939 3.69864 21.3054 2.70421 19.6671 2.02604C18.0289 1.34788 16.2731 0.999225 14.5 1ZM6.76208 23.2603C6.86948 21.2915 7.7324 19.4401 9.17106 18.0917C10.6097 16.7434 12.5131 16.0022 14.4848 16.0225C16.4564 16.0428 18.3442 16.8231 19.7547 18.2008C21.1653 19.5785 21.9899 21.4474 22.0567 23.418C19.9156 25.2378 17.1898 26.2238 14.38 26.1948C11.5702 26.1659 8.86519 25.1239 6.76208 23.2603ZM10.5798 10.7611C10.5798 10.0041 10.8043 9.26402 11.2249 8.63457C11.6455 8.00513 12.2433 7.51454 12.9427 7.22484C13.6421 6.93513 14.4117 6.85928 15.1541 7.00697C15.8966 7.15466 16.5786 7.51926 17.1139 8.05456C17.6492 8.58986 18.0138 9.27182 18.1615 10.0143C18.3091 10.7568 18.2334 11.5265 17.9437 12.2259C17.654 12.9253 17.1634 13.523 16.5339 13.9436C15.9045 14.3642 15.1644 14.5886 14.4074 14.5886C13.3934 14.5871 12.4214 14.1839 11.704 13.4673C10.9867 12.7507 10.5824 11.7789 10.5798 10.765V10.7611ZM23.3509 22.1355C23.0767 20.5331 22.3778 19.0336 21.3269 17.7932C20.276 16.5528 18.9117 15.6169 17.3761 15.0831C18.3002 14.4495 18.9973 13.5367 19.3653 12.4784C19.7332 11.42 19.7528 10.2717 19.4211 9.20141C19.0894 8.13115 18.4239 7.19512 17.5219 6.53036C16.6199 5.86559 15.5289 5.50701 14.4084 5.50701C13.2879 5.50701 12.1968 5.86559 11.2949 6.53036C10.3929 7.19512 9.72737 8.13115 9.39568 9.20141C9.064 10.2717 9.08358 11.42 9.45155 12.4784C9.81952 13.5367 10.5166 14.4495 11.4407 15.0831C9.93384 15.6065 8.59121 16.5171 7.54764 17.7235C6.50408 18.9299 5.79631 20.3897 5.49541 21.9562C4.07045 20.2388 3.16637 18.1498 2.8898 15.9355C2.61324 13.7211 2.97574 11.4739 3.93454 9.45881C4.89333 7.44374 6.40843 5.74483 8.30111 4.56263C10.1938 3.38043 12.3851 2.7642 14.6165 2.78661C16.848 2.80901 19.0265 3.46916 20.895 4.68912C22.7636 5.90908 24.2443 7.63795 25.1624 9.67187C26.0806 11.7058 26.3979 13.9599 26.0769 16.1682C25.7559 18.3766 24.8101 20.4471 23.3509 22.1355Z" fill="#ED2024" stroke="#ED2024" stroke-width="0.3"/>
</svg>
