<svg width="58" height="57" viewBox="0 0 58 57" fill="none" xmlns="http://www.w3.org/2000/svg">
<path d="M18.5023 44.337C15.1581 44.337 12.4473 47.048 12.4473 50.3921C12.4473 53.7363 15.1583 56.4472 18.5023 56.4472C21.8465 56.4472 24.5574 53.7362 24.5574 50.3921C24.5576 47.048 21.8465 44.337 18.5023 44.337ZM18.5023 53.7562C16.6445 53.7562 15.1384 52.2501 15.1384 50.3922C15.1384 48.5344 16.6445 47.0283 18.5023 47.0283C20.3602 47.0283 21.8663 48.5344 21.8663 50.3922C21.8664 52.2501 20.3602 53.7562 18.5023 53.7562Z" fill="#ED2024"/>
<path d="M44.0688 44.337C40.7246 44.337 38.0137 47.048 38.0137 50.3921C38.0137 53.7363 40.7247 56.4472 44.0688 56.4472C47.4128 56.4472 50.1238 53.7362 50.1238 50.3921C50.1238 47.048 47.413 44.337 44.0688 44.337ZM44.0688 53.7562C42.2109 53.7562 40.7048 52.2501 40.7048 50.3922C40.7048 48.5344 42.2109 47.0283 44.0688 47.0283C45.9266 47.0283 47.4327 48.5344 47.4327 50.3922C47.4328 52.2501 45.9266 53.7562 44.0688 53.7562Z" fill="#ED2024"/>
<path d="M57.7256 9.01553C57.4454 8.70943 57.062 8.51781 56.6491 8.47724L12.8504 7.87173L11.6394 4.17133C10.7862 1.69766 8.46978 0.027687 5.85329 0H1.34559C0.602418 0 0 0.602417 0 1.34559C0 2.08876 0.602418 2.69118 1.34559 2.69118H5.85329C7.31632 2.7235 8.6046 3.66292 9.08275 5.04599L17.6272 30.8139L16.9545 32.3613C16.2041 34.2963 16.4295 36.4742 17.56 38.2146C18.6797 39.924 20.5635 40.9789 22.606 41.0404H48.7777C49.5208 41.0404 50.1233 40.4379 50.1233 39.6948C50.1233 38.9516 49.5208 38.3492 48.7777 38.3492H22.6059C21.4524 38.3203 20.3906 37.7135 19.7801 36.7345C19.1764 35.7673 19.0524 34.5759 19.4437 33.505L19.982 32.294L48.3066 29.3337C51.4178 28.991 53.9772 26.7281 54.6982 23.6822L57.9276 10.1591C58.0732 9.76964 57.9959 9.33168 57.7256 9.01553ZM52.0742 23.0768C51.6374 25.0375 49.9727 26.4838 47.9702 26.6426L19.982 29.5356L13.725 10.5629L54.9672 11.1684L52.0742 23.0768Z" fill="#ED2024"/>
</svg>
