<svg width="28" height="25" viewBox="0 0 28 25" fill="none" xmlns="http://www.w3.org/2000/svg">
<path d="M26.8496 4.55174H4.95699L4.63157 1.02007C4.57834 0.442532 4.08147 0 3.48626 0H1.14991C0.514832 0 0 0.501529 0 1.1202C0 1.73887 0.514832 2.2404 1.14991 2.2404H2.43496C3.13723 9.86212 1.32223 -9.83721 3.75753 16.5944C3.85138 17.6289 4.42519 18.7515 5.41367 19.5143C3.63147 21.7314 5.25986 25 8.15889 25C10.5651 25 12.2622 22.6622 11.437 20.448H17.7306C16.9065 22.6594 18.6 25 21.0088 25C22.9311 25 24.495 23.4765 24.495 21.6038C24.495 19.7312 22.9311 18.2076 21.0088 18.2076H8.16667C7.29318 18.2076 6.53199 17.6943 6.20344 16.9463L24.5806 15.8942C25.0822 15.8655 25.5067 15.5226 25.6287 15.0476L27.9652 5.94361C28.1463 5.23767 27.5978 4.55174 26.8496 4.55174ZM8.15889 22.7596C7.50476 22.7596 6.97251 22.2411 6.97251 21.6038C6.97251 20.9665 7.50476 20.448 8.15889 20.448C8.81308 20.448 9.34533 20.9665 9.34533 21.6038C9.34533 22.2411 8.81308 22.7596 8.15889 22.7596ZM21.0087 22.7596C20.3545 22.7596 19.8223 22.2411 19.8223 21.6038C19.8223 20.9665 20.3545 20.448 21.0087 20.448C21.6629 20.448 22.1952 20.9665 22.1952 21.6038C22.1952 22.2411 21.6629 22.7596 21.0087 22.7596ZM23.6024 13.7059L5.8939 14.7197L5.16343 6.79208H25.3768L23.6024 13.7059Z" fill="#ED2024"/>
</svg>
