<svg width="25" height="23" viewBox="0 0 25 23" fill="none" xmlns="http://www.w3.org/2000/svg">
<path d="M23.4585 4.13373H4.33093L4.04661 1.03229C4.00011 0.525098 3.56599 0.136475 3.04595 0.136475H1.00468C0.449809 0.136475 0 0.576908 0 1.12021C0 1.66352 0.449809 2.10395 1.00468 2.10395H2.12743C2.741 8.79721 1.15524 -8.50238 3.28296 14.7093C3.36496 15.6178 3.86629 16.6037 4.72993 17.2736C3.17282 19.2206 4.59555 22.091 7.12844 22.091C9.2307 22.091 10.7135 20.038 9.99254 18.0936H15.4913C14.7713 20.0355 16.2508 22.091 18.3554 22.091C20.0349 22.091 21.4013 20.7531 21.4013 19.1086C21.4013 17.464 20.0349 16.1261 18.3554 16.1261H7.13523C6.37206 16.1261 5.70701 15.6753 5.41996 15.0184L21.4761 14.0944C21.9144 14.0692 22.2853 13.7681 22.3918 13.351L24.4332 5.35605C24.5915 4.73611 24.1122 4.13373 23.4585 4.13373ZM7.12844 20.1235C6.55692 20.1235 6.0919 19.6682 6.0919 19.1086C6.0919 18.5489 6.55692 18.0936 7.12844 18.0936C7.7 18.0936 8.16503 18.5489 8.16503 19.1086C8.16503 19.6682 7.7 20.1235 7.12844 20.1235ZM18.3553 20.1235C17.7838 20.1235 17.3188 19.6682 17.3188 19.1086C17.3188 18.5489 17.7838 18.0936 18.3553 18.0936C18.9269 18.0936 19.3919 18.5489 19.3919 19.1086C19.3919 19.6682 18.9269 20.1235 18.3553 20.1235ZM20.6214 12.1728L5.14951 13.0631L4.5113 6.10116H22.1717L20.6214 12.1728Z" fill="white"/>
</svg>
