<svg width="64" height="52" viewBox="0 0 64 52" fill="none" xmlns="http://www.w3.org/2000/svg">
<path d="M64 29.5163C64 27.3993 62.8415 25.4919 60.9767 24.5384C59.0751 23.5659 56.6129 23.0728 53.6585 23.0728H21.5429C21.3116 21.9188 20.7992 20.8703 20.0306 20.0159L15.4762 14.953C14.3492 13.7002 12.7298 12.9394 10.9163 12.8112L10.0981 12.7533C9.67925 12.7232 9.25362 12.7823 8.84513 12.9193V10.2429C8.84513 9.30542 8.45025 8.45879 7.819 7.85892C8.45912 7.09167 8.84513 6.10517 8.84513 5.03017C8.84513 2.59154 6.86112 0.607666 4.42263 0.607666C1.98413 0.607666 0 2.59167 0 5.03029C0 6.10542 0.386 7.09179 1.02612 7.85904C0.394875 8.45904 0 9.30554 0 10.243V50.1419C0 50.8322 0.559625 51.3919 1.25 51.3919H5.56437C6.20913 51.3919 6.74813 50.9015 6.80888 50.2595C6.95775 48.6854 7.79012 44.3624 9.85238 42.4238H13.1995C13.8899 42.4238 14.4495 41.864 14.4495 41.1738C14.4495 40.4835 13.8899 39.9238 13.1995 39.9238L2.49988 39.9237V28.9192L19.1844 28.9188V32.1762C19.1844 34.1034 20.7522 35.6714 22.6796 35.6714H22.6799H60.5049C60.8404 35.6714 61.1782 35.6227 61.4999 35.5272V39.9238H54.6116C54.6106 39.9238 54.6096 39.9239 54.6085 39.9239H24.1982C23.5079 39.9239 22.9482 40.4837 22.9482 41.1739C22.9482 41.8642 23.5079 42.4239 24.1982 42.4239H54.1476C56.2018 44.3572 57.0395 48.6843 57.1912 50.2597C57.252 50.9017 57.7909 51.392 58.4357 51.392H62.75C63.4404 51.392 64 50.8323 64 50.142V29.5163ZM8.84813 17.0064C8.86675 16.4738 8.79375 15.9234 9.23263 15.5318C9.67412 15.1378 10.2037 15.2669 10.7397 15.3049C11.9207 15.3885 12.9159 15.8449 13.6175 16.625L18.1719 21.688C18.9101 22.5085 19.2642 23.6523 19.1689 24.9082C19.1322 25.3917 19.141 25.8203 18.7335 26.1614C18.3611 26.4732 17.957 26.415 17.5088 26.4017C16.2498 26.3639 15.1499 25.8912 14.4116 25.0705L9.85725 20.0077C9.12063 19.1885 8.81013 18.0939 8.84813 17.0064ZM2.5 26.419V10.243C2.5 9.80729 2.8545 9.45279 3.29025 9.45279H5.55463C5.99038 9.45279 6.34487 9.80729 6.34487 10.243V26.4189H2.5V26.419ZM8.845 22.6202L12.2622 26.419H8.845V22.6202ZM4.4225 3.10779C5.4825 3.10779 6.345 3.97017 6.345 5.03029C6.345 6.09042 5.48263 6.95279 4.4225 6.95279C3.36238 6.95279 2.5 6.09042 2.5 5.03029C2.5 3.97017 3.36238 3.10779 4.4225 3.10779ZM4.47525 48.892H2.5V42.424H6.6915C5.33875 44.6384 4.727 47.3778 4.47525 48.892ZM22.6798 33.1715C22.1311 33.1715 21.6847 32.7252 21.6847 32.1765L21.6842 25.5728H53.6585C56.2132 25.5728 58.2926 25.9737 59.8385 26.7642C60.8634 27.2882 61.5 28.3427 61.5 29.5163V32.1718C61.5 32.1734 61.4997 32.175 61.4997 32.1767C61.4997 32.7253 61.0534 33.1717 60.5047 33.1717H22.6798V33.1715ZM59.5249 48.892C59.273 47.3778 58.6613 44.6385 57.3086 42.424H61.5V48.892H59.5249Z" fill="#ED2024"/>
<path d="M19.8548 40.6958C19.5962 40.0655 18.8498 39.7605 18.2223 40.0197C17.5926 40.2798 17.2854 41.0228 17.5461 41.6522C17.8066 42.2813 18.5494 42.5891 19.1786 42.3285C19.8064 42.0683 20.1162 41.3238 19.8548 40.6958Z" fill="#ED2024"/>
</svg>
