<svg width="48" height="42" viewBox="0 0 48 42" fill="none" xmlns="http://www.w3.org/2000/svg">
<path d="M44.6826 8.16307H8.9224L8.39084 2.36472C8.3039 1.4165 7.49229 0.689941 6.52004 0.689941H2.70375C1.66639 0.689941 0.825439 1.51336 0.825439 2.5291C0.825439 3.54485 1.66639 4.36826 2.70375 4.36826H4.80281C5.94992 16.8817 2.98523 -15.461 6.96314 27.9348C7.11645 29.6334 8.05372 31.4765 9.66836 32.7288C6.75724 36.369 9.41711 41.7354 14.1525 41.7354C18.0828 41.7354 20.855 37.8971 19.5071 34.2619H29.7874C28.4413 37.8925 31.2074 41.7354 35.142 41.7354C38.282 41.7354 40.8366 39.234 40.8366 36.1595C40.8366 33.0849 38.282 30.5836 35.142 30.5836H14.1652C12.7384 30.5836 11.4951 29.7407 10.9584 28.5127L40.9763 26.7853C41.7958 26.7382 42.4892 26.1752 42.6884 25.3954L46.5049 10.4483C46.8008 9.28925 45.9048 8.16307 44.6826 8.16307ZM14.1525 38.0571C13.084 38.0571 12.2146 37.2058 12.2146 36.1595C12.2146 35.1132 13.084 34.2619 14.1525 34.2619C15.2211 34.2619 16.0905 35.1132 16.0905 36.1595C16.0905 37.2058 15.2211 38.0571 14.1525 38.0571ZM35.1419 38.0571C34.0734 38.0571 33.204 37.2058 33.204 36.1595C33.204 35.1132 34.0734 34.2619 35.1419 34.2619C36.2105 34.2619 37.0799 35.1132 37.0799 36.1595C37.0799 37.2058 36.2105 38.0571 35.1419 38.0571ZM39.3785 23.1926L10.4528 24.8571L9.2596 11.8413H42.2769L39.3785 23.1926Z" fill="white"/>
</svg>
