<svg width="11" height="11" viewBox="0 0 11 11" fill="none" xmlns="http://www.w3.org/2000/svg">
<path d="M10.2876 11C10.47 11 10.6526 10.9302 10.7914 10.7912C11.0702 10.5126 11.0702 10.0621 10.7914 9.78348L1.21724 0.208963C0.938633 -0.0696543 0.488156 -0.0696543 0.209545 0.208963C-0.0691977 0.48758 -0.0691977 0.938066 0.209545 1.21668L9.78373 10.7912C9.92349 10.9308 10.1051 11 10.2876 11Z" fill="#757575" fill-opacity="0.5"/>
<path d="M0.713394 11C0.895829 11 1.07826 10.9302 1.21724 10.7912L10.7914 1.21668C11.0702 0.938066 11.0702 0.48758 10.7914 0.208963C10.5128 -0.0696543 10.0625 -0.0696543 9.78373 0.208963L0.209545 9.78348C-0.0691977 10.0621 -0.0691977 10.5126 0.209545 10.7912C0.348524 10.9308 0.530959 11 0.713394 11Z" fill="#757575" fill-opacity="0.5"/>
</svg>
