<svg width="28" height="28" viewBox="0 0 28 28" fill="none" xmlns="http://www.w3.org/2000/svg">
<path d="M23.5024 1.88672H4.47022C2.48032 1.88672 0.861328 3.50539 0.861328 5.49561V17.1429C0.861328 19.1287 2.47327 20.7448 4.4574 20.7518V26.0372L12.0531 20.7518H23.5024C25.4923 20.7518 27.1113 19.1328 27.1113 17.1429V5.49561C27.1113 3.50539 25.4923 1.88672 23.5024 1.88672ZM25.5732 17.1429C25.5732 18.2846 24.6443 19.2137 23.5024 19.2137H11.5706L5.99549 23.0932V19.2137H4.47022C3.32835 19.2137 2.39941 18.2846 2.39941 17.1429V5.49561C2.39941 4.35358 3.32835 3.4248 4.47022 3.4248H23.5024C24.6443 3.4248 25.5732 4.35358 25.5732 5.49561V17.1429Z" fill="#ED2024" stroke="#ED2024" stroke-width="0.5"/>
<path d="M7.88672 7.32178H20.0853V8.85987H7.88672V7.32178Z" fill="#ED2024" stroke="#ED2024" stroke-width="0.4"/>
<path d="M7.88672 10.8599H20.0853V12.3979H7.88672V10.8599Z" fill="#ED2024" stroke="#ED2024" stroke-width="0.4"/>
<path d="M7.88672 14.3979H20.0853V15.936H7.88672V14.3979Z" fill="#ED2024" stroke="#ED2024" stroke-width="0.4"/>
</svg>
