<svg width="71" height="71" viewBox="0 0 71 71" fill="none" xmlns="http://www.w3.org/2000/svg">
<path d="M67.9868 26.3373C67.7323 26.3373 67.4883 26.2363 67.3084 26.0563C67.1284 25.8764 67.0273 25.6323 67.0273 25.3779V22.5954C67.0273 22.341 67.1284 22.0969 67.3084 21.917C67.4883 21.7371 67.7323 21.636 67.9868 21.636C68.2413 21.636 68.4853 21.7371 68.6652 21.917C68.8452 22.0969 68.9463 22.341 68.9463 22.5954V25.3779C68.9463 25.6323 68.8452 25.8764 68.6652 26.0563C68.4853 26.2363 68.2413 26.3373 67.9868 26.3373Z" fill="#ED2024"/>
<path d="M67.9859 41.8611H47.9907C47.7362 41.8611 47.4922 41.7601 47.3123 41.5801C47.1323 41.4002 47.0312 41.1562 47.0312 40.9017V37.1886C47.0323 36.2245 47.4157 35.3001 48.0974 34.6184C48.7792 33.9367 49.7035 33.5532 50.6676 33.5522H62.5745V10.4772C62.5753 10.0296 62.7534 9.60053 63.0699 9.28401C63.3865 8.96749 63.8155 8.78934 64.2632 8.78857H67.2567C67.7043 8.78934 68.1334 8.96749 68.4499 9.28401C68.7664 9.60053 68.9446 10.0296 68.9453 10.4772V15.879C68.9453 16.1334 68.8442 16.3775 68.6643 16.5574C68.4844 16.7374 68.2403 16.8384 67.9859 16.8384C67.7314 16.8384 67.4874 16.7374 67.3074 16.5574C67.1275 16.3775 67.0264 16.1334 67.0264 15.879V10.7075H64.4934V34.5117C64.4934 34.7661 64.3923 35.0102 64.2124 35.1901C64.0325 35.3701 63.7884 35.4711 63.534 35.4711H50.6676C50.2123 35.4717 49.7757 35.6528 49.4538 35.9747C49.1318 36.2967 48.9507 36.7332 48.9502 37.1886V39.9422H67.0264V32.0938C67.0264 31.8394 67.1275 31.5953 67.3074 31.4154C67.4874 31.2355 67.7314 31.1344 67.9859 31.1344C68.2403 31.1344 68.4844 31.2355 68.6643 31.4154C68.8442 31.5953 68.9453 31.8394 68.9453 32.0938V40.9017C68.9453 41.1562 68.8442 41.4002 68.6643 41.5801C68.4844 41.7601 68.2403 41.8611 67.9859 41.8611Z" fill="#ED2024"/>
<path d="M68.1212 59.7379H64.6777C64.445 59.738 64.2202 59.6537 64.0452 59.5005C63.8701 59.3473 63.7566 59.1357 63.7259 58.905L61.3474 41.0274C61.3277 40.9012 61.3334 40.7722 61.3643 40.6482C61.3951 40.5242 61.4504 40.4076 61.5269 40.3052C61.6034 40.2029 61.6996 40.1168 61.8098 40.0521C61.92 39.9874 62.042 39.9454 62.1687 39.9286C62.2954 39.9117 62.4242 39.9203 62.5475 39.9539C62.6708 39.9874 62.7861 40.0453 62.8868 40.1241C62.9874 40.2028 63.0713 40.3009 63.1335 40.4126C63.1957 40.5242 63.235 40.6471 63.249 40.7741L65.5182 57.8189H67.0293L64.8504 41.0284C64.8318 40.9024 64.8385 40.7739 64.8701 40.6506C64.9017 40.5272 64.9575 40.4113 65.0344 40.3097C65.1112 40.2082 65.2075 40.1229 65.3176 40.0589C65.4277 39.9949 65.5495 39.9535 65.6758 39.9371C65.8021 39.9206 65.9304 39.9295 66.0532 39.9632C66.1761 39.9969 66.291 40.0547 66.3912 40.1332C66.4915 40.2117 66.5751 40.3095 66.6372 40.4206C66.6993 40.5318 66.7387 40.6543 66.753 40.7809L69.073 58.6585C69.09 58.7935 69.0781 58.9306 69.038 59.0607C68.998 59.1908 68.9307 59.3109 68.8407 59.413C68.7507 59.5151 68.6399 59.5968 68.5159 59.6528C68.3918 59.7089 68.2573 59.7378 68.1212 59.7379Z" fill="#ED2024"/>
<path d="M51.0307 59.7378H47.8117C47.675 59.7379 47.5398 59.7088 47.4152 59.6523C47.2906 59.5959 47.1796 59.5135 47.0894 59.4107C46.9993 59.3078 46.9322 59.1869 46.8926 59.056C46.853 58.9251 46.8419 58.7872 46.86 58.6517L49.2279 40.7769C49.2412 40.6494 49.2799 40.5259 49.3418 40.4135C49.4037 40.3012 49.4874 40.2025 49.5881 40.1231C49.6888 40.0437 49.8043 39.9853 49.928 39.9513C50.0516 39.9173 50.1808 39.9085 50.3079 39.9253C50.435 39.9421 50.5575 39.9842 50.6681 40.0491C50.7786 40.114 50.8751 40.2005 50.9517 40.3033C51.0282 40.4061 51.0835 40.5233 51.114 40.6478C51.1446 40.7723 51.1498 40.9017 51.1296 41.0283L48.9065 57.8189H50.1989L52.6369 40.7645C52.673 40.5126 52.8077 40.2853 53.0114 40.1327C53.2151 39.9801 53.471 39.9147 53.723 39.9509C53.9749 39.987 54.2021 40.1217 54.3547 40.3254C54.5073 40.5291 54.5727 40.785 54.5366 41.037L51.9806 58.9107C51.9487 59.14 51.8349 59.3499 51.6604 59.5019C51.4858 59.6539 51.2622 59.7377 51.0307 59.7378Z" fill="#ED2024"/>
<path d="M23.0053 41.8602H3.00829C2.75382 41.8602 2.50978 41.7591 2.32985 41.5791C2.14991 41.3992 2.04883 41.1552 2.04883 40.9007V10.4743C2.04908 10.2523 2.09306 10.0326 2.17827 9.82765C2.26347 9.62269 2.38822 9.43653 2.5454 9.2798C2.70257 9.12307 2.88909 8.99885 3.09429 8.91423C3.29949 8.82961 3.51935 8.78625 3.74131 8.78662H6.73387C7.18132 8.78713 7.61029 8.9651 7.92669 9.2815C8.24308 9.59789 8.42105 10.0269 8.42156 10.4743V33.556H20.3313C21.2945 33.5571 22.218 33.9401 22.8991 34.621C23.5803 35.302 23.9635 36.2254 23.9648 37.1885V40.9007C23.9648 41.1552 23.8637 41.3992 23.6838 41.5791C23.5039 41.7591 23.2598 41.8602 23.0053 41.8602ZM3.96775 39.9412H22.0459V37.1885C22.0451 36.7341 21.8642 36.2986 21.5428 35.9774C21.2214 35.6561 20.7857 35.4755 20.3313 35.475H7.4621C7.20763 35.475 6.96359 35.3739 6.78366 35.1939C6.60373 35.014 6.50264 34.77 6.50264 34.5155V10.7055H3.96775V39.9412Z" fill="#ED2024"/>
<path d="M6.32127 59.7379H2.87777C2.74129 59.738 2.60637 59.7089 2.48202 59.6526C2.35767 59.5964 2.24675 59.5143 2.15667 59.4117C2.06658 59.3092 1.99941 59.1887 1.95963 59.0581C1.91985 58.9276 1.90838 58.79 1.92599 58.6547L4.24596 40.7771C4.26025 40.6505 4.2996 40.5281 4.3617 40.4169C4.42381 40.3057 4.50744 40.2079 4.6077 40.1294C4.70797 40.0509 4.82287 39.9931 4.9457 39.9594C5.06854 39.9257 5.19685 39.9169 5.32315 39.9333C5.44945 39.9497 5.57121 39.9911 5.68134 40.0551C5.79147 40.1191 5.88776 40.2044 5.96459 40.3059C6.04142 40.4075 6.09726 40.5234 6.12884 40.6468C6.16043 40.7702 6.16713 40.8986 6.14857 41.0246L3.96963 57.8151H5.48078L7.7499 40.7771C7.76395 40.65 7.80324 40.5271 7.86545 40.4155C7.92766 40.3039 8.01155 40.2058 8.11218 40.127C8.21281 40.0482 8.32817 39.9904 8.45147 39.9568C8.57478 39.9232 8.70355 39.9146 8.83023 39.9315C8.9569 39.9484 9.07893 39.9904 9.18915 40.0551C9.29937 40.1197 9.39555 40.2058 9.47206 40.3081C9.54857 40.4105 9.60386 40.5271 9.63468 40.6511C9.6655 40.7752 9.67124 40.9041 9.65155 41.0304L7.27305 58.9051C7.24234 59.1357 7.12888 59.3473 6.9538 59.5005C6.77871 59.6537 6.55392 59.7381 6.32127 59.7379Z" fill="#ED2024"/>
<path d="M23.1877 59.7378H19.9687C19.7377 59.7378 19.5144 59.6544 19.3399 59.503C19.1654 59.3516 19.0514 59.1423 19.0189 58.9136L16.4629 41.037C16.4267 40.785 16.4921 40.5291 16.6447 40.3254C16.7973 40.1217 17.0246 39.987 17.2765 39.9509C17.5284 39.9147 17.7843 39.9801 17.988 40.1327C18.1917 40.2853 18.3264 40.5126 18.3626 40.7645L20.8006 57.8189H22.093L19.8699 41.0283C19.8496 40.9017 19.8549 40.7723 19.8854 40.6478C19.916 40.5233 19.9712 40.4061 20.0478 40.3033C20.1244 40.2005 20.2208 40.114 20.3314 40.0491C20.4419 39.9842 20.5644 39.9421 20.6915 39.9253C20.8186 39.9085 20.9478 39.9173 21.0715 39.9513C21.1951 39.9853 21.3107 40.0437 21.4114 40.1231C21.512 40.2025 21.5958 40.3012 21.6577 40.4135C21.7195 40.5259 21.7582 40.6494 21.7715 40.7769L24.1395 58.6517C24.1575 58.7872 24.1464 58.9251 24.1068 59.056C24.0673 59.1869 24.0001 59.3078 23.91 59.4107C23.8199 59.5135 23.7088 59.5959 23.5842 59.6523C23.4597 59.7088 23.3245 59.7379 23.1877 59.7378Z" fill="#ED2024"/>
<path d="M38.814 62.2134H32.186C31.9316 62.2134 31.6875 62.1123 31.5076 61.9323C31.3276 61.7524 31.2266 61.5084 31.2266 61.2539V27.4521C31.2266 27.1977 31.3276 26.9536 31.5076 26.7737C31.6875 26.5938 31.9316 26.4927 32.186 26.4927H38.814C39.0684 26.4927 39.3125 26.5938 39.4924 26.7737C39.6723 26.9536 39.7734 27.1977 39.7734 27.4521V61.2539C39.7734 61.5084 39.6723 61.7524 39.4924 61.9323C39.3125 62.1123 39.0684 62.2134 38.814 62.2134ZM33.1455 60.2944H37.8545V28.4116H33.1455V60.2944Z" fill="#ED2024"/>
<path d="M52.3999 28.4115H18.5981C18.3437 28.4115 18.0996 28.3104 17.9197 28.1305C17.7398 27.9505 17.6387 27.7065 17.6387 27.452V25.0831C17.6397 24.2895 17.9554 23.5287 18.5166 22.9675C19.0777 22.4063 19.8386 22.0906 20.6322 22.0896H50.3706C51.1642 22.0906 51.9251 22.4063 52.4862 22.9675C53.0474 23.5287 53.3631 24.2895 53.3641 25.0831V27.452C53.3641 27.5784 53.3392 27.7036 53.2906 27.8203C53.2421 27.937 53.171 28.043 53.0814 28.1322C52.9918 28.2213 52.8855 28.2919 52.7685 28.3398C52.6516 28.3878 52.5263 28.4121 52.3999 28.4115ZM19.5576 26.4926H51.4404V25.0831C51.4399 24.7983 51.3265 24.5252 51.1251 24.3238C50.9237 24.1224 50.6507 24.009 50.3658 24.0085H20.6322C20.3473 24.009 20.0743 24.1224 19.8729 24.3238C19.6715 24.5252 19.5581 24.7983 19.5576 25.0831V26.4926Z" fill="#ED2024"/>
</svg>
