<svg width="18" height="18" viewBox="0 0 18 18" fill="none" xmlns="http://www.w3.org/2000/svg">
<path opacity="0.5" d="M5.04166 0.833355H2.61666C2.1879 0.833355 1.77669 1.00368 1.47351 1.30687C1.17033 1.61005 1 2.02125 1 2.45002V8.10835C1 8.53711 1.17033 8.94832 1.47351 9.2515C1.77669 9.55468 2.1879 9.72501 2.61666 9.72501H5.04166M10.7 11.3417V14.575C10.7 15.2182 10.4445 15.835 9.98972 16.2897C9.53495 16.7445 8.91814 17 8.27499 17L5.04166 9.72501V0.833355H14.1596C14.5495 0.828947 14.9279 0.965594 15.225 1.21812C15.522 1.47064 15.7179 1.82202 15.7763 2.20752L16.8918 9.48251C16.927 9.71421 16.9114 9.95079 16.846 10.1759C16.7807 10.4009 16.6672 10.6091 16.5134 10.7859C16.3596 10.9628 16.1692 11.1041 15.9554 11.2C15.7416 11.296 15.5095 11.3443 15.2751 11.3417H10.7Z" stroke="black" stroke-width="1.61666" stroke-linecap="round" stroke-linejoin="round"/>
</svg>
