<svg width="130" height="130" viewBox="0 0 130 130" fill="none" xmlns="http://www.w3.org/2000/svg">
<circle cx="65" cy="65" r="65" fill="#FDEEF9"/>
<g clip-path="url(#clip0)">
<path d="M75.416 69.1667C75.416 69.7192 75.1965 70.2492 74.8058 70.6399C74.4151 71.0306 73.8852 71.25 73.3327 71.25H56.666C56.1135 71.25 55.5836 71.0306 55.1929 70.6399C54.8022 70.2492 54.5827 69.7192 54.5827 69.1667C54.5827 68.6142 54.8022 68.0843 55.1929 67.6936C55.5836 67.3029 56.1135 67.0834 56.666 67.0834H73.3327C73.8852 67.0834 74.4151 67.3029 74.8058 67.6936C75.1965 68.0843 75.416 68.6142 75.416 69.1667ZM67.0827 75.4167H56.666C56.1135 75.4167 55.5836 75.6362 55.1929 76.0269C54.8022 76.4176 54.5827 76.9475 54.5827 77.5C54.5827 78.0526 54.8022 78.5825 55.1929 78.9732C55.5836 79.3639 56.1135 79.5834 56.666 79.5834H67.0827C67.6352 79.5834 68.1651 79.3639 68.5558 78.9732C68.9465 78.5825 69.166 78.0526 69.166 77.5C69.166 76.9475 68.9465 76.4176 68.5558 76.0269C68.1651 75.6362 67.6352 75.4167 67.0827 75.4167ZM85.8327 61.8438V79.5834C85.8294 82.345 84.7308 84.9926 82.7781 86.9454C80.8253 88.8982 78.1777 89.9967 75.416 90H54.5827C51.821 89.9967 49.1734 88.8982 47.2206 86.9454C45.2679 84.9926 44.1693 82.345 44.166 79.5834V50.4167C44.1693 47.6551 45.2679 45.0075 47.2206 43.0547C49.1734 41.1019 51.821 40.0034 54.5827 40H63.9889C65.9048 39.9951 67.8026 40.37 69.5727 41.1031C71.3428 41.8362 72.95 42.9128 74.3014 44.2709L81.5598 51.5334C82.9186 52.8839 83.9959 54.4906 84.7294 56.2604C85.4629 58.0302 85.8379 59.928 85.8327 61.8438ZM71.3556 47.2167C70.6999 46.5816 69.9638 46.0353 69.166 45.5917V54.5834C69.166 55.1359 69.3855 55.6658 69.7762 56.0565C70.1669 56.4472 70.6968 56.6667 71.2493 56.6667H80.241C79.7972 55.8692 79.2501 55.1337 78.6139 54.4792L71.3556 47.2167ZM81.666 61.8438C81.666 61.5 81.5993 61.1709 81.5681 60.8334H71.2493C69.5917 60.8334 68.002 60.1749 66.8299 59.0028C65.6578 57.8307 64.9993 56.241 64.9993 54.5834V44.2646C64.6618 44.2334 64.3306 44.1667 63.9889 44.1667H54.5827C52.9251 44.1667 51.3354 44.8252 50.1633 45.9973C48.9912 47.1694 48.3327 48.7591 48.3327 50.4167V79.5834C48.3327 81.241 48.9912 82.8307 50.1633 84.0028C51.3354 85.1749 52.9251 85.8334 54.5827 85.8334H75.416C77.0736 85.8334 78.6633 85.1749 79.8354 84.0028C81.0075 82.8307 81.666 81.241 81.666 79.5834V61.8438Z" fill="#ED2024"/>
</g>
<defs>
<clipPath id="clip0">
<rect width="50" height="50" fill="white" transform="translate(40 40)"/>
</clipPath>
</defs>
</svg>
