<svg width="60" height="60" viewBox="0 0 60 60" fill="none" xmlns="http://www.w3.org/2000/svg">
<g clip-path="url(#clip0)">
<path d="M8.64169 35.1617C10.4943 35.1617 12.0017 33.6538 12.0017 31.8003C12.0017 29.9468 10.4947 28.439 8.64169 28.439C6.78867 28.439 5.28125 29.9468 5.28125 31.8003C5.28125 33.6538 6.78912 35.1617 8.64169 35.1617ZM8.64169 30.2105C9.51785 30.2105 10.2306 30.9237 10.2306 31.8003C10.2306 32.6774 9.51785 33.3906 8.64169 33.3906C7.76553 33.3906 7.0528 32.6774 7.0528 31.8003C7.0528 30.9237 7.76553 30.2105 8.64169 30.2105Z" fill="#ED2024"/>
<path d="M51.7136 42.2136H49.5099V23.622C49.5099 22.4867 48.5866 21.5634 47.4518 21.5634H27.5354C26.4001 21.5634 25.4768 22.4872 25.4768 23.622V31.7574C25.4768 32.2462 25.8733 32.6427 26.3626 32.6427C26.852 32.6427 27.2484 32.2462 27.2484 31.7574V23.622C27.2484 23.4663 27.3798 23.3345 27.5354 23.3345H32.9672V25.7355C32.9672 26.7188 33.7669 27.5185 34.7498 27.5185H40.2338C41.217 27.5185 42.0163 26.7188 42.0163 25.7355V23.3345H47.4518C47.6074 23.3345 47.7388 23.4663 47.7388 23.622V42.2136H27.2488L27.2548 35.8191C27.2552 35.3297 26.8593 34.9329 26.3699 34.9324C26.3695 34.9324 26.3695 34.9324 26.369 34.9324C25.8806 34.9324 25.4842 35.3284 25.4837 35.8173L25.4778 42.2136H13.1744V37.5014C14.8508 36.1647 15.9279 34.1066 15.9279 31.8004C15.9279 28.7448 14.0382 26.1246 11.3672 25.0424V10.54C11.954 10.0969 12.4292 9.51462 12.7451 8.84262L15.9599 8.84537L20.901 8.84262C21.0612 9.18915 21.259 9.52515 21.497 9.84329L24.3301 13.5521C24.5045 13.7801 24.7678 13.9 25.0346 13.9C25.2191 13.9 25.405 13.8428 25.5638 13.7242L25.9822 13.4116L27.0049 14.7826C26.6469 15.114 26.4139 15.5548 26.3425 16.0464C26.2596 16.6168 26.4034 17.1835 26.7448 17.6404C27.1477 18.1824 27.7936 18.506 28.4729 18.506C28.9389 18.506 29.382 18.3591 29.756 18.0807L30.9549 17.1849L31.6058 18.0574C31.9249 18.4845 32.4161 18.7102 32.9146 18.7102C33.1989 18.7102 33.485 18.6356 33.7436 18.484L34.8601 19.9081C35.0349 20.1311 35.295 20.2473 35.5577 20.2473C35.7491 20.2473 35.9413 20.186 36.1038 20.0587C36.4883 19.7571 36.5556 19.2 36.254 18.8155L35.159 17.4188C35.4149 17.1703 35.5829 16.8471 35.6355 16.4877C35.6992 16.0551 35.5907 15.6248 35.3302 15.2765L34.6788 14.4031L36.0141 13.4056C36.9566 12.6942 37.1512 11.3452 36.4471 10.399C36.0452 9.8584 35.4002 9.53568 34.7223 9.53568C34.3332 9.53568 33.9606 9.63959 33.6296 9.83505L32.6074 8.46497L33.0276 8.1514C33.4195 7.85843 33.5001 7.30362 33.2076 6.91177L30.4138 3.16956C29.3697 1.772 27.6984 0.9375 25.9424 0.9375C24.7339 0.9375 23.5854 1.31882 22.6204 2.03979C22.1063 2.42386 21.6792 2.88116 21.3391 3.38562H11.4803C10.7025 2.75848 9.71558 2.38174 8.64166 2.38174C6.14044 2.38174 4.10568 4.41742 4.10568 6.91956C4.10568 8.39676 4.81567 9.71054 5.91248 10.5391V16.3705C5.91248 16.8599 6.3089 17.2563 6.79825 17.2563C7.2876 17.2563 7.68402 16.8599 7.68402 16.3705V11.3516C7.99301 11.418 8.31299 11.4542 8.64166 11.4542C8.96942 11.4542 9.28848 11.4185 9.59656 11.3521V24.5755C9.28391 24.5343 8.9653 24.511 8.64166 24.511C8.31711 24.511 7.99759 24.5343 7.68402 24.576V20.2386C7.68402 19.7498 7.2876 19.3533 6.79825 19.3533C6.3089 19.3533 5.91248 19.7498 5.91248 20.2386V25.0433C3.24371 26.1259 1.35498 28.7457 1.35498 31.7999C1.35498 34.1048 2.43118 36.1615 4.10568 37.4986V43.3333C1.63284 44.7789 0 47.4879 0 50.6598C0 55.2287 3.71567 58.9458 8.28278 58.9458H51.7136C56.2825 58.9458 60 55.2287 60 50.6598V50.5032C60 45.9325 56.2825 42.2136 51.7136 42.2136ZM40.2452 25.7355C40.2452 25.7405 40.2374 25.7465 40.2356 25.7474C40.2356 25.7474 40.2351 25.7474 40.2338 25.7474H34.7502C34.7466 25.7465 34.7397 25.7396 34.7383 25.7355V23.3345H40.2452V25.7355ZM31.1888 9.52515L32.2018 10.8838L30.6409 12.0502L28.4161 13.7119L27.4026 12.3532L31.1888 9.52515ZM32.9416 16.886L32.374 16.1252L33.2597 15.4633L33.8264 16.2231L32.9416 16.886ZM33.9711 11.7732C33.972 11.7728 33.9725 11.7723 33.9729 11.7719L34.4948 11.3823C34.5781 11.32 34.6646 11.3068 34.7227 11.3068C34.7804 11.3068 34.926 11.3214 35.0258 11.456C35.1512 11.624 35.116 11.8643 34.9507 11.9893L32.9617 13.4752C32.9434 13.4866 32.9256 13.4981 32.9082 13.5109C32.8903 13.5242 32.8743 13.5384 32.8578 13.5526L30.6647 15.1913C30.6436 15.2042 30.623 15.2174 30.6029 15.2321C30.5827 15.2477 30.5635 15.2641 30.5447 15.2806L28.6972 16.6608C28.6153 16.7216 28.5297 16.7345 28.4724 16.7345C28.4143 16.7345 28.2678 16.7198 28.1648 16.5811C28.0843 16.474 28.0865 16.3596 28.0952 16.301C28.1035 16.2428 28.1337 16.1334 28.2413 16.0533L31.6182 13.5306L33.9711 11.7732ZM23.681 3.4584C24.337 2.96768 25.1193 2.70859 25.9424 2.70859C27.1426 2.70859 28.2834 3.27713 28.9948 4.22928L31.2584 7.26151L25.2058 11.7805L22.9102 8.77579C22.6634 8.44482 22.4794 8.0864 22.3544 7.71515C22.3489 7.69501 22.3421 7.67532 22.3352 7.6561C22.0262 6.68289 22.1246 5.62363 22.5961 4.72778C22.6085 4.70764 22.6199 4.68658 22.6305 4.66507C22.8831 4.20639 23.2347 3.79211 23.681 3.4584ZM20.5531 5.15671C20.3984 5.78064 20.3517 6.42883 20.4167 7.07153L15.9599 7.07428L13.1708 7.07153C13.1721 7.02118 13.1744 6.97037 13.1744 6.91956C13.1744 6.29471 13.0476 5.69916 12.8183 5.15671H20.5531ZM8.64166 9.68307C7.11685 9.68307 5.87677 8.44345 5.87677 6.91956C5.87677 5.39429 7.11685 4.15329 8.64166 4.15329C10.1642 4.15329 11.4034 5.39429 11.4034 6.91956C11.4034 8.44345 10.1642 9.68307 8.64166 9.68307ZM3.12653 31.8004C3.12653 28.7576 5.60028 26.282 8.64166 26.282C11.683 26.282 14.1573 28.7576 14.1573 31.8004C14.1573 34.8431 11.683 37.3183 8.64166 37.3183C5.60074 37.3183 3.12653 34.8431 3.12653 31.8004ZM11.4034 38.5446V42.2136H8.28278C7.44232 42.2136 6.63574 42.3367 5.87677 42.5638V38.5432C6.73004 38.8943 7.66342 39.0898 8.64166 39.0898C9.61899 39.0898 10.551 38.8948 11.4034 38.5446ZM58.2289 50.6598C58.2289 54.2519 55.3061 57.1747 51.7136 57.1747H8.28278C4.69208 57.1747 1.77109 54.2519 1.77109 50.6598C1.77109 48.0322 3.18192 45.8061 5.28534 44.7116C5.35767 44.686 5.42679 44.6516 5.4895 44.6091C6.33179 44.2085 7.27707 43.9847 8.28278 43.9847H51.7136C55.3061 43.9847 58.2289 46.9089 58.2289 50.5032V50.6598Z" fill="#ED2024"/>
<path d="M51.6367 45.2773H8.36203C5.43967 45.2773 3.0625 47.6559 3.0625 50.5796C3.0625 53.5034 5.43967 55.8819 8.36203 55.8819H51.6367C54.5591 55.8819 56.9367 53.5034 56.9367 50.5796C56.9367 47.6559 54.5591 45.2773 51.6367 45.2773ZM51.6367 54.1104H8.36203C6.41653 54.1104 4.83313 52.5265 4.83313 50.5796C4.83313 48.6328 6.41653 47.0489 8.36203 47.0489H51.6367C53.5827 47.0489 55.1656 48.6328 55.1656 50.5796C55.1661 52.5265 53.5827 54.1104 51.6367 54.1104Z" fill="#ED2024"/>
<path d="M20.6096 47.9397C19.1416 47.9397 17.9473 49.1358 17.9473 50.6062C17.9473 52.0747 19.1416 53.2699 20.6096 53.2699C22.08 53.2699 23.2756 52.0747 23.2756 50.6062C23.2756 49.1358 22.08 47.9397 20.6096 47.9397ZM20.6096 51.4984C20.1184 51.4984 19.7184 51.0983 19.7184 50.6062C19.7184 50.1122 20.1184 49.7108 20.6096 49.7108C21.1031 49.7108 21.5045 50.1122 21.5045 50.6062C21.5045 51.0983 21.1031 51.4984 20.6096 51.4984Z" fill="#ED2024"/>
<path d="M29.9136 47.9164C28.4437 47.9164 27.248 49.1111 27.248 50.5797C27.248 52.05 28.4437 53.2466 29.9136 53.2466C31.3817 53.2466 32.5764 52.05 32.5764 50.5797C32.5764 49.1111 31.3817 47.9164 29.9136 47.9164ZM29.9136 51.4755C29.4206 51.4755 29.0191 51.0736 29.0191 50.5797C29.0191 50.0876 29.4206 49.6875 29.9136 49.6875C30.4052 49.6875 30.8053 50.0876 30.8053 50.5797C30.8053 51.0736 30.4052 51.4755 29.9136 51.4755Z" fill="#ED2024"/>
<path d="M39.2366 47.9164C37.769 47.9164 36.5742 49.1111 36.5742 50.5797C36.5742 52.05 37.7685 53.2466 39.2366 53.2466C40.7069 53.2466 41.9026 52.05 41.9026 50.5797C41.9026 49.1111 40.7069 47.9164 39.2366 47.9164ZM39.2366 51.4755C38.7454 51.4755 38.3453 51.0736 38.3453 50.5797C38.3453 50.0876 38.7454 49.6875 39.2366 49.6875C39.73 49.6875 40.132 50.0876 40.132 50.5797C40.132 51.0736 39.73 51.4755 39.2366 51.4755Z" fill="#ED2024"/>
<path d="M48.541 47.8894C47.0707 47.8894 45.875 49.086 45.875 50.5563C45.875 52.0253 47.0707 53.2201 48.541 53.2201C50.0091 53.2201 51.2034 52.0253 51.2034 50.5563C51.2034 49.086 50.0091 47.8894 48.541 47.8894ZM48.541 51.4485C48.0475 51.4485 47.6461 51.0484 47.6461 50.5563C47.6461 50.0624 48.0475 49.6609 48.541 49.6609C49.0322 49.6609 49.4323 50.0624 49.4323 50.5563C49.4323 51.0484 49.0322 51.4485 48.541 51.4485Z" fill="#ED2024"/>
<path d="M11.3093 47.9658C9.84125 47.9658 8.64648 49.161 8.64648 50.6295C8.64648 52.0981 9.84079 53.2933 11.3093 53.2933C12.7773 53.2933 13.9721 52.0981 13.9721 50.6295C13.9721 49.161 12.7773 47.9658 11.3093 47.9658ZM11.3093 51.5217C10.8177 51.5217 10.4176 51.1216 10.4176 50.6295C10.4176 50.1375 10.8177 49.7374 11.3093 49.7374C11.8005 49.7374 12.2006 50.1375 12.2006 50.6295C12.2006 51.1216 11.8005 51.5217 11.3093 51.5217Z" fill="#ED2024"/>
</g>
<defs>
<clipPath id="clip0">
<rect width="60" height="60" fill="white"/>
</clipPath>
</defs>
</svg>
