<svg width="18" height="18" viewBox="0 0 18 18" fill="none" xmlns="http://www.w3.org/2000/svg">
<path d="M16.1402 1H1.87544C1.62385 0.999525 1.3932 1.14007 1.27819 1.36391C1.16159 1.59075 1.18206 1.86392 1.33101 2.07109L6.55703 9.43296C6.55878 9.43549 6.56068 9.43787 6.56243 9.44041C6.75231 9.69676 6.85495 10.0072 6.85558 10.3264V16.3284C6.85447 16.5063 6.92427 16.677 7.04959 16.8031C7.17491 16.9292 7.34528 16.9999 7.52295 16.9999C7.61337 16.9999 7.70269 16.9818 7.78613 16.9473L10.7227 15.8275C10.9859 15.7472 11.1606 15.4989 11.1606 15.1999V10.3264C11.1611 10.0074 11.2638 9.69676 11.4536 9.44041C11.4553 9.43787 11.4572 9.43549 11.459 9.43296L16.6848 2.07078C16.8338 1.86376 16.8542 1.59075 16.7377 1.36391C16.6226 1.14007 16.392 0.999525 16.1402 1ZM10.7987 8.95928C10.5068 9.35538 10.349 9.8343 10.3481 10.3264V15.1012L7.66779 16.1232V10.3264C7.66683 9.8343 7.50899 9.35538 7.21695 8.95928L2.14338 1.8122H15.8725L10.7987 8.95928Z" fill="#E20613" stroke="#E20613" stroke-width="0.5"/>
</svg>
