<svg width="83" height="110" viewBox="0 0 83 110" fill="none" xmlns="http://www.w3.org/2000/svg">
<path d="M8.98828 40.8204C8.98828 58.5903 23.4449 73.047 41.2149 73.047C58.9849 73.047 73.4415 58.5903 73.4415 40.8204C73.4415 23.0504 58.9849 8.59375 41.2149 8.59375C23.4449 8.59375 8.98828 23.0504 8.98828 40.8204ZM41.2149 12.8906C56.6157 12.8906 69.1446 25.4196 69.1446 40.8204C69.1446 56.2212 56.6157 68.7501 41.2149 68.7501C25.8141 68.7501 13.2852 56.2212 13.2852 40.8204C13.2852 25.4196 25.8141 12.8906 41.2149 12.8906Z" fill="#B0B0B0"/>
<path d="M43.3633 2.14844C43.3633 3.33512 42.4015 4.29688 41.2148 4.29688C40.0282 4.29688 39.0664 3.33512 39.0664 2.14844C39.0664 0.961763 40.0282 0 41.2148 0C42.4015 0 43.3633 0.961763 43.3633 2.14844Z" fill="#B0B0B0"/>
<path d="M41.0002 20.5C29.6959 20.5 20.5 29.6957 20.5 40.9998C20.5 52.3046 29.6959 61.5008 41.0002 61.5008C52.3043 61.5008 61.5 52.3044 61.5 40.9998C61.5 29.6957 52.3043 20.5 41.0002 20.5ZM41.0002 57.6337C31.8291 57.6337 24.367 50.1713 24.367 40.9998C24.367 31.8289 31.8291 24.367 41.0002 24.367C50.1711 24.367 57.633 31.8289 57.633 40.9998C57.633 50.1713 50.1711 57.6337 41.0002 57.6337Z" fill="#B0B0B0" stroke="#B0B0B0"/>
<path d="M51.2835 40.1652H42.3846V30.3913C42.3846 29.3235 41.5192 28.4578 40.4511 28.4578C39.3833 28.4578 38.5176 29.3235 38.5176 30.3913V42.0987C38.5176 43.1665 39.3833 44.0322 40.4511 44.0322H51.2835C52.3515 44.0322 53.217 43.1665 53.217 42.0987C53.217 41.0309 52.3513 40.1652 51.2835 40.1652Z" fill="#B0B0B0" stroke="#B0B0B0"/>
<path d="M31.0895 1.26635C13.0166 5.87962 0.394531 22.1448 0.394531 40.8203C0.394531 52.4194 5.27132 63.3487 13.8324 71.089L0.88884 93.9002C0.47258 94.6345 0.524613 95.5443 1.02144 96.2257C1.51827 96.908 2.36757 97.2362 3.19422 97.0641L17.8934 94.0118L23.0597 108.57C23.34 109.362 24.0576 109.917 24.8951 109.992C25.7327 110.066 26.5359 109.644 26.9513 108.913L41.2149 83.837L55.4777 108.913C55.8621 109.589 56.5771 109.999 57.3442 109.999C57.4071 109.999 57.4709 109.997 57.5338 109.992C58.3714 109.917 59.0889 109.361 59.3701 108.57L64.5356 94.0118L79.2348 97.0641C80.0606 97.2353 80.9107 96.9072 81.4075 96.2257C81.9052 95.5443 81.9564 94.6345 81.5401 93.9002L68.5966 71.089C77.1576 63.3487 82.0344 52.4194 82.0344 40.8203C82.0344 22.1448 69.4124 5.87962 51.3403 1.26635C50.1897 0.972615 49.0206 1.66666 48.7269 2.81641C48.4332 3.96616 49.1272 5.13606 50.277 5.42979C66.4457 9.55715 77.7384 24.1103 77.7384 40.8203C77.7384 61.1575 61.2214 77.3438 41.2149 77.3438C21.1941 77.3438 4.69141 61.1441 4.69141 40.8203C4.69141 24.1103 15.9833 9.55715 32.152 5.42979C33.3018 5.13606 33.9958 3.96616 33.7029 2.81641C33.4092 1.66666 32.2401 0.972615 31.0895 1.26635ZM25.5388 102.707L21.3167 90.8093C20.9575 89.7972 19.9067 89.2055 18.8552 89.4237L6.9691 91.8919L17.2128 73.8383C23.1856 78.1805 30.2579 80.8258 37.6121 81.4804L25.5388 102.707ZM63.5738 89.4237C62.5231 89.2055 61.4715 89.7972 61.1123 90.8093L56.891 102.707L44.8169 81.4804C52.172 80.8258 59.2433 78.1805 65.217 73.8383L75.4607 91.8919L63.5738 89.4237Z" fill="#B0B0B0"/>
</svg>
