<svg width="130" height="130" viewBox="0 0 130 130" fill="none" xmlns="http://www.w3.org/2000/svg">
<circle cx="65" cy="65" r="65" fill="#FDEEF9"/>
<g clip-path="url(#clip0)">
<path d="M86.25 44.5062C85.0788 43.5269 83.7064 42.8174 82.2302 42.4282C80.7539 42.039 79.2101 41.9796 77.7083 42.2541L69.7458 43.7C67.9075 44.0375 66.236 44.9833 65 46.3854C63.7608 44.9809 62.0845 44.0349 60.2417 43.7L52.2917 42.2541C50.7899 41.9793 49.2461 42.038 47.7695 42.4259C46.293 42.8139 44.9197 43.5217 43.747 44.4992C42.5743 45.4768 41.6308 46.7001 40.9833 48.0827C40.3358 49.4653 40.0001 50.9733 40 52.5V74.9854C40.0001 77.4245 40.8562 79.7863 42.419 81.659C43.9819 83.5318 46.1523 84.7967 48.5521 85.2333L61.6479 87.6145C63.8645 88.0173 66.1355 88.0173 68.3521 87.6145L81.4583 85.2333C83.8562 84.7945 86.0242 83.5287 87.585 81.6561C89.1457 79.7836 90.0003 77.423 90 74.9854V52.5C90.001 50.9738 89.6654 49.4662 89.0172 48.0845C88.3691 46.7028 87.4242 45.4811 86.25 44.5062ZM62.9167 83.6C62.7417 83.575 62.5667 83.5458 62.3917 83.5145L49.2979 81.1354C47.8578 80.8734 46.5554 80.1142 45.6177 78.9903C44.68 77.8665 44.1664 76.4491 44.1667 74.9854V52.5C44.1667 50.8424 44.8251 49.2526 45.9973 48.0805C47.1694 46.9084 48.7591 46.25 50.4167 46.25C50.7939 46.2509 51.1704 46.285 51.5417 46.352L59.5 47.8104C60.4575 47.9856 61.3235 48.4905 61.9476 49.2375C62.5717 49.9846 62.9146 50.9265 62.9167 51.9V83.6ZM85.8333 74.9854C85.8336 76.4491 85.32 77.8665 84.3823 78.9903C83.4446 80.1142 82.1422 80.8734 80.7021 81.1354L67.6083 83.5145C67.4333 83.5458 67.2583 83.575 67.0833 83.6V51.9C67.0832 50.9241 67.4255 49.9792 68.0507 49.23C68.6758 48.4807 69.5441 47.9746 70.5042 47.8L78.4646 46.3416C79.3661 46.1776 80.2926 46.2138 81.1786 46.4477C82.0645 46.6816 82.8882 47.1074 83.5913 47.695C84.2944 48.2826 84.8597 49.0176 85.2471 49.8479C85.6346 50.6783 85.8347 51.5837 85.8333 52.5V74.9854Z" fill="#ED2024"/>
</g>
<defs>
<clipPath id="clip0">
<rect width="50" height="50" fill="white" transform="translate(40 40)"/>
</clipPath>
</defs>
</svg>
