<svg width="27" height="25" viewBox="0 0 27 25" fill="none" xmlns="http://www.w3.org/2000/svg">
<path d="M21.8008 24.2183H5.19922C3.96074 24.2183 2.95312 23.2107 2.95312 21.9722V10.1548C2.95312 9.72334 3.30288 9.37354 3.73438 9.37354C4.16587 9.37354 4.51562 9.72334 4.51562 10.1548V21.9722C4.51562 22.3491 4.82227 22.6558 5.19922 22.6558H21.8008C22.1777 22.6558 22.4844 22.3491 22.4844 21.9722V10.1548C22.4844 9.72334 22.8341 9.37354 23.2656 9.37354C23.6971 9.37354 24.0469 9.72334 24.0469 10.1548V21.9722C24.0469 23.2106 23.0393 24.2183 21.8008 24.2183Z" fill="#ED2024" stroke="#ED2024" stroke-width="0.5"/>
<path d="M25.2187 12.8887C25.0188 12.8887 24.8189 12.8124 24.6663 12.6599L14.9501 2.9437C14.1505 2.14409 12.8495 2.14409 12.0499 2.9437L2.33368 12.6599C2.0286 12.965 1.53392 12.965 1.22885 12.6599C0.923718 12.3548 0.923718 11.8601 1.22885 11.5551L10.9451 1.83882C12.3538 0.43003 14.6462 0.43003 16.0549 1.83882L25.7711 11.555C26.0763 11.8601 26.0763 12.3548 25.7711 12.6599C25.6186 12.8124 25.4187 12.8887 25.2187 12.8887Z" fill="#ED2024" stroke="#ED2024" stroke-width="0.5"/>
<path d="M16.625 24.2183H10.375C9.94351 24.2183 9.59375 23.8685 9.59375 23.437V16.5034C9.59375 15.1572 10.689 14.062 12.0352 14.062H14.9648C16.311 14.062 17.4062 15.1572 17.4062 16.5034V23.437C17.4062 23.8685 17.0565 24.2183 16.625 24.2183ZM11.1562 22.6558H15.8438V16.5034C15.8438 16.0188 15.4495 15.6245 14.9648 15.6245H12.0352C11.5505 15.6245 11.1562 16.0188 11.1562 16.5034V22.6558Z" fill="#ED2024" stroke="#ED2024" stroke-width="0.5"/>
</svg>
