<svg width="56" height="56" viewBox="0 0 56 56" fill="none" xmlns="http://www.w3.org/2000/svg">
<path d="M48.7812 5.18787V3.28125C48.7812 1.47197 47.3093 0 45.5 0H10.5C8.69072 0 7.21875 1.47197 7.21875 3.28125V5.18787C0.0845472 18.3636 0.000328125 17.9724 0 18.5925C0 18.593 0 18.5933 0 18.5938V20.7812C0 22.677 1.09616 24.4402 2.84375 25.4428V54.9062C2.84375 55.5102 3.33353 56 3.9375 56H52.0625C52.6665 56 53.1562 55.5102 53.1562 54.9062V25.4428C54.8862 24.441 56 22.6571 56 20.7812V18.5938C56 18.5933 56 18.593 56 18.5925C55.9997 17.9657 55.8459 18.2351 48.7812 5.18787ZM53.0565 17.5H46.2884L42.6426 6.5625H47.0409L53.0565 17.5ZM37.8438 19.6875H44.4062V20.7812C44.4062 22.5905 42.9343 24.0625 41.125 24.0625C39.3157 24.0625 37.8438 22.5905 37.8438 20.7812V19.6875ZM37.6765 17.5L35.8537 6.5625H40.3366L43.9824 17.5H37.6765ZM9.40625 3.28125C9.40625 2.67816 9.89691 2.1875 10.5 2.1875H45.5C46.1031 2.1875 46.5938 2.67816 46.5938 3.28125V4.375C45.5523 4.375 10.4558 4.375 9.40625 4.375V3.28125ZM35.6562 19.6875V20.7812C35.6562 22.5905 34.1843 24.0625 32.375 24.0625C30.5657 24.0625 29.0938 22.5905 29.0938 20.7812V19.6875H35.6562ZM29.0938 17.5V6.5625H33.636L35.4589 17.5H29.0938ZM20.5412 17.5L22.3641 6.5625H26.9062V17.5H20.5412ZM26.9062 19.6875V20.7812C26.9062 22.5905 25.4343 24.0625 23.625 24.0625C21.8157 24.0625 20.3438 22.5905 20.3438 20.7812V19.6875H26.9062ZM12.0175 17.5L15.6633 6.5625H20.1463L18.3234 17.5H12.0175ZM18.1562 19.6875V20.7812C18.1562 22.5905 16.6843 24.0625 14.875 24.0625C13.0657 24.0625 11.5938 22.5905 11.5938 20.7812V19.6875H18.1562ZM8.95913 6.5625H13.3574L9.71163 17.5H2.9435L8.95913 6.5625ZM2.1875 20.7812V19.6875H9.40625V20.7812C9.40625 22.4985 7.68589 24.0625 5.79688 24.0625C5.32066 24.0625 4.82716 23.9591 4.36778 23.7626C3.0637 23.208 2.1875 22.0098 2.1875 20.7812ZM22.5312 53.8125H11.5938V44.4062H22.5312V53.8125ZM22.5312 42.2188H11.5938V32.8125H22.5312V42.2188ZM50.9688 53.8125H24.7188V31.7188C24.7188 31.1148 24.229 30.625 23.625 30.625H10.5C9.89603 30.625 9.40625 31.1148 9.40625 31.7188V53.8125H5.03125V26.1965C5.28478 26.231 5.54017 26.25 5.79688 26.25C7.23636 26.25 8.69148 25.6797 9.78884 24.6853C10.0315 24.4654 10.2501 24.2303 10.4462 23.9839C11.4408 25.3555 13.055 26.25 14.875 26.25C16.6621 26.25 18.2514 25.3883 19.25 24.0587C20.2486 25.3883 21.8379 26.25 23.625 26.25C25.4121 26.25 27.0014 25.3883 28 24.0587C28.9986 25.3883 30.5879 26.25 32.375 26.25C34.1621 26.25 35.7514 25.3883 36.75 24.0587C37.7486 25.3883 39.3379 26.25 41.125 26.25C42.945 26.25 44.5592 25.3555 45.5538 23.9839C45.7499 24.2303 45.9685 24.4653 46.2112 24.6853C47.3085 25.6797 48.7636 26.25 50.2031 26.25C50.4593 26.25 50.7147 26.2316 50.9688 26.197V53.8125ZM53.8125 20.7812C53.8125 22.0443 52.9037 23.2563 51.5513 23.7973C51.109 23.9734 50.6555 24.0625 50.2031 24.0625C48.3141 24.0625 46.5938 22.4985 46.5938 20.7812V19.6875H53.8125V20.7812Z" fill="#ED2024"/>
</svg>
