<svg width="25" height="26" viewBox="0 0 25 26" fill="none" xmlns="http://www.w3.org/2000/svg">
<path d="M12.5 1.04004C7.65371 1.04004 3.71094 4.81248 3.71094 9.44941C3.71094 11.0161 4.1645 12.545 5.0229 13.8714L11.9997 24.6288C12.1333 24.8348 12.3688 24.96 12.622 24.96C12.624 24.96 12.6259 24.96 12.6278 24.96C12.8833 24.9581 13.1192 24.829 13.2504 24.6194L20.0494 13.7578C20.8604 12.4594 21.2891 10.9696 21.2891 9.44941C21.2891 4.81248 17.3463 1.04004 12.5 1.04004ZM18.7923 13.0383L12.6109 22.9131L6.26792 13.133C5.55342 12.0289 5.16602 10.7552 5.16602 9.44941C5.16602 5.58531 8.46143 2.43226 12.5 2.43226C16.5386 2.43226 19.8291 5.58531 19.8291 9.44941C19.8291 10.7165 19.4672 11.9576 18.7923 13.0383Z" fill="#ED2024" stroke="#ED2024" stroke-width="0.5"/>
<g opacity="0.9">
<path d="M12.5 5.24463C10.0769 5.24463 8.10547 7.13085 8.10547 9.44932C8.10547 11.753 10.0448 13.654 12.5 13.654C14.9855 13.654 16.8945 11.7276 16.8945 9.44932C16.8945 7.13085 14.9231 5.24463 12.5 5.24463ZM12.5 12.2618C10.8761 12.2618 9.56055 10.9988 9.56055 9.44932C9.56055 7.90367 10.8846 6.63685 12.5 6.63685C14.1154 6.63685 15.4346 7.90367 15.4346 9.44932C15.4346 10.9762 14.1496 12.2618 12.5 12.2618Z" fill="#ED2024" stroke="#ED2024" stroke-width="0.4"/>
</g>
</svg>
