<svg width="64" height="64" viewBox="0 0 64 64" fill="none" xmlns="http://www.w3.org/2000/svg">
<path d="M2.90329 27.9677H8.27199C8.58953 29.1128 9.04694 30.2143 9.63515 31.2467L5.83525 35.0451C5.6538 35.2265 5.55173 35.4726 5.55173 35.7297C5.55173 35.9867 5.6538 36.2328 5.83525 36.4143L9.94059 40.5208C10.3186 40.898 10.931 40.898 11.309 40.5208L15.1093 36.7201C16.1417 37.3079 17.2421 37.7657 18.3872 38.0829V43.4516C18.3872 43.9861 18.8204 44.4193 19.3549 44.4193H25.1614C25.6959 44.4193 26.1291 43.9861 26.1291 43.4516V38.0829C27.2741 37.7657 28.3746 37.3079 29.407 36.7201L33.2072 40.5208C33.5913 40.8837 34.192 40.8837 34.5757 40.5208L38.6818 36.4143C38.8632 36.2328 38.9653 35.9867 38.9653 35.7297C38.9653 35.4726 38.8632 35.2265 38.6818 35.0451L34.8811 31.2467C35.4693 30.2143 35.9268 29.1128 36.2443 27.9677H41.613C42.1475 27.9677 42.5807 27.5345 42.5807 27V21.1935C42.5807 20.6594 42.1475 20.2258 41.613 20.2258H36.2443C35.9268 19.0811 35.4693 17.9796 34.8811 16.9472L38.681 13.1488C38.8625 12.9673 38.9646 12.7212 38.9646 12.4642C38.9646 12.2071 38.8625 11.961 38.681 11.7796L34.5757 7.67311C34.1977 7.29547 33.5853 7.29547 33.2072 7.67311L29.407 11.4738C28.3746 10.8863 27.2738 10.4285 26.1291 10.111V4.74191C26.1291 4.20776 25.6959 3.77417 25.1614 3.77417H19.3549C18.8204 3.77417 18.3872 4.20776 18.3872 4.74191V10.111C17.2425 10.4285 16.1417 10.8863 15.1093 11.4738L11.309 7.67311C10.925 7.31021 10.3243 7.31021 9.94059 7.67311L5.83449 11.7796C5.65304 11.961 5.55097 12.2071 5.55097 12.4642C5.55097 12.7212 5.65304 12.9673 5.83449 13.1488L9.63515 16.9472C9.04694 17.9796 8.58953 19.0811 8.27199 20.2258H2.90329C2.36876 20.2258 1.93555 20.6594 1.93555 21.1935V27C1.93555 27.5345 2.36876 27.9677 2.90329 27.9677ZM3.87103 22.1613H9.02918C9.48394 22.1613 9.87746 21.8449 9.97462 21.4007C10.2922 19.9513 10.8664 18.57 11.6701 17.3226C11.9154 16.94 11.861 16.4376 11.5393 16.1159L7.88716 12.4638L10.6248 9.72578L14.2762 13.3779C14.5979 13.7003 15.1006 13.7548 15.4839 13.509C16.7318 12.7057 18.1127 12.1315 19.5621 11.8136C20.0059 11.7161 20.3227 11.3226 20.3227 10.8678V5.70965H24.1936V10.8678C24.1936 11.3226 24.5104 11.7161 24.9542 11.8136C26.4036 12.1315 27.7845 12.7057 29.0323 13.509C29.4157 13.7548 29.9184 13.7003 30.2401 13.3779L33.8915 9.72578L36.6284 12.4638L32.977 16.1148C32.6546 16.4368 32.6005 16.9396 32.8462 17.3226C33.6499 18.5708 34.2234 19.9517 34.5405 21.4014C34.6381 21.8456 35.0316 22.1624 35.486 22.1624H40.6452V26.0334H35.486C35.0316 26.0334 34.6381 26.3498 34.5405 26.794C34.2234 28.2433 33.6495 29.6242 32.8462 30.8709C32.6009 31.2539 32.6553 31.7563 32.977 32.078L36.6291 35.7293L33.8915 38.4681L30.2401 34.8156C29.9184 34.4935 29.4157 34.4391 29.0323 34.6848C27.7852 35.4885 26.4047 36.0627 24.9553 36.3803C24.5108 36.477 24.1936 36.8709 24.1936 37.3257V42.4838H20.3227V37.3257C20.3227 36.8709 20.0055 36.477 19.5609 36.3803C18.1116 36.0627 16.731 35.4885 15.4839 34.6848C15.1006 34.4391 14.5979 34.4935 14.2762 34.8156L10.6248 38.4681L7.88792 35.7301L11.5393 32.0787C11.8617 31.757 11.9158 31.2543 11.6701 30.8709C10.8664 29.6231 10.2922 28.2418 9.97462 26.7921C9.87708 26.3479 9.48394 26.0322 9.02918 26.0322H3.87103V22.1613Z" fill="#ED2024"/>
<path d="M22.2595 31.8386C26.5354 31.8386 30.0015 28.3729 30.0015 24.0967C30.0015 19.8208 26.5354 16.3547 22.2595 16.3547C17.9837 16.3547 14.5176 19.8208 14.5176 24.0967C14.5221 28.3703 17.986 31.8341 22.2595 31.8386ZM22.2595 18.2902C25.4659 18.2902 28.066 20.8903 28.066 24.0967C28.066 27.3035 25.4659 29.9032 22.2595 29.9032C19.0531 29.9032 16.4531 27.3035 16.4531 24.0967C16.4565 20.891 19.0539 18.2936 22.2595 18.2902Z" fill="#ED2024"/>
<path d="M22.2584 34.7417C28.1375 34.7417 32.9036 29.976 32.9036 24.0966C32.9036 18.2175 28.1375 13.4514 22.2584 13.4514C16.3794 13.4514 11.6133 18.2175 11.6133 24.0966C11.6205 29.9729 16.3821 34.7349 22.2584 34.7417ZM22.2584 15.3869C27.0688 15.3869 30.9681 19.2862 30.9681 24.0966C30.9681 28.9069 27.0688 32.8062 22.2584 32.8062C17.4481 32.8062 13.5488 28.9069 13.5488 24.0966C13.5541 19.2889 17.4503 15.3922 22.2584 15.3869Z" fill="#ED2024"/>
<path d="M57.0968 48.2902V40.5483C57.0968 40.0141 56.6636 39.5805 56.1291 39.5805H54.1936V31.8386C54.1936 31.3044 53.7604 30.8708 53.2259 30.8708H44.5162C43.9817 30.8708 43.5485 31.3044 43.5485 31.8386V39.5805H38.7097C38.1752 39.5805 37.742 40.0141 37.742 40.5483V48.2902H6.77426C4.10314 48.2936 1.93895 50.4578 1.93555 53.1289V55.0644C1.93895 57.7359 4.10314 59.9001 6.77426 59.9031H57.0968C59.768 59.9001 61.9321 57.7359 61.9356 55.0644V53.1289C61.9321 50.4578 59.768 48.2936 57.0968 48.2902ZM55.1614 48.2902H48.3872V41.516H55.1614V48.2902ZM45.4839 32.8063H52.2581V39.5805H45.4839V32.8063ZM39.6775 41.516H46.4517V48.2902H39.6775V41.516ZM60.0001 55.0644C60.0001 56.6679 58.7 57.9676 57.0968 57.9676H6.77426C5.17106 57.9676 3.87103 56.6679 3.87103 55.0644V53.1289C3.87103 51.5257 5.17106 50.2257 6.77426 50.2257H57.0968C58.7 50.2257 60.0001 51.5257 60.0001 53.1289V55.0644Z" fill="#ED2024"/>
<path d="M31.9345 51.1934C30.3313 51.1934 29.0312 52.4934 29.0312 54.0966C29.0312 55.7001 30.3313 56.9998 31.9345 56.9998C33.5377 56.9998 34.8377 55.7001 34.8377 54.0966C34.8377 52.4934 33.5377 51.1934 31.9345 51.1934ZM31.9345 55.0643C31.4 55.0643 30.9667 54.6311 30.9667 54.0966C30.9667 53.5624 31.4 53.1288 31.9345 53.1288C32.469 53.1288 32.9022 53.5624 32.9022 54.0966C32.9022 54.6311 32.469 55.0643 31.9345 55.0643Z" fill="#ED2024"/>
<path d="M22.2587 51.1934C20.6555 51.1934 19.3555 52.4934 19.3555 54.0966C19.3555 55.7001 20.6555 56.9998 22.2587 56.9998C23.8619 56.9998 25.1619 55.7001 25.1619 54.0966C25.1619 52.4934 23.8619 51.1934 22.2587 51.1934ZM22.2587 55.0643C21.7242 55.0643 21.291 54.6311 21.291 54.0966C21.291 53.5624 21.7242 53.1288 22.2587 53.1288C22.7932 53.1288 23.2264 53.5624 23.2264 54.0966C23.2264 54.6311 22.7932 55.0643 22.2587 55.0643Z" fill="#ED2024"/>
<path d="M41.6122 51.1934C40.009 51.1934 38.709 52.4934 38.709 54.0966C38.709 55.7001 40.009 56.9998 41.6122 56.9998C43.2154 56.9998 44.5154 55.7001 44.5154 54.0966C44.5154 52.4934 43.2154 51.1934 41.6122 51.1934ZM41.6122 55.0643C41.0777 55.0643 40.6445 54.6311 40.6445 54.0966C40.6445 53.5624 41.0777 53.1288 41.6122 53.1288C42.1467 53.1288 42.58 53.5624 42.58 54.0966C42.58 54.6311 42.1467 55.0643 41.6122 55.0643Z" fill="#ED2024"/>
<path d="M12.581 51.1934C10.9778 51.1934 9.67773 52.4934 9.67773 54.0966C9.67773 55.7001 10.9778 56.9998 12.581 56.9998C14.1842 56.9998 15.4842 55.7001 15.4842 54.0966C15.4842 52.4934 14.1842 51.1934 12.581 51.1934ZM12.581 55.0643C12.0464 55.0643 11.6132 54.6311 11.6132 54.0966C11.6132 53.5624 12.0464 53.1288 12.581 53.1288C13.1155 53.1288 13.5487 53.5624 13.5487 54.0966C13.5487 54.6311 13.1155 55.0643 12.581 55.0643Z" fill="#ED2024"/>
<path d="M51.29 51.1934C49.6867 51.1934 48.3867 52.4934 48.3867 54.0966C48.3867 55.7001 49.6867 56.9998 51.29 56.9998C52.8932 56.9998 54.1932 55.7001 54.1932 54.0966C54.1932 52.4934 52.8932 51.1934 51.29 51.1934ZM51.29 55.0643C50.7554 55.0643 50.3222 54.6311 50.3222 54.0966C50.3222 53.5624 50.7554 53.1288 51.29 53.1288C51.8245 53.1288 52.2577 53.5624 52.2577 54.0966C52.2577 54.6311 51.8245 55.0643 51.29 55.0643Z" fill="#ED2024"/>
</svg>
