<svg width="130" height="130" viewBox="0 0 130 130" fill="none" xmlns="http://www.w3.org/2000/svg">
<g clip-path="url(#clip0)">
<path d="M65 130C100.899 130 130 100.899 130 65C130 29.1015 100.899 0 65 0C29.1015 0 0 29.1015 0 65C0 100.899 29.1015 130 65 130Z" fill="black"/>
<path d="M130 65C130.002 54.1585 127.292 43.4887 122.117 33.962C116.942 24.4353 109.467 16.3543 100.371 10.4547C91.2749 4.55513 80.848 1.02439 70.0391 0.183916C59.2302 -0.65656 48.3828 1.21992 38.4843 5.64253C28.5859 10.0652 19.9509 16.8934 13.3655 25.5057C6.78011 34.1179 2.45347 44.2406 0.7795 54.9521C-0.894466 65.6636 0.137414 76.6236 3.78119 86.8345C7.42497 97.0453 13.5649 106.183 21.642 113.414C23.6204 107.916 26.7736 102.914 30.8819 98.7583C34.5263 95.0154 38.8839 92.041 43.6973 90.0106C48.5107 87.9803 53.6822 86.9353 58.9062 86.9375H71.0938C76.3179 86.9353 81.4894 87.9803 86.3028 90.0106C91.1162 92.0409 95.4738 95.0154 99.1182 98.7583C103.227 102.914 106.38 107.916 108.358 113.414C115.174 107.326 120.626 99.8651 124.356 91.5213C128.086 83.1776 130.009 74.1395 130 65Z" fill="#F6F6F6"/>
<path d="M71.0943 86.9375H58.9068C53.6827 86.9354 48.5112 87.9803 43.6979 90.0107C38.8845 92.041 34.5269 95.0155 30.8825 98.7584C26.7741 102.914 23.621 107.916 21.6426 113.414C33.5594 124.094 48.9985 130 65.0006 130C81.0026 130 96.4418 124.094 108.359 113.414C106.38 107.916 103.227 102.914 99.1186 98.7584C95.4743 95.0154 91.1167 92.0409 86.3033 90.0106C81.4899 87.9803 76.3184 86.9353 71.0943 86.9375Z" fill="#D5D5D5"/>
<path d="M65 26C59.5765 26 54.2748 27.6083 49.7653 30.6214C45.2557 33.6346 41.741 37.9173 39.6655 42.928C37.59 47.9387 37.047 53.4523 38.105 58.7716C39.1631 64.091 41.7748 68.9771 45.6098 72.8121C49.4448 76.6471 54.331 79.2588 59.6503 80.3169C64.9696 81.3749 70.4832 80.8319 75.4939 78.7564C80.5046 76.6809 84.7873 73.1662 87.8005 68.6566C90.8137 64.1471 92.4219 58.8454 92.4219 53.4219C92.4137 46.1517 89.5219 39.1816 84.3811 34.0408C79.2403 28.9 72.2702 26.0082 65 26Z" fill="#D5D5D5"/>
</g>
<defs>
<clipPath id="clip0">
<rect width="130" height="130" fill="white"/>
</clipPath>
</defs>
</svg>
