<svg width="25" height="22" viewBox="0 0 25 22" fill="none" xmlns="http://www.w3.org/2000/svg">
<g clip-path="url(#clip0)">
<path d="M21.3007 13.378C20.3339 13.2547 19.3803 13.0246 18.4688 12.6949C17.4572 12.3281 16.3073 12.5645 15.5361 13.3026L14.5502 14.2567C12.3366 12.9498 10.4748 11.1471 9.12402 9.00379L10.1113 8.04777C10.8713 7.30264 11.1169 6.18817 10.737 5.20916C10.3959 4.32407 10.1581 3.4013 10.0303 2.45937C9.83607 1.12764 8.6506 0.114117 7.25899 0.14542H4.07998C3.99702 0.14542 3.91405 0.149239 3.83239 0.156953C3.09348 0.220832 2.42496 0.560821 1.94946 1.11229C1.47395 1.66504 1.24875 2.36351 1.31651 3.08947C1.67346 6.34536 2.83393 9.51887 4.66878 12.2622C6.33631 14.8037 8.60453 17.0007 11.2244 18.613C14.0478 20.3856 17.3092 21.5098 20.6694 21.8632C20.755 21.8708 20.8406 21.874 20.9289 21.874C21.6711 21.8715 22.3672 21.589 22.8901 21.0772C23.413 20.5672 23.6989 19.8898 23.6963 19.1734V16.1023C23.7269 14.7392 22.7008 13.5692 21.3007 13.378ZM22.3801 16.0965V19.1773C22.3814 19.5544 22.2313 19.9097 21.9567 20.1781C21.6821 20.4464 21.3158 20.5947 20.9279 20.596C20.8805 20.596 20.8331 20.5941 20.7988 20.5915C17.656 20.2611 14.5935 19.2054 11.9361 17.5369C9.47364 16.0217 7.34504 13.9602 5.77761 11.5721C4.05143 8.99166 2.96212 6.01248 2.62755 2.96553C2.59197 2.58975 2.71052 2.22295 2.96011 1.93351C3.21041 1.64339 3.56203 1.46509 3.95194 1.43124C3.99478 1.42742 4.03753 1.42487 4.08037 1.42487H7.26601C7.26995 1.42487 7.27527 1.42487 7.27983 1.42487C8.0043 1.42487 8.62467 1.94504 8.72678 2.63521C8.86709 3.66663 9.1285 4.68398 9.50521 5.66043C9.7041 6.17484 9.57567 6.75956 9.1792 7.14748L7.83366 8.45112C7.62289 8.65436 7.57943 8.96941 7.72631 9.21991C9.29312 11.8879 11.5771 14.0997 14.3314 15.6161C14.5889 15.7573 14.9122 15.7157 15.1217 15.5126L16.4652 14.2121C16.8696 13.8255 17.4736 13.699 18.0083 13.8945C19.014 14.2581 20.0645 14.5112 21.1241 14.6467C21.8585 14.7471 22.3985 15.3637 22.3801 16.0813C22.3801 16.0857 22.3801 16.0914 22.3801 16.0965Z" fill="white" stroke="white" stroke-width="0.5"/>
</g>
<defs>
<clipPath id="clip0">
<rect width="25" height="22" fill="white"/>
</clipPath>
</defs>
</svg>
