<svg width="20" height="20" viewBox="0 0 20 20" fill="none" xmlns="http://www.w3.org/2000/svg">
<g clip-path="url(#clip0)">
<path d="M19.9714 7.70528C19.9025 7.49313 19.7192 7.33852 19.4985 7.30649L13.2984 6.40552L10.5255 0.787294C10.4269 0.587294 10.2232 0.460693 10.0002 0.460693C9.77711 0.460693 9.57344 0.587294 9.47473 0.787294L6.70177 6.40552L0.501795 7.30649C0.281131 7.33852 0.0977337 7.49313 0.0288277 7.70524C-0.0401173 7.91739 0.0173825 8.15024 0.177108 8.3059L4.66334 12.6791L3.60444 18.8542C3.5667 19.074 3.65709 19.2961 3.83752 19.4273C3.93959 19.5014 4.06049 19.5391 4.18198 19.5391C4.27526 19.5391 4.36885 19.5169 4.45455 19.4718L10.0001 16.5563L15.5454 19.4718C15.7429 19.5756 15.9821 19.5583 16.1625 19.4272C16.3429 19.2961 16.4334 19.0739 16.3957 18.8541L15.3364 12.6791L19.8232 8.30586C19.9829 8.15024 20.0404 7.91739 19.9714 7.70528Z" fill="#ED2024"/>
</g>
<defs>
<clipPath id="clip0">
<rect width="20" height="20" fill="white"/>
</clipPath>
</defs>
</svg>
