<svg width="14" height="14" viewBox="0 0 14 14" fill="none" xmlns="http://www.w3.org/2000/svg">
<path d="M13.0927 14C13.3249 14 13.5572 13.9111 13.7339 13.7343C14.0887 13.3797 14.0887 12.8063 13.7339 12.4517L1.5486 0.265953C1.194 -0.088651 0.62067 -0.088651 0.266074 0.265953C-0.0886879 0.620557 -0.0886879 1.1939 0.266074 1.54851L12.4514 13.7343C12.6293 13.912 12.8605 14 13.0927 14Z" fill="#E20613"/>
<path d="M0.907337 14C1.13953 14 1.37172 13.9111 1.5486 13.7343L13.7339 1.54851C14.0887 1.1939 14.0887 0.620557 13.7339 0.265953C13.3793 -0.088651 12.8062 -0.088651 12.4514 0.265953L0.266074 12.4517C-0.0886879 12.8063 -0.0886879 13.3797 0.266074 13.7343C0.442957 13.912 0.675147 14 0.907337 14Z" fill="#E20613"/>
</svg>
