<svg width="16" height="16" viewBox="0 0 16 16" fill="none" xmlns="http://www.w3.org/2000/svg">
<path d="M14.963 16C15.2284 16 15.494 15.8984 15.6959 15.6963C16.1014 15.291 16.1014 14.6358 15.6959 14.2305L1.76982 0.303946C1.36457 -0.101315 0.709333 -0.101315 0.304081 0.303946C-0.101362 0.709208 -0.101362 1.36446 0.304081 1.76972L14.2302 15.6963C14.4335 15.8994 14.6977 16 14.963 16Z" fill="#8B8B8B"/>
<path d="M1.03695 16C1.30231 16 1.56767 15.8984 1.76982 15.6963L15.6959 1.76972C16.1014 1.36446 16.1014 0.709208 15.6959 0.303946C15.2907 -0.101315 14.6356 -0.101315 14.2302 0.303946L0.304081 14.2305C-0.101362 14.6358 -0.101362 15.291 0.304081 15.6963C0.506232 15.8994 0.771593 16 1.03695 16Z" fill="#8B8B8B"/>
</svg>
