<svg width="110" height="110" viewBox="0 0 110 110" fill="none" xmlns="http://www.w3.org/2000/svg">
<path d="M34.7924 26.9844C34.3928 26.5847 33.8385 26.3549 33.2734 26.3549C32.7084 26.3549 32.1541 26.5847 31.7545 26.9844C31.3551 27.384 31.125 27.9383 31.125 28.5033C31.125 29.0683 31.3549 29.6226 31.7545 30.0222C32.1541 30.4221 32.7084 30.6517 33.2734 30.6517C33.8385 30.6517 34.3928 30.4218 34.7924 30.0222C35.1918 29.6226 35.4219 29.0683 35.4219 28.5033C35.4219 27.9383 35.192 27.384 34.7924 26.9844Z" fill="#B0B0B0"/>
<path d="M109.372 8.9919L106.715 6.33235L109.371 3.67667C110.21 2.83771 110.21 1.47731 109.371 0.638135C108.532 -0.20083 107.172 -0.20083 106.332 0.638135L103.678 3.2921L101.061 0.671435C100.658 0.268389 100.112 0.0415137 99.5418 0.0412988L63.1787 0.0211035C63.1765 0.0211035 63.1746 0.0211035 63.1727 0.0211035C60.3013 0.0211035 57.6018 1.13915 55.5713 3.16964L37.4256 21.3153C36.5866 22.1543 36.5866 23.5147 37.4256 24.3539C38.2647 25.1928 39.6247 25.1928 40.4641 24.3539L58.6098 6.20817C59.8288 4.98915 61.449 4.31819 63.1727 4.31819C63.1739 4.31819 63.1752 4.31819 63.1763 4.31819L98.6494 4.33796L100.64 6.33085L92.6685 14.3024C89.2882 12.2777 84.8317 12.7192 81.9219 15.6286C80.2596 17.2911 79.3442 19.5012 79.3442 21.852C79.3442 24.2028 80.2596 26.4129 81.9219 28.0754C83.6376 29.7911 85.8915 30.649 88.1455 30.649C90.3992 30.649 92.6529 29.7911 94.3688 28.0754C97.2739 25.1701 97.7185 20.7224 95.7043 17.3437L103.677 9.3711L105.703 11.3994L105.683 46.8244C105.682 48.5466 105.011 50.1658 103.793 51.3838L51.3661 103.81C50.1473 105.029 48.5268 105.7 46.8033 105.7C45.0798 105.7 43.4592 105.029 42.2404 103.81L6.18707 67.7566C4.96805 66.5378 4.29688 64.9172 4.29688 63.1938C4.29688 61.4703 4.96805 59.8497 6.18707 58.6309L29.3459 35.472C30.1849 34.6331 30.1849 33.2727 29.3459 32.4335C28.5068 31.5945 27.1468 31.5945 26.3074 32.4335L3.14854 55.5924C1.11826 57.6226 0 60.3224 0 63.1938C0 66.0651 1.11826 68.7649 3.14854 70.7951L39.2019 106.849C41.2977 108.944 44.0503 109.992 46.8033 109.992C49.5563 109.992 52.3089 108.944 54.4047 106.849L106.831 54.4219C108.86 52.3931 109.978 49.6956 109.98 46.8263L110 10.5113C110 9.94151 109.774 9.39495 109.372 8.9919ZM91.3303 25.0366C90.4795 25.8874 89.3484 26.356 88.1455 26.356C86.9421 26.356 85.8112 25.8874 84.9604 25.0366C83.204 23.2805 83.204 20.4229 84.9604 18.6667C85.8387 17.7885 86.9917 17.3495 88.1455 17.3495C88.5799 17.3495 89.0141 17.4121 89.4339 17.5367L86.9541 20.0164C86.1152 20.8554 86.1152 22.2157 86.9541 23.0549C87.3737 23.4745 87.9235 23.6842 88.4733 23.6842C89.0231 23.6842 89.5729 23.4745 89.9925 23.0549L92.4653 20.5821C92.912 22.1115 92.5341 23.8329 91.3303 25.0366Z" fill="#B0B0B0"/>
<path d="M91.7731 43.2616L66.7354 18.2237C63.4187 14.907 58.0216 14.9074 54.7052 18.2237L15.0836 57.8456C13.4767 59.4523 12.5918 61.5884 12.5918 63.8606C12.5918 66.1328 13.4765 68.2692 15.0833 69.8758L40.1212 94.9133C41.728 96.5201 43.864 97.4051 46.1362 97.4051C48.4084 97.4051 50.5448 96.5203 52.1512 94.9135L91.7731 55.2916C93.3799 53.6848 94.2646 51.5488 94.2646 49.2766C94.2646 47.0044 93.3799 44.8682 91.7731 43.2616ZM88.7346 52.2531L49.1129 91.8754C48.3179 92.6703 47.2607 93.1082 46.1364 93.1082C45.0121 93.1082 43.9549 92.6703 43.16 91.8752L18.1219 66.8375C17.3267 66.0424 16.8889 64.9853 16.8889 63.8609C16.8887 62.7364 17.3267 61.6791 18.1219 60.8842L57.7438 21.2623C58.5645 20.4416 59.6424 20.0312 60.7204 20.0312C61.7983 20.0312 62.8764 20.4418 63.6969 21.2623L88.7346 46.2999C89.5297 47.0951 89.9676 48.1521 89.9676 49.2766C89.9676 50.4009 89.5297 51.4581 88.7346 52.2531Z" fill="#B0B0B0"/>
<path d="M70.0559 42.9864C70.8949 42.1474 70.8949 40.787 70.0559 39.9478C69.2167 39.1089 67.8568 39.1089 67.0174 39.9478L65.7803 41.1849C62.4771 39.1445 58.2387 39.4185 55.5593 42.0973C53.9972 43.6595 53.198 45.7808 53.3089 48.0704C53.4161 50.2816 54.3682 52.3924 55.9897 54.0139C55.9899 54.0141 55.9901 54.0141 55.9901 54.0143C57.7181 55.7431 57.911 58.3625 56.42 59.8535C54.9283 61.3448 52.3085 61.1516 50.5799 59.4234C48.8513 57.6946 48.6583 55.0748 50.1496 53.5833C50.9885 52.7444 50.9885 51.384 50.1496 50.5448C49.3104 49.7058 47.9504 49.7058 47.111 50.5448C44.4319 53.2239 44.1582 57.4623 46.1986 60.7658L44.7308 62.2334C43.8918 63.0723 43.8918 64.4327 44.7308 65.2719C45.1515 65.6919 45.7012 65.9016 46.251 65.9016C46.801 65.9016 47.3506 65.6917 47.7702 65.2723L49.2389 63.8036C50.6822 64.695 52.3034 65.1466 53.8958 65.1466C55.9473 65.1464 57.9503 64.4003 59.4588 62.8921C62.6247 59.7259 62.4322 54.3817 59.0301 50.9775C59.0295 50.9768 59.0291 50.9762 59.0284 50.9755C58.1635 50.1106 57.6564 49.0052 57.601 47.8625C57.5497 46.7986 57.9035 45.8303 58.5981 45.1359C60.0891 43.6446 62.7085 43.8376 64.4373 45.5656C64.4375 45.5658 64.4375 45.566 64.4378 45.5662C64.438 45.5664 64.4382 45.5664 64.4382 45.5664C66.1664 47.2953 66.3591 49.9146 64.8679 51.4059C64.0289 52.2448 64.0289 53.6052 64.8679 54.4444C65.2875 54.864 65.8373 55.0737 66.387 55.0737C66.9368 55.0737 67.4866 54.864 67.9062 54.4444C70.5853 51.7651 70.8592 47.5267 68.8189 44.2234L70.0559 42.9864Z" fill="#B0B0B0"/>
<path d="M48.3117 78.6041L37.2771 67.5693C36.4382 66.731 35.0782 66.7306 34.2386 67.5693C33.3996 68.4083 33.3996 69.7687 34.2386 70.6079L45.2734 81.6427C45.693 82.0621 46.2428 82.2719 46.7926 82.2719C47.3423 82.2719 47.8921 82.0621 48.3117 81.6427C49.1507 80.8037 49.1507 79.4433 48.3117 78.6041Z" fill="#B0B0B0"/>
<path d="M31.3918 61.6838C30.9924 61.2844 30.44 61.0543 29.873 61.0543C29.308 61.0543 28.7559 61.2842 28.3541 61.6838C27.9545 62.0834 27.7246 62.6377 27.7246 63.2049C27.7246 63.77 27.9543 64.3243 28.3541 64.7239C28.7537 65.1235 29.308 65.3534 29.873 65.3534C30.4402 65.3534 30.9924 65.1235 31.3918 64.7239C31.7935 64.3221 32.0234 63.77 32.0234 63.2049C32.0234 62.6377 31.7935 62.0856 31.3918 61.6838Z" fill="#B0B0B0"/>
</svg>
