<svg width="11" height="20" viewBox="0 0 11 20" fill="none" xmlns="http://www.w3.org/2000/svg">
<g clip-path="url(#clip0)">
<path d="M0.965921 11.118C0.898223 11.247 0.900964 11.4048 0.97297 11.5314L5.17438 18.895C5.24387 19.0165 5.36735 19.0908 5.50034 19.0908C5.63333 19.0908 5.75681 19.0165 5.82635 18.895L10.0277 11.5314C10.065 11.4659 10.0837 11.3921 10.0837 11.3181C10.0837 11.2494 10.0674 11.1802 10.0348 11.118C9.96723 10.9889 9.83989 10.909 9.7017 10.909H1.29898C1.16079 10.9091 1.03345 10.9889 0.965921 11.118ZM9.02063 11.7272L5.50034 17.8971L1.98005 11.7272H9.02063Z" fill="#E20613" stroke="#E20613" stroke-width="0.35"/>
<path d="M5.17426 1.10478L0.97289 8.46838C0.901107 8.59458 0.898142 8.75236 0.96584 8.88186C1.03337 9.01094 1.16071 9.09082 1.2989 9.09082H9.7017C9.83989 9.09082 9.96723 9.01094 10.0348 8.88186C10.0674 8.8196 10.0837 8.75045 10.0837 8.68171C10.0837 8.60776 10.065 8.53394 10.0277 8.46838L5.82634 1.10478C5.75685 0.98337 5.63337 0.909003 5.50033 0.909003C5.36728 0.909003 5.24386 0.983251 5.17426 1.10478ZM9.02052 8.2726H1.97997L5.50027 2.10271L9.02052 8.2726Z" fill="#E20613" stroke="#E20613" stroke-width="0.35"/>
</g>
<defs>
<clipPath id="clip0">
<rect width="20" height="11" fill="white" transform="translate(0 20) rotate(-90)"/>
</clipPath>
</defs>
</svg>
