<svg width="78" height="78" viewBox="0 0 78 78" fill="none" xmlns="http://www.w3.org/2000/svg">
<path d="M1.21875 24.375L1.21875 53.625C1.22056 55.2406 1.86317 56.7895 3.00557 57.9319C4.14798 59.0743 5.69689 59.7169 7.3125 59.7188L70.6875 59.7188C72.3031 59.7169 73.852 59.0743 74.9944 57.9319C76.1368 56.7895 76.7794 55.2406 76.7812 53.625V24.375C76.7794 22.7594 76.1368 21.2105 74.9944 20.0681C73.852 18.9257 72.3031 18.2831 70.6875 18.2813L7.3125 18.2812C5.69689 18.2831 4.14798 18.9257 3.00557 20.0681C1.86317 21.2105 1.22056 22.7594 1.21875 24.375V24.375ZM3.65625 30.7366L7.3125 31.4678L7.3125 46.532L3.65625 47.2633L3.65625 30.7366ZM70.6875 20.7188C71.6569 20.7198 72.5862 21.1054 73.2717 21.7908C73.9571 22.4763 74.3427 23.4056 74.3438 24.375V53.625C74.3427 54.5944 73.9571 55.5237 73.2717 56.2092C72.5862 56.8946 71.6569 57.2802 70.6875 57.2813L7.3125 57.2812C6.34314 57.2802 5.41379 56.8946 4.72834 56.2092C4.0429 55.5237 3.65734 54.5944 3.65625 53.625V49.7492L8.77028 48.7264C9.04656 48.6711 9.29516 48.5219 9.47378 48.304C9.6524 48.0861 9.75001 47.813 9.75 47.5312L9.75 30.4688C9.75001 30.187 9.6524 29.9139 9.47378 29.696C9.29516 29.4781 9.04656 29.3289 8.77028 29.2736L3.65625 28.2508L3.65625 24.375C3.65734 23.4056 4.0429 22.4763 4.72834 21.7908C5.41379 21.1054 6.34314 20.7198 7.3125 20.7188L70.6875 20.7188Z" fill="#ED2024"/>
<path d="M69.4688 46.3125V53.625C69.4688 53.9482 69.5972 54.2582 69.8257 54.4868C70.0543 54.7153 70.3643 54.8438 70.6875 54.8438C71.0107 54.8438 71.3207 54.7153 71.5493 54.4868C71.7778 54.2582 71.9062 53.9482 71.9062 53.625V46.3125C71.9062 45.9893 71.7778 45.6793 71.5493 45.4507C71.3207 45.2222 71.0107 45.0938 70.6875 45.0938C70.3643 45.0938 70.0543 45.2222 69.8257 45.4507C69.5972 45.6793 69.4688 45.9893 69.4688 46.3125Z" fill="#ED2024"/>
<path d="M69.4688 41.4375V42.6562C69.4688 42.9795 69.5972 43.2895 69.8257 43.518C70.0543 43.7466 70.3643 43.875 70.6875 43.875C71.0107 43.875 71.3207 43.7466 71.5493 43.518C71.7778 43.2895 71.9062 42.9795 71.9062 42.6562V41.4375C71.9062 41.1143 71.7778 40.8043 71.5493 40.5757C71.3207 40.3472 71.0107 40.2188 70.6875 40.2188C70.3643 40.2188 70.0543 40.3472 69.8257 40.5757C69.5972 40.8043 69.4688 41.1143 69.4688 41.4375Z" fill="#ED2024"/>
<path d="M32.9544 43.9807H32.956C32.9573 43.9807 32.9586 43.9805 32.9599 43.9805H51.0195C51.4641 43.9805 51.8551 43.6855 51.9772 43.258L55.9616 29.3127C56.0475 29.0121 55.9873 28.6889 55.7992 28.4393C55.6109 28.1898 55.3165 28.043 55.0039 28.043H30.6572L29.9451 24.8386C29.8437 24.3828 29.4396 24.0586 28.9727 24.0586H22.9961C22.4459 24.0586 22 24.5045 22 25.0547C22 25.6049 22.4459 26.0508 22.9961 26.0508H28.1737C28.2998 26.6186 31.5812 41.3852 31.77 42.2347C30.7114 42.6949 29.9688 43.7504 29.9688 44.9766C29.9688 46.6243 31.3093 47.9648 32.957 47.9648H51.0195C51.5697 47.9648 52.0156 47.5189 52.0156 46.9688C52.0156 46.4186 51.5697 45.9727 51.0195 45.9727H32.957C32.4079 45.9727 31.9609 45.5257 31.9609 44.9766C31.9609 44.4282 32.4063 43.982 32.9544 43.9807ZM53.6833 30.0352L50.2681 41.9883H33.756L31.0997 30.0352H53.6833Z" fill="#ED2024"/>
<path d="M31.9609 50.9531C31.9609 52.6008 33.3015 53.9414 34.9492 53.9414C36.5969 53.9414 37.9375 52.6008 37.9375 50.9531C37.9375 49.3054 36.5969 47.9648 34.9492 47.9648C33.3015 47.9648 31.9609 49.3054 31.9609 50.9531ZM34.9492 49.957C35.4984 49.957 35.9453 50.404 35.9453 50.9531C35.9453 51.5023 35.4984 51.9492 34.9492 51.9492C34.4001 51.9492 33.9531 51.5023 33.9531 50.9531C33.9531 50.404 34.4001 49.957 34.9492 49.957Z" fill="#ED2024"/>
<path d="M46.0391 50.9531C46.0391 52.6008 47.3796 53.9414 49.0273 53.9414C50.675 53.9414 52.0156 52.6008 52.0156 50.9531C52.0156 49.3054 50.675 47.9648 49.0273 47.9648C47.3796 47.9648 46.0391 49.3054 46.0391 50.9531ZM49.0273 49.957C49.5765 49.957 50.0234 50.404 50.0234 50.9531C50.0234 51.5023 49.5765 51.9492 49.0273 51.9492C48.4782 51.9492 48.0312 51.5023 48.0312 50.9531C48.0312 50.404 48.4782 49.957 49.0273 49.957Z" fill="#ED2024"/>
</svg>
