<svg width="71" height="41" viewBox="0 0 71 41" fill="none" xmlns="http://www.w3.org/2000/svg">
<path d="M67.4812 11.518H66.0706V6.27554C66.0706 3.17636 63.5493 0.655029 60.4501 0.655029H40.0805C38.1922 0.655029 36.5197 1.59203 35.5 3.02438C34.4803 1.5919 32.8078 0.655029 30.9195 0.655029H18.1226C17.5482 0.655029 17.0826 1.12069 17.0826 1.69507C17.0826 2.26945 17.5482 2.73511 18.1226 2.73511H30.9195C32.8717 2.73511 34.46 4.32332 34.46 6.27554V16.6773C34.4382 16.6564 34.4152 16.6368 34.3931 16.6162C33.1603 15.4667 31.4895 14.8041 29.8029 14.8041H12.4789C12.3873 13.4077 11.4353 12.1795 10.1217 11.7138C9.75154 11.5827 9.36021 11.518 8.96763 11.518H7.00945V6.27554C7.00945 4.32332 8.59766 2.73511 10.5499 2.73511H13.9625C14.5368 2.73511 15.0025 2.26945 15.0025 1.69507C15.0025 1.12069 14.5368 0.655029 13.9625 0.655029H10.5499C7.4507 0.655029 4.92937 3.17636 4.92937 6.27554V11.518H3.5188C1.5785 11.518 0 13.0968 0 15.0368V25.8964C0 29.937 3.28736 33.2243 7.32798 33.2243H7.85063C7.85063 33.2243 6.71186 36.2873 6.71103 36.2897C5.99257 38.2219 7.47136 40.3446 9.52953 40.3446H11.2027C12.1393 40.3446 13.0358 39.8986 13.6009 39.1516L18.0843 33.2243H52.9159L57.3993 39.1517C57.9644 39.8986 58.8609 40.3446 59.7974 40.3446C59.7974 40.3446 61.4695 40.3446 61.4705 40.3446C63.5311 40.3446 65.0073 38.2215 64.289 36.2897L63.1492 33.2243H63.672C67.7126 33.2243 71 29.937 71 25.8964V15.0368C71 13.0968 69.4215 11.518 67.4812 11.518ZM36.54 6.27582C36.54 4.32346 38.1283 2.73525 40.0805 2.73525H60.4501C62.4023 2.73525 63.9906 4.32346 63.9906 6.27568V11.5182C63.9906 11.5182 62.0329 11.5182 62.0322 11.5182C60.6494 11.5182 59.3229 12.4057 58.7865 13.679C58.6363 14.0355 58.5463 14.4185 58.5211 14.8044C58.5211 14.8044 41.1976 14.8044 41.1971 14.8044C39.4845 14.8044 37.7775 15.4935 36.54 16.6776V6.27582ZM12.4866 16.8844H29.8029C32.3709 16.8845 34.46 18.9736 34.46 21.5415V23.0204H12.4866V16.8844ZM11.942 37.8968C11.7678 38.1271 11.4913 38.2645 11.2026 38.2645C11.2026 38.2645 9.53522 38.2645 9.52939 38.2645C8.89261 38.2645 8.43874 37.6112 8.66061 37.0147L10.0698 33.2243H15.4761L11.942 37.8968ZM61.4705 38.2644H59.7974C59.5087 38.2644 59.2323 38.1269 59.0581 37.8968L55.5239 33.2243H60.9302C60.9302 33.2243 62.3345 37.0013 62.3394 37.0145C62.5617 37.6125 62.1046 38.2644 61.4705 38.2644ZM63.672 31.1443H7.32798C4.43431 31.1444 2.08008 28.79 2.08008 25.8964V15.0368C2.08008 14.2435 2.72546 13.5981 3.5188 13.5981H8.96763C9.76097 13.5981 10.4064 14.2435 10.4064 15.0368V24.0603C10.4064 24.6347 10.872 25.1004 11.4464 25.1004H49.6473C50.2217 25.1004 50.6873 24.6347 50.6873 24.0603C50.6873 23.486 50.2217 23.0203 49.6473 23.0203H36.54V21.5414C36.54 18.9734 38.6291 16.8844 41.1971 16.8844H58.5134V23.0204H53.8075C53.2331 23.0204 52.7674 23.4861 52.7674 24.0605C52.7674 24.6349 53.2331 25.1005 53.8075 25.1005H59.5535C60.1278 25.1005 60.5935 24.6349 60.5935 24.0605V15.037C60.5935 14.2436 61.2389 13.5982 62.0322 13.5982H67.4811C68.2744 13.5982 68.9198 14.2436 68.9198 15.037V25.8964H68.9199C68.9199 28.79 66.5657 31.1443 63.672 31.1443Z" fill="#ED2024"/>
</svg>
