<svg width="16" height="15" viewBox="0 0 16 15" fill="none" xmlns="http://www.w3.org/2000/svg">
<g clip-path="url(#clip0)">
<path d="M4.12412 14.0436C3.96708 14.0436 3.81114 13.9946 3.67805 13.8983C3.43014 13.7187 3.31433 13.4098 3.3818 13.1118L4.3039 9.04998L1.17672 6.30751C0.946849 6.10684 0.859035 5.78905 0.95341 5.49827C1.04779 5.20803 1.30456 5.00255 1.60857 4.97445L5.74622 4.5988L7.3821 0.770527C7.50272 0.48926 7.77742 0.307617 8.08264 0.307617C8.38786 0.307617 8.66256 0.48926 8.78319 0.769871L10.4191 4.5988L14.5561 4.97445C14.8607 5.0019 15.1175 5.20803 15.2119 5.49827C15.3062 5.7885 15.219 6.10684 14.9891 6.30751L11.8619 9.04943L12.784 13.1112C12.8516 13.4098 12.7357 13.7187 12.4879 13.8978C12.2406 14.0769 11.9109 14.0907 11.6505 13.9342L8.08264 11.8021L4.51474 13.9354C4.39412 14.007 4.25972 14.0436 4.12412 14.0436V14.0436ZM8.08264 10.8836C8.21824 10.8836 8.35254 10.92 8.47327 10.9916L11.8405 13.0055L10.9702 9.1718C10.9081 8.89896 11.0007 8.61408 11.2116 8.42949L14.1643 5.8399L10.2578 5.48515C9.97649 5.45945 9.7346 5.28262 9.62469 5.02344L8.08264 1.41071L6.53873 5.02399C6.43003 5.28141 6.18813 5.45824 5.90752 5.48394L2.0004 5.8387L4.95305 8.42828C5.16455 8.61343 5.25706 8.89775 5.1944 9.17126L4.32479 13.0049L7.69202 10.9916C7.81264 10.92 7.94704 10.8836 8.08264 10.8836V10.8836ZM5.71462 4.67284C5.71462 4.67284 5.71462 4.67349 5.71396 4.67404L5.71462 4.67284ZM10.4495 4.67109L10.4501 4.67229C10.4501 4.67164 10.4501 4.67164 10.4495 4.67109Z" fill="#ED2024"/>
</g>
<defs>
<clipPath id="clip0">
<rect width="14.3333" height="14.3333" fill="white" transform="translate(0.916016)"/>
</clipPath>
</defs>
</svg>
