<svg width="29" height="29" viewBox="0 0 29 29" fill="none" xmlns="http://www.w3.org/2000/svg">
<g clip-path="url(#clip0)">
<path d="M21.9035 17.2407C19.8878 17.2407 18.248 18.8805 18.248 20.8962C18.248 22.9119 19.8878 24.5517 21.9035 24.5517C23.9195 24.5517 25.559 22.9119 25.559 20.8962C25.559 18.8805 23.9192 17.2407 21.9035 17.2407ZM21.9035 22.7239C20.8955 22.7239 20.0758 21.9042 20.0758 20.8962C20.0758 19.8882 20.8955 19.0685 21.9035 19.0685C22.9115 19.0685 23.7313 19.8882 23.7313 20.8962C23.7313 21.9042 22.9115 22.7239 21.9035 22.7239Z" fill="#ffffff" stroke="#ffffff" stroke-width="0.3"/>
<path d="M9.41329 17.2407C7.39762 17.2407 5.75781 18.8805 5.75781 20.8962C5.75781 22.9119 7.39762 24.5517 9.41329 24.5517C11.429 24.5517 13.0688 22.9119 13.0688 20.8962C13.0688 18.8805 11.429 17.2407 9.41329 17.2407ZM9.41329 22.7239C8.40531 22.7239 7.58555 21.9042 7.58555 20.8962C7.58555 19.8882 8.40531 19.0685 9.41329 19.0685C10.421 19.0685 11.241 19.8882 11.241 20.8962C11.241 21.9042 10.4213 22.7239 9.41329 22.7239Z" fill="#ffffff" stroke="#ffffff" stroke-width="0.3"/>
<path d="M24.3641 6.77864C24.2087 6.47006 23.8929 6.27539 23.5474 6.27539H18.7344V8.10313H22.9838L25.4723 13.0526L27.1057 12.2313L24.3641 6.77864Z" fill="#ffffff" stroke="#ffffff" stroke-width="0.3"/>
<path d="M19.161 20.0142H12.2461V21.8419H19.161V20.0142Z" fill="#ffffff" stroke="#ffffff" stroke-width="0.3"/>
<path d="M6.67171 20.0142H3.50368C2.9989 20.0142 2.58984 20.4233 2.58984 20.928C2.58984 21.4328 2.99896 21.8418 3.50368 21.8418H6.67176C7.17654 21.8418 7.5856 21.4327 7.5856 20.928C7.5856 20.4232 7.17649 20.0142 6.67171 20.0142Z" fill="#ffffff" stroke="#ffffff" stroke-width="0.3"/>
<path d="M28.8086 14.4262L27.0111 12.111C26.8384 11.8881 26.5718 11.7577 26.2894 11.7577H19.6486V5.36062C19.6486 4.85584 19.2395 4.44678 18.7348 4.44678H3.50368C2.9989 4.44678 2.58984 4.85589 2.58984 5.36062C2.58984 5.86534 2.99896 6.27446 3.50368 6.27446H17.8209V12.6715C17.8209 13.1763 18.23 13.5853 18.7347 13.5853H25.8419L27.1728 15.2997V20.0129H24.6444C24.1396 20.0129 23.7306 20.422 23.7306 20.9267C23.7306 21.4315 24.1397 21.8405 24.6444 21.8405H28.0866C28.5914 21.8405 29.0005 21.4314 29.0005 20.9267V14.9867C29.0005 14.7838 28.9329 14.5864 28.8086 14.4262Z" fill="#ffffff" stroke="#ffffff" stroke-width="0.3"/>
<path d="M6.60984 15.3843H2.40603C1.90125 15.3843 1.49219 15.7934 1.49219 16.2981C1.49219 16.8029 1.9013 17.212 2.40603 17.212H6.60978C7.11456 17.212 7.52362 16.8028 7.52362 16.2981C7.52368 15.7934 7.11456 15.3843 6.60984 15.3843Z" fill="#ffffff"/>
<path d="M8.71218 11.7891H0.91384C0.409115 11.7891 0 12.1982 0 12.703C0 13.2077 0.409115 13.6168 0.91384 13.6168H8.71218C9.21696 13.6168 9.62602 13.2077 9.62602 12.703C9.62602 12.1982 9.21696 11.7891 8.71218 11.7891Z" fill="#ffffff"/>
<path d="M10.2044 8.19482H2.40603C1.90125 8.19482 1.49219 8.60394 1.49219 9.10866C1.49219 9.61344 1.9013 10.0225 2.40603 10.0225H10.2044C10.7091 10.0225 11.1182 9.61339 11.1182 9.10866C11.1183 8.60394 10.7091 8.19482 10.2044 8.19482Z" fill="#ffffff"/>
</g>
<defs>
<clipPath id="clip0">
<rect width="29" height="29" fill="white"/>
</clipPath>
</defs>
</svg>
