<svg width="62" height="63" viewBox="0 0 62 63" fill="none" xmlns="http://www.w3.org/2000/svg">
<path d="M61.0881 56.3367H58.0811V20.227C58.0811 20.0814 58.0462 19.9378 57.9795 19.8084C57.9127 19.6789 57.8159 19.5673 57.6972 19.4828L31.5292 0.889286C31.3747 0.779616 31.1899 0.720703 31.0004 0.720703C30.8109 0.720703 30.6261 0.779616 30.4716 0.889286L4.30354 19.4828C4.18484 19.5673 4.08806 19.6789 4.02129 19.8084C3.95452 19.9378 3.91969 20.0814 3.9197 20.227V56.3367H0.91265C0.79278 56.3366 0.674072 56.3602 0.563313 56.406C0.452554 56.4519 0.351917 56.5191 0.267156 56.6039C0.182395 56.6886 0.115173 56.7893 0.0693319 56.9C0.0234912 57.0108 -6.84069e-05 57.1295 1.49188e-07 57.2494V61.8069C-6.84069e-05 61.9268 0.0234912 62.0455 0.0693319 62.1562C0.115173 62.267 0.182395 62.3676 0.267156 62.4524C0.351917 62.5371 0.452554 62.6044 0.563313 62.6502C0.674072 62.696 0.79278 62.7196 0.91265 62.7195H61.0881C61.208 62.7196 61.3267 62.696 61.4375 62.6502C61.5482 62.6044 61.6488 62.5371 61.7336 62.4524C61.8184 62.3676 61.8856 62.267 61.9314 62.1562C61.9773 62.0455 62.0008 61.9268 62.0008 61.8069V57.2494C62.0008 57.1295 61.9773 57.0108 61.9314 56.9C61.8856 56.7893 61.8184 56.6886 61.7336 56.6039C61.6488 56.5191 61.5482 56.4519 61.4375 56.406C61.3267 56.3602 61.208 56.3366 61.0881 56.3367ZM5.745 20.698L31.0004 2.75318L56.2558 20.698V56.3367H52.4065V25.9408C52.4065 25.8209 52.383 25.7022 52.3371 25.5914C52.2913 25.4807 52.2241 25.38 52.1393 25.2953C52.0545 25.2105 51.9539 25.1433 51.8431 25.0974C51.7324 25.0516 51.6137 25.028 51.4938 25.0281H10.5049C10.385 25.028 10.2663 25.0516 10.1555 25.0974C10.0448 25.1433 9.94413 25.2105 9.85937 25.2953C9.77461 25.38 9.70739 25.4807 9.66155 25.5914C9.61571 25.7022 9.59215 25.8209 9.59222 25.9408V56.3367H5.745V20.698ZM43.7389 56.3367V45.4251C43.7389 45.183 43.6427 44.9509 43.4716 44.7797C43.3004 44.6086 43.0683 44.5124 42.8262 44.5124H37.826V33.5987C37.826 33.3566 37.7298 33.1245 37.5587 32.9533C37.3875 32.7822 37.1554 32.686 36.9133 32.686H25.0875C24.8454 32.686 24.6133 32.7822 24.4421 32.9533C24.271 33.1245 24.1748 33.3566 24.1748 33.5987V44.5124H19.1745C18.9325 44.5124 18.7003 44.6086 18.5292 44.7797C18.358 44.9509 18.2619 45.183 18.2619 45.4251V56.3367H11.4196V26.8534H50.5812V56.3367H43.7389ZM20.0872 56.3367V49.9654H30.0877V56.3367H20.0872ZM41.9136 48.1401H31.913V46.3377H41.9136V48.1401ZM36.0007 36.3142H26.0001V34.5119H36.0007V36.3142ZM26.0001 38.1395H36.0007V44.5124H26.0001V38.1395ZM30.0877 46.3377V48.1401H20.0872V46.3377H30.0877ZM31.913 49.9654H41.9136V56.3367H31.913V49.9654ZM60.1755 60.8963H1.8253V58.162H60.1755V60.8963Z" fill="#ED2024"/>
<path d="M27.4439 22.9328H34.5542C34.7963 22.9328 35.0284 22.8366 35.1996 22.6654C35.3707 22.4943 35.4669 22.2622 35.4669 22.0201V18.4336C35.4667 18.1916 35.3705 17.9596 35.1994 17.7885C35.0283 17.6173 34.7962 17.5211 34.5542 17.521H27.4439C27.2019 17.5211 26.9698 17.6173 26.7987 17.7885C26.6276 17.9596 26.5314 18.1916 26.5312 18.4336V22.0211C26.5315 22.263 26.6278 22.4949 26.7989 22.6658C26.9701 22.8367 27.202 22.9328 27.4439 22.9328ZM28.3566 19.3463H33.6416V21.1075H28.3566V19.3463Z" fill="#ED2024"/>
<path d="M38.3345 22.9328H45.4438C45.6859 22.9328 45.918 22.8366 46.0891 22.6654C46.2603 22.4943 46.3565 22.2622 46.3565 22.0201V18.4336C46.3563 18.1916 46.2601 17.9596 46.089 17.7885C45.9179 17.6173 45.6858 17.5211 45.4438 17.521H38.3345C38.0925 17.5211 37.8605 17.6173 37.6893 17.7885C37.5182 17.9596 37.422 18.1916 37.4219 18.4336V22.0211C37.4222 22.263 37.5184 22.4949 37.6896 22.6658C37.8607 22.8367 38.0927 22.9328 38.3345 22.9328ZM39.2472 19.3463H44.5317V21.1075H39.2472V19.3463Z" fill="#ED2024"/>
<path d="M16.5533 22.9328H23.6626C23.9046 22.9328 24.1367 22.8366 24.3079 22.6654C24.4791 22.4943 24.5752 22.2622 24.5752 22.0201V18.4336C24.5751 18.1916 24.4789 17.9596 24.3077 17.7885C24.1366 17.6173 23.9046 17.5211 23.6626 17.521H16.5533C16.3113 17.5211 16.0792 17.6173 15.9081 17.7885C15.737 17.9596 15.6408 18.1916 15.6406 18.4336V22.0211C15.6409 22.263 15.7372 22.4949 15.9083 22.6658C16.0794 22.8367 16.3114 22.9328 16.5533 22.9328ZM17.4659 19.3463H22.7499V21.1075H17.4654L17.4659 19.3463Z" fill="#ED2024"/>
</svg>
