<svg width="89" height="89" viewBox="0 0 89 89" fill="none" xmlns="http://www.w3.org/2000/svg">
<path d="M87.1663 22.7014C86.1403 18.908 83.1343 15.9179 79.3223 14.8964C72.3577 13 44.4991 13 44.4991 13C44.4991 13 16.6413 13 9.67662 14.8241C5.93797 15.8449 2.85865 18.9087 1.83266 22.7014C0 29.6303 0 44 0 44C0 44 0 58.442 1.83266 65.2986C2.85932 69.0913 5.86464 72.0821 9.6773 73.1036C16.7146 75 44.4998 75 44.4998 75C44.4998 75 72.3577 75 79.3223 73.1759C83.135 72.1551 86.1403 69.1643 87.167 65.3715C88.9996 58.442 88.9996 44.073 88.9996 44.073C88.9996 44.073 89.073 29.6303 87.1663 22.7014Z" fill="#FF0000"/>
<path d="M35 58L58 44.5L35 31V58Z" fill="white"/>
</svg>
